<svg xmlns="http://www.w3.org/2000/svg" xmlns:xlink="http://www.w3.org/1999/xlink" viewBox="0 0 1284.39 1286.31"><defs><style>.cls-1{font-size:120px;font-family:Arial-Black, Arial Black;font-weight:800;}.cls-1,.cls-4,.cls-5{fill:none;}.cls-2{fill:#25234c;}.cls-3{opacity:0.12;}.cls-4{stroke:#db76ff;}.cls-4,.cls-5{stroke-miterlimit:10;stroke-width:12px;}.cls-5{stroke:#00f4b9;}.cls-6{fill:url(#未命名的渐变_10);}.cls-7{fill:url(#未命名的渐变_10-2);}.cls-8{fill:url(#未命名的渐变_10-3);}.cls-9{clip-path:url(#clip-path);}.cls-10{fill:url(#未命名的渐变_10-4);}.cls-11{fill:url(#未命名的渐变_10-5);}.cls-12{fill:url(#未命名的渐变_10-6);}.cls-13{fill:url(#未命名的渐变_10-7);}.cls-14{fill:url(#未命名的渐变_10-8);}.cls-15{fill:url(#未命名的渐变_10-9);}</style><linearGradient id="未命名的渐变_10" x1="642.2" y1="1247.4" x2="642.2" y2="-36.99" gradientUnits="userSpaceOnUse"><stop offset="0" stop-color="#db76ff"/><stop offset="0.98" stop-color="#00f4b9"/></linearGradient><linearGradient id="未命名的渐变_10-2" x1="533.18" y1="90.08" x2="712.31" y2="90.08" xlink:href="#未命名的渐变_10"/><linearGradient id="未命名的渐变_10-3" x1="550.99" y1="353.6" x2="671.78" y2="353.6" xlink:href="#未命名的渐变_10"/><clipPath id="clip-path"><text class="cls-1" transform="translate(365.09 953.42)">COMING<tspan x="83.32" y="144">SOON</tspan></text></clipPath><linearGradient id="未命名的渐变_10-4" x1="360.46" y1="973.91" x2="917.31" y2="973.91" xlink:href="#未命名的渐变_10"/><linearGradient id="未命名的渐变_10-5" x1="-137" y1="-0.41" x2="194.64" y2="-0.41" gradientTransform="translate(341.91 341.91)" xlink:href="#未命名的渐变_10"/><linearGradient id="未命名的渐变_10-6" x1="-257" y1="138.17" x2="-17" y2="138.17" gradientTransform="translate(646.31 369.15)" xlink:href="#未命名的渐变_10"/><linearGradient id="未命名的渐变_10-7" x1="-199.4" y1="334.22" x2="-21.4" y2="334.22" gradientTransform="translate(815.76 146.5)" xlink:href="#未命名的渐变_10"/><linearGradient id="未命名的渐变_10-8" x1="-57.9" y1="481.49" x2="182.1" y2="481.49" gradientTransform="translate(790.53 -173.26)" xlink:href="#未命名的渐变_10"/><linearGradient id="未命名的渐变_10-9" x1="904.92" y1="547.65" x2="1071.14" y2="547.65" gradientTransform="translate(-67.47 -6.3)" xlink:href="#未命名的渐变_10"/></defs><g id="图层_2" data-name="图层 2"><g id="图层_1-2" data-name="图层 1"><rect class="cls-2" x="152.91" y="711.03" width="977.55" height="546.61"/><g class="cls-3"><polygon class="cls-4" points="294.88 1180.64 450.91 801.5 509.31 943.42 411.69 1180.64 294.88 1180.64"/><polygon class="cls-4" points="490.12 1180.64 471.07 1134.34 529.48 992.42 606.93 1180.64 490.12 1180.64"/><polygon class="cls-4" points="676.43 1180.64 832.46 801.5 890.87 943.42 793.25 1180.64 676.43 1180.64"/><polygon class="cls-4" points="871.68 1180.64 852.63 1134.34 911.03 992.42 988.49 1180.64 871.68 1180.64"/><polygon class="cls-5" points="485.93 788.04 602.75 788.04 700.37 1025.26 641.96 1167.18 485.93 788.04"/><polygon class="cls-5" points="662.12 834.34 681.18 788.04 797.99 788.04 720.53 976.26 662.12 834.34"/></g><polygon class="cls-2" points="1141.72 162.38 1049.59 279.07 1142.74 659.85 1265.58 546.23 1141.72 162.38 1141.72 162.38"/><path class="cls-2" d="M132.44,162.38,11.65,531.9l130,134.1L234.8,281.12c1,0-102.36-118.74-102.36-118.74Z"/><path class="cls-6" d="M1166.29,129.62c-4.1-14.33-16.38-17.4-25.59-5.12L1049.59,232A32.67,32.67,0,0,1,1025,243.24H248.1c-8.18,0-15.35-4.09-20.47-10.23L143.7,124.5c-9.22-12.28-20.48-10.23-24.57,5.12L1.41,522.69c-4.09,14.33,1,35.83,11.26,46.06L104.8,664C115,675.21,124.25,696.7,124.25,711v547.64a27.52,27.52,0,0,0,27.63,27.64h979.6a27.53,27.53,0,0,0,27.64-27.64V712.06c0-15.36,9.21-36.85,19.45-47.09l93.15-96.22C1282,557.49,1287.07,537,1283,522.69L1166.29,129.62ZM279.84,280.09H991.25c15.35,0,30.71,12.29,34.8,26.62l16.38,64.48c4.09,14.34,10.24,38.9,13.31,54.26L1111,654.74c4.1,14.33-6.14,26.61-21.49,26.61H194.88c-15.36,0-24.57-12.28-21.5-26.61l76.77-317.32,10.24-42C262.43,286.23,271.65,280.09,279.84,280.09ZM38.26,542.14a8,8,0,0,1-2-8.19l9.21-30.71L138.58,189a4,4,0,0,1,7.16-1l75.75,97.24c1,2.05,2,4.1,1,6.14l-85,337.8c-1,5.11-8.18,7.16-11.26,3.07L60.78,565.68C50.55,554.42,40.31,544.19,38.26,542.14Zm146.38,708.34a23.16,23.16,0,0,1-23.54-23.54V743.79a23.16,23.16,0,0,1,23.54-23.54h914.09a23.16,23.16,0,0,1,23.54,23.54V1229c0,12.29-9.21,21.5-21.5,21.5Zm974.48-618.26c-5.12,5.11-11.26,5.11-12.28-1l-9.21-37.87-45-177.09c-4.1-17.4-9.22-35.82-13.31-54.25l-16.38-67.56c-1-4.09,0-7.16,2-10.23L1137.62,190c3.08-3.08,8.19-2.05,9.22,2L1248.18,531.9c1,4.1,0,9.21-3.08,12.29l-57.32,59.37c-10.23,9.21-19.45,19.44-28.66,28.66Z"/><path class="cls-7" d="M612,36.85c0,20.47,5.12,36.85,11.26,36.85s11.26-16.38,11.26-36.85S629.4,0,623.26,0,612,17.4,612,36.85ZM578.22,60.39C591.53,73.7,606.88,82.91,612,77.79c4.09-5.11-4.1-20.47-17.4-33.77S565.94,21.5,560.82,26.61,564.91,47.09,578.22,60.39Zm-45,28.66c0,6.15,16.38,11.26,36.85,11.26s36.85-5.11,36.85-11.26S590.5,77.79,570,77.79,533.18,82.91,533.18,89.05Zm59.37,46.07c13.31-13.31,22.52-28.66,17.4-33.78-5.12-4.1-20.47,4.09-33.78,17.4s-22.52,28.66-17.4,33.78C563.89,156.61,579.24,148.42,592.55,135.12ZM611,143.31c0,20.47,5.11,36.85,11.26,36.85s11.26-16.38,11.26-36.85-5.12-36.85-11.26-36.85S611,122.83,611,143.31Zm57.32-23.55c-13.31-13.3-28.66-22.52-33.78-17.4-4.1,5.12,4.09,20.47,17.4,33.78s28.66,22.52,33.78,17.4C689.79,148.42,681.6,133.07,668.3,119.76Zm44-28.66c0-4.09-7.16-8.19-18.42-10.23a111.12,111.12,0,0,0-36.85,0c-12.29,2-18.43,6.14-18.43,10.23s7.17,8.19,18.43,10.24a111.12,111.12,0,0,0,36.85,0c11.26-2,18.42-6.14,18.42-10.24M652.94,45c-13.3,13.31-22.52,28.66-18.42,33.78,5.12,4.09,20.47-4.1,33.78-17.4s22.52-28.66,17.4-33.78C681.6,22.52,666.25,31.73,652.94,45Z"/><path class="cls-8" d="M604.22,318a57,57,0,0,0,4.1,21.49c2,4.1,5.11,4.1,7.16,0s4.1-12.28,4.1-21.49a57,57,0,0,0-4.1-21.5c-2.05-5.12-5.12-4.09-7.16,0C605.25,301.59,604.22,309.78,604.22,318ZM551,353.79c0,4.1,11.26,7.17,24.57,7.17s24.57-3.07,24.57-7.17-11.26-8.19-24.57-8.19S551,349.7,551,353.79Zm51.18,35.83a57.09,57.09,0,0,0,4.1,21.5c2.05,4.09,5.12,4.09,7.16,0s4.1-12.29,4.1-21.5a57.09,57.09,0,0,0-4.1-21.5c-2-4.09-5.11-4.09-7.16,0A61.68,61.68,0,0,0,602.17,389.62Zm20.48-34.8c0,4.09,11.26,7.16,24.56,7.16s24.57-3.07,24.57-7.16-11.26-7.17-24.57-7.17C632.88,346.63,622.65,350.72,622.65,354.82Z"/><g class="cls-9"><rect class="cls-10" x="360.46" y="844.96" width="556.86" height="257.9"/></g><rect class="cls-11" x="204.91" y="325.23" width="331.64" height="32.55" rx="16.27" transform="translate(29.23 712.24) rotate(-90)"/><rect class="cls-12" x="389.31" y="482.63" width="240" height="49.39" rx="24.7" transform="translate(1.98 1016.64) rotate(-90)"/><rect class="cls-13" x="616.36" y="463.78" width="178" height="33.89" rx="16.94" transform="translate(224.64 1186.08) rotate(-90)"/><rect class="cls-14" x="732.63" y="283.53" width="240" height="49.39" rx="24.7" transform="translate(544.4 1160.85) rotate(-90)"/><rect class="cls-15" x="837.45" y="516.65" width="166.22" height="49.39" rx="24.7" transform="translate(379.21 1461.9) rotate(-90)"/></g></g></svg>