<svg xmlns="http://www.w3.org/2000/svg" viewBox="0 0 40 40" class="design-iconfont">
  <path d="M15.1169732,19.3131486 C16.4773053,19.3131486 17.5788537,20.3333977 17.5559525,21.5803688 C17.5559525,22.8284849 16.4795954,23.8475889 15.1169732,23.8475889 C13.7795423,23.8475889 12.6779939,22.8284849 12.6779939,21.5803688 C12.6779939,20.3333977 13.754351,19.3131486 15.1169732,19.3131486 Z M23.8423357,19.3131486 C25.2049579,19.3131486 26.2813149,20.3333977 26.2813149,21.5803688 C26.2813149,22.8284849 25.2049579,23.8475889 23.8423357,23.8475889 C22.5049048,23.8475889 21.4045015,22.8284849 21.4045015,21.5803688 C21.4045015,20.3333977 22.4808585,19.3131486 23.8434807,19.3131486 L23.8423357,19.3131486 Z M26.1026855,30 C31.2566036,29.8339662 33.2409938,26.3816082 33.2409938,26.3816082 C33.2409938,18.7142819 29.8802407,12.5000375 29.8802407,12.5000375 C26.5252129,9.93052132 23.3282034,10.0001843 23.3282034,10.0001843 L23.0018611,10.3816752 C26.9672063,11.6194858 28.8073188,13.4069255 28.8073188,13.4069256 C26.642304,12.1871167 24.2562567,11.4101917 21.7880968,11.1213844 C20.222218,10.9446688 18.6406078,10.9600504 17.0784622,11.1671869 C16.9376197,11.1671869 16.8208235,11.1900881 16.6822712,11.2129893 C15.8658429,11.2862732 13.8814527,11.5942945 11.3875106,12.7153089 C10.5252799,13.1183703 10.0111476,13.4069256 10.0111476,13.4069256 C10.0111476,13.4069256 11.9474452,11.5233007 16.1440926,10.2866352 L15.9105003,10.0001843 C15.9105003,10.0001843 12.7157809,9.93052129 9.35846302,12.5011825 C9.35846302,12.5011825 6,18.7142818 6,26.3804632 C6,26.3804632 7.95805378,29.8316761 13.113117,29.998855 C13.113117,29.998855 13.9742026,28.9293683 14.6772699,28.0247703 C11.7138528,27.1178822 10.5962736,25.2125013 10.5962736,25.2125013 C10.5962736,25.2125013 10.8275759,25.3808252 11.2466681,25.6189978 C11.2695693,25.641899 11.2924705,25.6670904 11.339418,25.6888465 C11.4104118,25.7392292 11.4802605,25.7621304 11.5512542,25.8090779 C12.1329451,26.1422905 12.7157809,26.4045094 13.2516693,26.6186358 C14.207795,26.999941 15.3505656,27.3812462 16.6822712,27.6434651 C18.6759739,28.0343266 20.725857,28.0420987 22.7224663,27.6663663 C23.8852906,27.4587716 25.0197718,27.1155833 26.1026855,26.6438271 C27.0472836,26.278099 27.9473332,25.8063701 28.7855627,25.2376926 C28.7855627,25.2376926 27.6198909,27.1900211 24.5637239,28.0728629 C25.0694363,28.7216295 25.5832269,29.3640586 26.1049756,30 L26.1026855,30 L26.1026855,30 Z" fill="#6A6991" fill-rule="nonzero"/>
</svg>
