<?xml version="1.0" standalone="no"?><!DOCTYPE svg PUBLIC "-//W3C//DTD SVG 1.1//EN" "http://www.w3.org/Graphics/SVG/1.1/DTD/svg11.dtd"><svg t="1639016131608" class="icon" viewBox="0 0 1024 1024" version="1.1" xmlns="http://www.w3.org/2000/svg" p-id="11765" xmlns:xlink="http://www.w3.org/1999/xlink" width="48" height="48"><defs><style type="text/css"></style></defs><path d="M798.293333 218.453333a22.613333 22.613333 0 0 0-23.893333 23.893334v554.666666A51.2 51.2 0 0 1 725.333333 843.52H306.773333c-28.586667 0-61.866667-23.893333-61.866666-47.786667v-52.48c0-23.893333 28.586667-37.973333 57.173333-37.973333h400.64A22.613333 22.613333 0 0 0 725.333333 682.666667V213.333333a85.333333 85.333333 0 0 0-93.866666-85.333333H306.773333a93.44 93.44 0 0 0-104.96 85.333333v601.6A101.12 101.12 0 0 0 292.693333 896H725.333333a95.146667 95.146667 0 0 0 95.573334-90.453333V242.346667a26.026667 26.026667 0 0 0-23.893334-23.893334z m-90.88 534.613334H316.586667a23.893333 23.893333 0 1 0 0 47.36h390.826666a23.893333 23.893333 0 1 0 0-47.36z m0 0" fill="#6A6991" p-id="11766"></path></svg>