<svg xmlns="http://www.w3.org/2000/svg" viewBox="0 0 40 40" class="design-iconfont">
  <path d="M19.8414041,8 C12.7464996,7.99713213 7,13.7407628 7,20.8299294 C7,26.4358506 10.5947898,31.2011706 15.6011013,32.9512279 C16.2753037,33.1204957 16.1720216,32.6413817 16.1720216,32.3143218 L16.1720216,30.0908884 C12.2788614,30.5470508 12.1210693,27.970737 11.8599952,27.540395 C11.3321091,26.6395458 10.0841174,26.4100301 10.4570804,25.9796882 C11.3435848,25.5235257 12.247303,26.094446 13.2944684,27.6408081 C14.0518703,28.7625662 15.5293776,28.5732157 16.2781727,28.3867342 C16.4417026,27.7125318 16.7917141,27.110053 17.2736971,26.6424148 C13.2399584,25.9194403 11.5587558,23.4578843 11.5587558,20.5315589 C11.5587558,19.1114305 12.0263941,17.8060599 12.9444569,16.7531565 C12.3591919,15.017444 12.9989669,13.5313297 13.0850353,13.3104209 C14.7518932,13.1612356 16.4847368,14.5039026 16.6195773,14.6100536 C17.5663296,14.3547173 18.6479224,14.2198769 19.8586178,14.2198769 C21.075051,14.2198769 22.1595128,14.3604552 23.1148719,14.6186604 C23.4390629,14.371931 25.0456729,13.2186146 26.5949039,13.3591929 C26.6781034,13.5801018 27.3035337,15.0317887 26.752696,16.7445497 C27.6822346,17.800322 28.1556108,19.1171684 28.1556108,20.5401658 C28.1556108,23.472229 26.4629324,25.936654 22.417718,26.6481527 C23.0919204,27.3137482 23.5107865,28.237549 23.5107865,29.2588939 L23.5107865,32.4864586 C23.5337381,32.7446638 23.5107865,33 23.9411285,33 C29.0220326,31.287239 32.6799392,26.4874917 32.6799392,20.8327983 C32.6799392,13.7407628 26.9305706,8 19.8414041,8 Z" fill="#6A6991" fill-rule="nonzero"/>
</svg>
