<?xml version="1.0" standalone="no"?><!DOCTYPE svg PUBLIC "-//W3C//DTD SVG 1.1//EN" "http://www.w3.org/Graphics/SVG/1.1/DTD/svg11.dtd"><svg t="1648785923104" class="icon" viewBox="0 0 1660 1024" version="1.1" xmlns="http://www.w3.org/2000/svg" p-id="2355" xmlns:xlink="http://www.w3.org/1999/xlink" width="324.21875" height="200"><defs><style type="text/css">@font-face { font-family: feedback-iconfont; src: url("//at.alicdn.com/t/font_1031158_u69w8yhxdu.woff2?t=1630033759944") format("woff2"), url("//at.alicdn.com/t/font_1031158_u69w8yhxdu.woff?t=1630033759944") format("woff"), url("//at.alicdn.com/t/font_1031158_u69w8yhxdu.ttf?t=1630033759944") format("truetype"); }
</style></defs><path d="M1041.37584541 216.84712859c5.26773642 3.87668931 9.9425679 8.52871646 13.8192572 13.81925639l431.90878354 586.3834465a65.1511821 65.1511821 0 0 1-52.44932428 103.8040535H804.69256825l51.69679074-218.28040494-81.68412138-233.55912222 175.5456078-238.34797284a65.1511821 65.1511821 0 0 1 91.10219568-13.81925639zM694.02449397 467.98817572l80.95439218 234.58530433-51.71959506 218.28040493H196.21199397l-1.52787139-0.04560782a65.1511821 65.1511821 0 0 1-50.44256792-103.73564218l228.7702708-310.91047284a65.1511821 65.1511821 0 0 1 104.96706069 0l93.90709424 127.63429075 122.13851358-165.83108148zM489.90540611 90.125a130.30236502 130.30236502 0 1 1 1e-8 260.62753354 130.30236502 130.30236502 0 0 1 0-260.62753354z" p-id="2356" fill="#040222"></path></svg>