<svg xmlns="http://www.w3.org/2000/svg" xmlns:xlink="http://www.w3.org/1999/xlink" viewBox="0 0 1716.35 512"><defs><style>.cls-1{fill:url(#未命名的渐变_10);}.cls-2{fill:#191743;}.cls-3{fill:#db76ff;}.cls-4{fill:#010035;}.cls-5{fill:#00f4b9;}.cls-6{fill:#fff;}</style><linearGradient id="未命名的渐变_10" y1="256" x2="512" y2="256" gradientUnits="userSpaceOnUse"><stop offset="0" stop-color="#db76ff"/><stop offset="0.98" stop-color="#00f4b9"/></linearGradient></defs><g id="图层_2" data-name="图层 2"><g id="图层_1-2" data-name="图层 1"><circle class="cls-1" cx="256" cy="256" r="256"/><circle class="cls-2" cx="256" cy="256" r="234.67"/><polygon class="cls-3" points="100 344.45 171.01 171.91 198.11 237.77 154.21 344.45 100 344.45"/><path class="cls-4" d="M171,179l24.2,58.82-29.16,70.86-13.64,33.14H104l42-102L171,179m0-14.08-30,72.9L96,347.13h60l15-36.45,30-72.91-30-72.9Z"/><polygon class="cls-3" points="187.81 344.45 178.91 322.83 206.01 256.97 242.01 344.45 187.81 344.45"/><path class="cls-4" d="M206,264l32,77.76H189.6l-7.79-18.94L186,312.72,206,264m0-14.09-25,60.76-5,12.15,10,24.3h60l-40-97.21Z"/><polygon class="cls-3" points="269.99 344.45 340.99 171.91 368.1 237.77 324.19 344.45 269.99 344.45"/><path class="cls-4" d="M341,179l24.21,58.82L336,308.63,322.4,341.77H274l42-102L341,179m0-14.08-30,72.9L266,347.13h60l15-36.45,30-72.91-30-72.9Z"/><polygon class="cls-3" points="357.79 344.45 348.89 322.83 376 256.97 412 344.45 357.79 344.45"/><path class="cls-4" d="M376,264l32,77.76H359.59l-7.8-18.94L356,312.72,376,264m0-14.09-25,60.76-5,12.15,10,24.3h60l-40-97.21Z"/><polygon class="cls-5" points="185.12 167.55 239.32 167.55 283.23 274.23 256.12 340.09 185.12 167.55"/><path class="cls-4" d="M237.53,170.23l13.64,33.14,29.16,70.86-24.21,58.82-25-60.86-42-102h48.41m3.59-5.36h-60l45,109.36,30,72.9,30-72.9-30-72.91-15-36.45Z"/><polygon class="cls-5" points="264.02 189.17 272.92 167.55 327.13 167.55 291.13 255.03 264.02 189.17"/><path class="cls-4" d="M323.13,170.23l-32,77.76-20.05-48.71-4.16-10.11,7.8-18.94h48.41m8-5.36h-60l-10,24.3,5,12.15,25,60.76,40-97.21Z"/><polygon class="cls-6" points="678.65 324.27 721.51 247.06 764.37 324.27 830.23 324.27 754.44 187.73 688.58 187.73 612.79 324.27 678.65 324.27"/><polygon class="cls-6" points="946.36 187.73 903.5 264.94 860.65 187.73 794.79 187.73 870.57 324.27 936.44 324.27 1012.22 187.73 946.36 187.73"/><polygon class="cls-6" points="1384.36 187.73 1322.39 187.73 1322.39 279.29 1277.48 279.29 1255.09 238.96 1255.09 187.73 1193.12 187.73 1193.12 250.69 1233.96 324.27 1236.58 324.27 1236.58 324.27 1302.44 324.27 1302.44 324.27 1384.36 324.27 1384.36 187.73"/><polygon class="cls-6" points="1042.64 324.27 1085.5 247.06 1128.36 324.27 1194.22 324.27 1118.43 187.73 1052.57 187.73 976.78 324.27 1042.64 324.27"/><polygon class="cls-6" points="1566.86 279.29 1480.06 279.29 1480.06 187.73 1418.09 187.73 1418.09 324.27 1566.86 324.27 1566.86 279.29"/><polygon class="cls-6" points="1716.35 187.73 1662.35 187.73 1600.38 187.73 1546.38 187.73 1546.38 232.71 1600.38 232.71 1600.38 324.27 1662.35 324.27 1662.35 232.71 1716.35 232.71 1716.35 187.73"/></g></g></svg>