<svg xmlns="http://www.w3.org/2000/svg" xmlns:xlink="http://www.w3.org/1999/xlink" viewBox="0 0 512 531.12"><defs><style>.cls-1{fill:url(#未命名的渐变_10);}.cls-2{fill:#191743;}.cls-3{fill:#db76ff;}.cls-4{fill:#010035;}.cls-5{fill:#00f4b9;}.cls-6{fill:url(#未命名的渐变_10-3);}</style><linearGradient id="未命名的渐变_10" y1="256" x2="512" y2="256" gradientUnits="userSpaceOnUse"><stop offset="0" stop-color="#db76ff"/><stop offset="0.98" stop-color="#00f4b9"/></linearGradient><linearGradient id="未命名的渐变_10-3" x1="85.54" y1="447.12" x2="426.46" y2="447.12" xlink:href="#未命名的渐变_10"/></defs><g id="图层_2" data-name="图层 2"><g id="图层_1-2" data-name="图层 1"><circle class="cls-1" cx="256" cy="256" r="256"/><circle class="cls-1" cx="256" cy="256" r="256"/><circle class="cls-2" cx="256" cy="256" r="234.67"/><polygon class="cls-3" points="100 314.45 171.01 141.91 198.11 207.77 154.21 314.45 100 314.45"/><path class="cls-4" d="M171,149l24.2,58.82-29.16,70.86-13.64,33.14H104l42-102L171,149m0-14.09-30,72.91L96,317.13h60l15-36.46,30-72.9-30-72.91Z"/><polygon class="cls-3" points="187.81 314.45 178.91 292.82 206.01 226.96 242.01 314.45 187.81 314.45"/><path class="cls-4" d="M206,234l32,77.76H189.6l-7.79-18.95L186,282.71,206,234m0-14.09-25,60.75-5,12.15,10,24.31h60l-40-97.21Z"/><polygon class="cls-3" points="269.99 314.45 340.99 141.91 368.1 207.77 324.19 314.45 269.99 314.45"/><path class="cls-4" d="M341,149l24.21,58.82L336,278.63,322.4,311.77H274l42-102L341,149m0-14.09-30,72.91L266,317.13h60l15-36.46,30-72.9-30-72.91Z"/><polygon class="cls-3" points="357.79 314.45 348.89 292.82 375.99 226.96 412 314.45 357.79 314.45"/><path class="cls-4" d="M376,234l32,77.76H359.59l-7.8-18.95L356,282.71,376,234m0-14.09-25,60.75-5,12.15,10,24.31h60l-40-97.21Z"/><polygon class="cls-5" points="185.12 137.54 239.32 137.54 283.23 244.23 256.12 310.09 185.12 137.54"/><path class="cls-4" d="M237.53,140.22l13.64,33.14,29.16,70.87-24.21,58.82-25-60.86-42-102h48.41m3.59-5.36h-60l45,109.37,30,72.9,30-72.9-30-72.91-15-36.46Z"/><polygon class="cls-5" points="264.02 159.17 272.92 137.54 327.13 137.54 291.13 225.03 264.02 159.17"/><path class="cls-4" d="M323.13,140.22l-32,77.77-20.05-48.71-4.16-10.11,7.8-18.95h48.41m8-5.36h-60l-10,24.31,5,12.15,25,60.76,40-97.22Z"/><rect class="cls-6" x="85.54" y="363.12" width="340.91" height="168" rx="84"/><path class="cls-2" d="M194.92,415.43c4.41,0,7.7.58,9.88,1.76a9.09,9.09,0,0,1,4.33,4.28,9.45,9.45,0,0,1,.63,5.2,23.79,23.79,0,0,1-1.08,4.45,16,16,0,0,1-2.73,4.76,23.82,23.82,0,0,1-3.9,3.75,25.36,25.36,0,0,1-4.45,2.73,23,23,0,0,1-4.44,1.63l-.07.18a12.57,12.57,0,0,1,4.81,1.9,9.68,9.68,0,0,1,3.11,3.39,9.93,9.93,0,0,1,1.13,4.68A16.14,16.14,0,0,1,201,460a27.33,27.33,0,0,1-2.81,5.34,24.41,24.41,0,0,1-5.25,5.6,29.9,29.9,0,0,1-8,4.45,31.09,31.09,0,0,1-11.16,1.81H137.23l22.86-61.72Zm-16.53,23.45a7.35,7.35,0,0,0,4.87-1.37,7.18,7.18,0,0,0,2.19-2.95,3.81,3.81,0,0,0,0-2.95c-.39-.91-1.68-1.37-3.85-1.37h-2.3l-3.2,8.64Zm-8,23.45a16.37,16.37,0,0,0,2-.13,8.81,8.81,0,0,0,2.2-.57,6.67,6.67,0,0,0,3.72-4,4,4,0,0,0,.3-2.47,2.54,2.54,0,0,0-1-1.36,4.18,4.18,0,0,0-1.8-.62,15.27,15.27,0,0,0-1.94-.13h-3l-3.43,9.25Z"/><path class="cls-2" d="M225.51,415.43h43.21l-6.63,17.9H243.57l-1.92,5.2h16.66l-5.48,14.81H236.16L234,459.25h18.52l-6.63,17.9h-43.2Z"/><path class="cls-2" d="M283.38,433.33h-13l6.63-17.9h50.61L321,433.33h-13l-16.23,43.82H267.15Z"/><path class="cls-2" d="M347.61,415.43h27.16l-.91,61.72h-25.3l.86-9H333.9l-5.8,9H302.8Zm-4.55,37.29h8.64L353.19,437Z"/></g></g></svg>