<svg xmlns="http://www.w3.org/2000/svg" xmlns:xlink="http://www.w3.org/1999/xlink" viewBox="0 0 1716.35 512"><defs><style>.cls-1{fill:url(#未命名的渐变_10);}.cls-2{fill:#191743;}.cls-3{fill:#db76ff;}.cls-4{fill:#010035;}.cls-5{fill:#00f4b9;}.cls-6{fill:#fff;}.cls-7{fill:url(#未命名的渐变_10-2);}</style><linearGradient id="未命名的渐变_10" y1="256" x2="512" y2="256" gradientUnits="userSpaceOnUse"><stop offset="0" stop-color="#db76ff"/><stop offset="0.98" stop-color="#00f4b9"/></linearGradient><linearGradient id="未命名的渐变_10-2" x1="616.89" y1="385.54" x2="1087.67" y2="385.54" xlink:href="#未命名的渐变_10"/></defs><g id="图层_2" data-name="图层 2"><g id="图层_1-2" data-name="图层 1"><circle class="cls-1" cx="256" cy="256" r="256"/><circle class="cls-2" cx="256" cy="256" r="234.67"/><polygon class="cls-3" points="100 344.45 171.01 171.91 198.11 237.77 154.21 344.45 100 344.45"/><path class="cls-4" d="M171,179l24.2,58.82-29.16,70.86-13.64,33.14H104l42-102L171,179m0-14.08-30,72.9L96,347.13h60l15-36.45,30-72.91-30-72.9Z"/><polygon class="cls-3" points="187.81 344.45 178.91 322.83 206.01 256.97 242.01 344.45 187.81 344.45"/><path class="cls-4" d="M206,264l32,77.76H189.6l-7.79-18.94L186,312.72,206,264m0-14.09-25,60.76-5,12.15,10,24.3h60l-40-97.21Z"/><polygon class="cls-3" points="269.99 344.45 340.99 171.91 368.1 237.77 324.19 344.45 269.99 344.45"/><path class="cls-4" d="M341,179l24.21,58.82L336,308.63,322.4,341.77H274l42-102L341,179m0-14.08-30,72.9L266,347.13h60l15-36.45,30-72.91-30-72.9Z"/><polygon class="cls-3" points="357.79 344.45 348.89 322.83 375.99 256.97 412 344.45 357.79 344.45"/><path class="cls-4" d="M376,264l32,77.76H359.59l-7.8-18.94L356,312.72,376,264m0-14.09-25,60.76-5,12.15,10,24.3h60l-40-97.21Z"/><polygon class="cls-5" points="185.12 167.55 239.32 167.55 283.23 274.23 256.12 340.09 185.12 167.55"/><path class="cls-4" d="M237.53,170.23l13.64,33.14,29.16,70.86-24.21,58.82-25-60.86-42-102h48.41m3.59-5.36h-60l45,109.36,30,72.9,30-72.9-30-72.91-15-36.45Z"/><polygon class="cls-5" points="264.02 189.17 272.92 167.55 327.13 167.55 291.13 255.03 264.02 189.17"/><path class="cls-4" d="M323.13,170.23l-32,77.76-20.05-48.71-4.16-10.11,7.8-18.94h48.41m8-5.36h-60l-10,24.3,5,12.15,25,60.76,40-97.21Z"/><polygon class="cls-6" points="678.65 209.38 721.51 132.16 764.37 209.38 830.23 209.38 754.44 72.83 688.58 72.83 612.79 209.38 678.65 209.38"/><polygon class="cls-6" points="946.36 72.83 903.5 150.05 860.65 72.83 794.79 72.83 870.57 209.38 936.44 209.38 1012.22 72.83 946.36 72.83"/><polygon class="cls-6" points="1384.36 72.83 1322.39 72.83 1322.39 164.4 1277.48 164.4 1255.09 124.06 1255.09 72.83 1193.12 72.83 1193.12 135.8 1233.96 209.38 1236.58 209.38 1236.58 209.38 1302.44 209.38 1302.44 209.38 1384.36 209.38 1384.36 72.83"/><polygon class="cls-6" points="1042.64 209.38 1085.5 132.16 1128.36 209.38 1194.22 209.38 1118.43 72.83 1052.57 72.83 976.78 209.38 1042.64 209.38"/><polygon class="cls-6" points="1566.86 164.4 1480.06 164.4 1480.06 72.83 1418.09 72.83 1418.09 209.38 1566.86 209.38 1566.86 164.4"/><polygon class="cls-6" points="1716.35 72.83 1662.35 72.83 1600.38 72.83 1546.38 72.83 1546.38 117.81 1600.38 117.81 1600.38 209.38 1662.35 209.38 1662.35 117.81 1716.35 117.81 1716.35 72.83"/><path class="cls-7" d="M616.89,285.54H998.13a89.54,89.54,0,0,1,89.54,89.54V396a89.54,89.54,0,0,1-89.54,89.54H706.43A89.54,89.54,0,0,1,616.89,396V285.54a0,0,0,0,1,0,0Z"/><path class="cls-2" d="M767.93,341.77q9.14,0,13.65,2.44t6,5.9a13,13,0,0,1,.87,7.18,32.69,32.69,0,0,1-1.48,6.15,22.49,22.49,0,0,1-3.78,6.58,32.44,32.44,0,0,1-5.38,5.17,35.48,35.48,0,0,1-6.15,3.78,32.86,32.86,0,0,1-6.13,2.25l-.09.24a17.57,17.57,0,0,1,6.64,2.62,13.25,13.25,0,0,1,4.29,4.69,13.73,13.73,0,0,1,1.57,6.45,22.56,22.56,0,0,1-1.58,8,38.23,38.23,0,0,1-3.88,7.37,33.63,33.63,0,0,1-7.25,7.73,41.4,41.4,0,0,1-11.11,6.15A43.15,43.15,0,0,1,738.68,427H688.27l31.57-85.23ZM745.1,374.16q4.5,0,6.73-1.89a10,10,0,0,0,3-4.08,5.29,5.29,0,0,0,0-4.08q-.83-1.87-5.33-1.88h-3.17l-4.42,11.93Zm-11,32.39a23.81,23.81,0,0,0,2.75-.18,11.92,11.92,0,0,0,3-.8,9.31,9.31,0,0,0,2.91-1.94,9.17,9.17,0,0,0,2.22-3.54,5.38,5.38,0,0,0,.41-3.4A3.38,3.38,0,0,0,744,394.8a5.75,5.75,0,0,0-2.48-.85,20.19,20.19,0,0,0-2.68-.19h-4.14l-4.73,12.79Z"/><path class="cls-2" d="M810.18,341.77h59.67l-9.16,24.72H835.12l-2.66,7.18h23l-7.58,20.46h-23l-3,8.16h25.57L838.28,427H778.62Z"/><path class="cls-2" d="M890.09,366.49h-17.9l9.16-24.72h69.89l-9.15,24.72h-17.9L901.77,427H867.68Z"/><path class="cls-2" d="M978.79,341.77h37.5L1015.05,427H980.1l1.19-12.41H959.86l-8,12.41H916.91Zm-6.29,51.51h11.93l2.06-21.68Z"/></g></g></svg>