<svg xmlns="http://www.w3.org/2000/svg" viewBox="0 0 40 40" class="design-iconfont">
  <path d="M30.1325696,12.3502455 L32.1391162,10.4222586 L32.1391162,10 L25.1898527,10 L20.2373159,22.386252 L14.603928,10 L7.31751227,10 L7.31751227,10.4222586 L9.66121113,13.2569558 C9.8903437,13.4664484 10.0081833,13.7741408 9.9787234,14.0818331 L9.9787234,25.2209493 C10.0507365,25.6235679 9.92307692,26.0327332 9.64157119,26.3240589 L7,29.5417349 L7,29.9574468 L14.4828151,29.9574468 L14.4828151,29.5351882 L11.8445172,26.3273322 C11.5597381,26.0360065 11.4222586,25.6301146 11.4811784,25.2242226 L11.4811784,15.5875614 L18.0507365,29.9639935 L18.8134206,29.9639935 L24.4631751,15.5875614 L24.4631751,27.0409165 C24.4631751,27.3420622 24.4631751,27.4042553 24.2667758,27.603928 L22.2340426,29.5777414 L22.2340426,30 L32.0932897,30 L32.0932897,29.5777414 L30.1325696,27.6497545 C29.9623568,27.5188216 29.8739771,27.299509 29.9099836,27.086743 L29.9099836,12.913257 C29.8739771,12.700491 29.9623568,12.4811784 30.1325696,12.3502455 L30.1325696,12.3502455 Z" fill="#6A6991" fill-rule="nonzero"/>
</svg>
