<svg xmlns="http://www.w3.org/2000/svg" viewBox="0 0 40 40" class="design-iconfont">
  <path d="M30.0032333,14.9831819 C29.8881206,23.665087 24.3362444,29.6117451 16.0485772,29.9851814 C12.6308465,30.1416732 10.1548191,29.0376536 8,27.66875 C10.5260152,28.0719165 13.6582522,27.0622081 15.333451,25.6281796 C12.8574236,25.3873294 11.3914567,24.12701 10.7055168,22.0987925 C11.4209949,22.2224818 12.174748,22.1896793 12.8544794,22.0457325 C10.6201663,21.2978038 9.02465355,19.9168673 8.94221531,17.0232403 C9.56920677,17.3087019 10.2228242,17.5770422 11.091178,17.6299422 C9.4190514,16.6788303 8.18260582,13.2019911 9.598745,10.9029051 C12.0804368,13.623047 15.0656228,15.842767 19.9673698,16.1430457 C18.7367166,10.8822955 25.7080602,8.02953563 28.6257211,11.5652912 C29.8590944,11.3266812 30.8630104,10.8587418 31.8287155,10.3494232 C31.4312454,11.5711157 30.6657795,12.4248763 29.7326849,13.107872 C30.7569864,12.9695895 31.663647,12.7192986 32.4382016,12.3365816 C31.9577493,13.3346091 30.9071417,14.2295889 30.0032333,14.9831819 Z" fill="#6A6991" fill-rule="nonzero"/>
</svg>
