<svg xmlns="http://www.w3.org/2000/svg" xmlns:xlink="http://www.w3.org/1999/xlink" viewBox="0 0 713.99 768.36"><defs><style>.cls-1{fill:url(#未命名的渐变_44);}.cls-2{fill:url(#未命名的渐变_121);}.cls-3{fill:#fff;}.cls-4{fill:#030222;}.cls-5{fill:#00f4b9;}.cls-6{fill:#db76ff;}.cls-7{fill:url(#未命名的渐变_142);}.cls-8{fill:url(#未命名的渐变_142-2);}.cls-9{fill:url(#未命名的渐变_121-2);}.cls-10{fill:url(#未命名的渐变_150);}</style><linearGradient id="未命名的渐变_44" x1="271.82" y1="580.8" x2="713.99" y2="580.8" gradientUnits="userSpaceOnUse"><stop offset="0" stop-color="#de83ff"/><stop offset="1" stop-color="#00d1d4"/></linearGradient><radialGradient id="未命名的渐变_121" cx="465.3" cy="535.35" r="193.59" gradientUnits="userSpaceOnUse"><stop offset="0" stop-color="#f5e7ff"/><stop offset="1" stop-color="#6f00ff"/></radialGradient><linearGradient id="未命名的渐变_142" x1="95.18" y1="232.75" x2="280.37" y2="615.21" gradientUnits="userSpaceOnUse"><stop offset="0" stop-color="#f552ff"/><stop offset="1" stop-color="#6f00ff" stop-opacity="0"/></linearGradient><linearGradient id="未命名的渐变_142-2" x1="138.63" y1="185.06" x2="621.66" y2="185.06" xlink:href="#未命名的渐变_142"/><radialGradient id="未命名的渐变_121-2" cx="217.51" cy="239.64" r="90.19" xlink:href="#未命名的渐变_121"/><linearGradient id="未命名的渐变_150" x1="188.01" y1="198.81" x2="416.36" y2="501.76" gradientUnits="userSpaceOnUse"><stop offset="0" stop-color="#f552ff"/><stop offset="0.69" stop-color="#6f00ff" stop-opacity="0"/></linearGradient></defs><g id="图层_2" data-name="图层 2"><g id="图层_1-2" data-name="图层 1"><path class="cls-1" d="M713.65,509.63c0-.2,0-.4,0-.6q.1-1.54.18-3.06c0-.31,0-.62,0-.92l0-.69c0-.34,0-.66,0-1,0-1.06,0-2.12,0-3.18,0-.53,0-1.05,0-1.58,0-1.07-.06-2.14-.1-3.2,0-.32,0-.65,0-1l0-.39c-.06-1.1-.15-2.19-.24-3.29,0-.31,0-.62-.07-.93-.14-1.4-.3-2.79-.49-4.16,0-.06,0-.12,0-.17-.16-1.15-.34-2.3-.54-3.43-.14-.86-.3-1.71-.47-2.55-.06-.27-.12-.54-.17-.8-.12-.55-.23-1.1-.35-1.64V477c-.27-1.18-.57-2.35-.88-3.5l-.21-.77c-.31-1.13-.65-2.25-1-3.36l0-.13c0-.11-.08-.22-.11-.33-.33-1-.67-2-1-2.94l-.23-.65c-.4-1-.82-2.09-1.25-3.11l-.09-.24c-.06-.13-.12-.25-.18-.39-.42-1-.84-1.9-1.29-2.83-.06-.13-.11-.25-.17-.37-.49-1-1-2-1.53-3l-.16-.32c-.06-.12-.13-.22-.19-.33-.54-1-1.1-2-1.68-2.92l-.18-.29c-.55-.89-1.12-1.78-1.7-2.65-.07-.11-.14-.23-.22-.34l-.16-.23c-.52-.76-1-1.51-1.58-2.25l-38.81-52.86c.54.74,1.07,1.49,1.58,2.24l.38.58c.59.87,1.16,1.75,1.7,2.65l.18.28c.58,1,1.14,1.93,1.68,2.92l.36.65c.52,1,1,2,1.52,3l.17.36c.45.93.88,1.88,1.29,2.84l.27.63c.44,1,.85,2.06,1.25,3.11.08.21.16.43.23.64.36,1,.7,1.95,1,2.95l.15.45c.36,1.11.69,2.23,1,3.37l.21.76c.31,1.16.61,2.32.88,3.51.13.55.24,1.12.36,1.68.06.27.12.53.17.8q.25,1.26.48,2.55c.2,1.19.38,2.39.55,3.6.18,1.38.35,2.77.48,4.16,0,.31,0,.63.07.94.1,1.09.18,2.18.24,3.28,0,.46,0,.92.06,1.38,0,1.06.08,2.12.1,3.2,0,.52,0,1.05,0,1.58,0,1.05,0,2.11,0,3.17,0,.56,0,1.12,0,1.69,0,.3,0,.61,0,.91,0,1-.1,2-.18,3.06l0,.6c-.09,1.19-.2,2.39-.32,3.58,0,.3-.07.59-.1.89-.1.93-.21,1.86-.34,2.79-.05.39-.09.78-.15,1.17-.16,1.16-.33,2.32-.52,3.49a2.17,2.17,0,0,0,0,.25c-.21,1.26-.44,2.51-.68,3.77-.07.38-.15.75-.22,1.13-.17.85-.35,1.7-.53,2.56-.14.63-.28,1.26-.43,1.9s-.34,1.47-.52,2.21l-.48,1.91c-.19.74-.38,1.48-.58,2.22s-.35,1.28-.54,1.92-.42,1.49-.64,2.23-.39,1.28-.59,1.93c-.28.9-.56,1.8-.86,2.71-.11.35-.22.69-.34,1-.43,1.29-.87,2.58-1.33,3.87-.08.23-.17.46-.25.68-.38,1.08-.78,2.15-1.19,3.23l-.48,1.25c-.36.93-.73,1.86-1.1,2.79-.17.4-.33.81-.5,1.21q-.75,1.83-1.53,3.66c0,.08-.07.17-.11.25-.57,1.3-1.15,2.61-1.75,3.92l-.53,1.16-1.14,2.41q-.88,1.85-1.8,3.69c-.22.45-.44.9-.67,1.34-.84,1.66-1.69,3.32-2.58,5l-.54,1q-1.08,2-2.21,4l-.94,1.66q-1,1.73-2,3.45c-.33.56-.66,1.12-1,1.68q-1.15,1.93-2.36,3.87c-.24.38-.46.76-.7,1.14q-1.56,2.47-3.18,4.95l-.83,1.24q-1.25,1.88-2.52,3.74l-1.16,1.69-2.41,3.42-1.1,1.53q-2,2.84-4.17,5.65l-.78,1c-1.24,1.64-2.51,3.26-3.79,4.89l-1,1.27q-2.22,2.79-4.53,5.56l-.9,1.06q-2,2.4-4.09,4.79l-1.18,1.37-1.69,1.89c-.64.73-1.28,1.45-1.93,2.17l-1.73,1.89-2,2.13-1.77,1.89c-.67.71-1.33,1.41-2,2.11l-1.81,1.88-1.76,1.8q-2.65,2.68-5.37,5.36l-.68.65c-1.65,1.61-3.33,3.2-5,4.79l-1.39,1.3q-2.34,2.18-4.72,4.32l-.39.36q-2.58,2.33-5.22,4.6l-1.63,1.41c-1.14,1-2.28,2-3.44,2.92l-1.8,1.5q-1.8,1.5-3.62,3l-1.58,1.28c-1.47,1.18-2.94,2.35-4.43,3.51l-.63.49q-2.55,2-5.14,3.94l-1.69,1.25c-1.13.85-2.27,1.69-3.41,2.52l-2,1.45c-1.06.77-2.12,1.53-3.2,2.29l-2.16,1.51-3,2-2.23,1.52c-1,.68-2,1.34-3,2l-2.26,1.49c-1,.66-2,1.31-3.05,2l-2.24,1.43-3.2,2-2.15,1.32-3.47,2.09-1.92,1.15-4.48,2.59-1,.56q-2.76,1.57-5.56,3.1l-1.68.91c-1.31.71-2.62,1.42-3.94,2.11q-2.41,1.27-4.84,2.52L486.22,683l-1.41.68c-.89.44-1.77.87-2.66,1.29q-2.79,1.35-5.58,2.63l-1.19.54q-2.29,1.05-4.58,2l-1.46.64q-2.93,1.27-5.84,2.48l-.88.36q-2.58,1.07-5.15,2.07l-1.3.51q-3.19,1.23-6.38,2.39l-1.19.44c-2.18.78-4.36,1.55-6.53,2.28l-2.75.9-1.44.47c-1.35.44-2.7.86-4.05,1.27l-.64.2c-1.23.37-2.45.74-3.67,1.09l-1.49.42-2.65.75c-1.6.44-3.19.85-4.77,1.26l-1.37.34-3.41.84-1.64.38L411,710l-1.53.34c-1.35.28-2.7.56-4,.82l-.61.12c-1.65.32-3.3.62-4.94.9l-1.37.23-3.76.6-1.32.2c-1.62.24-3.22.46-4.82.65l-.68.08c-1.39.17-2.77.33-4.14.47l-1.39.13c-1.27.13-2.54.24-3.79.34l-1,.08c-1.55.11-3.09.21-4.62.29l-1.1,0c-1.21.06-2.41.1-3.6.14l-1.32,0c-1.4,0-2.8,0-4.19,0h-.34c-1.49,0-3,0-4.43-.07l-1.24,0q-1.7-.06-3.36-.15l-1.16-.06c-1.43-.09-2.86-.19-4.27-.31l-.65-.07c-1.21-.11-2.4-.23-3.59-.37l-1.23-.14c-1.13-.14-2.24-.29-3.35-.45l-.84-.11c-1.35-.21-2.69-.43-4-.67l-1-.18c-1-.2-2.07-.4-3.1-.62l-1.13-.24c-1.23-.27-2.46-.55-3.68-.86l-.19,0c-1.28-.32-2.53-.67-3.78-1l-1-.31c-1-.28-1.91-.58-2.85-.88l-.95-.31c-1.21-.4-2.4-.81-3.57-1.24l-.58-.22c-1-.38-2-.76-3-1.16l-1-.42c-.93-.4-1.85-.8-2.77-1.22l-.65-.29c-1.11-.52-2.19-1-3.26-1.59L301,702c-.84-.44-1.66-.88-2.48-1.34l-.89-.5c-1-.58-2-1.17-3-1.79l-.08,0c-1-.63-2-1.28-3-1.94l-.82-.57c-.74-.52-1.47-1.05-2.2-1.59l-.72-.54c-.92-.7-1.83-1.42-2.71-2.16l-.46-.4c-.74-.62-1.47-1.25-2.18-1.9l-.75-.69c-.7-.65-1.38-1.31-2.05-2l-.46-.45c-.8-.81-1.58-1.65-2.35-2.49l-.58-.66c-.59-.66-1.17-1.34-1.73-2l-.63-.76c-.72-.89-1.43-1.8-2.11-2.73h0l38.81,52.87c.68.92,1.39,1.83,2.11,2.73l.63.76c.56.68,1.14,1.36,1.73,2,.19.22.38.44.58.65.76.85,1.54,1.68,2.35,2.49l.46.46c.67.67,1.35,1.33,2.05,2l.75.69c.71.65,1.44,1.29,2.18,1.91.15.13.3.27.46.39.88.74,1.79,1.46,2.71,2.16l.72.55c.73.54,1.46,1.06,2.2,1.58l.82.58c1,.66,1.95,1.31,2.95,1.94l.09,0c1,.61,2,1.2,3,1.78l.9.51c.82.45,1.64.9,2.47,1.33l.8.42c1.08.55,2.16,1.08,3.26,1.59l.66.3c.92.41,1.84.82,2.77,1.21l1,.42c1,.4,2,.79,2.94,1.16l.59.22c1.17.44,2.36.85,3.57,1.25l.95.31c.94.3,1.89.59,2.84.87l1,.31c1.25.36,2.5.7,3.77,1l.21,0c1.21.3,2.44.59,3.67.86l1.13.24c1,.22,2.06.42,3.1.61l1,.19q2,.36,4,.66l.84.12c1.11.16,2.22.31,3.34.44l1.23.15c1.2.14,2.4.26,3.61.37l.64.06c1.41.12,2.84.22,4.27.31l1.15.06c1.12.06,2.24.11,3.38.15l1.22,0c1.47,0,2.95.07,4.44.07h.33c1.39,0,2.79,0,4.2,0l1.32,0c1.19,0,2.39-.08,3.6-.13l1.09,0c1.54-.08,3.08-.17,4.63-.29l1-.08,3.8-.33,1.39-.14c1.37-.14,2.76-.29,4.15-.46l.66-.08c1.6-.2,3.21-.42,4.83-.65l1.31-.2,3.78-.6,1.35-.23c1.65-.28,3.29-.58,4.95-.9l.08,0,.51-.1c1.35-.26,2.7-.54,4.06-.83l1.52-.33c1.08-.23,2.16-.48,3.24-.73l1.64-.38,3.41-.83,1.37-.35q2.37-.6,4.77-1.26l.09,0,2.56-.73,1.48-.41,3.68-1.1.64-.19c1.35-.41,2.7-.84,4.05-1.27l1.44-.47,2.68-.88.07,0c2.17-.73,4.34-1.49,6.53-2.28l1.19-.43q3.18-1.15,6.38-2.4l.49-.18.81-.33q2.57-1,5.15-2.06l.88-.36q2.91-1.21,5.84-2.48l.58-.25.88-.39c1.52-.67,3-1.36,4.58-2l1.18-.54c1.86-.86,3.73-1.73,5.59-2.63l.41-.19,2.25-1.1,1.4-.69c1.41-.69,2.81-1.39,4.22-2.11s2.92-1.5,4.37-2.26l.47-.25,3.95-2.12,1.67-.9c1.86-1,3.72-2.05,5.56-3.1l.06,0,.92-.53q2.25-1.27,4.47-2.59l1.93-1.15c1.16-.69,2.32-1.38,3.47-2.08l.49-.3,1.66-1c1.07-.66,2.14-1.32,3.2-2L563.7,714l3-2,.9-.58,1.35-.9,3-2,2.24-1.52,3-2,1.26-.87.9-.65,3.2-2.28,2-1.45c1.15-.83,2.28-1.68,3.42-2.52l1.37-1,.32-.24c1.72-1.3,3.44-2.61,5.14-3.93l.63-.5q2.22-1.74,4.43-3.51l.43-.34c.39-.31.76-.63,1.14-.94q1.83-1.47,3.63-3l1.8-1.51c1.15-1,2.3-1.94,3.43-2.92l1.11-.93.53-.47c1.75-1.53,3.5-3.06,5.21-4.6l.4-.36c1.59-1.43,3.16-2.88,4.72-4.33l.62-.57.76-.72c1.69-1.59,3.37-3.19,5-4.8l.67-.65q2.73-2.65,5.38-5.36l.58-.58,1.17-1.21,1.82-1.89,2-2.1c.6-.63,1.19-1.26,1.78-1.9s1.31-1.41,2-2.12l1.74-1.9,1.93-2.16c.56-.63,1.13-1.26,1.68-1.9.18-.19.35-.39.53-.59l.66-.78c1.38-1.59,2.75-3.18,4.09-4.78l.9-1.07c1.54-1.84,3-3.7,4.53-5.56l1-1.27c1.28-1.62,2.55-3.25,3.79-4.88l.78-1c1.42-1.87,2.8-3.76,4.17-5.64l.37-.51c.25-.34.48-.68.72-1,.82-1.14,1.62-2.28,2.41-3.42l1.17-1.68q1.28-1.87,2.52-3.75c.27-.41.55-.82.82-1.24,1.09-1.64,2.15-3.3,3.19-4.95.23-.38.46-.76.7-1.13q1.2-1.94,2.36-3.87c.34-.56.67-1.12,1-1.68.68-1.15,1.35-2.3,2-3.46.32-.55.64-1.1,1-1.65q1.13-2,2.21-4l.54-1q1.32-2.49,2.58-5c.23-.45.44-.9.67-1.34q.91-1.85,1.8-3.69c.12-.26.25-.51.37-.77.26-.55.51-1.1.76-1.65l.54-1.16c.6-1.31,1.18-2.61,1.75-3.92,0-.08.07-.16.1-.25.53-1.22,1-2.44,1.54-3.65.17-.41.33-.81.49-1.22q.57-1.39,1.11-2.79l.48-1.25c.41-1.07.8-2.15,1.19-3.22.08-.23.17-.46.25-.68.46-1.3.9-2.59,1.33-3.87.12-.35.23-.7.34-1.05.2-.62.41-1.24.6-1.85l.26-.86c.2-.64.39-1.28.58-1.92s.44-1.49.65-2.24.36-1.28.53-1.92.4-1.48.59-2.22l.48-1.91c.18-.74.35-1.47.52-2.21s.29-1.27.42-1.9c.07-.31.15-.62.21-.93.12-.55.22-1.08.33-1.62.07-.38.15-.76.22-1.13.24-1.26.47-2.52.68-3.77a2.34,2.34,0,0,1,0-.26c.19-1.16.36-2.33.52-3.49l.15-1.17c.06-.48.13-1,.19-1.44s.1-.9.15-1.35l.09-.88C713.46,512,713.56,510.82,713.65,509.63Z"/><path class="cls-2" d="M362.94,713.5c-27.87,0-52.05-6.4-69.94-18.52-18.64-12.61-30.1-30.71-34.09-53.8-13.72-79.44,68-191.39,182.17-249.56,44.18-22.51,87.95-34.41,126.59-34.41,27.86,0,52,6.4,69.94,18.52,18.63,12.61,30.1,30.71,34.08,53.8,13.72,79.44-68,191.39-182.17,249.56C445.34,701.6,401.57,713.5,362.94,713.5Z"/><path class="cls-3" d="M567.67,359.21c27.46,0,51.26,6.28,68.82,18.17,18.16,12.3,29.34,30,33.23,52.49,3.28,19,1.11,40.2-6.45,63.05-7.37,22.28-19.51,45.13-36.1,67.91-34.24,47-83.45,88.4-138.56,116.48-43.89,22.37-87.35,34.19-125.67,34.19-27.46,0-51.26-6.28-68.82-18.17-18.17-12.3-29.35-30-33.24-52.49-3.28-19-1.11-40.2,6.45-63.05,7.37-22.28,19.52-45.13,36.1-67.91,34.25-47,83.45-88.41,138.56-116.48,43.89-22.37,87.35-34.19,125.68-34.19h0m0-4c-37.44,0-81.64,11.26-127.5,34.62C325.1,448.47,243.06,561.15,256.94,641.52c8.35,48.34,49.48,74,106,74,37.44,0,81.63-11.26,127.49-34.62,115.08-58.64,197.11-171.32,183.24-251.69-8.35-48.34-49.49-74-106-74Z"/><path class="cls-4" d="M480.26,446.82l5.66,7.71.4,55-38.5-12.64-5.62-7.67L478,501l2.64.86,0-2.78-.38-52.21m-2-6.16.42,58.39-41.75-13.72,9.7,13.22,41.75,13.71-.42-58.39-9.7-13.21Z"/><polygon class="cls-5" points="478.22 440.66 478.64 499.05 436.89 485.33 436.79 470.99 478.22 440.66"/><path class="cls-4" d="M480.81,521.21l5.66,7.71.3,40.63-109-35.81-5.62-7.67L478.46,561l2.64.87,0-2.78-.27-37.88M478.76,515l.32,44.06L366.82,522.22l9.7,13.22,112.27,36.88-.33-44.06L478.76,515Z"/><polygon class="cls-5" points="408.25 491.88 478.76 515.04 479.08 559.1 366.82 522.22 408.25 491.88"/><polygon class="cls-6" points="356.04 534.73 397.79 548.45 398.33 622.85 356.9 653.18 356.04 534.73"/><path class="cls-4" d="M399.84,554.62l5.66,7.71.53,72.73L367,663.6l-7.33-10,39.81-29.15.83-.6v-1l-.49-68.21m-2-6.17.54,74.4L356.9,653.18l9.7,13.22L408,636.07l-.53-74.4-9.71-13.22Z"/><path class="cls-4" d="M467.87,574.4l7.34,10-39,28.55-12-4-5.63-7.66,7.66,2.51,1,.32.83-.6,39.82-29.17m.43-2.79L426.86,602l-13.58-4.46,9.7,13.22,13.59,4.46L478,584.83l-9.71-13.22Z"/><polygon class="cls-6" points="412.95 553.43 468.31 571.61 426.87 601.95 413.27 597.49 412.95 553.43"/><path class="cls-4" d="M537,454.19l5.66,7.72.52,72.73-39,28.55-7.34-10L536.66,524l.83-.6v-1L537,454.19m-2-6.16.54,74.4-41.43,30.33,9.7,13.22,41.43-30.34-.54-74.39L534.94,448Z"/><polygon class="cls-6" points="493.19 434.32 534.94 448.03 535.48 522.43 494.05 552.76 493.19 434.32"/><polygon class="cls-6" points="550.11 453.01 605.45 471.19 564.02 501.53 550.43 497.07 550.11 453.01"/><path class="cls-4" d="M605,474l7.34,10-39,28.55-12-3.95-5.63-7.66,7.66,2.51,1,.32.83-.6L605,474m.43-2.8L564,501.53l-13.59-4.46,9.7,13.22,13.59,4.46,41.44-30.34-9.71-13.22Z"/><path class="cls-7" d="M267.4,658.72l-11.95-1.08c6-66.51-3.7-137-29-209.59C206.22,389.81,176,330.14,136.6,270.69,78.87,183.53,18.13,122.34,1.82,106.52a6,6,0,0,1-.23-8.37h0a6,6,0,0,1,8.58-.24c16.77,16.28,78.2,78.23,136.44,166.16,39.93,60.28,70.61,120.85,91.21,180C263.65,518.29,273.6,590.5,267.4,658.72Z"/><path class="cls-8" d="M621.61,364.87a6,6,0,0,1-6.82,5.19c-65.08-9.15-130.27-33.47-193.85-72.36-52.3-32-103.64-73.82-152.59-124.37C197.14,99.81,151.53,28.7,139.52,9.14A6,6,0,0,1,141.63.81h0a6,6,0,0,1,8.11,2.05c11.68,19,56.8,89.45,127.43,162.33,48.24,49.78,98.76,90.94,150.17,122.36,62.15,38,125.76,61.73,189.19,70.64a6,6,0,0,1,5.08,6.68Z"/><path class="cls-9" d="M205.92,172.54c53.06-27,101.26-18.91,107.66,18.15s-31.43,89-84.49,116.06S127.83,325.66,121.43,288.6,152.86,199.58,205.92,172.54Z"/><path class="cls-10" d="M436.88,534.15,70.65,57.88a6,6,0,0,1,1.1-8.41h0a6,6,0,0,1,8.41,1.1L446.4,526.84Z"/></g></g></svg>