<svg xmlns="http://www.w3.org/2000/svg" xmlns:xlink="http://www.w3.org/1999/xlink" viewBox="0 0 783.81 867.54"><defs><style>.cls-1{isolation:isolate;}.cls-2{fill:url(#未命名的渐变_304);}.cls-3{fill:url(#未命名的渐变_184);}.cls-4{fill:#fff;}.cls-5{mix-blend-mode:multiply;opacity:0.2;}.cls-6{fill:url(#未命名的渐变_142);}.cls-7{fill:url(#未命名的渐变_142-2);}.cls-8{fill:url(#未命名的渐变_150);}.cls-10,.cls-9{fill:none;stroke-miterlimit:10;stroke-width:12px;}.cls-9{stroke:url(#未命名的渐变_240);}.cls-10{stroke:url(#未命名的渐变_240-2);}</style><linearGradient id="未命名的渐变_304" x1="16.41" y1="225.59" x2="458.58" y2="225.59" gradientUnits="userSpaceOnUse"><stop offset="0" stop-color="#ea15ff"/><stop offset="1" stop-color="#000594"/></linearGradient><radialGradient id="未命名的渐变_184" cx="209.89" cy="180.15" r="193.59" gradientUnits="userSpaceOnUse"><stop offset="0" stop-color="#f5cede"/><stop offset="1" stop-color="#2700ff"/></radialGradient><linearGradient id="未命名的渐变_142" x1="1341.45" y1="1362.48" x2="1526.64" y2="1744.94" gradientTransform="translate(1973.88 1910.79) rotate(180)" gradientUnits="userSpaceOnUse"><stop offset="0" stop-color="#f552ff"/><stop offset="1" stop-color="#6f00ff" stop-opacity="0"/></linearGradient><linearGradient id="未命名的渐变_142-2" x1="1384.9" y1="1314.79" x2="1867.92" y2="1314.79" xlink:href="#未命名的渐变_142"/><linearGradient id="未命名的渐变_150" x1="1434.27" y1="1328.55" x2="1662.62" y2="1631.49" gradientTransform="translate(1973.88 1910.79) rotate(180)" gradientUnits="userSpaceOnUse"><stop offset="0" stop-color="#f552ff"/><stop offset="0.69" stop-color="#6f00ff" stop-opacity="0"/></linearGradient><linearGradient id="未命名的渐变_240" x1="677.46" y1="562.47" x2="804.71" y2="731.3" gradientTransform="translate(-201.08 -62)" gradientUnits="userSpaceOnUse"><stop offset="0" stop-color="#f552ff"/><stop offset="1" stop-color="#6f00ff"/></linearGradient><linearGradient id="未命名的渐变_240-2" x1="734.05" y1="896.86" x2="798.15" y2="981.9" gradientTransform="translate(-45.73 -122.87)" xlink:href="#未命名的渐变_240"/></defs><g class="cls-1"><g id="图层_2" data-name="图层 2"><g id="图层_1-2" data-name="图层 1"><path class="cls-2" d="M458.24,154.42c0-.2,0-.4,0-.6.08-1,.13-2,.18-3.06,0-.31,0-.61,0-.92l0-.69c0-.33,0-.66,0-1,0-1.06,0-2.12,0-3.18,0-.53,0-1,0-1.58,0-1.07-.05-2.13-.1-3.2,0-.32,0-.65,0-1l0-.39c-.06-1.1-.14-2.19-.24-3.28,0-.32,0-.63-.07-.94-.14-1.4-.3-2.78-.48-4.16a1,1,0,0,1,0-.17c-.16-1.15-.34-2.3-.53-3.43q-.22-1.29-.48-2.55c0-.27-.11-.53-.17-.8-.11-.55-.23-1.1-.35-1.64v0c-.27-1.18-.57-2.34-.88-3.5l-.21-.76c-.31-1.14-.64-2.26-1-3.37a.93.93,0,0,0,0-.13c0-.11-.08-.22-.11-.33-.33-1-.67-2-1-2.94-.07-.21-.15-.43-.23-.65-.4-1-.81-2.08-1.25-3.11l-.09-.23-.18-.4c-.41-1-.84-1.9-1.29-2.83-.06-.12-.11-.25-.17-.37-.49-1-1-2-1.52-3-.06-.11-.11-.22-.17-.32s-.13-.22-.19-.33c-.54-1-1.1-2-1.68-2.92l-.18-.29c-.54-.89-1.11-1.78-1.7-2.65l-.21-.34-.17-.23c-.51-.76-1-1.51-1.58-2.24L403.37,38c.54.74,1.07,1.49,1.58,2.24l.39.58c.58.87,1.15,1.75,1.7,2.65l.17.28c.58,1,1.14,1.94,1.68,2.92l.36.66c.52,1,1,2,1.52,3l.17.36c.45.93.88,1.88,1.29,2.84l.28.63c.43,1,.84,2.06,1.24,3.11l.24.65c.35,1,.7,1.94,1,2.94l.15.45c.36,1.11.69,2.24,1,3.37.07.25.14.51.2.77.32,1.15.61,2.32.88,3.5.13.55.24,1.12.36,1.68.06.27.12.53.17.8.17.85.33,1.69.48,2.55.2,1.19.39,2.4.55,3.6.19,1.38.35,2.77.48,4.16,0,.31,0,.63.07.94.1,1.09.18,2.19.24,3.29,0,.45,0,.91.06,1.37,0,1.06.08,2.13.1,3.2,0,.52,0,1,0,1.58,0,1,0,2.11,0,3.18,0,.56,0,1.11-.05,1.68,0,.3,0,.61,0,.91,0,1-.1,2-.17,3.06,0,.2,0,.4,0,.6-.09,1.19-.2,2.39-.32,3.58,0,.3-.07.59-.1.89q-.15,1.4-.33,2.79c-.05.39-.1.78-.16,1.17-.16,1.16-.33,2.32-.52,3.49a1.87,1.87,0,0,1,0,.25c-.21,1.26-.43,2.51-.68,3.77-.07.38-.14.76-.22,1.13-.17.85-.35,1.7-.53,2.56-.14.63-.28,1.26-.43,1.9s-.34,1.47-.52,2.21-.31,1.27-.48,1.91-.38,1.48-.58,2.22-.35,1.28-.53,1.92-.43,1.49-.65,2.23-.39,1.28-.58,1.93c-.28.9-.57,1.8-.87,2.71-.11.35-.22.69-.34,1-.42,1.29-.87,2.58-1.33,3.87-.08.23-.16.46-.25.69-.38,1.07-.78,2.14-1.19,3.22-.15.41-.32.83-.48,1.25-.36.93-.73,1.86-1.1,2.79-.17.4-.33.81-.49,1.21-.5,1.22-1,2.44-1.54,3.66,0,.08-.07.17-.11.25-.56,1.3-1.15,2.61-1.75,3.92l-.53,1.16c-.37.8-.76,1.61-1.14,2.42-.59,1.22-1.19,2.45-1.8,3.68l-.66,1.34q-1.26,2.49-2.59,5c-.17.33-.36.66-.53,1-.73,1.34-1.46,2.68-2.22,4-.31.56-.63,1.11-.94,1.66q-1,1.72-2,3.45l-1,1.68q-1.17,1.94-2.37,3.87c-.23.38-.46.76-.7,1.14q-1.56,2.48-3.18,4.95l-.83,1.24q-1.24,1.88-2.52,3.75l-1.16,1.68c-.79,1.14-1.6,2.28-2.41,3.42l-1.1,1.53q-2,2.84-4.17,5.65l-.78,1c-1.24,1.64-2.51,3.26-3.79,4.89l-1,1.27q-2.22,2.79-4.53,5.56l-.9,1.07q-2,2.4-4.08,4.78l-1.19,1.37-1.68,1.89-1.94,2.17-1.73,1.89c-.65.71-1.3,1.42-2,2.13s-1.18,1.26-1.77,1.89l-2,2.11c-.61.63-1.21,1.26-1.82,1.88l-1.76,1.8c-1.77,1.79-3.55,3.58-5.37,5.36l-.68.65c-1.65,1.61-3.32,3.2-5,4.79l-1.39,1.3c-1.55,1.45-3.13,2.89-4.72,4.33l-.39.35q-2.58,2.32-5.22,4.6l-1.63,1.41-3.43,2.92-1.81,1.5q-1.8,1.5-3.62,3l-1.58,1.28q-2.19,1.77-4.43,3.51l-.62.49c-1.71,1.32-3.42,2.64-5.15,3.94l-1.69,1.25c-1.13.85-2.27,1.69-3.41,2.53l-2,1.44-3.2,2.29L283,296.87c-1,.68-2,1.37-3,2l-2.23,1.52c-1,.68-2,1.35-3,2l-2.25,1.49-3.06,2-2.24,1.43-3.2,2-2.14,1.32-3.48,2.09-1.92,1.15L252,316.47l-1,.56c-1.85,1.05-3.7,2.08-5.57,3.1-.55.31-1.12.61-1.68.91-1.31.71-2.62,1.42-3.94,2.11q-2.42,1.28-4.84,2.52c-1.41.71-2.81,1.42-4.21,2.11l-1.41.69-2.65,1.29c-1.87.89-3.73,1.77-5.59,2.62l-1.19.54q-2.29,1.05-4.58,2.05l-1.46.64q-2.93,1.27-5.83,2.48l-.89.36c-1.72.71-3.43,1.4-5.15,2.07l-1.3.51c-2.13.82-4.26,1.62-6.37,2.4l-1.2.43c-2.18.78-4.36,1.55-6.52,2.28l-2.76.9-1.44.48-4.05,1.27-.64.19c-1.23.37-2.45.74-3.67,1.09l-1.49.42-2.65.75q-2.39.66-4.77,1.26l-1.37.34c-1.14.29-2.27.57-3.41.84l-1.64.38-3.23.73-1.53.33c-1.35.28-2.7.56-4,.82-.2,0-.4.09-.61.12-1.65.32-3.3.62-4.94.91l-1.37.22c-1.26.22-2.51.41-3.76.6L138,358c-1.61.24-3.22.46-4.82.66l-.68.08c-1.38.16-2.76.32-4.14.46l-1.39.14-3.79.33-1,.08c-1.55.11-3.09.21-4.62.29l-1.1.05c-1.21.05-2.41.1-3.6.13l-1.32,0c-1.4,0-2.8.05-4.19.05H107c-1.49,0-3,0-4.43-.07l-1.24,0L98,360,96.79,360c-1.43-.09-2.85-.19-4.26-.31l-.66-.07c-1.2-.11-2.4-.23-3.59-.36l-1.23-.15c-1.13-.14-2.24-.28-3.35-.44l-.84-.12c-1.35-.21-2.69-.43-4-.67l-1-.18c-1-.19-2.07-.4-3.09-.61l-1.13-.25c-1.24-.27-2.47-.55-3.69-.86l-.19,0c-1.27-.32-2.53-.67-3.77-1l-1-.31c-1-.28-1.91-.57-2.85-.88l-1-.31c-1.21-.4-2.4-.81-3.57-1.24l-.58-.22c-1-.38-2-.76-2.94-1.16l-1-.42c-.94-.4-1.86-.8-2.77-1.22l-.66-.29c-1.1-.52-2.19-1-3.26-1.59l-.8-.42c-.84-.44-1.66-.88-2.47-1.34l-.9-.5c-1-.58-2-1.17-3-1.79l-.08-.05c-1-.62-2-1.28-3-1.94l-.82-.57q-1.11-.78-2.19-1.59l-.73-.54c-.92-.7-1.82-1.42-2.71-2.16l-.46-.39c-.74-.63-1.46-1.26-2.18-1.91l-.75-.69c-.69-.65-1.38-1.31-2.05-2l-.46-.45c-.8-.81-1.58-1.64-2.35-2.49l-.58-.66c-.59-.66-1.16-1.34-1.73-2l-.63-.76c-.72-.89-1.42-1.8-2.11-2.73h0l38.81,52.87c.68.93,1.39,1.83,2.11,2.73l.63.76c.56.69,1.14,1.36,1.73,2l.58.66c.77.84,1.55,1.67,2.35,2.49l.46.45c.67.67,1.35,1.33,2,2l.75.69c.71.65,1.44,1.29,2.18,1.91l.46.4c.88.73,1.79,1.45,2.71,2.15l.73.55q1.08.81,2.19,1.59l.82.57c1,.66,2,1.31,3,1.94l.08.05c1,.61,2,1.2,3,1.78l.91.51c.81.45,1.63.9,2.46,1.33l.81.42c1.07.55,2.15,1.08,3.26,1.59l.66.3c.91.42,1.83.82,2.76,1.21l1,.42c1,.4,1.95.79,2.94,1.16l.58.22c1.17.44,2.36.85,3.57,1.25l1,.31,2.84.88,1,.3c1.25.36,2.5.7,3.78,1l.2.05c1.21.3,2.44.59,3.67.86l1.13.24c1,.22,2.06.42,3.1.62l1,.18q2,.36,4,.66l.84.12c1.11.16,2.22.31,3.35.45l1.22.14c1.2.14,2.4.26,3.61.37l.64.06c1.41.12,2.84.22,4.28.31l1.14.06c1.12.06,2.25.11,3.38.15l1.22,0c1.47,0,3,.07,4.44.07h.33c1.39,0,2.79,0,4.2,0l1.32,0c1.19,0,2.4-.07,3.6-.13l1.1-.05c1.53-.08,3.07-.17,4.62-.29l1-.08,3.8-.33,1.39-.14c1.38-.14,2.76-.29,4.15-.46l.67-.08c1.6-.2,3.2-.42,4.82-.65l1.31-.2,3.78-.6,1.35-.23q2.47-.42,5-.9l.08,0,.51-.1c1.35-.26,2.7-.54,4.06-.83.51-.1,1-.22,1.52-.33,1.08-.23,2.16-.47,3.24-.73l1.64-.38,3.41-.83,1.37-.34q2.37-.62,4.77-1.27l.09,0,2.56-.72,1.49-.42c1.22-.36,2.44-.72,3.67-1.1l.64-.19c1.35-.41,2.7-.83,4.05-1.27l1.44-.47,2.68-.88.07,0q3.25-1.1,6.53-2.28l1.19-.43q3.18-1.16,6.38-2.4l.49-.18.81-.33q2.56-1,5.15-2.06l.88-.36c1.94-.81,3.89-1.63,5.84-2.48l.59-.25.87-.39q2.28-1,4.58-2l1.19-.54c1.86-.86,3.72-1.73,5.58-2.63l.41-.19,2.25-1.1,1.41-.69q2.1-1,4.21-2.11c1.46-.74,2.92-1.5,4.37-2.26l.47-.25,4-2.12,1.66-.9c1.86-1,3.72-2.05,5.56-3.1l.06,0,.92-.53c1.5-.86,3-1.72,4.48-2.6l1.92-1.15c1.16-.69,2.32-1.38,3.47-2.08l.49-.29c.56-.34,1.1-.69,1.66-1,1.07-.66,2.14-1.32,3.2-2l2.24-1.43,3.06-2,.89-.58c.45-.29.9-.6,1.35-.9l3-2,2.23-1.52,3-2,1.26-.87.9-.65c1.08-.75,2.14-1.52,3.2-2.28l2-1.45c1.14-.83,2.28-1.68,3.41-2.52l1.38-1,.31-.24q2.6-1.95,5.14-3.93l.63-.5c1.49-1.16,3-2.33,4.43-3.51l.44-.34,1.13-.94q1.83-1.47,3.63-3l1.8-1.51c1.16-1,2.3-1.94,3.44-2.91.36-.32.73-.63,1.1-.94l.53-.47c1.76-1.52,3.5-3.06,5.22-4.6l.39-.36c1.59-1.43,3.16-2.88,4.72-4.33.21-.19.42-.37.62-.57l.76-.72c1.7-1.59,3.37-3.19,5-4.8l.67-.64q2.71-2.67,5.37-5.37c.19-.19.39-.38.58-.58l1.17-1.21,1.83-1.89c.67-.69,1.33-1.4,2-2.1l1.79-1.89,1.95-2.13c.59-.63,1.17-1.27,1.74-1.9l1.93-2.16c.56-.63,1.13-1.26,1.69-1.9l.52-.58.66-.78q2.08-2.39,4.09-4.79c.3-.36.61-.71.9-1.07,1.54-1.84,3.05-3.7,4.53-5.56l1-1.27c1.28-1.62,2.55-3.25,3.79-4.88l.78-1c1.42-1.87,2.8-3.76,4.17-5.64l.37-.51.73-1c.81-1.14,1.61-2.29,2.41-3.43l1.16-1.68q1.28-1.87,2.52-3.75l.83-1.23q1.62-2.48,3.18-5l.7-1.13q1.2-1.93,2.36-3.87c.34-.56.67-1.12,1-1.68.68-1.15,1.35-2.3,2-3.46l.94-1.65c.75-1.34,1.49-2.69,2.21-4l.54-1q1.32-2.49,2.58-5c.23-.45.45-.9.67-1.34q.91-1.85,1.8-3.69c.12-.26.25-.51.37-.77l.77-1.65c.17-.39.36-.77.53-1.16.6-1.3,1.18-2.61,1.75-3.91l.11-.26c.52-1.22,1-2.43,1.53-3.65l.5-1.22c.37-.93.74-1.86,1.1-2.79l.48-1.25c.41-1.07.81-2.15,1.19-3.22.08-.23.17-.46.25-.68.46-1.29.9-2.58,1.33-3.87.12-.35.23-.7.34-1.05.2-.62.41-1.24.61-1.85.09-.29.17-.57.25-.86.2-.64.39-1.28.59-1.92s.43-1.49.64-2.23.36-1.29.54-1.93.39-1.48.58-2.22l.48-1.91c.18-.74.35-1.47.52-2.21s.29-1.27.43-1.9c.06-.31.14-.62.21-.93.11-.54.21-1.08.32-1.62.07-.38.15-.76.22-1.13.24-1.26.47-2.52.68-3.77a2.34,2.34,0,0,1,0-.26c.19-1.16.36-2.33.52-3.49.06-.39.1-.78.15-1.16s.14-1,.19-1.45.1-.9.15-1.35c0-.29.07-.59.1-.88C458.05,156.8,458.16,155.61,458.24,154.42Z"/><path class="cls-3" d="M107.53,358.29c-27.86,0-52-6.4-69.94-18.52C19,327.16,7.49,309.06,3.5,286c-13.71-79.44,68-191.39,182.17-249.56C229.85,13.9,273.62,2,312.26,2c27.86,0,52,6.4,69.94,18.52,18.63,12.61,30.1,30.72,34.09,53.8,13.71,79.44-68,191.39-182.18,249.56C189.94,346.39,146.16,358.29,107.53,358.29Z"/><path class="cls-4" d="M312.27,4c27.45,0,51.25,6.28,68.81,18.18,18.16,12.29,29.35,30,33.24,52.48,3.27,19,1.1,40.2-6.45,63.05-7.38,22.28-19.52,45.13-36.11,67.91-34.24,47-83.45,88.4-138.56,116.48-43.89,22.37-87.35,34.19-125.67,34.19-27.46,0-51.26-6.28-68.82-18.17-18.17-12.3-29.35-30-33.24-52.49-3.28-19-1.11-40.2,6.45-63,7.37-22.28,19.52-45.13,36.1-67.91,34.25-47,83.46-88.4,138.56-116.48C230.48,15.82,273.93,4,312.26,4h0m0-4c-37.44,0-81.64,11.26-127.49,34.62C69.69,93.26-12.35,205.94,1.53,286.31c8.35,48.34,49.49,74,106,74C145,360.29,189.16,349,235,325.67,350.1,267,432.13,154.35,418.26,74c-8.35-48.34-49.49-74-106-74Z"/><g class="cls-5"><path d="M325.18,110.64c22.93,35.2-7,98-66.84,140.25a225.85,225.85,0,0,1-27.7,16.77c-51.57,26.28-102.72,25.83-122.15-4-.63-1-1.19-2-1.77-3s-1.18-2.31-1.73-3.49a33,33,0,0,1-2.11-6c-5.67-20.22.9-46.33,18.25-72.57,17.6-26.63,44.11-50.71,74.09-67.56a86.18,86.18,0,0,1,7.82-4.33C255.83,79.78,306.16,81.42,325.18,110.64Zm-17.73,43.05c2.88-33.49-25.05-51.1-66.74-42.1l-.36.18a58.54,58.54,0,0,0-7.77,2.66q-2.1.9-4.15,1.95c-11.32,5.77-21.59,14.7-28.09,24.56-6.85,11-10.34,21.89-10,31.31q5.68-3.7,11.53-7,4.35-2.49,8.74-4.73a177.4,177.4,0,0,1,25.47-10.65l-.45-2.61c-.45.25-.91.5-1.37.73s-.91.46-1.37.67c-10.33,4-18.52,1.13-18.63-6.56-.11-7.44,7.36-16.8,17.07-21.75.7-.36,1.41-.69,2.14-1l1.08-.55c13.55-5.14,27.08-.92,28.28,24.72,18.7-2.13,34.38,1.45,44.61,10.19m-21.53,47.67c6.2-11.06,6.51-21.39.85-27.68-5.85-6.07-15-9.23-26.26-9.06a96.52,96.52,0,0,1-3.23,9.95,128.19,128.19,0,0,1-16.08,29.69l.41-.25c1.22-.11,2.38-.26,3.48-.43a25.42,25.42,0,0,1,1.23-2.36l.35-.61a36.76,36.76,0,0,1,13.76-12.07,26.9,26.9,0,0,1,11.7-3.19c9.39-.06,12.81,7.35,7.63,16.55-.23.35-.36.85-.62,1-3.5,5.45-9.33,10.85-17.71,15.12-9.53,4.85-22.37,8.25-38.81,8.6a180.38,180.38,0,0,1-45.34,33q-5,2.56-10.15,4.75c18.54,1.5,40.25-4.06,61.13-14.7A176.58,176.58,0,0,0,281.43,208a51.55,51.55,0,0,0,4.49-6.66M132.64,245.52c6.6,5.53,18.17,6,31,1.4a87.14,87.14,0,0,0,10.18-4.4,138.89,138.89,0,0,0,26.28-17.92,51.48,51.48,0,0,1-8.28-2.91,43,43,0,0,1-18.52-14.18l-2.93,2.94a9,9,0,0,1,1.54,1.07c5.29,4.76,2,15-7.28,22.85a38.53,38.53,0,0,1-7.24,4.83c-7.52,3.83-15.21,4.37-19.18.8a3.77,3.77,0,0,1-.54-.51c-6.25-6.47-1.56-22.09,28.1-48.51-2.77-13.81,1.13-30.69,11.1-48-36.61,28.9-56.68,67.48-49,94.33a36.7,36.7,0,0,0,1.53,4.27,13.23,13.23,0,0,0,3.27,4m70.29-49.36.65.5-.39.31a44.42,44.42,0,0,0,16.24,6.57A116.75,116.75,0,0,0,228.26,190l.55-1.07a84.89,84.89,0,0,0,7.37-20.29,134.1,134.1,0,0,0-15.3,5.7l-1.25.64c-1.28.61-2.57,1.24-3.85,1.9A168.6,168.6,0,0,0,196,188.77a30.45,30.45,0,0,0,6.91,7.39"/></g><path class="cls-4" d="M318.18,103.64c22.93,35.2-7,98-66.84,140.25a225.85,225.85,0,0,1-27.7,16.77c-51.57,26.28-102.72,25.83-122.15-4-.63-1-1.19-2-1.77-3s-1.18-2.31-1.73-3.49a33,33,0,0,1-2.11-6c-5.67-20.22.9-46.33,18.25-72.57,17.6-26.63,44.11-50.71,74.09-67.56A86.18,86.18,0,0,1,196,99.65C248.83,72.78,299.16,74.42,318.18,103.64Zm-17.73,43.05c2.88-33.49-25.05-51.1-66.74-42.1l-.36.18a58.54,58.54,0,0,0-7.77,2.66q-2.1.9-4.15,1.95c-11.32,5.77-21.59,14.7-28.09,24.56-6.85,11-10.34,21.89-10,31.31q5.68-3.7,11.53-7,4.35-2.49,8.74-4.73a177.4,177.4,0,0,1,25.47-10.65l-.45-2.61c-.45.25-.91.5-1.37.73s-.91.46-1.37.67c-10.33,4-18.52,1.13-18.63-6.56-.11-7.44,7.36-16.8,17.07-21.75.7-.36,1.41-.69,2.14-1l1.08-.55c13.55-5.14,27.08-.92,28.28,24.72,18.7-2.13,34.38,1.45,44.61,10.19m-21.53,47.67c6.2-11.06,6.51-21.39.85-27.68-5.85-6.07-15-9.23-26.26-9.06a96.52,96.52,0,0,1-3.23,9.95,128.19,128.19,0,0,1-16.08,29.69l.41-.25c1.22-.11,2.38-.26,3.48-.43a25.42,25.42,0,0,1,1.23-2.36l.35-.61a36.76,36.76,0,0,1,13.76-12.07,26.9,26.9,0,0,1,11.7-3.19c9.39-.06,12.81,7.35,7.63,16.55-.23.35-.36.85-.62,1-3.5,5.45-9.33,10.85-17.71,15.12-9.53,4.85-22.37,8.25-38.81,8.6a180.38,180.38,0,0,1-45.34,33q-5,2.56-10.15,4.75c18.54,1.5,40.25-4.06,61.13-14.7A176.58,176.58,0,0,0,274.43,201a51.55,51.55,0,0,0,4.49-6.66M125.64,238.52c6.6,5.53,18.17,6,31,1.4a87.14,87.14,0,0,0,10.18-4.4,138.89,138.89,0,0,0,26.28-17.92,51.48,51.48,0,0,1-8.28-2.91,43,43,0,0,1-18.52-14.18l-2.93,2.94a9,9,0,0,1,1.54,1.07c5.29,4.76,2,15-7.28,22.85a38.53,38.53,0,0,1-7.24,4.83c-7.52,3.83-15.21,4.37-19.18.8a3.77,3.77,0,0,1-.54-.51c-6.25-6.47-1.56-22.09,28.1-48.51-2.77-13.81,1.13-30.69,11.1-48-36.61,28.9-56.68,67.48-49,94.33a36.7,36.7,0,0,0,1.53,4.27,13.23,13.23,0,0,0,3.27,4m70.29-49.36.65.5-.39.31a44.42,44.42,0,0,0,16.24,6.57A116.75,116.75,0,0,0,221.26,183l.55-1.07a84.89,84.89,0,0,0,7.37-20.29,134.1,134.1,0,0,0-15.3,5.7l-1.25.64c-1.28.61-2.57,1.24-3.85,1.9A168.6,168.6,0,0,0,189,181.77a30.45,30.45,0,0,0,6.91,7.39"/><path class="cls-6" d="M460.22,122.33l11.95,1.09c-6,66.5,3.7,137,29,209.59,20.27,58.23,50.51,117.9,89.89,177.35,57.73,87.17,118.47,148.35,134.78,164.18a6,6,0,0,1,.22,8.37h0a6,6,0,0,1-8.58.23C700.68,666.86,639.25,604.92,581,517c-39.93-60.29-70.62-120.86-91.21-180C464,262.76,454,190.55,460.22,122.33Z"/><path class="cls-7" d="M106,416.18a6,6,0,0,1,6.82-5.19c65.08,9.15,130.27,33.48,193.85,72.36,52.3,32,103.63,73.83,152.59,124.37,71.21,73.53,116.81,144.64,128.83,164.2a6,6,0,0,1-2.11,8.32h0a6,6,0,0,1-8.12-2c-11.67-19-56.79-89.45-127.42-162.34-48.24-49.77-98.76-90.94-150.17-122.36-62.15-38-125.77-61.73-189.19-70.63a6,6,0,0,1-5.08-6.69Z"/><path class="cls-8" d="M290.73,246.9,657,723.17a6,6,0,0,1-1.1,8.42h0a6,6,0,0,1-8.42-1.1L281.22,254.22Z"/><ellipse class="cls-9" cx="540.01" cy="584.89" rx="137.2" ry="69.94" transform="translate(-231.5 388.73) rotate(-33.02)"/><ellipse class="cls-10" cx="720.37" cy="816.51" rx="65.01" ry="33.14" transform="translate(-328.58 524.42) rotate(-33.02)"/></g></g></g></svg>