<svg xmlns="http://www.w3.org/2000/svg" viewBox="0 0 143 96" class="design-iconfont">
  <g fill="none" fill-rule="evenodd">
    <path fill="#DB76FF" d="M16.2461538 64.2461538L40.9629138 3.69230769 50.2153846 26.3596782 34.7510955 64.2461538z"/>
    <path d="M40.9323713,0 L30.1724349,25.9930584 L14.0307692,64.9846154 L35.5510823,64.9846154 L40.9323713,51.9856791 L51.6923077,25.9930584 L40.9323713,0 Z M32.6149933,26.9922359 L40.9323713,6.90014578 L48.8359056,25.9930584 L38.4898129,50.9865015 L33.7821206,62.3590937 L17.9741715,62.3590937 L32.6149933,26.9922359 Z" fill="#010035"/>
    <path fill="#DB76FF" d="M47.3105715 64.2461538L44.3076923 56.7989234 53.513945 33.9692308 65.7230769 64.2461538z"/>
    <path d="M53.5908314,31.0153846 L44.6243331,52.7061036 L42.8307692,57.0445103 L46.4183371,65.7230769 L67.9384615,65.7230769 L53.5908314,31.0153846 Z M53.5908314,37.9251049 L63.9947343,63.0934739 L48.1876874,63.0934739 L45.6870879,57.0445103 L47.0672603,53.7066675 L53.5908314,37.9251049 Z" fill="#010035"/>
    <path fill="#DB76FF" d="M76.8 64.2461538L101.517196 3.69230769 110.769231 26.3596782 95.3049417 64.2461538z"/>
    <path d="M101.485903,0 L90.7260923,25.9930584 L74.5846154,64.9846154 L96.1051171,64.9846154 L101.485903,51.9856791 L112.246154,25.9930584 L101.485903,0 Z M93.1686222,26.9922359 L101.485903,6.90014578 L109.389785,25.9930584 L99.0429329,50.9865015 L94.3357358,62.3590937 L78.5279715,62.3590937 L93.1686222,26.9922359 Z" fill="#010035"/>
    <path fill="#DB76FF" d="M107.864418 64.2461538L104.861538 56.7989234 114.067357 33.9692308 126.276923 64.2461538z"/>
    <path d="M114.144678,31.0153846 L105.178179,52.7061036 L103.384615,57.0445103 L106.972183,65.7230769 L128.492308,65.7230769 L114.144678,31.0153846 Z M114.144678,37.9251049 L124.54858,63.0934739 L108.741534,63.0934739 L106.240934,57.0445103 L107.621106,53.7066675 L114.144678,37.9251049 Z" fill="#010035"/>
    <path fill="#00F4B9" d="M46.5230769 1.47692308L65.0280186 1.47692308 80.4923077 39.3633988 71.2398369 62.0307692z"/>
    <path d="M44.3076923,0 L60.448729,38.9919947 L71.2094201,64.9846154 L81.9692308,38.9919947 L71.2094201,12.9989363 L65.8281941,0 L44.3076923,0 Z M62.8916991,37.9928172 L48.2514887,2.62595932 L64.0583725,2.62595932 L68.76645,13.9981138 L79.1128621,38.9919947 L71.2094201,58.0844696 L62.8916991,37.9928172 Z" fill="#010035"/>
    <path fill="#00F4B9" d="M74.5846154 8.92404446L77.5879289 1.47692308 96 1.47692308 83.7908681 31.7538462z"/>
    <path d="M76.6952602,0 L73.1076923,8.67856658 L74.9012561,13.0169733 L83.8677545,34.7076923 L98.2153846,0 L76.6952602,0 Z M77.3437431,12.0164094 L75.9640109,8.67856658 L78.4646105,2.62960304 L94.2720976,2.62960304 L83.8677545,27.797972 L77.3437431,12.0164094 Z" fill="#010035"/>
    <path fill="#FFF" d="M9.78103014 78.2769231L0 96 8.49991873 96 14.0309895 85.9776 19.5616197 96 28.0615385 96 18.2809489 78.2769231z"/>
    <path fill="#FFF" d="M43.1925224 78.2769231L37.6615385 88.29888 32.1305545 78.2769231 23.6307692 78.2769231 33.4116458 96 41.9114311 96 51.6923077 78.2769231z"/>
    <path fill="#FFF" d="M91.7951336 78.2769231L91.7951336 90.1620185 86.0728904 90.1620185 83.219816 84.9261785 83.219816 78.2769231 75.3230769 78.2769231 75.3230769 86.4494769 80.5268166 96 80.861321 96 89.2539443 96 99.6923077 96 99.6923077 78.2769231z"/>
    <path fill="#FFF" d="M57.042415 78.2769231L47.2615385 96 55.7613237 96 61.2923077 85.9776 66.8232916 96 75.3230769 96 65.5422003 78.2769231z"/>
    <path fill="#FFF" d="M104.123077 78.2769231L104.123077 96 123.323077 96 123.323077 90.1620185 112.121425 90.1620185 112.121425 78.2769231z"/>
    <path fill="#FFF" d="M135.485046 78.2769231L127.407706 78.2769231 120.369231 78.2769231 120.369231 84.1149046 127.407706 84.1149046 127.407706 96 135.485046 96 135.485046 84.1149046 142.523077 84.1149046 142.523077 78.2769231z"/>
  </g>
</svg>
