<svg width="910" height="234" viewBox="0 0 910 234" fill="none" xmlns="http://www.w3.org/2000/svg">
<path fill-rule="evenodd" clip-rule="evenodd" d="M494.756 176.915H473.552L464.717 153.413H464.638L459.023 138.025H459.061L439.097 84.5711L418.95 138.025H418.975L413.244 153.445H413.281L404.459 176.915H383.417L427.426 61.7346H450.752L494.756 176.915ZM321.417 115.849C337.145 115.849 344.213 107.74 344.213 96.3219C344.213 84.7354 337.145 77.2915 321.417 77.2915H299.156V106.508H279V61.9146H321.417C350.575 61.9146 364.891 77.6357 364.891 96.3375C364.891 109.907 357.117 124.471 336.439 129.27L366.829 176.915H342.801L314.524 130.909H299.156V176.915H279V115.833H299.156L321.417 115.849ZM554.008 61.8989H513.905V152.259H534.053V77.2915H554.021C583.003 77.2915 598.555 93.5094 598.555 119.82C598.555 145.969 583.003 161.522 554.021 161.522H534.065V161.561H513.905V176.907H554.008C593.421 176.907 619.221 155.228 619.221 119.796C619.221 84.2387 593.421 61.8989 554.008 61.8989ZM659.336 176.903H639.193V61.8989H659.34L659.336 176.903ZM768.674 176.903H789.883L745.874 61.7346H722.548L678.543 176.915H699.572L708.407 153.413L714.126 138.025H714.059L734.207 84.5711L754.124 137.876H754.158L759.743 153.413H759.835L768.674 176.903ZM889.78 147.444V61.7346H909.927V176.915H889.78L829.162 91.0255V176.915H809.015V61.7346H829.162L889.78 147.444Z" fill="#131313"/>
<path d="M103.878 113.482L201.123 59.8058C202.246 59.1892 203.177 58.3083 203.824 57.2505C204.471 56.1928 204.812 54.995 204.812 53.776C204.812 52.5569 204.471 51.3591 203.824 50.3014C203.177 49.2436 202.246 48.3627 201.123 47.7461L115.663 0.962083C114.516 0.332119 113.211 0 111.882 0C110.553 0 109.248 0.332119 108.102 0.962083L3.67608 58.6167C2.55486 59.2356 1.62581 60.1182 0.981005 61.1769C0.336203 62.2356 -0.00196636 63.4337 8.60114e-06 64.6525L0.217231 179.797C0.221032 181.015 0.564086 182.21 1.21247 183.265C1.86086 184.32 2.79213 185.199 3.91419 185.814L89.1699 232.5C90.3051 233.121 91.5956 233.451 92.9106 233.456C94.2256 233.46 95.5186 233.139 96.6586 232.525C97.7987 231.912 98.7454 231.027 99.4029 229.96C100.06 228.894 100.405 227.684 100.403 226.452L100.202 119.518C100.2 118.299 100.539 117.101 101.183 116.042C101.828 114.984 102.757 114.101 103.878 113.482Z" fill="url(#paint0_linear_6395_56482)"/>
<path opacity="0.85" d="M120.245 231.166L198.153 188.337C199.278 187.718 200.211 186.834 200.857 185.772C201.504 184.711 201.842 183.51 201.839 182.288C201.836 181.066 201.49 179.867 200.838 178.808C200.185 177.75 199.248 176.871 198.12 176.257L120.212 133.944C119.077 133.328 117.789 133.002 116.477 133C115.165 132.998 113.876 133.32 112.739 133.933C111.602 134.546 110.658 135.429 110.002 136.493C109.345 137.557 109 138.763 109 139.992V225.134C109 226.365 109.348 227.575 110.008 228.64C110.667 229.705 111.616 230.589 112.757 231.201C113.898 231.813 115.191 232.132 116.506 232.126C117.821 232.12 119.111 231.789 120.245 231.166Z" fill="url(#paint1_linear_6395_56482)"/>
<path opacity="0.85" d="M199.593 168.165L121.69 125.336C120.564 124.718 119.631 123.834 118.983 122.773C118.336 121.711 117.997 120.51 118 119.287C118.003 118.065 118.349 116.865 119.002 115.807C119.656 114.749 120.594 113.869 121.723 113.257L199.627 70.9438C200.762 70.3274 202.05 70.0019 203.362 70C204.674 69.9981 205.964 70.3199 207.101 70.9329C208.238 71.546 209.183 72.4288 209.84 73.4923C210.496 74.5559 210.843 75.7627 210.843 76.9913V162.133C210.843 163.365 210.496 164.575 209.836 165.641C209.176 166.707 208.227 167.591 207.085 168.203C205.944 168.815 204.65 169.134 203.334 169.127C202.019 169.121 200.728 168.789 199.593 168.165Z" fill="url(#paint2_linear_6395_56482)"/>
<path opacity="0.85" d="M120.245 231.166L198.153 188.337C199.278 187.718 200.211 186.834 200.857 185.772C201.504 184.711 201.842 183.51 201.839 182.288C201.836 181.066 201.491 179.867 200.838 178.808C200.185 177.75 199.248 176.871 198.12 176.257L120.212 133.944C119.077 133.328 117.789 133.002 116.477 133C115.165 132.998 113.876 133.32 112.739 133.933C111.602 134.546 110.658 135.429 110.002 136.493C109.345 137.557 109 138.763 109 139.992V225.134C109 226.365 109.348 227.575 110.008 228.64C110.667 229.705 111.616 230.589 112.757 231.201C113.898 231.813 115.191 232.132 116.506 232.126C117.821 232.12 119.111 231.789 120.245 231.166Z" fill="url(#paint3_linear_6395_56482)" fill-opacity="0.8"/>
<path opacity="0.85" d="M199.593 168.165L121.69 125.336C120.564 124.718 119.631 123.834 118.983 122.773C118.336 121.711 117.997 120.51 118 119.287C118.003 118.065 118.349 116.865 119.002 115.807C119.656 114.749 120.594 113.869 121.723 113.257L199.627 70.9438C200.762 70.3274 202.05 70.0019 203.362 70C204.674 69.9981 205.964 70.3199 207.101 70.9329C208.238 71.546 209.183 72.4288 209.84 73.4923C210.496 74.5559 210.843 75.7627 210.843 76.9913V162.133C210.843 163.365 210.496 164.575 209.836 165.641C209.176 166.707 208.227 167.591 207.085 168.203C205.944 168.815 204.65 169.134 203.334 169.127C202.019 169.121 200.728 168.789 199.593 168.165Z" fill="url(#paint4_linear_6395_56482)" fill-opacity="0.9"/>
<defs>
<linearGradient id="paint0_linear_6395_56482" x1="18.6436" y1="188.982" x2="130.043" y2="14.1914" gradientUnits="userSpaceOnUse">
<stop stop-color="#79EFAE"/>
<stop offset="0.58" stop-color="#8E94FF"/>
<stop offset="1" stop-color="#C842F5"/>
</linearGradient>
<linearGradient id="paint1_linear_6395_56482" x1="78.2606" y1="219.153" x2="298.372" y2="13.3683" gradientUnits="userSpaceOnUse">
<stop stop-color="white"/>
<stop offset="1" stop-color="white"/>
</linearGradient>
<linearGradient id="paint2_linear_6395_56482" x1="130.51" y1="180.394" x2="279.421" y2="56.6628" gradientUnits="userSpaceOnUse">
<stop stop-color="white"/>
<stop offset="1" stop-color="white"/>
</linearGradient>
<linearGradient id="paint3_linear_6395_56482" x1="78.2606" y1="219.153" x2="298.372" y2="13.3683" gradientUnits="userSpaceOnUse">
<stop stop-color="#1A24E4"/>
<stop offset="1" stop-color="#CBCDFC" stop-opacity="0"/>
</linearGradient>
<linearGradient id="paint4_linear_6395_56482" x1="130.51" y1="180.394" x2="279.421" y2="56.6628" gradientUnits="userSpaceOnUse">
<stop stop-color="#1A24E4"/>
<stop offset="1" stop-color="#F0F0F0" stop-opacity="0"/>
</linearGradient>
</defs>
</svg>
