<svg width="382" height="382" viewBox="0 0 382 382" fill="none" xmlns="http://www.w3.org/2000/svg">
<circle cx="191" cy="191" r="191" fill="black"/>
<path d="M189.878 187.482L287.123 133.806C288.246 133.189 289.177 132.308 289.824 131.251C290.471 130.193 290.812 128.995 290.812 127.776C290.812 126.557 290.471 125.359 289.824 124.301C289.177 123.244 288.246 122.363 287.123 121.746L201.663 74.9621C200.516 74.3321 199.211 74 197.882 74C196.553 74 195.248 74.3321 194.102 74.9621L89.6761 132.617C88.5549 133.236 87.6258 134.118 86.981 135.177C86.3362 136.236 85.998 137.434 86 138.652L86.2172 253.797C86.221 255.015 86.5641 256.21 87.2125 257.265C87.8609 258.32 88.7921 259.199 89.9142 259.814L175.17 306.5C176.305 307.121 177.596 307.451 178.911 307.456C180.226 307.46 181.519 307.139 182.659 306.525C183.799 305.912 184.745 305.027 185.403 303.96C186.06 302.894 186.405 301.684 186.403 300.452L186.202 193.518C186.2 192.299 186.539 191.101 187.183 190.042C187.828 188.984 188.757 188.101 189.878 187.482Z" fill="url(#paint0_linear_6603_56585)"/>
<path opacity="0.85" d="M206.245 305.166L284.153 262.337C285.278 261.718 286.211 260.834 286.857 259.772C287.504 258.711 287.842 257.51 287.839 256.288C287.836 255.066 287.49 253.867 286.838 252.808C286.185 251.75 285.248 250.871 284.12 250.257L206.212 207.944C205.077 207.328 203.789 207.002 202.477 207C201.165 206.998 199.876 207.32 198.739 207.933C197.602 208.546 196.658 209.429 196.002 210.493C195.345 211.557 195 212.763 195 213.992V299.134C195 300.365 195.348 301.575 196.008 302.64C196.667 303.705 197.616 304.589 198.757 305.201C199.898 305.813 201.191 306.132 202.506 306.126C203.821 306.12 205.111 305.789 206.245 305.166Z" fill="url(#paint1_linear_6603_56585)"/>
<path opacity="0.85" d="M285.593 242.165L207.69 199.336C206.564 198.718 205.631 197.834 204.983 196.773C204.336 195.711 203.997 194.51 204 193.287C204.003 192.065 204.349 190.865 205.002 189.807C205.656 188.749 206.594 187.869 207.723 187.257L285.627 144.944C286.762 144.327 288.05 144.002 289.362 144C290.674 143.998 291.964 144.32 293.101 144.933C294.238 145.546 295.183 146.429 295.84 147.492C296.496 148.556 296.843 149.763 296.843 150.991V236.133C296.843 237.365 296.496 238.575 295.836 239.641C295.176 240.707 294.227 241.591 293.085 242.203C291.944 242.815 290.65 243.134 289.334 243.127C288.019 243.121 286.728 242.789 285.593 242.165Z" fill="url(#paint2_linear_6603_56585)"/>
<path opacity="0.85" d="M206.245 305.166L284.153 262.337C285.278 261.718 286.211 260.834 286.857 259.772C287.504 258.711 287.842 257.51 287.839 256.288C287.836 255.066 287.49 253.867 286.838 252.808C286.185 251.75 285.248 250.871 284.12 250.257L206.212 207.944C205.077 207.328 203.789 207.002 202.477 207C201.165 206.998 199.876 207.32 198.739 207.933C197.602 208.546 196.658 209.429 196.002 210.493C195.345 211.557 195 212.763 195 213.992V299.134C195 300.365 195.348 301.575 196.008 302.64C196.667 303.705 197.616 304.589 198.757 305.201C199.898 305.813 201.191 306.132 202.506 306.126C203.821 306.12 205.111 305.789 206.245 305.166Z" fill="url(#paint3_linear_6603_56585)" fill-opacity="0.8"/>
<path opacity="0.85" d="M285.593 242.165L207.69 199.336C206.564 198.718 205.631 197.834 204.983 196.773C204.336 195.711 203.997 194.51 204 193.287C204.003 192.065 204.349 190.865 205.002 189.807C205.656 188.749 206.594 187.869 207.723 187.257L285.627 144.944C286.762 144.327 288.05 144.002 289.362 144C290.674 143.998 291.964 144.32 293.101 144.933C294.238 145.546 295.183 146.429 295.84 147.492C296.496 148.556 296.843 149.763 296.843 150.991V236.133C296.843 237.365 296.496 238.575 295.836 239.641C295.176 240.707 294.227 241.591 293.085 242.203C291.944 242.815 290.65 243.134 289.334 243.127C288.019 243.121 286.728 242.789 285.593 242.165Z" fill="url(#paint4_linear_6603_56585)" fill-opacity="0.9"/>
<defs>
<linearGradient id="paint0_linear_6603_56585" x1="104.644" y1="262.982" x2="216.043" y2="88.1914" gradientUnits="userSpaceOnUse">
<stop stop-color="#79EFAE"/>
<stop offset="0.58" stop-color="#8E94FF"/>
<stop offset="1" stop-color="#C842F5"/>
</linearGradient>
<linearGradient id="paint1_linear_6603_56585" x1="164.261" y1="293.153" x2="384.372" y2="87.3683" gradientUnits="userSpaceOnUse">
<stop stop-color="white"/>
<stop offset="1" stop-color="white"/>
</linearGradient>
<linearGradient id="paint2_linear_6603_56585" x1="216.51" y1="254.394" x2="365.421" y2="130.663" gradientUnits="userSpaceOnUse">
<stop stop-color="white"/>
<stop offset="1" stop-color="white"/>
</linearGradient>
<linearGradient id="paint3_linear_6603_56585" x1="164.261" y1="293.153" x2="384.372" y2="87.3683" gradientUnits="userSpaceOnUse">
<stop stop-color="#1A24E4"/>
<stop offset="1" stop-color="#CBCDFC" stop-opacity="0"/>
</linearGradient>
<linearGradient id="paint4_linear_6603_56585" x1="216.51" y1="254.394" x2="365.421" y2="130.663" gradientUnits="userSpaceOnUse">
<stop stop-color="#1A24E4"/>
<stop offset="1" stop-color="#F0F0F0" stop-opacity="0"/>
</linearGradient>
</defs>
</svg>
