<svg width="20" height="19" viewBox="0 0 20 19" fill="none" xmlns="http://www.w3.org/2000/svg">
<path d="M9.49995 1.451C9.89224 1.44976 10.277 1.55843 10.6107 1.76469C10.9444 1.97095 11.2137 2.26655 11.3879 2.618L17.3249 14.493C17.4864 14.8148 17.5628 15.1726 17.5468 15.5323C17.5309 15.892 17.4232 16.2417 17.234 16.548C17.0447 16.8543 16.7802 17.1071 16.4657 17.2823C16.1511 17.4575 15.797 17.5493 15.4369 17.549H3.56295C3.203 17.5491 2.84901 17.4571 2.53462 17.2818C2.22023 17.1065 1.95589 16.8537 1.7667 16.5475C1.57752 16.2413 1.46978 15.8918 1.45372 15.5322C1.43766 15.1726 1.51381 14.8149 1.67495 14.493L7.61195 2.618C7.78609 2.26636 8.05528 1.97055 8.38898 1.76411C8.72268 1.55767 9.10755 1.44885 9.49995 1.45V1.451ZM9.49995 5.56128e-10C8.83843 -1.16868e-05 8.18999 0.184188 7.62727 0.531958C7.06455 0.879728 6.60979 1.37733 6.31395 1.969L0.375946 13.844C0.104428 14.3872 -0.0237377 14.9908 0.00361689 15.5975C0.0309715 16.2042 0.212939 16.7938 0.532241 17.3104C0.851544 17.8269 1.29758 18.2533 1.82801 18.549C2.35844 18.8448 2.95565 19 3.56295 19H15.4369C16.0444 19.0005 16.642 18.8457 17.1727 18.5501C17.7035 18.2545 18.1498 17.8281 18.4692 17.3113C18.7886 16.7946 18.9705 16.2047 18.9976 15.5978C19.0247 14.9909 18.896 14.3872 18.6239 13.844L12.6859 1.969C12.3901 1.37733 11.9353 0.879728 11.3726 0.531958C10.8099 0.184188 10.1615 -1.16868e-05 9.49995 5.56128e-10Z" fill="#70D44B"/>
</svg>
