<svg xmlns="http://www.w3.org/2000/svg" viewBox="0 0 220 220"><defs><style>.cls-1{fill:#fff;}.cls-2{fill:#5928b1;}.cls-3{fill:#764bc4;}.cls-4{fill:#bba5e1;}</style></defs><g id="图层_2" data-name="图层 2"><g id="图层_1-2" data-name="图层 1"><circle class="cls-1" cx="110" cy="110" r="110"/><path class="cls-2" d="M140.4,72.6a106.43,106.43,0,0,0-41.88,23c-14.88,14-4.76,26.47-4.65,26.58s-5.47-10,7.7-22.4A119.89,119.89,0,0,1,143,78.14a86.42,86.42,0,0,1,9.39-2.2h0l4.18-6.27h-1A82.9,82.9,0,0,0,140.4,72.6Z"/><path class="cls-3" d="M157.26,54.71A46.06,46.06,0,0,0,152.2,51h0A117.33,117.33,0,0,0,136,54.71c-16.72,4.76-39.23,14.66-51.33,34a22.29,22.29,0,0,0-1.14,19.47v-2.71c0-.29-.81-28.86,57.75-45.5,5.1-1.47,10.6-2.83,16.35-4l1-.18Z"/><path class="cls-3" d="M160.78,58.41a128.25,128.25,0,0,0-18.51,3.92,122.27,122.27,0,0,0-42.17,21C91.7,89.91,86.35,97.79,85.43,105c-.44,3.67,3.67,11,3.67,11l-.88-2.64s-3.67-12.24,15-26.25a102.1,102.1,0,0,1,34.36-17c6.67-1.87,13.09-3.15,20.16-4.47H158v-.22c.51-1.14,3.08-6.16,3.12-6.23l.4-.81Z"/><path class="cls-4" d="M79,95.33c.7-11.33,9.28-21.81,25.67-31.13A109.87,109.87,0,0,1,133.1,51.74a105.51,105.51,0,0,1,16.13-3.27L143,44a100.29,100.29,0,0,0-13.38,2.9c-50.05,14.3-56.29,39-55.74,48.87,1,17.27,21.31,29.56,21.31,29.56S77.92,112.05,79,95.33Z"/><path class="cls-2" d="M79.6,147.4a106.43,106.43,0,0,0,41.88-23c14.88-14,4.76-26.47,4.65-26.58s5.47,10-7.7,22.4A119.89,119.89,0,0,1,77,141.86a86.42,86.42,0,0,1-9.39,2.2h-.18l-4,6.46h1A84,84,0,0,0,79.6,147.4Z"/><path class="cls-3" d="M62.74,165.29A46.06,46.06,0,0,0,67.8,169H68a117.33,117.33,0,0,0,16.24-3.67c16.72-4.76,39.24-14.66,51.34-34a22.32,22.32,0,0,0,1.13-19.47v2.71c0,.29.81,28.86-57.75,45.5-5.09,1.47-10.59,2.83-16.35,4h-1Z"/><path class="cls-3" d="M59.22,161.59a128.25,128.25,0,0,0,18.51-3.92,122.27,122.27,0,0,0,42.17-21c8.4-6.53,13.75-14.41,14.67-21.63.44-3.67-3.67-11-3.67-11l.88,2.64s3.67,12.24-15,26.25a102.1,102.1,0,0,1-34.36,17c-6.67,1.87-13.09,3.15-20.16,4.47H62v.22c-.51,1.14-3.08,6.16-3.12,6.23l-.4.81Z"/><path class="cls-4" d="M141,124.85c-.7,11.33-9.28,22-25.67,31.13A109.9,109.9,0,0,1,86.9,168.45a105.49,105.49,0,0,1-16.13,3.26L77,176a100.29,100.29,0,0,0,13.38-2.9c50.05-14.3,56.29-39,55.74-48.87-1-17.27-21.45-29.56-21.45-29.56S142.08,108,141,124.85Z"/></g></g></svg>