<svg xmlns="http://www.w3.org/2000/svg" viewBox="0 0 63.94 63.86"><defs><style>.cls-1{fill:#fff;}</style></defs><g id="图层_2" data-name="图层 2"><g id="图层_1-2" data-name="图层 1"><path class="cls-1" d="M0,31.93A32,32,0,1,0,32,0,32,32,0,0,0,0,31.93Z"/><path d="M41.61,17.58l-6.68,9.91a.71.71,0,0,0,1.07.92l6.57-5.71a.26.26,0,0,1,.43.21V40.77a.27.27,0,0,1-.47.18L22.65,17.16A3.28,3.28,0,0,0,20.05,16h-.71A3.4,3.4,0,0,0,16,19.36V44.5a3.41,3.41,0,0,0,6.32,1.78L29,36.37a.71.71,0,0,0-1.07-.92l-6.57,5.68a.25.25,0,0,1-.42-.21V23.09a.26.26,0,0,1,.46-.18L41.26,46.7a3.3,3.3,0,0,0,2.59,1.21h.71A3.41,3.41,0,0,0,48,44.5V19.36a3.44,3.44,0,0,0-6.36-1.78Z"/></g></g></svg>