<svg xmlns="http://www.w3.org/2000/svg" viewBox="0 0 199.96 199.97"><defs><style>.cls-1{fill:#1b1e36;}.cls-2{fill:#fff;}</style></defs><g id="图层_2" data-name="图层 2"><g id="图层_1-2" data-name="图层 1"><path class="cls-1" d="M0,100A100,100,0,1,0,100,0,100,100,0,0,0,0,100Z"/><path class="cls-2" d="M128.33,145A27.54,27.54,0,0,0,112,145a1.83,1.83,0,0,1,.52-1.21,6.76,6.76,0,0,1,2.13-1.47c.32-.16.32-.32.21-.58a8.54,8.54,0,0,0-2-2.63,35.26,35.26,0,0,0-4.06-3.15,13.6,13.6,0,0,1-5.84-9.35c0-.31-.15-.47-.52-.47l-9.64-.63,5.84-1.74a5.34,5.34,0,0,0-1.82-.63,19,19,0,0,0-5.68-.1A109.77,109.77,0,0,0,71,127.35c-9.38,2.68-18.6,5.94-27.72,9.35-1.61.63-3.23,1.26-4.89,1.89l-.42.16v-1.31a13.87,13.87,0,0,1-10,1.47c2.08-1.58,4.06-3.1,6.15-4.68H30v-.1q21.26-11,42.46-22V112H63.22c0-.26.1-.26.21-.32,14.48-9.35,29-18.75,43.6-27.89a111.32,111.32,0,0,1,16.2-8.46,22.18,22.18,0,0,0,6.62-4.52,79.78,79.78,0,0,1,6.82-5.93,35.6,35.6,0,0,1,6.25-3.68,11.94,11.94,0,0,1,10.37.21,23.4,23.4,0,0,1,5,3.47c2.55,2.1,5.05,4.3,7.55,6.46a1,1,0,0,1,.21.16c-.94.36-1.72.68-2.55,1-1.62.63-3.18,1.37-4.79,2a13.94,13.94,0,0,0-6.2,5.47,32.87,32.87,0,0,0-3,6.51c-1.2,3.15-2.45,6.36-3.65,9.51a24.39,24.39,0,0,1-8.7,11.14,74.65,74.65,0,0,1-10.42,6.19c-3.07,1.58-6.2,3.1-9.17,4.89a20,20,0,0,0-3.23,2.31,7.58,7.58,0,0,0-2.5,4.94,11.35,11.35,0,0,0,2.66,9.3,30.35,30.35,0,0,0,6.3,5.88,12.5,12.5,0,0,0,3.49,1.63,9,9,0,0,1,3,1.37,2.6,2.6,0,0,1,1.09,1.26Z"/></g></g></svg>