<svg xmlns="http://www.w3.org/2000/svg" viewBox="0 0 225.25 225.25"><defs><style>.cls-1{fill:#14459a;}.cls-2{fill:none;stroke:#fff;stroke-linejoin:round;stroke-width:6.3px;}.cls-3{fill:#fff;}</style></defs><g id="图层_2" data-name="图层 2"><g id="图层_1-2" data-name="图层 1"><circle class="cls-1" cx="112.63" cy="112.63" r="112.63"/><path class="cls-2" d="M86.15,187.09c-33,0-59.75-33.34-59.75-74.46S53.15,38.16,86.15,38.16h0c-44.05,34.47-44.05,114.47,0,148.93Z"/><path class="cls-2" d="M139.1,187.09c33,0,59.75-33.34,59.75-74.46S172.1,38.16,139.1,38.16h0c44.06,34.47,44.06,114.47,0,148.93Z"/><path class="cls-3" d="M118.78,154.57H107a2.17,2.17,0,0,1-1.54-.62,2.1,2.1,0,0,1-.65-1.58V136.09H85a2.18,2.18,0,0,1-1.55-.61,2.11,2.11,0,0,1-.65-1.58v-7.07a2.24,2.24,0,0,1,2.2-2.2h19.76V118.8H85a2.15,2.15,0,0,1-1.55-.62,2.07,2.07,0,0,1-.65-1.57v-7.14a2.24,2.24,0,0,1,2.2-2.2H99.7L77.68,74a2.32,2.32,0,0,1,0-2.2,2.14,2.14,0,0,1,1.92-1.1H92.91a2.16,2.16,0,0,1,2,1.24s16.9,27.4,18.59,31.37C114,102.2,130.58,72,130.58,72a2,2,0,0,1,2-1.31h13.1a2.11,2.11,0,0,1,1.86,1.1,2.08,2.08,0,0,1,.06,2.13l-21.47,33.36h14.75a2.26,2.26,0,0,1,2.2,2.2v7.14a2,2,0,0,1-.66,1.57,2.13,2.13,0,0,1-1.54.62H121v5.83h19.9a2.26,2.26,0,0,1,2.2,2.2v7.07a2.08,2.08,0,0,1-.66,1.58,2.16,2.16,0,0,1-1.54.61H121v16.28a2.22,2.22,0,0,1-2.19,2.2Z"/></g></g></svg>