<svg xmlns="http://www.w3.org/2000/svg" viewBox="0 0 819.2 819.2"><defs><style>.cls-1{fill:#ff0061;}.cls-2{fill:#fff;}</style></defs><g id="图层_2" data-name="图层 2"><g id="图层_1-2" data-name="图层 1"><path class="cls-1" d="M0,409.6C0,635.82,183.38,819.2,409.6,819.2S819.2,635.82,819.2,409.6,635.82,0,409.6,0,0,183.38,0,409.6Z"/><path class="cls-2" d="M471.64,228.23H317v152a84,84,0,0,1,0,158V591h87.77V491.7H471.6a131.74,131.74,0,0,0,0-263.47ZM456.37,421.06H404.82V298.88h51.55a61.09,61.09,0,1,1,0,122.18Z"/><path class="cls-2" d="M215.82,459a59.83,59.83,0,1,0,59.82-59.83A59.83,59.83,0,0,0,215.82,459Z"/></g></g></svg>