<?xml version="1.0" standalone="no"?><!DOCTYPE svg PUBLIC "-//W3C//DTD SVG 1.1//EN" "http://www.w3.org/Graphics/SVG/1.1/DTD/svg11.dtd"><svg t="1634281247437" class="icon" viewBox="0 0 1024 1024" version="1.1" xmlns="http://www.w3.org/2000/svg" p-id="3329" xmlns:xlink="http://www.w3.org/1999/xlink" width="200" height="200"><defs><style type="text/css"></style></defs><path d="M510.502459 508.32401m-486.689198 0a486.689199 486.689199 0 1 0 973.378397 0 486.689199 486.689199 0 1 0-973.378397 0Z" fill="#F4F4F4" p-id="3330"></path><path d="M660.064853 419.339089c-4.985413-51.923548-49.854131-69.325462-106.480899-74.310875V272.786756h-43.83401v70.172041h-34.991956V272.786756H430.923978v71.959265h-88.420535v47.032199s32.358153-0.658451 31.793767 0a22.763584 22.763584 0 0 1 25.303323 18.81288v82.024156h4.70322-4.70322V608.596659a15.520626 15.520626 0 0 1-16.461269 14.579982h-31.887832l-8.653924 52.39387h88.514599v72.805845h43.83401v-71.865201h35.08602v71.771136h43.83401v-72.523651c73.746489-4.232898 125.293779-22.857649 131.690158-92.089046 5.173542-55.686124-21.070425-80.61319-62.929082-90.584016 25.303323-13.357145 41.200207-35.744471 37.43763-73.746489z m-61.235923 155.770644c0 54.463287-93.217819 48.349101-122.942169 48.349101V526.760632c29.72435 0 122.942169-8.465796 122.942169 48.349101z m-20.506039-136.205249c0 49.571938-77.697193 43.83401-102.43613 43.83401V395.070474c24.644872 0 102.43613-7.807345 102.43613 43.83401z" fill="#F09242" p-id="3331"></path><path d="M512.101554 0a511.992522 511.992522 0 1 0 511.898458 511.992522A511.992522 511.992522 0 0 0 512.101554 0z m0 978.269746A466.089095 466.089095 0 1 1 978.378778 511.992522 465.995031 465.995031 0 0 1 512.101554 978.269746z" fill="#282138" p-id="3332"></path><path d="M140.641244 511.992522a370.331538 370.331538 0 0 1 103.470838-257.172066l-35.556342-39.507047a424.324502 424.324502 0 0 0-30.947187 557.990012l39.601111-35.556342a369.767151 369.767151 0 0 1-76.56842-225.754557zM883.4678 511.992522a370.237473 370.237473 0 0 1-104.693676 258.488967l35.462279 39.507048a424.324502 424.324502 0 0 0 29.254028-563.163555L803.983383 282.193196a370.049344 370.049344 0 0 1 79.484417 229.799326zM283.61913 219.170049a371.366246 371.366246 0 0 1 484.525717 23.704228l39.507048-35.462278a424.136374 424.136374 0 0 0-559.589108-27.748998zM739.078948 805.943768a371.366246 371.366246 0 0 1-486.595134-28.21932l-39.507048 35.556343a424.230438 424.230438 0 0 0 561.56446 32.358153z" fill="#5A5564" p-id="3333"></path></svg>