<svg xmlns="http://www.w3.org/2000/svg" viewBox="0 0 220 220"><defs><style>.cls-1{fill:#1476FF;}.cls-2{fill:#fff;}</style></defs><g id="图层_2" data-name="图层 2"><g id="图层_1-2" data-name="图层 1"><circle class="cls-1" cx="110" cy="110" r="110"/><circle class="cls-2" cx="159" cy="61.2" r="16.8"/><circle class="cls-1" cx="164.2" cy="115.6" r="6.2"/><path class="cls-2" d="M121.4,55.2a8.8,8.8,0,1,1-8.8,8.8A8.75,8.75,0,0,1,121.4,55.2Z"/><path class="cls-2" d="M72.1,43.6A28.8,28.8,0,1,1,43.3,72.4,28.81,28.81,0,0,1,72.1,43.6Z"/><circle class="cls-2" cx="77.4" cy="142.7" r="32.9"/><circle class="cls-2" cx="129.8" cy="102.5" r="19.5"/><path class="cls-2" d="M154,176.4a22.7,22.7,0,1,1,22.7-22.7A22.68,22.68,0,0,1,154,176.4Z"/></g></g></svg>