<svg xmlns="http://www.w3.org/2000/svg" xmlns:xlink="http://www.w3.org/1999/xlink" viewBox="0 0 228.3 220"><defs><style>.cls-1{fill:#fff;}.cls-2{fill:url(#未命名的渐变_2);}.cls-3{fill:#db76ff;}.cls-4{fill:#010035;}.cls-5{fill:#00f4b9;}.cls-6{fill:url(#未命名的渐变_2-2);}</style><linearGradient id="未命名的渐变_2" x1="8.3" y1="-478.32" x2="228.3" y2="-478.32" gradientTransform="matrix(1, 0, 0, -1, 0, -368.32)" gradientUnits="userSpaceOnUse"><stop offset="0" stop-color="#db76ff"/><stop offset="0.98" stop-color="#00f4b9"/></linearGradient><linearGradient id="未命名的渐变_2-2" x1="0" y1="-410.64" x2="80" y2="-410.64" xlink:href="#未命名的渐变_2"/></defs><g id="图层_2" data-name="图层 2"><g id="图层_1-2" data-name="图层 1"><circle class="cls-1" cx="118.3" cy="110" r="110"/><path class="cls-2" d="M118.3,10a100,100,0,1,1-100,100,100,100,0,0,1,100-100m0-10a110,110,0,1,0,110,110A110,110,0,0,0,118.3,0Z"/><polygon class="cls-3" points="51.27 148.01 81.78 73.87 93.43 102.17 74.56 148.01 51.27 148.01"/><path class="cls-4" d="M81.78,76.89l10.4,25.28L79.65,132.62l-5.86,14.24H53L71,103,81.78,76.89m0-6L68.89,102.17l-19.34,47H75.3l6.45-15.67,12.89-31.32L81.78,70.84Z"/><polygon class="cls-3" points="89 148.01 85.18 138.71 96.82 110.42 112.29 148.01 89 148.01"/><path class="cls-4" d="M96.82,113.44l13.75,33.42H89.77l-3.35-8.15,1.79-4.34,8.61-20.93m0-6-10.74,26.1-2.15,5.22,4.3,10.45H114L96.82,107.39Z"/><polygon class="cls-3" points="124.31 148.01 154.82 73.87 166.47 102.17 147.6 148.01 124.31 148.01"/><path class="cls-4" d="M154.82,76.89l10.4,25.28-12.53,30.45-5.86,14.24H126L144,103l10.76-26.15m0-6L141.9,102.22l-19.34,47h25.78l6.45-15.67,12.89-31.32L154.82,70.84Z"/><polygon class="cls-3" points="162.04 148.01 158.21 138.71 169.86 110.42 185.33 148.01 162.04 148.01"/><path class="cls-4" d="M169.86,113.44l13.75,33.42h-20.8l-3.35-8.15,1.79-4.34,8.61-20.93m0-6-10.74,26.1L157,138.76l4.3,10.45h25.78Z"/><polygon class="cls-5" points="87.84 71.99 111.13 71.99 130 117.83 118.35 146.13 87.84 71.99"/><path class="cls-4" d="M110.36,73.14l5.86,14.24,12.53,30.45-10.4,25.28L107.59,117l-18-43.82h20.8m1.55-2.3H86.12l19.34,47,12.89,31.33,12.89-31.33L118.35,86.51l-6.44-15.67Z"/><polygon class="cls-5" points="121.75 81.29 125.57 71.99 148.86 71.99 133.39 109.58 121.75 81.29"/><path class="cls-4" d="M147.14,73.14l-13.75,33.42-8.61-20.93L123,81.29l3.31-8.15h20.8m3.44-2.3H124.8l-4.3,10.45,2.15,5.22,10.74,26.1,17.19-41.77Z"/><circle class="cls-6" cx="40" cy="42.32" r="40"/><polygon class="cls-1" points="31.21 56.32 40.01 40.49 48.8 56.32 62.3 56.32 46.76 28.32 33.26 28.32 17.7 56.32 31.21 56.32"/></g></g></svg>