<svg xmlns="http://www.w3.org/2000/svg" xmlns:xlink="http://www.w3.org/1999/xlink" viewBox="0 0 388.01 268"><defs><style>.cls-1{fill:#fff;}.cls-2{fill:#5928b1;}.cls-3{fill:#764bc4;}.cls-4{fill:#bba5e1;}.cls-5{fill:#1476FF;}.cls-6{fill:url(#未命名的渐变_29);}</style><linearGradient id="未命名的渐变_29" y1="134" x2="388.01" y2="134" gradientUnits="userSpaceOnUse"><stop offset="0" stop-color="#db3fff"/><stop offset="0.98" stop-color="#00d4a1"/></linearGradient></defs><g id="图层_2" data-name="图层 2"><g id="图层_1-2" data-name="图层 1"><circle class="cls-1" cx="134" cy="134" r="110"/><path class="cls-2" d="M164.4,96.6a106.43,106.43,0,0,0-41.88,23c-14.88,14-4.76,26.47-4.65,26.58s-5.47-10,7.7-22.4A119.89,119.89,0,0,1,167,102.14a86.42,86.42,0,0,1,9.39-2.2h0l4.18-6.27h-1A82.9,82.9,0,0,0,164.4,96.6Z"/><path class="cls-3" d="M181.26,78.71A46.06,46.06,0,0,0,176.2,75h0A117.33,117.33,0,0,0,160,78.71c-16.72,4.76-39.23,14.66-51.33,34a22.29,22.29,0,0,0-1.14,19.47v-2.71c0-.29-.81-28.86,57.75-45.5,5.1-1.47,10.6-2.83,16.35-4l1-.18Z"/><path class="cls-3" d="M184.78,82.41a128.25,128.25,0,0,0-18.51,3.92,122.27,122.27,0,0,0-42.17,21c-8.4,6.53-13.75,14.41-14.67,21.63-.44,3.67,3.67,11,3.67,11l-.88-2.64s-3.67-12.24,15-26.25a102.1,102.1,0,0,1,34.36-17c6.67-1.87,13.09-3.15,20.16-4.47H182v-.22c.51-1.14,3.08-6.16,3.12-6.23l.4-.81Z"/><path class="cls-4" d="M103,119.33c.7-11.33,9.28-21.81,25.67-31.13A109.87,109.87,0,0,1,157.1,75.74a105.51,105.51,0,0,1,16.13-3.27L167,68a100.29,100.29,0,0,0-13.38,2.9c-50.05,14.3-56.29,39-55.74,48.87,1,17.27,21.31,29.56,21.31,29.56S101.92,136.05,103,119.33Z"/><path class="cls-2" d="M103.6,171.4a106.43,106.43,0,0,0,41.88-23c14.88-14,4.76-26.47,4.65-26.58s5.47,10-7.7,22.4A119.89,119.89,0,0,1,101,165.86a86.42,86.42,0,0,1-9.39,2.2h-.18l-4,6.46h1A84,84,0,0,0,103.6,171.4Z"/><path class="cls-3" d="M86.74,189.29A46.06,46.06,0,0,0,91.8,193H92a117.33,117.33,0,0,0,16.24-3.67c16.72-4.76,39.24-14.66,51.34-34a22.32,22.32,0,0,0,1.13-19.47v2.71c0,.29.81,28.86-57.75,45.5-5.09,1.47-10.59,2.83-16.35,4h-1Z"/><path class="cls-3" d="M83.22,185.59a128.25,128.25,0,0,0,18.51-3.92,122.27,122.27,0,0,0,42.17-21c8.4-6.53,13.75-14.41,14.67-21.63.44-3.67-3.67-11-3.67-11l.88,2.64s3.67,12.24-15,26.25a102.1,102.1,0,0,1-34.36,17c-6.67,1.87-13.09,3.15-20.16,4.47H86v.22c-.51,1.14-3.08,6.16-3.12,6.23l-.4.81Z"/><path class="cls-4" d="M165,148.85c-.7,11.33-9.28,22-25.67,31.13a109.9,109.9,0,0,1-28.45,12.47,105.49,105.49,0,0,1-16.13,3.26L101,200a100.29,100.29,0,0,0,13.38-2.9c50.05-14.3,56.29-39,55.74-48.87-1-17.27-21.45-29.56-21.45-29.56S166.08,132,165,148.85Z"/><g id="图层_2-2" data-name="图层 2"><g id="图层_1-2-2" data-name="图层 1-2"><circle class="cls-5" cx="254.01" cy="134" r="110"/><circle class="cls-1" cx="295.34" cy="92.84" r="14.17"/><circle class="cls-1" cx="299.72" cy="138.72" r="5.23"/><path class="cls-1" d="M263.62,87.78a7.43,7.43,0,1,1-7.42,7.44v0a7.37,7.37,0,0,1,7.34-7.42Z"/><path class="cls-1" d="M222,78a24.29,24.29,0,1,1-24.25,24.33v0A24.29,24.29,0,0,1,222,78Z"/><circle class="cls-1" cx="226.52" cy="161.58" r="27.75"/><circle class="cls-1" cx="270.71" cy="127.67" r="16.45"/><path class="cls-1" d="M291.12,190a19.15,19.15,0,1,1,19.14-19.16v0A19.14,19.14,0,0,1,291.12,190Z"/></g></g><path class="cls-6" d="M254,16a118,118,0,1,1-60,219.62,118,118,0,1,1,0-203.24A117.82,117.82,0,0,1,254,16m0-16a134.1,134.1,0,0,0-60,14.17A134.06,134.06,0,0,0,134,0C60.11,0,0,60.11,0,134S60.11,268,134,268a134.06,134.06,0,0,0,60-14.17A134.1,134.1,0,0,0,254,268c73.89,0,134-60.11,134-134S327.9,0,254,0Z"/></g></g></svg>