<svg xmlns="http://www.w3.org/2000/svg" xmlns:xlink="http://www.w3.org/1999/xlink" viewBox="0 0 200 43.38"><defs><style>.cls-1{fill:url(#未命名的渐变_312);}.cls-2{fill:url(#未命名的渐变_312-2);}.cls-3{fill:url(#未命名的渐变_312-3);}.cls-4{fill:url(#未命名的渐变_312-4);}.cls-5{fill:url(#未命名的渐变_312-5);}.cls-6{fill:url(#未命名的渐变_312-6);}.cls-7{fill:url(#未命名的渐变_312-7);}.cls-8{fill:url(#未命名的渐变_312-8);}</style><linearGradient id="未命名的渐变_312" x1="31.03" y1="39.41" x2="-4.09" y2="4.28" gradientUnits="userSpaceOnUse"><stop offset="0.21" stop-color="#8f58ff"/><stop offset="1" stop-color="#ffea54"/></linearGradient><linearGradient id="未命名的渐变_312-2" x1="58.59" y1="41.09" x2="25.81" y2="8.31" xlink:href="#未命名的渐变_312"/><linearGradient id="未命名的渐变_312-3" x1="85.28" y1="35.87" x2="56.94" y2="7.54" xlink:href="#未命名的渐变_312"/><linearGradient id="未命名的渐变_312-4" x1="108.29" y1="33.27" x2="81.2" y2="6.18" xlink:href="#未命名的渐变_312"/><linearGradient id="未命名的渐变_312-5" x1="137.08" y1="37.36" x2="113.81" y2="14.09" xlink:href="#未命名的渐变_312"/><linearGradient id="未命名的渐变_312-6" x1="162.33" y1="37.36" x2="139.06" y2="14.09" xlink:href="#未命名的渐变_312"/><linearGradient id="未命名的渐变_312-7" x1="183.56" y1="34.94" x2="157.06" y2="8.44" xlink:href="#未命名的渐变_312"/><linearGradient id="未命名的渐变_312-8" x1="201.19" y1="37.46" x2="177.38" y2="13.65" xlink:href="#未命名的渐变_312"/></defs><g id="图层_2" data-name="图层 2"><g id="图层_1-2" data-name="图层 1"><path class="cls-1" d="M27.25,43.19H15.69l-4.5-18.44V43.19H0V.19H11.19V16.88L16.12.19h10.5L20.19,19.56Z"/><path class="cls-2" d="M56.5,43.19H45l-.56-7.75h-4.1l-.62,7.75H28.25l5.69-43H50.12ZM44.19,27.75c-.38-3.17-.75-6.7-1.13-10.59s-.56-6.37-.56-7.41q-.44,3-1.25,9.94c-.37,3-.69,5.69-.94,8.06Z"/><path class="cls-3" d="M84,27.62v2.07a24,24,0,0,1-.5,5.5q-1.75,8.19-12.12,8.19a29,29,0,0,1-6-.5,8.07,8.07,0,0,1-4-2.26,8.86,8.86,0,0,1-2.66-4.74,44.12,44.12,0,0,1-.53-8V12.31q0-6.37,3.34-9.34t9.72-3a22.29,22.29,0,0,1,6.06.66,8.29,8.29,0,0,1,3.94,2.56,10.44,10.44,0,0,1,2.31,5A37,37,0,0,1,84,14.81v2.25H73.38V10.38a19,19,0,0,0-.07-2.19A1.71,1.71,0,0,0,71.5,6.62c-1.42,0-2.12.9-2.12,2.69V33.5c0,2.21.68,3.31,2.06,3.31a1.48,1.48,0,0,0,1.62-1.06,18.51,18.51,0,0,0,.32-4.31V26H84Z"/><path class="cls-4" d="M111.25,15.94c0,3.46-.54,5.87-1.63,7.25q-2.12,2.74-8.24,2.75h-3V43.19H87.19V.19H98.44a35.37,35.37,0,0,1,6.18.4,8.17,8.17,0,0,1,3.76,1.79,7.22,7.22,0,0,1,2.24,3.09,23.14,23.14,0,0,1,.63,6.72Zm-9.37-1.38V11.12c0-1.5-.22-2.46-.66-2.9a4.23,4.23,0,0,0-2.84-.66V18.5h.81a2.36,2.36,0,0,0,2.15-.84A6.26,6.26,0,0,0,101.88,14.56Z"/><path class="cls-5" d="M136.69,28.94V33a15,15,0,0,1-.75,4.12,8,8,0,0,1-3.69,4.66,13.72,13.72,0,0,1-6.75,1.47h-1.06a21.57,21.57,0,0,1-3.75-.25A6.31,6.31,0,0,1,118,41.75a7.33,7.33,0,0,1-2.84-4.28,32,32,0,0,1-.66-7.35V18.94a13.85,13.85,0,0,1,.19-2.25A10.17,10.17,0,0,1,118,10a11,11,0,0,1,7.28-2.22q8.44,0,10.75,6.13a9.14,9.14,0,0,1,.56,2.81c.09,1.16.13,2.37.13,3.62ZM127,35.69V16.81a7,7,0,0,0-.31-2.69,1.19,1.19,0,0,0-1.13-.56,1.17,1.17,0,0,0-1.25,1.1,13.21,13.21,0,0,0-.19,2.15V34.56a6.73,6.73,0,0,0,.29,2.22,1.11,1.11,0,0,0,1.15.78C126.52,37.56,127,36.94,127,35.69Z"/><path class="cls-6" d="M161.94,28.94V33a15,15,0,0,1-.75,4.12,8,8,0,0,1-3.69,4.66,13.72,13.72,0,0,1-6.75,1.47h-1.06a21.57,21.57,0,0,1-3.75-.25,6.26,6.26,0,0,1-2.69-1.25,7.33,7.33,0,0,1-2.84-4.28,32,32,0,0,1-.66-7.35V18.94a13.85,13.85,0,0,1,.19-2.25A10.17,10.17,0,0,1,143.22,10a11,11,0,0,1,7.28-2.22q8.43,0,10.75,6.13a9.14,9.14,0,0,1,.56,2.81c.09,1.16.13,2.37.13,3.62Zm-9.69,6.75V16.81a7,7,0,0,0-.31-2.69,1.19,1.19,0,0,0-1.13-.56,1.17,1.17,0,0,0-1.25,1.1,13.18,13.18,0,0,0-.18,2.15V34.56a6.77,6.77,0,0,0,.28,2.22,1.11,1.11,0,0,0,1.15.78C151.77,37.56,152.25,36.94,152.25,35.69Z"/><path class="cls-7" d="M175.31,43.19h-10V.19h10Z"/><path class="cls-8" d="M200,32.75c0,3.71-.69,6.35-2.06,7.94q-2.31,2.69-7.94,2.69a20.63,20.63,0,0,1-5.25-.57,7.07,7.07,0,0,1-5.25-5.34,23,23,0,0,1-.44-5V31.31h8.56v3.25c0,2,.61,3,1.82,3s1.62-1,1.62-3a8.35,8.35,0,0,0-.5-3.31,4.8,4.8,0,0,0-2.09-2.06c-1.06-.63-2.14-1.28-3.22-2s-2-1.34-2.87-2a8.8,8.8,0,0,1-2.63-2.75,10.39,10.39,0,0,1-.94-4.88q0-1.19,0-2.4a8.1,8.1,0,0,1,.47-2.47A6.13,6.13,0,0,1,182.53,9a15,15,0,0,1,6.41-1.12,17.52,17.52,0,0,1,5.78.81,6.47,6.47,0,0,1,3.47,2.75,5.57,5.57,0,0,1,1,2.44,28.9,28.9,0,0,1,.15,3.31v1.43h-8.69V15.94c0-1.63-.44-2.44-1.32-2.44q-1.68,0-1.68,3.12A4.83,4.83,0,0,0,190.35,21l5.75,3.69a8.27,8.27,0,0,1,3,3.25A11.21,11.21,0,0,1,200,32.75Z"/></g></g></svg>