<svg  xmlns="http://www.w3.org/2000/svg" xmlns:xlink="http://www.w3.org/1999/xlink" width="37px" height="36px"><path fill-rule="evenodd"  fill="rgb(27, 211, 213)" d="M12.920,-0.000 L24.920,-0.000 C31.547,-0.000 36.920,5.373 36.920,12.000 L36.920,24.000 C36.920,30.627 31.547,36.000 24.920,36.000 L12.920,36.000 C6.293,36.000 0.920,30.627 0.920,24.000 L0.920,12.000 C0.920,5.373 6.293,-0.000 12.920,-0.000 Z"/><path fill-rule="evenodd"  fill="rgb(255, 255, 255)" d="M25.000,20.000 L21.000,20.000 L21.000,24.000 C21.000,25.105 20.105,26.000 19.000,26.000 C17.895,26.000 17.000,25.105 17.000,24.000 L17.000,20.000 L13.000,20.000 C11.895,20.000 11.000,19.105 11.000,18.000 C11.000,16.895 11.895,16.000 13.000,16.000 L17.000,16.000 L17.000,12.000 C17.000,10.895 17.895,10.000 19.000,10.000 C20.105,10.000 21.000,10.895 21.000,12.000 L21.000,16.000 L25.000,16.000 C26.105,16.000 27.000,16.895 27.000,18.000 C27.000,19.105 26.105,20.000 25.000,20.000 Z"/></svg>