<svg  xmlns="http://www.w3.org/2000/svg" xmlns:xlink="http://www.w3.org/1999/xlink" width="18px" height="18px"><path fill-rule="evenodd"  fill="rgb(157, 166, 166)" d="M9.163,0.955 C4.474,0.955 0.674,4.755 0.674,9.443 C0.674,14.131 4.474,17.932 9.163,17.932 C13.852,17.932 17.653,14.131 17.653,9.444 C17.653,4.755 13.852,0.955 9.163,0.955 ZM13.720,10.795 L11.159,10.795 C11.037,11.080 10.859,11.341 10.632,11.560 C10.191,12.000 9.594,12.246 8.972,12.245 L8.930,12.245 C7.966,12.253 7.092,11.679 6.716,10.790 C6.347,9.911 6.553,8.895 7.237,8.230 C7.469,8.003 7.743,7.830 8.040,7.714 L8.040,5.134 C8.040,4.637 8.442,4.234 8.939,4.234 C9.435,4.234 9.838,4.637 9.838,5.134 L9.838,7.718 C9.847,7.722 9.855,7.723 9.864,7.726 C10.456,7.961 10.893,8.431 11.134,8.995 L13.720,8.995 C14.217,8.995 14.620,9.398 14.620,9.895 C14.620,10.392 14.217,10.795 13.720,10.795 Z"/></svg>