<svg xmlns="http://www.w3.org/2000/svg" viewBox="0 0 52 57.69"><defs><style>.cls-1{fill:#1476FF;}.cls-2{fill:#fc00ff;}</style></defs><g id="图层_2" data-name="图层 2"><g id="图层_1-2" data-name="图层 1"><path class="cls-1" d="M50,30.88l-8.21-5.43V24.1c0-11-8.93-19.74-12.78-23a4.59,4.59,0,0,0-5.93,0c-3.84,3.27-12.78,12-12.78,23v1.34l-8.2,5.44A4.58,4.58,0,0,0,0,34.71v4.5A4.6,4.6,0,0,0,4.59,43.8H47.41A4.6,4.6,0,0,0,52,39.21v-4.5a4.53,4.53,0,0,0-2-3.83Zm-39.7,8.17H4.74V34.79l5.52-3.65Zm4.75,0V24.1c0-8.9,7.61-16.4,11-19.3C29.4,7.7,37,15.18,37,24.07v15Zm32.26,0H41.75V31.14l5.52,3.65Z"/><path class="cls-2" d="M26,57.69a2.23,2.23,0,0,1-2.22-2.22V46.6a2.22,2.22,0,1,1,4.44,0v8.87A2.23,2.23,0,0,1,26,57.69Z"/><path class="cls-2" d="M17.27,54.17A2.21,2.21,0,0,1,15.06,52V48.33a2.22,2.22,0,1,1,4.43,0V52a2.22,2.22,0,0,1-2.22,2.21Z"/><path class="cls-2" d="M34.74,54.17A2.21,2.21,0,0,1,32.53,52V48.33a2.22,2.22,0,1,1,4.43,0V52a2.21,2.21,0,0,1-2.22,2.21Z"/><path class="cls-1" d="M31.33,18.81,24,26.16l-2.63-2.62a2,2,0,0,0-2.82,0h0a2,2,0,0,0,0,2.82L21.15,29l1.67,1.66a1.62,1.62,0,0,0,2.32,0L26.81,29l7.35-7.35a2,2,0,0,0,0-2.83h0A2,2,0,0,0,31.33,18.81Z"/></g></g></svg>