<svg  xmlns="http://www.w3.org/2000/svg" xmlns:xlink="http://www.w3.org/1999/xlink" width="19px" height="19px"><path fill-rule="evenodd"  fill="rgb(157, 166, 166)" d="M17.678,16.011 L15.277,13.610 C17.522,10.394 17.218,5.926 14.350,3.057 C11.132,-0.161 5.896,-0.161 2.678,3.057 C-0.539,6.275 -0.539,11.511 2.678,14.728 C4.237,16.287 6.309,17.146 8.514,17.146 C10.228,17.146 11.859,16.621 13.234,15.657 L15.633,18.056 C16.198,18.621 17.113,18.621 17.678,18.056 C18.243,17.492 18.243,16.576 17.678,16.011 ZM4.723,12.683 C2.634,10.593 2.634,7.192 4.723,5.102 C5.768,4.057 7.141,3.534 8.514,3.534 C9.887,3.534 11.260,4.057 12.305,5.102 C14.394,7.192 14.394,10.593 12.305,12.683 C11.292,13.696 9.946,14.254 8.514,14.254 C7.082,14.254 5.736,13.696 4.723,12.683 Z"/></svg>