<svg  xmlns="http://www.w3.org/2000/svg" xmlns:xlink="http://www.w3.org/1999/xlink" width="40px" height="39px"><path fill-rule="evenodd"  stroke="rgb(27, 211, 213)" stroke-width="2px" stroke-linecap="butt" stroke-linejoin="miter" fill="rgb(18, 33, 36)" d="M13.920,1.000 L25.920,1.000 C32.547,1.000 37.920,6.373 37.920,13.000 L37.920,25.000 C37.920,31.627 32.547,37.000 25.920,37.000 L13.920,37.000 C7.293,37.000 1.920,31.627 1.920,25.000 L1.920,13.000 C1.920,6.373 7.293,1.000 13.920,1.000 Z"/><path fill-rule="evenodd"  fill="rgb(27, 211, 213)" d="M14.000,17.000 L26.000,17.000 C27.105,17.000 28.000,17.895 28.000,19.000 C28.000,20.105 27.105,21.000 26.000,21.000 L14.000,21.000 C12.895,21.000 12.000,20.105 12.000,19.000 C12.000,17.895 12.895,17.000 14.000,17.000 Z"/></svg>