<svg xmlns="http://www.w3.org/2000/svg" viewBox="0 0 24 20"><defs><style>.cls-1{fill:#f1842c;fill-rule:evenodd;}.cls-2{isolation:isolate;}.cls-3{fill:#12171a;}</style></defs><g id="图层_2" data-name="图层 2"><g id="图层_1-2" data-name="图层 1"><path class="cls-1" d="M9.74,1.22.35,16.35A2.44,2.44,0,0,0,2.62,20H21.38a2.44,2.44,0,0,0,2.27-3.65L14.26,1.22A2.7,2.7,0,0,0,9.74,1.22Z"/><g class="cls-2"><g class="cls-2"><path class="cls-3" d="M13.49,16.2a3.33,3.33,0,0,1-3,0,1.13,1.13,0,0,1-.08-1.53,2.6,2.6,0,0,1,1.72-.43,2,2,0,0,1,1.56.59A1.07,1.07,0,0,1,13.49,16.2Zm0-7.77-.28,5.2c0,.23-.09.31-.19.23h0a3.45,3.45,0,0,0-1.84,0c-.1.08-.18.09-.23,0s0-.12-.08-.27l-.47-5.12c0-.63.57-1,1.56-1S13.39,7.81,13.45,8.43Z"/></g></g></g></g></svg>