<svg  xmlns="http://www.w3.org/2000/svg" xmlns:xlink="http://www.w3.org/1999/xlink" width="24px" height="19px"><path fill-rule="evenodd"  fill="rgb(27, 211, 213)" d="M8.386,18.416 C7.908,18.416 7.459,18.232 7.121,17.897 L0.713,11.533 C0.274,11.97 0.33,10.518 0.33,9.903 C0.33,9.287 0.274,8.708 0.713,8.272 C1.151,7.837 1.735,7.597 2.355,7.597 C2.975,7.597 3.558,7.837 3.996,8.272 L8.386,12.631 L19.841,1.257 C20.279,0.821 20.862,0.581 21.482,0.581 C22.102,0.581 22.686,0.821 23.124,1.257 C23.563,1.692 23.804,2.271 23.804,2.887 C23.804,3.503 23.563,4.81 23.124,4.517 L9.650,17.897 C9.312,18.232 8.863,18.416 8.386,18.416 Z"/></svg>