<?xml version="1.0" encoding="UTF-8"?>
<svg width="300px" height="300px" viewBox="0 0 300 300" version="1.1" xmlns="http://www.w3.org/2000/svg" xmlns:xlink="http://www.w3.org/1999/xlink">
    <title>画板</title>
    <defs>
        <linearGradient x1="50%" y1="0%" x2="50%" y2="100%" id="linearGradient-1">
            <stop stop-color="#E264F9" offset="0%"></stop>
            <stop stop-color="#8670F4" offset="100%"></stop>
        </linearGradient>
        <linearGradient x1="100%" y1="33.3671113%" x2="3.86388112%" y2="65.0635725%" id="linearGradient-2">
            <stop stop-color="#F7D9D2" offset="0%"></stop>
            <stop stop-color="#FF7AEB" offset="100%"></stop>
        </linearGradient>
        <linearGradient x1="50%" y1="0%" x2="50%" y2="100%" id="linearGradient-3">
            <stop stop-color="#D963FF" offset="0%"></stop>
            <stop stop-color="#796FFC" offset="100%"></stop>
        </linearGradient>
        <linearGradient x1="50%" y1="0%" x2="50%" y2="100%" id="linearGradient-4">
            <stop stop-color="#2BCEDC" offset="0%"></stop>
            <stop stop-color="#12AFCA" offset="100%"></stop>
        </linearGradient>
        <linearGradient x1="50%" y1="0%" x2="50%" y2="100%" id="linearGradient-5">
            <stop stop-color="#50DEF6" offset="0%"></stop>
            <stop stop-color="#1BBDD8" offset="100%"></stop>
        </linearGradient>
        <linearGradient x1="30.9517166%" y1="48.0565193%" x2="81.2160164%" y2="51.8283%" id="linearGradient-6">
            <stop stop-color="#E262F8" offset="0%"></stop>
            <stop stop-color="#5D59FC" offset="100%"></stop>
        </linearGradient>
        <linearGradient x1="0%" y1="41.2173248%" x2="50%" y2="83.7550572%" id="linearGradient-7">
            <stop stop-color="#7569FF" offset="0%"></stop>
            <stop stop-color="#5C5BE1" offset="100%"></stop>
        </linearGradient>
        <linearGradient x1="50%" y1="0%" x2="50%" y2="100%" id="linearGradient-8">
            <stop stop-color="#22A9C2" offset="0%"></stop>
            <stop stop-color="#36DCF2" offset="100%"></stop>
        </linearGradient>
        <linearGradient x1="87.5052991%" y1="34.3845136%" x2="8.86267318%" y2="73.0174031%" id="linearGradient-9">
            <stop stop-color="#F8B3CB" offset="0%"></stop>
            <stop stop-color="#F15BE8" offset="100%"></stop>
        </linearGradient>
        <linearGradient x1="85.0833135%" y1="10.9257679%" x2="50%" y2="89.0742321%" id="linearGradient-10">
            <stop stop-color="#918CF7" offset="0%"></stop>
            <stop stop-color="#625AD9" offset="100%"></stop>
        </linearGradient>
    </defs>
    <g id="画板" stroke="none" stroke-width="1" fill="none" fill-rule="evenodd">
        <text id="ToEarnFun备份" font-family="ArialRoundedMTBold, Arial Rounded MT Bold" font-size="38" font-weight="normal" fill="#8F70F6">
            <tspan x="48.4594727" y="242">ToEarnFun</tspan>
        </text>
        <g id="编组-6" transform="translate(73.500000, 50.000000)">
            <path d="M102.538571,82.6205525 C80.0867686,119.364936 60.4030581,136.213737 43.4874394,133.166955 C37.2780872,132.513677 31.9845415,128.640592 27.6068022,121.5477 C23.2290629,114.454809 20.4883242,117.401679 19.3845861,130.38831 C14.7264529,144.71364 9.09354705,148.75808 2.48586856,142.52163 C-4.12180993,136.28518 2.44339682,125.672003 22.1814888,110.6821 C27.4162604,104.295642 31.1030822,103.250301 33.2419545,107.546077 C36.4502629,113.989742 42.7795925,126.113577 48.1888951,113.989742 C50.7993607,108.138922 53.530427,99.6053406 56.3064936,91.2667105 C57.0124289,89.1462521 58.0707791,86.2641994 59.481544,82.6205525 L102.538571,82.6205525 Z" id="路径-12" fill="url(#linearGradient-1)"></path>
            <path d="M145.987638,45.1566843 C135.756701,58.9125046 119.837062,64.4036286 98.2287221,61.6300561 C76.6203818,58.8564837 62.6463057,68.7353685 56.3064936,91.2667105 C73.3088314,101.852438 88.2556888,100.656368 101.147066,87.6784997 C104.140207,80.8592677 108.270911,77.5176149 113.539178,77.6535414 C128.583011,79.4400837 139.983012,69.8425023 147.739179,48.8607972 C148.774902,47.031359 149.030629,45.9101097 148.50636,45.4970493 C147.982091,45.0839889 147.142517,44.9705339 145.987638,45.1566843 Z" id="路径-10" fill="url(#linearGradient-2)"></path>
            <path d="M22.4707194,0.0188798753 C34.512938,-0.15325495 46.2443708,0.851673011 57.665018,3.03366376 C69.0856651,5.21565451 80.5795034,8.91156891 92.1465329,14.1214069 C116.292281,16.7457238 129.360789,19.7784224 131.352058,23.2195026 C134.338961,28.381123 121.867671,53.5746306 107.007102,56.7106362 C99.0588276,58.3879497 91.4991211,57.2854671 84.3279826,53.4031885 C83.1498131,52.7653563 81.8144183,51.5231642 80.3217983,49.6766122 C79.0436257,47.4310895 78.3532903,45.7113991 78.2507923,44.5175411 C77.625257,37.2315428 79.1239934,30.6991102 82.7470016,24.9202432 C80.5569294,24.1104822 77.3615252,25.2628966 73.1607889,28.3774863 C66.8596846,33.049371 35.9202679,41.2088041 18.1140112,32.2141534 C29.6203758,22.7685579 42.2795588,17.3390376 56.0915602,15.9255924 C69.9035616,14.5121473 76.1916247,14.5121473 74.9557494,15.9255924 C70.9426402,13.5200118 64.6545772,12.9186166 56.0915602,14.1214069 C43.2470347,15.9255924 28.5853774,13.2360686 24.1933419,3.03366376 L22.77109,1.53554652 L22.4707194,0.0188798753 Z" id="路径-7" fill="url(#linearGradient-3)"></path>
            <path d="M87.9867382,57.4696974 C81.8463131,56.8943753 76.8003665,53.6719768 72.8488984,47.8025018 C62.7670157,40.9052848 52.5866967,44.1813795 42.3079413,57.6307858 C32.0291859,71.0801922 27.7230134,79.4089071 29.3894238,82.6169306 C31.7382333,82.7429391 36.4375718,79.5809814 43.4874394,73.1310577 C54.0622407,63.4561721 56.0823544,59.8021292 63.5281455,61.6300561 C68.4920062,62.848674 76.6448704,61.4618878 87.9867382,57.4696974 Z" id="路径-11" fill="url(#linearGradient-4)"></path>
            <path d="M81.0162057,116.975882 C98.3518955,91.4775401 110.072914,80.868101 116.17926,85.1475646 C122.285607,89.4270282 122.83483,99.0410872 117.826931,113.989742 C118.089569,116.428532 120.845729,115.734528 126.095411,111.90773 C133.969933,106.167533 145.720241,102.995013 151.014371,111.90773 C149.129574,115.692815 144.025127,118.91709 135.70103,121.580554 C123.214884,125.57575 108.074157,139.445383 108.074157,123.491249 C108.074157,107.537115 105.024498,105.516668 97.9969472,107.605062 C93.3119132,108.997324 87.6516661,112.120931 81.0162057,116.975882 Z" id="路径-13" fill="url(#linearGradient-5)"></path>
            <path d="M23.2930799,33.9822066 C45.4734282,19.1831145 64.7144701,15.4833414 81.0162057,22.8828875 C75.7916866,27.0560254 72.0248353,29.5334272 69.7156519,30.3150928 C62.6374517,33.7835393 52.8617656,35.8651912 40.3885934,36.5600483 C34.0741522,36.6289501 29.1883529,36.0993405 25.7311953,34.9712195 C22.2740378,33.8430985 21.4613326,33.5134276 23.2930799,33.9822066 Z" id="路径-14" fill="url(#linearGradient-6)"></path>
            <path d="M117.607668,50.5211046 C89.7365019,52.8182745 78.1162799,44.284654 82.7470016,24.9202432 C77.5272007,33.841284 76.5158418,42.1572559 79.7129251,49.8681589 C82.1794083,53.2236638 85.9450402,55.4728572 91.0098208,56.6157392 C98.810265,58.0519144 104.982213,57.8375451 109.525664,55.9726313 C114.069115,54.1077175 116.763116,52.290542 117.607668,50.5211046 Z" id="路径-15" fill="url(#linearGradient-7)"></path>
            <path d="M81.0162057,116.975882 C91.8312551,107.030736 99.7259314,102.704894 104.700235,103.998357 C109.674538,105.291821 111.682887,111.041286 110.725284,121.246755 C109.503126,128.67713 112.70962,131.05811 120.344767,128.389694 C112.878339,132.89138 108.832007,132.364413 108.205771,126.808794 C108.312449,112.599467 105.868994,106.157093 100.875406,107.48167 C95.8536679,108.315828 89.2339343,111.480565 81.0162057,116.975882 Z" id="路径-16" fill="url(#linearGradient-8)"></path>
            <path d="M147.574611,45.0699403 C140.084852,61.9955656 127.495097,70.4583783 109.805345,70.4583783 C92.115594,70.4583783 82.0670489,75.047266 79.6597101,84.2250415 L73.3970684,98.400021 C87.0662635,98.1767716 96.7800977,94.1664767 102.538571,86.3691361 C108.297044,78.5717956 112.789283,75.7109936 116.015288,77.7867301 C125.763369,77.7129105 133.18067,74.6236193 138.267191,68.5188565 C143.353712,62.4140937 146.456185,54.5977883 147.574611,45.0699403 Z" id="路径-17" fill="url(#linearGradient-9)"></path>
            <path d="M73.3970684,98.400021 C67.4038978,120.629746 58.8101222,132.34107 47.6157415,133.533994 C58.793936,132.543398 69.895246,125.685707 80.9196714,112.96092 L96.4742116,90.3423147 L73.3970684,98.400021 Z" id="路径-18" fill="url(#linearGradient-10)"></path>
        </g>
    </g>
</svg>