<svg  xmlns="http://www.w3.org/2000/svg" xmlns:xlink="http://www.w3.org/1999/xlink" width="69px" height="17px"><path fill-rule="evenodd"  fill="rgb(255, 255, 255)" d="M67.666,5.372 L68.704,5.372 L66.154,8.461 L68.412,11.332 L67.469,11.332 L65.377,8.807 L65.248,8.807 L67.155,11.231 L66.247,11.231 L64.239,8.807 L63.508,8.807 L63.508,11.332 L62.672,11.332 L62.672,8.800 L62.433,8.800 L62.434,11.231 L61.629,11.231 L61.629,5.494 L62.434,5.494 L62.433,8.015 L62.672,8.015 L62.672,5.372 L63.508,5.372 L63.508,7.991 L64.344,7.991 L66.437,5.494 L67.436,5.494 L65.374,7.991 L65.471,7.991 L67.666,5.372 ZM57.737,5.372 L58.285,5.372 L58.285,11.332 L57.737,11.332 L57.737,5.372 ZM56.878,5.494 L57.406,5.494 L57.406,11.231 L56.878,11.231 L56.878,5.494 ZM53.711,6.253 L51.846,6.253 L51.847,11.332 L51.015,11.332 L51.015,11.231 L50.407,11.231 L50.407,6.252 L47.904,6.253 L47.904,5.494 L48.415,5.494 L48.415,5.372 L54.447,5.372 L54.447,6.161 L53.711,6.161 L53.711,6.253 ZM43.827,11.332 L43.729,11.231 L43.487,11.231 L41.527,9.199 L39.356,9.199 L39.356,11.332 L38.545,11.332 L38.545,11.231 L38.402,11.231 L38.402,5.494 L38.545,5.494 L38.545,5.372 L43.525,5.372 C44.174,5.372 44.703,5.865 44.740,6.486 L44.742,6.555 L44.742,8.016 C44.742,8.646 44.236,9.161 43.597,9.197 L43.525,9.199 L42.860,9.199 L44.851,11.332 L43.827,11.332 ZM43.328,8.224 C43.346,8.203 43.364,8.182 43.377,8.157 C43.395,8.121 43.409,8.081 43.414,8.039 L43.417,7.996 L43.417,6.642 C43.417,6.440 43.249,6.276 43.042,6.276 L39.367,6.276 L39.367,8.352 L43.098,8.352 C43.179,8.340 43.252,8.303 43.307,8.250 C43.315,8.242 43.321,8.232 43.328,8.224 ZM34.706,11.332 L29.223,11.332 L29.223,5.372 L34.706,5.372 L34.706,5.494 L34.707,5.494 L34.707,6.250 L30.204,6.250 L30.204,8.024 L33.640,8.024 L33.640,8.047 L33.680,8.047 L33.680,8.803 L33.640,8.803 L33.640,8.810 L30.204,8.810 L30.204,10.475 L34.707,10.475 L34.707,11.231 L34.706,11.231 L34.706,11.332 ZM25.658,11.332 L20.881,11.332 C20.213,11.332 19.667,10.842 19.629,10.223 L19.627,10.154 L19.627,6.551 C19.627,5.923 20.149,5.410 20.807,5.374 L20.881,5.372 L25.658,5.372 L25.658,5.494 L25.997,5.494 L25.997,6.250 L21.397,6.250 C21.190,6.250 21.020,6.396 20.997,6.584 L20.995,6.628 L20.995,10.097 C20.995,10.291 21.150,10.451 21.350,10.472 L21.397,10.475 L25.997,10.475 L25.997,11.231 L25.658,11.231 L25.658,11.332 ZM9.183,16.391 C9.132,16.422 9.075,16.441 9.015,16.446 L8.958,16.448 C8.890,16.448 8.822,16.430 8.760,16.392 C8.737,16.379 8.721,16.365 8.699,16.352 C8.522,16.465 8.377,16.580 8.193,16.692 C8.140,16.724 8.080,16.744 8.018,16.749 L7.959,16.751 C7.889,16.751 7.818,16.732 7.753,16.693 C4.760,14.890 2.795,13.028 1.869,11.090 C0.972,9.217 0.599,6.625 0.737,3.313 L0.750,3.020 L0.755,2.990 L0.766,2.946 L0.785,2.895 L0.796,2.873 L0.809,2.851 L0.825,2.828 L0.851,2.796 L0.892,2.756 L0.928,2.729 L0.974,2.703 L0.996,2.693 L1.032,2.680 L1.061,2.673 L1.098,2.666 L1.131,2.663 L1.155,2.663 L1.155,2.663 L1.196,2.666 L1.234,2.672 L1.264,2.680 L1.296,2.691 L1.337,2.710 L1.358,2.722 L1.393,2.747 L1.426,2.775 L1.456,2.808 L1.480,2.840 L1.504,2.880 L1.997,3.841 C2.001,3.730 2.000,3.624 2.005,3.511 L2.018,3.230 L2.023,3.200 L2.033,3.158 L2.051,3.109 L2.062,3.088 L2.074,3.067 L2.090,3.044 L2.114,3.013 L2.154,2.975 L2.189,2.949 L2.233,2.924 L2.255,2.914 L2.289,2.902 L2.317,2.895 L2.353,2.888 L2.384,2.886 L2.407,2.885 L2.407,2.885 L2.446,2.888 L2.483,2.894 L2.512,2.902 L2.543,2.913 L2.582,2.931 L2.603,2.943 L2.636,2.966 L2.668,2.994 L2.697,3.025 L2.720,3.056 L2.743,3.095 L5.423,8.319 L11.385,8.319 L14.482,2.852 L14.518,2.803 L14.547,2.772 L14.588,2.738 L14.625,2.715 L14.677,2.690 L14.718,2.677 L14.754,2.669 L14.777,2.665 L14.809,2.663 L14.830,2.663 L14.876,2.667 L14.909,2.673 L14.955,2.686 L14.984,2.697 L15.032,2.723 L15.052,2.736 L15.090,2.766 L15.121,2.797 L15.146,2.829 L15.169,2.866 L15.188,2.903 L15.207,2.958 L15.216,2.996 L15.221,3.049 C15.222,3.064 15.221,3.079 15.222,3.094 L15.237,3.067 L15.271,3.020 L15.300,2.991 L15.339,2.958 L15.375,2.935 L15.425,2.912 L15.464,2.899 L15.499,2.891 L15.521,2.888 L15.552,2.886 L15.572,2.885 L15.617,2.889 L15.649,2.895 L15.692,2.907 L15.720,2.919 L15.767,2.943 L15.786,2.956 L15.822,2.985 L15.852,3.015 L15.876,3.045 L15.899,3.081 L15.917,3.117 L15.935,3.169 L15.943,3.206 L15.949,3.257 C16.058,6.569 15.676,9.148 14.791,10.998 C13.899,12.862 12.027,14.655 9.183,16.391 ZM12.033,10.613 L10.140,14.169 C11.708,12.972 12.684,11.727 13.260,10.561 C13.802,9.464 14.159,8.025 14.321,6.315 L12.033,10.613 ZM2.782,5.372 L4.294,8.319 L4.642,8.319 L2.770,4.711 C2.770,4.937 2.776,5.155 2.782,5.372 ZM2.915,7.226 C2.954,7.541 3.002,7.842 3.057,8.134 C3.067,8.191 3.080,8.245 3.091,8.300 C3.136,8.522 3.185,8.736 3.238,8.944 C3.259,9.022 3.280,9.099 3.302,9.175 C3.354,9.360 3.411,9.539 3.471,9.712 C3.495,9.781 3.518,9.851 3.543,9.918 C3.629,10.148 3.721,10.370 3.821,10.578 C4.039,11.028 4.341,11.476 4.703,11.923 C4.744,11.974 4.792,12.026 4.835,12.077 C5.202,12.512 5.619,12.945 6.108,13.377 L2.915,7.226 C2.915,7.226 2.915,7.226 2.915,7.226 ZM5.003,9.014 L4.743,9.014 L7.705,14.631 C7.825,14.715 7.923,14.799 8.048,14.883 L5.003,9.014 ZM8.531,14.061 L11.127,9.014 L5.870,9.014 L6.911,10.989 L8.531,14.061 ZM10.680,11.580 L8.943,14.843 L8.972,14.899 L10.680,11.580 ZM2.624,10.654 C3.110,11.657 3.953,12.656 5.094,13.647 C4.647,13.214 4.252,12.777 3.921,12.336 C3.586,11.894 3.310,11.449 3.094,10.998 C2.997,10.795 2.908,10.581 2.824,10.360 C2.793,10.280 2.766,10.197 2.737,10.115 C2.687,9.972 2.639,9.827 2.594,9.677 C2.561,9.569 2.530,9.460 2.500,9.348 C2.467,9.223 2.436,9.094 2.406,8.965 C2.374,8.830 2.342,8.697 2.314,8.558 C2.303,8.503 2.295,8.444 2.284,8.388 C2.211,7.996 2.151,7.585 2.104,7.156 C2.100,7.122 2.096,7.089 2.092,7.055 C2.069,6.826 2.050,6.590 2.034,6.350 C2.031,6.305 2.028,6.260 2.026,6.215 C2.011,5.964 1.999,5.709 1.992,5.447 L1.531,4.560 C1.534,7.128 1.901,9.160 2.624,10.654 ZM13.927,2.880 L13.884,2.870 L13.125,2.657 C13.124,2.657 13.122,2.657 13.121,2.657 L13.076,2.647 L9.044,1.515 L4.327,2.869 C4.139,2.923 3.939,2.840 3.860,2.681 L3.844,2.643 C3.820,2.576 3.826,2.509 3.845,2.446 L3.149,2.646 C2.954,2.702 2.746,2.615 2.664,2.450 L2.647,2.411 C2.585,2.234 2.681,2.046 2.864,1.971 L2.907,1.956 L7.932,0.513 C7.995,0.495 8.061,0.491 8.125,0.501 L8.125,0.501 L8.173,0.512 L13.313,1.956 C13.357,1.968 13.394,1.990 13.429,2.013 L14.112,2.205 C14.315,2.262 14.429,2.457 14.366,2.640 C14.307,2.811 14.117,2.912 13.927,2.880 Z"/></svg>