<svg  xmlns="http://www.w3.org/2000/svg" xmlns:xlink="http://www.w3.org/1999/xlink" width="28px" height="28px"><path fill-rule="evenodd"  fill="rgb(31, 37, 42)" d="M14.000,0.000 C21.732,0.000 28.000,6.268 28.000,14.000 C28.000,21.732 21.732,28.000 14.000,28.000 C6.268,28.000 -0.000,21.732 -0.000,14.000 C-0.000,6.268 6.268,0.000 14.000,0.000 Z"/><path fill-rule="evenodd"  fill="rgb(255, 255, 255)" d="M15.935,6.986 C14.995,6.972 14.080,7.265 13.355,7.812 C12.680,8.481 12.352,9.382 12.452,10.287 L12.452,12.173 L10.000,12.173 L10.000,14.648 L12.324,14.648 L12.324,21.012 L15.163,21.012 L15.163,14.648 L17.486,14.648 L17.873,12.173 L15.161,12.173 L15.161,10.523 C15.186,10.197 15.273,9.878 15.419,9.580 C15.790,9.446 16.182,9.366 16.580,9.344 L18.000,9.344 L18.000,7.105 C17.355,7.105 16.580,6.986 15.935,6.986 L15.935,6.986 Z"/></svg>