<svg  xmlns="http://www.w3.org/2000/svg" xmlns:xlink="http://www.w3.org/1999/xlink" width="68px" height="13px"><path fill-rule="evenodd"  fill="rgb(238, 238, 238)" d="M63.883,7.121 L63.883,9.195 L58.399,2.474 L60.801,2.474 L60.844,2.523 L63.030,5.209 L65.265,2.474 L67.668,2.474 L63.883,7.121 ZM54.014,9.163 L55.266,7.896 L58.269,10.889 L55.773,10.889 L54.014,9.163 ZM49.752,10.889 L52.762,7.896 L54.014,9.163 L52.256,10.889 L49.752,10.889 ZM50.498,4.959 L50.498,2.482 L54.014,6.000 L57.531,2.482 L57.531,4.959 L54.014,8.436 L50.498,4.959 ZM46.482,10.074 L43.653,4.435 L44.644,2.474 L48.884,10.889 L46.894,10.889 L46.482,10.074 ZM42.394,10.889 L40.404,10.889 L43.335,5.072 L44.325,7.049 L42.394,10.889 ZM37.401,8.808 L39.442,8.808 L39.442,10.889 L39.102,10.889 L37.401,8.808 ZM34.666,10.889 L34.666,2.474 L36.366,2.474 L36.366,8.808 L36.627,8.808 L38.320,10.889 L34.666,10.889 ZM31.395,10.074 L28.567,4.435 L29.558,2.474 L33.798,10.889 L31.808,10.889 L31.395,10.074 ZM27.308,10.889 L25.318,10.889 L28.248,5.072 L29.239,7.049 L27.308,10.889 ZM22.749,10.324 C22.228,10.696 21.635,10.897 21.020,10.897 C20.108,10.897 19.247,10.461 18.596,9.663 C17.945,8.864 17.590,7.807 17.590,6.686 C17.590,6.048 17.699,5.435 17.923,4.871 L18.010,4.653 L19.319,6.266 L19.312,6.347 C19.298,6.460 19.291,6.565 19.291,6.678 C19.291,7.242 19.471,7.775 19.797,8.178 C20.122,8.582 20.557,8.799 21.020,8.799 C21.381,8.799 21.714,8.670 22.004,8.428 L21.381,7.380 L24.450,7.380 L24.450,10.897 L22.749,10.897 L22.749,10.324 ZM22.243,5.185 C21.917,4.782 21.483,4.564 21.020,4.564 C20.557,4.564 20.122,4.782 19.797,5.185 C19.739,5.266 19.681,5.346 19.631,5.427 L19.537,5.580 L18.321,4.088 L18.401,3.967 C19.052,3.015 20.007,2.474 21.020,2.474 C21.722,2.474 22.395,2.733 22.973,3.216 C23.646,3.789 24.131,4.628 24.341,5.588 L22.503,5.588 C22.431,5.443 22.344,5.306 22.243,5.185 ZM12.699,6.132 L13.542,6.132 L13.542,7.105 L12.699,7.105 L12.699,6.132 ZM9.992,7.338 C9.648,7.338 9.368,7.016 9.368,6.618 C9.368,6.221 9.648,5.898 9.992,5.898 C10.337,5.898 10.617,6.221 10.617,6.618 C10.617,7.016 10.337,7.338 9.992,7.338 ZM9.621,3.592 L9.982,3.592 L10.003,3.592 L10.364,3.592 L10.364,4.448 L9.621,4.448 L9.621,3.592 ZM6.797,7.883 C6.191,7.883 5.700,7.317 5.700,6.618 C5.700,5.920 6.191,5.353 6.797,5.353 C7.402,5.353 7.893,5.920 7.893,6.618 C7.893,7.317 7.402,7.883 6.797,7.883 ZM5.928,2.668 L7.665,2.668 L7.665,3.651 L7.665,3.689 L7.665,4.672 L5.928,4.672 L5.928,2.668 ZM6.248,0.605 L6.784,0.605 L6.809,0.605 L7.345,0.605 L7.345,1.870 L6.248,1.870 L6.248,0.605 ZM3.601,7.338 C3.256,7.338 2.977,7.016 2.977,6.618 C2.977,6.221 3.256,5.898 3.601,5.898 C3.945,5.898 4.224,6.221 4.224,6.618 C4.224,7.016 3.945,7.338 3.601,7.338 ZM3.230,3.592 L3.590,3.592 L3.611,3.592 L3.971,3.592 L3.971,4.448 L3.230,4.448 L3.230,3.592 ZM0.051,6.132 L0.894,6.132 L0.894,7.105 L0.051,7.105 L0.051,6.132 ZM3.971,9.655 L3.230,9.655 L3.230,8.798 L3.971,8.798 L3.971,9.655 ZM6.797,8.574 C7.276,8.574 7.665,9.023 7.665,9.577 C7.665,10.130 7.276,10.579 6.797,10.579 C6.317,10.579 5.928,10.130 5.928,9.577 C5.928,9.023 6.317,8.574 6.797,8.574 ZM7.294,12.613 L6.299,12.613 L6.299,11.464 L7.294,11.464 L7.294,12.613 ZM10.364,9.655 L9.621,9.655 L9.621,8.798 L10.364,8.798 L10.364,9.655 ZM63.876,10.889 L62.176,10.889 L62.176,8.065 L63.876,10.147 L63.876,10.889 Z"/></svg>