<svg 
 xmlns="http://www.w3.org/2000/svg"
 xmlns:xlink="http://www.w3.org/1999/xlink"
 width="16px" height="12px">
<path fill-rule="evenodd"  fill="rgb(27, 211, 213)"
 d="M15.000,7.000 L5.000,7.000 C4.448,7.000 4.000,6.552 4.000,6.000 C4.000,5.448 4.448,5.000 5.000,5.000 L15.000,5.000 C15.552,5.000 16.000,5.448 16.000,6.000 C16.000,6.552 15.552,7.000 15.000,7.000 ZM15.000,2.000 L9.000,2.000 C8.448,2.000 8.000,1.552 8.000,1.000 C8.000,0.448 8.448,0.000 9.000,0.000 L15.000,0.000 C15.552,0.000 16.000,0.448 16.000,1.000 C16.000,1.552 15.552,2.000 15.000,2.000 ZM16.000,11.000 C16.000,11.552 15.552,12.000 15.000,12.000 L1.000,12.000 C0.448,12.000 0.000,11.552 0.000,11.000 C0.000,10.448 0.448,10.000 1.000,10.000 L15.000,10.000 C15.552,10.000 16.000,10.448 16.000,11.000 Z"/>
</svg>
