<svg  xmlns="http://www.w3.org/2000/svg" xmlns:xlink="http://www.w3.org/1999/xlink" width="14px" height="17px"><path fill-rule="evenodd"  fill="rgb(255, 255, 255)" d="M12.874,16.966 L11.896,16.966 C11.274,16.966 10.769,16.466 10.769,15.849 L10.769,2.067 C10.769,1.450 11.274,0.950 11.896,0.950 L12.874,0.950 C13.496,0.950 14.000,1.450 14.000,2.067 L14.000,15.849 C14.000,16.466 13.496,16.966 12.874,16.966 ZM7.489,16.966 L6.511,16.966 C5.889,16.966 5.385,16.466 5.385,15.849 L5.385,6.072 C5.385,5.454 5.889,4.954 6.511,4.954 L7.489,4.954 C8.111,4.954 8.615,5.454 8.615,6.072 L8.615,15.849 C8.615,16.466 8.111,16.966 7.489,16.966 ZM2.104,16.966 L1.127,16.966 C0.505,16.966 0.000,16.466 0.000,15.849 L0.000,10.075 C0.000,9.458 0.505,8.958 1.127,8.958 L2.104,8.958 C2.727,8.958 3.231,9.458 3.231,10.075 L3.231,15.849 C3.231,16.466 2.727,16.966 2.104,16.966 Z"/></svg>