<svg  xmlns="http://www.w3.org/2000/svg" xmlns:xlink="http://www.w3.org/1999/xlink" width="16px" height="16px"><path fill-rule="evenodd"  fill="rgb(157, 166, 166)" d="M15.797,13.423 L11.311,5.587 L11.311,1.974 L11.828,1.974 C12.016,1.974 12.203,1.871 12.297,1.702 C12.391,1.533 12.391,1.327 12.297,1.167 C12.202,0.998 12.022,0.894 11.828,0.895 L5.174,0.895 C4.986,0.895 4.799,0.998 4.705,1.167 C4.611,1.336 4.611,1.533 4.705,1.702 C4.799,1.871 4.977,1.974 5.174,1.974 L5.681,1.974 L5.681,5.597 L1.251,13.301 C1.101,13.582 0.979,13.883 0.979,14.220 C0.979,15.159 1.664,15.919 2.508,15.919 L14.615,15.919 C15.385,15.825 15.985,15.102 15.985,14.220 C16.004,13.920 15.920,13.657 15.797,13.423 L15.797,13.423 ZM6.497,6.056 C6.572,5.916 6.620,5.747 6.620,5.597 L6.620,1.974 L10.373,1.974 L10.373,5.578 C10.373,5.747 10.411,5.897 10.495,6.047 L11.311,7.455 L5.690,7.455 L6.497,6.056 ZM8.233,10.964 C8.065,11.133 7.830,11.236 7.586,11.236 C7.342,11.236 7.117,11.142 6.938,10.964 C6.766,10.793 6.668,10.560 6.666,10.317 C6.666,10.073 6.760,9.848 6.938,9.669 C7.107,9.500 7.342,9.397 7.586,9.397 C7.830,9.397 8.055,9.491 8.233,9.669 C8.402,9.838 8.505,10.073 8.505,10.317 C8.496,10.561 8.402,10.795 8.233,10.964 L8.233,10.964 ZM10.833,14.033 C10.063,14.033 9.425,13.404 9.425,12.625 C9.425,11.846 10.054,11.218 10.833,11.218 C11.603,11.218 12.241,11.846 12.241,12.625 C12.241,13.404 11.612,14.033 10.833,14.033 L10.833,14.033 Z"/></svg>