<svg  xmlns="http://www.w3.org/2000/svg" xmlns:xlink="http://www.w3.org/1999/xlink" width="19px" height="17px"><path fill-rule="evenodd"  fill="rgb(238, 238, 238)" d="M18.260,1.932 C17.568,2.277 16.875,2.484 16.119,2.553 C16.875,2.070 17.505,1.241 17.757,0.275 C17.064,0.758 16.245,1.103 15.364,1.310 C14.671,0.482 13.726,-0.002 12.656,-0.002 C10.577,-0.002 8.940,1.863 8.940,4.141 C8.940,4.486 9.003,4.762 9.066,5.108 C5.854,4.900 3.146,3.243 1.257,0.758 C0.942,1.379 0.753,2.070 0.753,2.829 C0.753,4.279 1.446,5.522 2.390,6.281 C1.760,6.281 1.194,6.074 0.690,5.729 L0.690,5.798 C0.690,7.800 2.012,9.457 3.713,9.871 C3.398,9.940 3.083,10.009 2.705,10.009 C2.453,10.009 2.201,10.009 2.012,9.940 C2.516,11.597 3.901,12.771 5.539,12.840 C4.279,13.945 2.642,14.635 0.879,14.635 C0.564,14.635 0.249,14.635 -0.003,14.566 C1.635,15.740 3.650,16.430 5.728,16.430 C12.656,16.430 16.371,10.078 16.371,4.624 L16.371,4.072 C17.127,3.520 17.757,2.760 18.260,1.932 L18.260,1.932 Z"/></svg>