<svg  xmlns="http://www.w3.org/2000/svg" xmlns:xlink="http://www.w3.org/1999/xlink" width="24px" height="24px"><path fill-rule="evenodd"  fill="rgb(249, 196, 54)" d="M21.131,14.848 L18.263,11.980 L21.131,9.112 L24.000,11.980 L21.131,14.848 ZM16.600,10.321 L12.000,5.722 L7.399,10.321 L4.531,7.453 L11.987,-0.000 L12.001,0.014 L12.014,-0.000 L19.469,7.452 L16.600,10.320 L16.600,10.321 ZM2.869,14.848 L0.000,11.980 L2.869,9.112 L5.737,11.980 L2.869,14.848 ZM9.131,11.980 L9.131,11.980 L12.000,9.112 L14.869,11.980 L12.000,14.851 L9.131,11.980 ZM12.002,18.280 L16.604,13.679 L19.472,16.547 L12.018,24.000 L12.002,23.984 L11.986,24.000 L4.532,16.547 L7.400,13.679 L12.002,18.280 Z"/></svg>