<svg  xmlns="http://www.w3.org/2000/svg" xmlns:xlink="http://www.w3.org/1999/xlink" width="28px" height="29px"><path fill-rule="evenodd"  fill="rgb(27, 211, 213)" d="M13.936,0.908 C21.633,0.908 27.873,7.148 27.873,14.845 C27.873,22.542 21.633,28.781 13.936,28.781 C6.240,28.781 0.000,22.542 0.000,14.845 C0.000,7.148 6.240,0.908 13.936,0.908 Z"/><path fill-rule="evenodd"  fill="rgb(255, 255, 255)" d="M20.029,11.395 C18.944,11.395 18.063,10.513 18.063,9.425 C18.063,8.337 18.944,7.455 20.029,7.455 C21.115,7.455 21.995,8.337 21.995,9.425 C21.995,10.513 21.115,11.395 20.029,11.395 ZM15.629,10.779 C15.060,10.779 14.597,10.316 14.597,9.746 C14.597,9.175 15.060,8.713 15.629,8.713 C16.199,8.713 16.660,9.175 16.660,9.746 C16.660,10.316 16.199,10.779 15.629,10.779 ZM16.614,11.970 C17.873,11.970 18.894,12.993 18.894,14.254 C18.894,15.516 17.873,16.538 16.614,16.538 C15.355,16.538 14.335,15.516 14.335,14.254 C14.335,12.993 15.355,11.970 16.614,11.970 ZM9.875,14.103 C8.018,14.103 6.512,12.594 6.512,10.733 C6.512,8.872 8.018,7.364 9.875,7.364 C11.732,7.364 13.238,8.872 13.238,10.733 C13.238,12.594 11.732,14.103 9.875,14.103 ZM10.495,15.121 C12.615,15.121 14.335,16.843 14.335,18.968 C14.335,21.094 12.615,22.816 10.495,22.816 C8.374,22.816 6.654,21.094 6.654,18.968 C6.654,16.843 8.374,15.121 10.495,15.121 ZM20.639,16.510 C20.241,16.510 19.917,16.187 19.917,15.787 C19.917,15.388 20.241,15.065 20.639,15.065 C21.037,15.065 21.360,15.388 21.360,15.787 C21.360,16.187 21.037,16.510 20.639,16.510 ZM19.444,17.599 C20.906,17.599 22.092,18.787 22.092,20.253 C22.092,21.718 20.906,22.906 19.444,22.906 C17.981,22.906 16.796,21.718 16.796,20.253 C16.796,18.787 17.981,17.599 19.444,17.599 Z"/></svg>