<svg 
 xmlns="http://www.w3.org/2000/svg"
 xmlns:xlink="http://www.w3.org/1999/xlink"
 width="16px" height="12px">
<path fill-rule="evenodd"  fill="rgb(27, 211, 213)"
 d="M15.404,8.897 L12.754,6.247 C12.617,6.111 12.617,5.889 12.754,5.753 L15.404,3.103 C15.624,2.883 16.000,3.039 16.000,3.350 L16.000,8.650 C16.000,8.961 15.624,9.117 15.404,8.897 ZM13.000,2.000 L1.000,2.000 C0.448,2.000 0.000,1.552 0.000,1.000 C0.000,0.448 0.448,0.000 1.000,0.000 L13.000,0.000 C13.552,0.000 14.000,0.448 14.000,1.000 C14.000,1.552 13.552,2.000 13.000,2.000 ZM1.000,5.000 L9.000,5.000 C9.552,5.000 10.000,5.448 10.000,6.000 C10.000,6.552 9.552,7.000 9.000,7.000 L1.000,7.000 C0.448,7.000 0.000,6.552 0.000,6.000 C0.000,5.448 0.448,5.000 1.000,5.000 ZM1.000,10.000 L13.000,10.000 C13.552,10.000 14.000,10.448 14.000,11.000 C14.000,11.552 13.552,12.000 13.000,12.000 L1.000,12.000 C0.448,12.000 0.000,11.552 0.000,11.000 C0.000,10.448 0.448,10.000 1.000,10.000 Z"/>
</svg>
