<svg xmlns="http://www.w3.org/2000/svg" viewBox="0 0 759.26 157.77"><defs><style>.cls-1{fill:#e6007a;}</style></defs><g id="图层_2" data-name="图层 2"><g id="图层_1-2" data-name="图层 1"><path class="cls-1" d="M596.22,91.54c0-7-1.1-12-3.54-16.05A25.21,25.21,0,0,0,570.84,63c-14.66,0-25.3,10.95-25.3,26.05a26.3,26.3,0,0,0,7.11,18.31A24.48,24.48,0,0,0,571,115.13a24.77,24.77,0,0,0,15.13-5v4.12h10.07V91.54Zm-10.07,4.87-.26.29-1.95,2.2c-3.78,4.27-8,6.35-12.92,6.35-8.82,0-15.23-6.84-15.23-16.26,0-9.27,6.55-16.25,15.23-16.25,9.48,0,15.13,7,15.13,18.59Z"/><path class="cls-1" d="M224.1,104.41c-1.11.09-2.34.09-3.42.09-18.57,0-28.8-9.27-28.8-26.09s10.13-26,28.52-26c1.23,0,2.51,0,3.71.09l1.19.09,2.15.15V42.89l-1.84-.16-1-.08c-1.25-.1-2.45-.1-3.62-.1-12.06,0-22.08,3.28-29,9.49s-10.63,15.39-10.63,26.37S185,98.58,192,104.86s17,9.52,29,9.52c1.07,0,2.28,0,3.53-.11l1-.08,1.84-.15v-9.88l-2.15.16Z"/><path class="cls-1" d="M256.78,63a25,25,0,0,0-17.95,7.58,26.41,26.41,0,0,0,0,36.91,25,25,0,0,0,35.92,0,26.63,26.63,0,0,0,0-36.93A25,25,0,0,0,256.78,63ZM271.91,89c0,9.11-6.65,16.26-15.13,16.26S241.55,98.1,241.55,89s6.69-16.25,15.23-16.25S271.91,79.87,271.91,89Z"/><path class="cls-1" d="M295.1,48.72a5.77,5.77,0,0,0-5.83,5.83,5.88,5.88,0,1,0,11.75,0A5.81,5.81,0,0,0,295.1,48.72Z"/><polygon class="cls-1" points="292.11 63.88 290.11 63.88 290.11 65.88 290.11 112.28 290.11 114.28 292.11 114.28 298.18 114.28 300.18 114.28 300.18 112.28 300.18 65.88 300.18 63.88 298.18 63.88 292.11 63.88"/><path class="cls-1" d="M331.54,63c-6.27,0-11.59,2.22-15.37,6.41s-5.71,9.93-5.71,16.73v28.1h10V85c0-7.43,4.36-12.23,11.11-12.23s11.11,4.8,11.11,12.23v29.31h10V86.18c0-6.8-2-12.59-5.71-16.73S337.81,63,331.54,63Z"/><path class="cls-1" d="M403.85,63.88H393.08l-.49,1.31-13.3,36-13.3-36-.48-1.31H354.73l1,2.7,15.72,42.11c.7,1.94,2.36,6.53,7.88,6.53s7.14-4.75,7.79-6.54l15.71-42.1Z"/><path class="cls-1" d="M449.22,86.53h-1.88l-.12,1.86-.07,1c-.62,9.45-6.7,15.81-15.14,15.81a14.69,14.69,0,0,1-10.58-4.47L453.72,79.2l1.58-1.06-1-1.63-.55-.92C448.82,67.38,441.39,63,432.29,63a24.94,24.94,0,0,0-18.23,7.58,26.4,26.4,0,0,0,0,36.93A25,25,0,0,0,432,115.13c13.89,0,24.57-10.65,25.38-25.31l.07-1.18.12-2.11h-8.36ZM441.14,76,417,92a18,18,0,0,1-.25-3.05c0-9.17,6.76-16.35,15.41-16.35A13,13,0,0,1,441.14,76Z"/><path class="cls-1" d="M492.32,63.9a29.23,29.23,0,0,0-3-.2A20.46,20.46,0,0,0,477,67.59V63.88h-10v50.4h10V87.77c0-8.43,4.73-14.1,11.77-14.1.62,0,1.52.07,2.55.15l1.59.12,2.15.16V64.2L493.31,64Z"/><path class="cls-1" d="M526.43,84.77l-8.88-2.52c-6.72-1.89-6.72-4-6.72-4.77,0-1.24,0-3.81,5.59-3.81h20.8V63.88H517.83c-10.68,0-17.06,5-17.06,13.41,0,7,4.48,11.86,13.32,14.33L522.62,94c6.87,1.86,7.81,4.06,7.81,6.17,0,3.72-4.67,4.27-7.46,4.27h-22.3v9.88h19.49c13.5,0,20.34-4.85,20.34-14.43S531.69,86.23,526.43,84.77Z"/><path class="cls-1" d="M614,63.88V51.34H603.94V95.73c0,8.46,3.58,18.55,20.62,18.55h5.08V104.5H623.9c-7.39,0-9.89-2.31-9.89-9.15V73.76h15.63V63.88H614Z"/><polygon class="cls-1" points="641.02 63.88 639.02 63.88 639.02 65.88 639.02 112.28 639.02 114.28 641.02 114.28 647.08 114.28 649.08 114.28 649.08 112.28 649.08 65.88 649.08 63.88 647.08 63.88 641.02 63.88"/><path class="cls-1" d="M644,48.72a5.77,5.77,0,0,0-5.83,5.83,5.88,5.88,0,1,0,11.75,0A5.81,5.81,0,0,0,644,48.72Z"/><path class="cls-1" d="M683.42,63a25,25,0,0,0-18,7.58,26.39,26.39,0,0,0,0,36.91,25,25,0,0,0,35.91,0,26.63,26.63,0,0,0,0-36.93A24.92,24.92,0,0,0,683.42,63Zm0,42.21c-8.54,0-15.23-7.15-15.23-16.26s6.69-16.25,15.23-16.25S698.55,79.87,698.55,89,691.9,105.25,683.42,105.25Z"/><path class="cls-1" d="M753.55,69.45c-3.79-4.19-9.11-6.41-15.38-6.41s-11.58,2.22-15.37,6.41-5.71,9.93-5.71,16.73v28.1h10V85c0-7.43,4.36-12.23,11.11-12.23s11.12,4.8,11.12,12.23v29.31h10V86.18C759.26,79.38,757.28,73.59,753.55,69.45Z"/><path class="cls-1" d="M10.43,78.88A68.46,68.46,0,0,1,119.53,23.8a5.16,5.16,0,0,0,3.87,1,5.21,5.21,0,0,0,2.33-9.35A78.88,78.88,0,0,0,0,78.88a78.22,78.22,0,0,0,15.42,46.85,5.21,5.21,0,1,0,8.38-6.2A67.88,67.88,0,0,1,10.43,78.88Z"/><path class="cls-1" d="M142.35,32a5.22,5.22,0,0,0-7.29-1.09,5.21,5.21,0,0,0-1.1,7.29A68.45,68.45,0,0,1,38.23,134a5.22,5.22,0,0,0-6.2,8.39A78.89,78.89,0,0,0,142.35,32Z"/><path class="cls-1" d="M48,60.4c10.49,1.29,19.33,8.35,26.27,21,8.52,15.52,20.32,24.62,34.14,26.33a32.06,32.06,0,0,0,4,.25,29.69,29.69,0,0,0,15.22-4,23.84,23.84,0,0,0,11.54-17.5,23.06,23.06,0,0,0-4.47-17.64c-4.41-5.74-11.53-9.6-19.55-10.6-8.59-1.06-17.15.77-25.42,5.45a5.22,5.22,0,0,0-2,7.1,5.23,5.23,0,0,0,7.11,2,30.59,30.59,0,0,1,19-4.18c5.18.65,9.88,3.11,12.55,6.6A12.68,12.68,0,0,1,128.91,85c-1.33,9.52-10.66,13.44-19.18,12.39-10.5-1.3-19.34-8.36-26.27-21C74.94,60.86,63.13,51.75,49.32,50.05a30.37,30.37,0,0,0-19.25,3.78A23.82,23.82,0,0,0,18.53,71.34,23,23,0,0,0,23,89c4.4,5.75,11.53,9.61,19.55,10.6A40.75,40.75,0,0,0,68,94.13a5.23,5.23,0,0,0,2-7.11,5.21,5.21,0,0,0-7.11-2,30.51,30.51,0,0,1-19,4.17c-5.19-.64-9.88-3.11-12.56-6.6a12.7,12.7,0,0,1-2.42-9.84C30.19,63.26,39.51,59.35,48,60.4Z"/></g></g></svg>