<svg  xmlns="http://www.w3.org/2000/svg" xmlns:xlink="http://www.w3.org/1999/xlink" width="30px" height="30px"><path fill-rule="evenodd"  fill="rgb(36, 43, 47)" d="M15.000,0.000 C23.284,0.000 30.000,6.716 30.000,15.000 C30.000,23.284 23.284,30.000 15.000,30.000 C6.716,30.000 0.000,23.284 0.000,15.000 C0.000,6.716 6.716,0.000 15.000,0.000 Z"/><path fill-rule="evenodd"  fill="rgb(157, 166, 166)" d="M21.130,11.540 C20.039,11.540 19.155,10.653 19.155,9.560 C19.155,8.467 20.039,7.580 21.130,7.580 C22.222,7.580 23.107,8.467 23.107,9.560 C23.107,10.653 22.222,11.540 21.130,11.540 ZM16.708,10.921 C16.136,10.921 15.671,10.456 15.671,9.882 C15.671,9.309 16.136,8.844 16.708,8.844 C17.280,8.844 17.745,9.309 17.745,9.882 C17.745,10.456 17.280,10.921 16.708,10.921 ZM17.699,12.118 C18.964,12.118 19.990,13.146 19.990,14.414 C19.990,15.681 18.964,16.709 17.699,16.709 C16.433,16.709 15.407,15.681 15.407,14.414 C15.407,13.146 16.433,12.118 17.699,12.118 ZM10.925,14.261 C9.059,14.261 7.545,12.745 7.545,10.875 C7.545,9.005 9.059,7.488 10.925,7.488 C12.791,7.488 14.305,9.005 14.305,10.875 C14.305,12.745 12.791,14.261 10.925,14.261 ZM11.548,15.285 C13.680,15.285 15.407,17.016 15.407,19.152 C15.407,21.288 13.680,23.019 11.548,23.019 C9.416,23.019 7.688,21.288 7.688,19.152 C7.688,17.016 9.416,15.285 11.548,15.285 ZM21.743,16.681 C21.343,16.681 21.019,16.356 21.019,15.955 C21.019,15.553 21.343,15.228 21.743,15.228 C22.143,15.228 22.468,15.553 22.468,15.955 C22.468,16.356 22.143,16.681 21.743,16.681 ZM20.542,17.776 C22.012,17.776 23.203,18.969 23.203,20.442 C23.203,21.915 22.012,23.109 20.542,23.109 C19.072,23.109 17.881,21.915 17.881,20.442 C17.881,18.969 19.072,17.776 20.542,17.776 Z"/></svg>