<svg  xmlns="http://www.w3.org/2000/svg" xmlns:xlink="http://www.w3.org/1999/xlink" width="17px" height="17px"><path fill-rule="evenodd"  fill="rgb(27, 211, 213)" d="M14.130,4.540 C13.040,4.540 12.155,3.653 12.155,2.560 C12.155,1.467 13.040,0.580 14.130,0.580 C15.222,0.580 16.106,1.467 16.106,2.560 C16.106,3.653 15.222,4.540 14.130,4.540 ZM9.708,3.921 C9.136,3.921 8.671,3.456 8.671,2.882 C8.671,2.309 9.136,1.844 9.708,1.844 C10.281,1.844 10.745,2.309 10.745,2.882 C10.745,3.456 10.281,3.921 9.708,3.921 ZM10.698,5.118 C11.964,5.118 12.990,6.146 12.990,7.414 C12.990,8.681 11.964,9.709 10.698,9.709 C9.433,9.709 8.408,8.681 8.408,7.414 C8.408,6.146 9.433,5.118 10.698,5.118 ZM3.925,7.261 C2.058,7.261 0.545,5.745 0.545,3.875 C0.545,2.005 2.058,0.488 3.925,0.488 C5.792,0.488 7.305,2.005 7.305,3.875 C7.305,5.745 5.792,7.261 3.925,7.261 ZM4.548,8.285 C6.680,8.285 8.408,10.016 8.408,12.152 C8.408,14.288 6.680,16.019 4.548,16.019 C2.416,16.019 0.688,14.288 0.688,12.152 C0.688,10.016 2.416,8.285 4.548,8.285 ZM14.743,9.681 C14.343,9.681 14.018,9.356 14.018,8.955 C14.018,8.553 14.343,8.228 14.743,8.228 C15.143,8.228 15.468,8.553 15.468,8.955 C15.468,9.356 15.143,9.681 14.743,9.681 ZM13.542,10.776 C15.012,10.776 16.204,11.970 16.204,13.442 C16.204,14.915 15.012,16.109 13.542,16.109 C12.073,16.109 10.881,14.915 10.881,13.442 C10.881,11.970 12.073,10.776 13.542,10.776 Z"/></svg>