<svg  xmlns="http://www.w3.org/2000/svg" xmlns:xlink="http://www.w3.org/1999/xlink" width="20px" height="20px"><path fill-rule="evenodd"  fill="rgb(255, 255, 255)" d="M18.806,11.244 C18.147,11.244 17.612,10.709 17.612,10.050 C17.612,9.390 18.147,8.856 18.806,8.856 C19.465,8.856 20.000,9.390 20.000,10.050 C20.000,10.709 19.465,11.244 18.806,11.244 ZM15.374,17.065 C14.876,16.617 14.876,15.821 15.374,15.373 C15.821,14.925 16.617,14.925 17.115,15.373 C17.612,15.821 17.612,16.617 17.115,17.065 C16.667,17.512 15.871,17.512 15.374,17.065 ZM15.396,4.685 C14.930,4.219 14.930,3.462 15.396,2.996 C15.862,2.530 16.618,2.530 17.085,2.996 C17.551,3.463 17.551,4.219 17.085,4.685 C16.618,5.151 15.862,5.151 15.396,4.685 ZM10.050,16.567 C6.418,16.567 3.533,13.632 3.533,10.050 C3.533,6.418 6.468,3.532 10.050,3.532 C13.632,3.532 16.518,6.418 16.568,10.050 C16.568,13.682 13.632,16.567 10.050,16.567 ZM10.050,5.532 C7.559,5.532 5.532,7.559 5.532,10.050 C5.532,12.541 7.559,14.567 10.050,14.567 C12.541,14.567 14.568,12.541 14.568,10.050 C14.532,7.529 12.548,5.532 10.050,5.532 ZM10.050,2.488 C9.362,2.488 8.806,1.931 8.806,1.244 C8.806,0.557 9.362,-0.000 10.050,-0.000 C10.737,-0.000 11.293,0.557 11.293,1.244 C11.293,1.931 10.737,2.488 10.050,2.488 ZM3.831,4.975 C3.172,4.975 2.637,4.441 2.637,3.781 C2.637,3.122 3.172,2.587 3.831,2.587 C4.490,2.587 5.025,3.122 5.025,3.781 C5.025,4.441 4.490,4.975 3.831,4.975 ZM4.663,15.362 C5.129,15.828 5.129,16.584 4.663,17.051 C4.196,17.517 3.441,17.517 2.975,17.051 C2.508,16.584 2.508,15.828 2.975,15.362 C3.441,14.896 4.196,14.896 4.663,15.362 ZM1.244,11.194 C0.557,11.194 -0.000,10.659 -0.000,10.000 C-0.000,9.341 0.557,8.806 1.244,8.806 C1.930,8.806 2.488,9.341 2.488,10.000 C2.488,10.659 1.930,11.194 1.244,11.194 ZM10.000,17.612 C10.659,17.612 11.194,18.147 11.194,18.806 C11.194,19.465 10.659,20.000 10.000,20.000 C9.341,20.000 8.806,19.465 8.806,18.806 C8.806,18.147 9.341,17.612 10.000,17.612 Z"/></svg>