<svg width="465" height="73" viewBox="0 0 465 73" fill="none" xmlns="http://www.w3.org/2000/svg">
<path d="M52.5501 13.74H36.3401V29.95H52.5501V13.74Z" fill="#8FFFB0"/>
<path d="M20.2399 46.0498H12.1599V54.1298H20.2399V46.0498Z" fill="#482AF4"/>
<path d="M28.3199 29.8899H12.1599V37.9699H20.2399V46.0499H28.3199V54.1299H36.3899V37.9699V29.8899H28.3199Z" fill="#482AF4"/>
<path d="M65.22 53.72L65.24 13.74H73.48L73.49 24.82C75.98 22.85 78.92 21.86 82.3 21.86C85.28 21.82 87.97 22.52 90.39 23.97C92.8 25.42 94.72 27.36 96.15 29.79C97.58 32.22 98.29 34.97 98.29 38.03C98.29 41.05 97.57 43.77 96.12 46.21C94.67 48.64 92.72 50.58 90.27 52C87.82 53.43 85.08 54.14 82.06 54.14C80.45 54.14 78.92 53.92 77.47 53.48C76.02 53.04 74.65 52.39 73.37 51.55V53.72H65.22V53.72ZM80.97 47.14C82.7 47.14 84.26 46.75 85.65 45.96C87.04 45.18 88.13 44.08 88.94 42.67C89.74 41.26 90.15 39.71 90.15 38.02C90.15 36.29 89.75 34.74 88.94 33.37C88.13 32 87.04 30.92 85.65 30.11C84.26 29.31 82.7 28.9 80.97 28.9C79.44 28.9 78.03 29.15 76.75 29.65C75.46 30.15 74.38 30.91 73.49 31.91V44.16C74.37 45.09 75.47 45.81 76.78 46.33C78.08 46.88 79.48 47.14 80.97 47.14Z" fill="#482AF4"/>
<path d="M118.68 54.32C115.54 54.32 112.71 53.6 110.17 52.15C107.63 50.7 105.62 48.74 104.14 46.27C102.65 43.8 101.91 41.05 101.91 38.03C101.91 34.97 102.65 32.21 104.14 29.73C105.63 27.26 107.64 25.3 110.17 23.88C112.7 22.45 115.54 21.74 118.68 21.74C121.86 21.74 124.71 22.45 127.25 23.88C129.78 25.31 131.8 27.26 133.28 29.73C134.77 32.2 135.51 34.97 135.51 38.03C135.51 41.05 134.77 43.79 133.28 46.27C131.79 48.74 129.78 50.71 127.25 52.15C124.72 53.6 121.86 54.32 118.68 54.32ZM118.68 47.14C120.33 47.14 121.82 46.73 123.15 45.9C124.48 45.08 125.52 43.98 126.29 42.61C127.05 41.24 127.44 39.69 127.44 37.96C127.44 36.27 127.05 34.74 126.26 33.37C125.48 32 124.43 30.92 123.12 30.11C121.81 29.31 120.35 28.9 118.74 28.9C117.09 28.9 115.6 29.3 114.27 30.11C112.94 30.92 111.9 32 111.13 33.37C110.37 34.74 109.98 36.27 109.98 37.96C109.98 39.69 110.36 41.24 111.13 42.61C111.89 43.98 112.93 45.07 114.24 45.9C115.56 46.73 117.03 47.14 118.68 47.14Z" fill="#482AF4"/>
<path d="M155.86 54.32C152.72 54.32 149.89 53.6 147.35 52.15C144.82 50.7 142.8 48.74 141.32 46.27C139.83 43.8 139.09 41.05 139.09 38.03C139.09 34.97 139.83 32.21 141.32 29.73C142.81 27.26 144.82 25.3 147.35 23.88C149.88 22.45 152.72 21.74 155.86 21.74C159.04 21.74 161.89 22.45 164.43 23.88C166.96 25.31 168.98 27.26 170.46 29.73C171.95 32.2 172.69 34.97 172.69 38.03C172.69 41.05 171.95 43.79 170.46 46.27C168.97 48.74 166.96 50.71 164.43 52.15C161.89 53.6 159.04 54.32 155.86 54.32ZM155.86 47.14C157.51 47.14 159 46.73 160.33 45.9C161.66 45.08 162.7 43.98 163.47 42.61C164.23 41.24 164.62 39.69 164.62 37.96C164.62 36.27 164.23 34.74 163.44 33.37C162.66 32 161.61 30.92 160.3 30.11C158.99 29.31 157.53 28.9 155.92 28.9C154.27 28.9 152.78 29.3 151.45 30.11C150.12 30.92 149.08 32 148.31 33.37C147.55 34.74 147.16 36.27 147.16 37.96C147.16 39.69 147.54 41.24 148.31 42.61C149.07 43.98 150.11 45.07 151.42 45.9C152.73 46.73 154.21 47.14 155.86 47.14Z" fill="#482AF4"/>
<path d="M191.28 54.2C187.82 54.2 185.19 53.41 183.4 51.82C181.61 50.23 180.71 47.91 180.71 44.85V29.22H174.25V22.28H180.71L180.68 13.74H188.92V22.28H197.97V29.22H188.92V43.16C188.92 44.61 189.25 45.64 189.92 46.27C190.58 46.89 191.7 47.21 193.27 47.21C194.11 47.21 194.87 47.16 195.53 47.06C196.19 46.96 196.93 46.79 197.73 46.55V53.31C196.89 53.59 195.84 53.81 194.59 53.97C193.35 54.12 192.25 54.2 191.28 54.2Z" fill="#482AF4"/>
<path d="M214.34 54.32C211.52 54.32 208.88 53.95 206.4 53.2C203.93 52.46 201.78 51.4 199.97 50.03L204.07 44.48C205.88 45.69 207.62 46.59 209.29 47.2C210.96 47.8 212.62 48.11 214.27 48.11C216.12 48.11 217.6 47.8 218.71 47.17C219.82 46.55 220.37 45.73 220.37 44.73C220.37 43.93 220.06 43.28 219.43 42.8C218.81 42.32 217.81 41.98 216.44 41.77L210.41 40.86C207.31 40.38 204.95 39.36 203.32 37.81C201.69 36.26 200.88 34.22 200.88 31.68C200.88 29.63 201.41 27.86 202.48 26.37C203.55 24.88 205.06 23.74 207.04 22.93C209.01 22.13 211.3 21.72 213.92 21.72C216.25 21.72 218.52 22.04 220.71 22.69C222.9 23.33 224.96 24.32 226.9 25.65L222.92 31.02C221.19 29.93 219.53 29.15 217.94 28.67C216.35 28.19 214.77 27.95 213.2 27.95C211.75 27.95 210.56 28.23 209.64 28.79C208.71 29.35 208.25 30.1 208.25 31.02C208.25 31.86 208.57 32.53 209.22 33.01C209.86 33.49 210.95 33.85 212.48 34.1L218.51 34.94C221.65 35.38 224.04 36.39 225.69 37.96C227.34 39.53 228.16 41.52 228.16 43.93C228.16 45.94 227.56 47.72 226.35 49.27C225.14 50.82 223.5 52.05 221.43 52.95C219.35 53.87 216.99 54.32 214.34 54.32Z" fill="#482AF4"/>
<path d="M246.5 54.2C243.04 54.2 240.41 53.41 238.62 51.82C236.83 50.23 235.93 47.91 235.93 44.85V29.22H229.47V22.28H235.93L235.95 13.74H244.12L244.14 22.28H253.19V29.22H244.14V43.16C244.14 44.61 244.47 45.64 245.14 46.27C245.8 46.89 246.92 47.21 248.49 47.21C249.33 47.21 250.09 47.16 250.75 47.06C251.41 46.96 252.15 46.79 252.95 46.55V53.31C252.11 53.59 251.06 53.81 249.81 53.97C248.57 54.12 247.47 54.2 246.5 54.2Z" fill="#482AF4"/>
<path d="M257.18 53.7201V22.2801H265.51V25.7801C266.48 24.4101 267.67 23.37 269.1 22.64C270.53 21.92 272.13 21.55 273.9 21.55C275.47 21.59 276.62 21.81 277.34 22.21V29.51C276.7 29.23 276.02 29.02 275.32 28.88C274.62 28.74 273.88 28.67 273.12 28.67C271.51 28.67 270.04 29.07 268.71 29.88C267.38 30.69 266.32 31.83 265.51 33.32V53.7201H257.18Z" fill="#482AF4"/>
<path d="M290.98 54.2599C288.77 54.2599 286.8 53.8499 285.07 53.0199C283.34 52.1999 281.99 51.0599 281.03 49.6099C280.07 48.1599 279.58 46.4899 279.58 44.5999C279.58 41.5799 280.71 39.2399 282.96 37.5699C285.21 35.8999 288.35 35.0699 292.37 35.0699C295.11 35.0699 297.68 35.4899 300.09 36.3399V34.0499C300.09 32.2399 299.53 30.8699 298.4 29.9499C297.27 29.0199 295.62 28.5599 293.45 28.5599C292.16 28.5599 290.73 28.7699 289.17 29.1899C287.61 29.6099 285.83 30.2699 283.86 31.1499L280.9 24.9899C283.39 23.8999 285.77 23.0799 288.02 22.5199C290.27 21.9599 292.53 21.6799 294.78 21.6799C299.08 21.6799 302.4 22.6999 304.74 24.7299C307.07 26.7599 308.24 29.6299 308.24 33.3299V53.7299H300.09V51.4999C298.8 52.4699 297.41 53.1699 295.93 53.6099C294.44 54.0399 292.79 54.2599 290.98 54.2599ZM287.42 44.4299C287.42 45.6399 287.94 46.5899 288.99 47.2999C290.04 47.9999 291.42 48.3599 293.15 48.3599C294.52 48.3599 295.78 48.1999 296.92 47.8799C298.07 47.5599 299.12 47.0399 300.09 46.3099V41.7199C299.08 41.2799 298.04 40.9699 296.95 40.7799C295.86 40.5999 294.7 40.5099 293.45 40.5099C291.56 40.5099 290.08 40.8499 289.01 41.5399C287.95 42.2099 287.42 43.1799 287.42 44.4299Z" fill="#482AF4"/>
<path d="M314.51 62.23V22.28H322.66V24.87C325.19 22.86 328.17 21.85 331.59 21.85C334.57 21.81 337.26 22.51 339.68 23.96C342.09 25.41 344.01 27.35 345.44 29.78C346.87 32.21 347.58 34.96 347.58 38.02C347.58 41.04 346.86 43.76 345.41 46.2C343.96 48.63 342.01 50.57 339.56 51.99C337.11 53.42 334.37 54.13 331.35 54.13C329.74 54.13 328.22 53.91 326.79 53.47C325.36 53.03 324.02 52.4 322.78 51.6V62.22H314.51V62.23ZM330.26 47.14C331.99 47.14 333.55 46.75 334.94 45.96C336.33 45.18 337.42 44.08 338.23 42.67C339.03 41.26 339.44 39.71 339.44 38.02C339.44 36.29 339.04 34.74 338.23 33.37C337.42 32 336.33 30.92 334.94 30.11C333.55 29.31 331.99 28.9 330.26 28.9C328.73 28.9 327.32 29.15 326.04 29.65C324.75 30.15 323.67 30.91 322.78 31.91V44.16C323.66 45.09 324.76 45.81 326.07 46.33C327.38 46.88 328.77 47.14 330.26 47.14Z" fill="#482AF4"/>
<path d="M453.84 21.84H445.76V29.81H437.74V54.13H429.72V29.81H421.7V21.84H445.75H445.77V13.76H357.32V54.13L357.33 62.23L365.43 62.26H453.85L453.84 21.84ZM389.49 54.13H381.47V29.9H373.45V54.13L365.43 54.12L365.42 21.84H389.49V54.13V54.13ZM413.55 29.81H405.53V37.76H413.55V45.73H405.53V54.14H397.51V21.84H413.56V29.81H413.55Z" fill="#482AF4"/>
<path d="M365.42 21.8401H389.49V54.1301V21.8401H365.42Z" fill="#482AF4"/>
<path d="M397.51 54.1301V21.8401H413.55V29.8101V21.8401H397.51V54.1301Z" fill="#482AF4"/>
</svg>
