<svg xmlns="http://www.w3.org/2000/svg" xmlns:xlink="http://www.w3.org/1999/xlink" viewBox="0 0 274.74 94.88"><defs><style>.cls-1{opacity:0.15;}.cls-2{fill:url(#未命名的渐变_10);}.cls-3{fill:url(#未命名的渐变_10-2);}.cls-4{fill:url(#未命名的渐变_10-3);}.cls-5{fill:url(#未命名的渐变_10-4);}.cls-6{fill:url(#未命名的渐变_10-5);}.cls-7{fill:url(#未命名的渐变_10-6);}.cls-8{fill:url(#未命名的渐变_10-7);}.cls-9{fill:url(#未命名的渐变_10-8);}.cls-10{fill:url(#未命名的渐变_10-9);}.cls-11{fill:url(#未命名的渐变_10-10);}.cls-12{fill:url(#未命名的渐变_10-11);}.cls-13{fill:url(#未命名的渐变_10-12);}.cls-14{fill:url(#未命名的渐变_10-13);}.cls-15{fill:url(#未命名的渐变_10-14);}.cls-16{fill:url(#未命名的渐变_10-15);}.cls-17{fill:url(#未命名的渐变_10-16);}.cls-18{fill:url(#未命名的渐变_10-17);}.cls-19{fill:url(#未命名的渐变_10-18);}.cls-20{fill:url(#未命名的渐变_10-19);}.cls-21{fill:url(#未命名的渐变_10-20);}.cls-22{fill:url(#未命名的渐变_10-21);}.cls-23{fill:url(#未命名的渐变_10-22);}.cls-24{fill:url(#未命名的渐变_10-23);}.cls-25{fill:url(#未命名的渐变_10-24);}.cls-26{fill:url(#未命名的渐变_10-25);}.cls-27{fill:url(#未命名的渐变_10-26);}.cls-28{fill:url(#未命名的渐变_10-27);}.cls-29{fill:url(#未命名的渐变_10-28);}.cls-30{fill:url(#未命名的渐变_10-29);}.cls-31{fill:url(#未命名的渐变_10-30);}.cls-32{fill:url(#未命名的渐变_10-31);}.cls-33{fill:url(#未命名的渐变_10-32);}.cls-34{fill:url(#未命名的渐变_10-33);}.cls-35{fill:url(#未命名的渐变_10-34);}.cls-36{fill:url(#未命名的渐变_10-35);}.cls-37{fill:url(#未命名的渐变_10-36);}.cls-38{fill:url(#未命名的渐变_10-37);}.cls-39{fill:url(#未命名的渐变_10-38);}.cls-40{fill:url(#未命名的渐变_10-39);}.cls-41{fill:url(#未命名的渐变_10-40);}.cls-42{fill:url(#未命名的渐变_10-41);}.cls-43{fill:url(#未命名的渐变_10-42);}.cls-44{fill:url(#未命名的渐变_10-43);}.cls-45{fill:url(#未命名的渐变_10-44);}.cls-46{fill:url(#未命名的渐变_10-45);}.cls-47{fill:url(#未命名的渐变_10-46);}.cls-48{fill:url(#未命名的渐变_10-47);}.cls-49{fill:url(#未命名的渐变_10-48);}.cls-50{fill:url(#未命名的渐变_10-49);}.cls-51{fill:url(#未命名的渐变_10-50);}.cls-52{fill:url(#未命名的渐变_10-51);}.cls-53{fill:url(#未命名的渐变_10-52);}.cls-54{fill:url(#未命名的渐变_10-53);}.cls-55{fill:url(#未命名的渐变_10-54);}.cls-56{fill:url(#未命名的渐变_10-55);}.cls-57{fill:url(#未命名的渐变_10-56);}.cls-58{fill:url(#未命名的渐变_10-57);}.cls-59{fill:url(#未命名的渐变_10-58);}.cls-60{fill:url(#未命名的渐变_10-59);}.cls-61{fill:url(#未命名的渐变_10-60);}.cls-62{fill:url(#未命名的渐变_10-61);}.cls-63{fill:url(#未命名的渐变_10-62);}.cls-64{fill:url(#未命名的渐变_10-63);}.cls-65{fill:url(#未命名的渐变_10-64);}.cls-66{fill:url(#未命名的渐变_10-65);}.cls-67{fill:url(#未命名的渐变_10-66);}.cls-68{fill:url(#未命名的渐变_10-67);}.cls-69{fill:url(#未命名的渐变_10-68);}.cls-70{fill:url(#未命名的渐变_10-69);}.cls-71{fill:url(#未命名的渐变_10-70);}.cls-72{fill:url(#未命名的渐变_10-71);}.cls-73{fill:url(#未命名的渐变_10-72);}.cls-74{fill:url(#未命名的渐变_10-73);}.cls-75{fill:url(#未命名的渐变_10-74);}.cls-76{fill:url(#未命名的渐变_10-75);}.cls-77{fill:url(#未命名的渐变_10-76);}.cls-78{fill:url(#未命名的渐变_10-77);}.cls-79{fill:url(#未命名的渐变_10-78);}.cls-80{fill:url(#未命名的渐变_10-79);}.cls-81{fill:url(#未命名的渐变_10-80);}</style><linearGradient id="未命名的渐变_10" y1="5.24" x2="5.93" y2="5.24" gradientUnits="userSpaceOnUse"><stop offset="0" stop-color="#db76ff"/><stop offset="0.98" stop-color="#00f4b9"/></linearGradient><linearGradient id="未命名的渐变_10-2" x1="4.87" y1="7.88" x2="8.62" y2="7.88" xlink:href="#未命名的渐变_10"/><linearGradient id="未命名的渐变_10-3" x1="59.14" y1="5.24" x2="65.06" y2="5.24" xlink:href="#未命名的渐变_10"/><linearGradient id="未命名的渐变_10-4" x1="64.01" y1="7.88" x2="67.76" y2="7.88" xlink:href="#未命名的渐变_10"/><linearGradient id="未命名的渐变_10-5" x1="32.27" y1="5.24" x2="38.19" y2="5.24" xlink:href="#未命名的渐变_10"/><linearGradient id="未命名的渐变_10-6" x1="29.57" y1="2.6" x2="33.32" y2="2.6" xlink:href="#未命名的渐变_10"/><linearGradient id="未命名的渐变_10-7" x1="91.4" y1="5.24" x2="97.33" y2="5.24" xlink:href="#未命名的渐变_10"/><linearGradient id="未命名的渐变_10-8" x1="88.71" y1="2.6" x2="92.46" y2="2.6" xlink:href="#未命名的渐变_10"/><linearGradient id="未命名的渐变_10-9" x1="118.28" y1="5.24" x2="124.2" y2="5.24" xlink:href="#未命名的渐变_10"/><linearGradient id="未命名的渐变_10-10" x1="123.14" y1="7.88" x2="126.9" y2="7.88" xlink:href="#未命名的渐变_10"/><linearGradient id="未命名的渐变_10-11" x1="177.41" y1="5.24" x2="183.34" y2="5.24" xlink:href="#未命名的渐变_10"/><linearGradient id="未命名的渐变_10-12" x1="182.28" y1="7.88" x2="186.04" y2="7.88" xlink:href="#未命名的渐变_10"/><linearGradient id="未命名的渐变_10-13" x1="150.54" y1="5.24" x2="156.47" y2="5.24" xlink:href="#未命名的渐变_10"/><linearGradient id="未命名的渐变_10-14" x1="147.85" y1="2.6" x2="151.6" y2="2.6" xlink:href="#未命名的渐变_10"/><linearGradient id="未命名的渐变_10-15" x1="209.68" y1="5.24" x2="215.61" y2="5.24" xlink:href="#未命名的渐变_10"/><linearGradient id="未命名的渐变_10-16" x1="206.98" y1="2.6" x2="210.74" y2="2.6" xlink:href="#未命名的渐变_10"/><linearGradient id="未命名的渐变_10-17" x1="236.55" y1="5.24" x2="242.48" y2="5.24" xlink:href="#未命名的渐变_10"/><linearGradient id="未命名的渐变_10-18" x1="241.42" y1="7.88" x2="245.17" y2="7.88" xlink:href="#未命名的渐变_10"/><linearGradient id="未命名的渐变_10-19" x1="268.82" y1="5.24" x2="274.74" y2="5.24" xlink:href="#未命名的渐变_10"/><linearGradient id="未命名的渐变_10-20" x1="266.12" y1="2.6" x2="269.88" y2="2.6" xlink:href="#未命名的渐变_10"/><linearGradient id="未命名的渐变_10-21" y1="33.37" x2="5.93" y2="33.37" xlink:href="#未命名的渐变_10"/><linearGradient id="未命名的渐变_10-22" x1="4.87" y1="36.01" x2="8.62" y2="36.01" xlink:href="#未命名的渐变_10"/><linearGradient id="未命名的渐变_10-23" x1="59.14" y1="33.37" x2="65.06" y2="33.37" xlink:href="#未命名的渐变_10"/><linearGradient id="未命名的渐变_10-24" x1="64.01" y1="36.01" x2="67.76" y2="36.01" xlink:href="#未命名的渐变_10"/><linearGradient id="未命名的渐变_10-25" x1="32.27" y1="33.37" x2="38.19" y2="33.37" xlink:href="#未命名的渐变_10"/><linearGradient id="未命名的渐变_10-26" x1="29.57" y1="30.73" x2="33.32" y2="30.73" xlink:href="#未命名的渐变_10"/><linearGradient id="未命名的渐变_10-27" x1="91.4" y1="33.37" x2="97.33" y2="33.37" xlink:href="#未命名的渐变_10"/><linearGradient id="未命名的渐变_10-28" x1="88.71" y1="30.73" x2="92.46" y2="30.73" xlink:href="#未命名的渐变_10"/><linearGradient id="未命名的渐变_10-29" x1="118.28" y1="33.37" x2="124.2" y2="33.37" xlink:href="#未命名的渐变_10"/><linearGradient id="未命名的渐变_10-30" x1="123.14" y1="36.01" x2="126.9" y2="36.01" xlink:href="#未命名的渐变_10"/><linearGradient id="未命名的渐变_10-31" x1="177.41" y1="33.37" x2="183.34" y2="33.37" xlink:href="#未命名的渐变_10"/><linearGradient id="未命名的渐变_10-32" x1="182.28" y1="36.01" x2="186.04" y2="36.01" xlink:href="#未命名的渐变_10"/><linearGradient id="未命名的渐变_10-33" x1="150.54" y1="33.37" x2="156.47" y2="33.37" xlink:href="#未命名的渐变_10"/><linearGradient id="未命名的渐变_10-34" x1="147.85" y1="30.73" x2="151.6" y2="30.73" xlink:href="#未命名的渐变_10"/><linearGradient id="未命名的渐变_10-35" x1="209.68" y1="33.37" x2="215.61" y2="33.37" xlink:href="#未命名的渐变_10"/><linearGradient id="未命名的渐变_10-36" x1="206.98" y1="30.73" x2="210.74" y2="30.73" xlink:href="#未命名的渐变_10"/><linearGradient id="未命名的渐变_10-37" x1="236.55" y1="33.37" x2="242.48" y2="33.37" xlink:href="#未命名的渐变_10"/><linearGradient id="未命名的渐变_10-38" x1="241.42" y1="36.01" x2="245.17" y2="36.01" xlink:href="#未命名的渐变_10"/><linearGradient id="未命名的渐变_10-39" x1="268.82" y1="33.37" x2="274.74" y2="33.37" xlink:href="#未命名的渐变_10"/><linearGradient id="未命名的渐变_10-40" x1="266.12" y1="30.73" x2="269.88" y2="30.73" xlink:href="#未命名的渐变_10"/><linearGradient id="未命名的渐变_10-41" y1="61.5" x2="5.93" y2="61.5" xlink:href="#未命名的渐变_10"/><linearGradient id="未命名的渐变_10-42" x1="4.87" y1="64.14" x2="8.62" y2="64.14" xlink:href="#未命名的渐变_10"/><linearGradient id="未命名的渐变_10-43" x1="59.14" y1="61.5" x2="65.06" y2="61.5" xlink:href="#未命名的渐变_10"/><linearGradient id="未命名的渐变_10-44" x1="64.01" y1="64.14" x2="67.76" y2="64.14" xlink:href="#未命名的渐变_10"/><linearGradient id="未命名的渐变_10-45" x1="32.27" y1="61.5" x2="38.19" y2="61.5" xlink:href="#未命名的渐变_10"/><linearGradient id="未命名的渐变_10-46" x1="29.57" y1="58.87" x2="33.32" y2="58.87" xlink:href="#未命名的渐变_10"/><linearGradient id="未命名的渐变_10-47" x1="91.4" y1="61.5" x2="97.33" y2="61.5" xlink:href="#未命名的渐变_10"/><linearGradient id="未命名的渐变_10-48" x1="88.71" y1="58.87" x2="92.46" y2="58.87" xlink:href="#未命名的渐变_10"/><linearGradient id="未命名的渐变_10-49" x1="118.28" y1="61.5" x2="124.2" y2="61.5" xlink:href="#未命名的渐变_10"/><linearGradient id="未命名的渐变_10-50" x1="123.14" y1="64.14" x2="126.9" y2="64.14" xlink:href="#未命名的渐变_10"/><linearGradient id="未命名的渐变_10-51" x1="177.41" y1="61.5" x2="183.34" y2="61.5" xlink:href="#未命名的渐变_10"/><linearGradient id="未命名的渐变_10-52" x1="182.28" y1="64.14" x2="186.04" y2="64.14" xlink:href="#未命名的渐变_10"/><linearGradient id="未命名的渐变_10-53" x1="150.54" y1="61.5" x2="156.47" y2="61.5" xlink:href="#未命名的渐变_10"/><linearGradient id="未命名的渐变_10-54" x1="147.85" y1="58.87" x2="151.6" y2="58.87" xlink:href="#未命名的渐变_10"/><linearGradient id="未命名的渐变_10-55" x1="209.68" y1="61.5" x2="215.61" y2="61.5" xlink:href="#未命名的渐变_10"/><linearGradient id="未命名的渐变_10-56" x1="206.98" y1="58.87" x2="210.74" y2="58.87" xlink:href="#未命名的渐变_10"/><linearGradient id="未命名的渐变_10-57" x1="236.55" y1="61.5" x2="242.48" y2="61.5" xlink:href="#未命名的渐变_10"/><linearGradient id="未命名的渐变_10-58" x1="241.42" y1="64.14" x2="245.17" y2="64.14" xlink:href="#未命名的渐变_10"/><linearGradient id="未命名的渐变_10-59" x1="268.82" y1="61.5" x2="274.74" y2="61.5" xlink:href="#未命名的渐变_10"/><linearGradient id="未命名的渐变_10-60" x1="266.12" y1="58.87" x2="269.88" y2="58.87" xlink:href="#未命名的渐变_10"/><linearGradient id="未命名的渐变_10-61" y1="89.64" x2="5.93" y2="89.64" xlink:href="#未命名的渐变_10"/><linearGradient id="未命名的渐变_10-62" x1="4.87" y1="92.28" x2="8.62" y2="92.28" xlink:href="#未命名的渐变_10"/><linearGradient id="未命名的渐变_10-63" x1="59.14" y1="89.64" x2="65.06" y2="89.64" xlink:href="#未命名的渐变_10"/><linearGradient id="未命名的渐变_10-64" x1="64.01" y1="92.28" x2="67.76" y2="92.28" xlink:href="#未命名的渐变_10"/><linearGradient id="未命名的渐变_10-65" x1="32.27" y1="89.64" x2="38.19" y2="89.64" xlink:href="#未命名的渐变_10"/><linearGradient id="未命名的渐变_10-66" x1="29.57" y1="87" x2="33.32" y2="87" xlink:href="#未命名的渐变_10"/><linearGradient id="未命名的渐变_10-67" x1="91.4" y1="89.64" x2="97.33" y2="89.64" xlink:href="#未命名的渐变_10"/><linearGradient id="未命名的渐变_10-68" x1="88.71" y1="87" x2="92.46" y2="87" xlink:href="#未命名的渐变_10"/><linearGradient id="未命名的渐变_10-69" x1="118.28" y1="89.64" x2="124.2" y2="89.64" xlink:href="#未命名的渐变_10"/><linearGradient id="未命名的渐变_10-70" x1="123.14" y1="92.28" x2="126.9" y2="92.28" xlink:href="#未命名的渐变_10"/><linearGradient id="未命名的渐变_10-71" x1="177.41" y1="89.64" x2="183.34" y2="89.64" xlink:href="#未命名的渐变_10"/><linearGradient id="未命名的渐变_10-72" x1="182.28" y1="92.28" x2="186.04" y2="92.28" xlink:href="#未命名的渐变_10"/><linearGradient id="未命名的渐变_10-73" x1="150.54" y1="89.64" x2="156.47" y2="89.64" xlink:href="#未命名的渐变_10"/><linearGradient id="未命名的渐变_10-74" x1="147.85" y1="87" x2="151.6" y2="87" xlink:href="#未命名的渐变_10"/><linearGradient id="未命名的渐变_10-75" x1="209.68" y1="89.64" x2="215.61" y2="89.64" xlink:href="#未命名的渐变_10"/><linearGradient id="未命名的渐变_10-76" x1="206.98" y1="87" x2="210.74" y2="87" xlink:href="#未命名的渐变_10"/><linearGradient id="未命名的渐变_10-77" x1="236.55" y1="89.64" x2="242.48" y2="89.64" xlink:href="#未命名的渐变_10"/><linearGradient id="未命名的渐变_10-78" x1="241.42" y1="92.28" x2="245.17" y2="92.28" xlink:href="#未命名的渐变_10"/><linearGradient id="未命名的渐变_10-79" x1="268.82" y1="89.64" x2="274.74" y2="89.64" xlink:href="#未命名的渐变_10"/><linearGradient id="未命名的渐变_10-80" x1="266.12" y1="87" x2="269.88" y2="87" xlink:href="#未命名的渐变_10"/></defs><g id="图层_2" data-name="图层 2"><g id="图层_1-2" data-name="图层 1"><g class="cls-1"><polygon class="cls-2" points="0 10.48 4.31 0 5.92 3.92 3.23 10.48 0 10.48"/><polygon class="cls-3" points="5.39 10.48 4.87 9.2 6.48 5.28 8.62 10.48 5.39 10.48"/><polygon class="cls-4" points="59.14 10.48 63.45 0 65.06 3.92 62.37 10.48 59.14 10.48"/><polygon class="cls-5" points="64.53 10.48 64.01 9.2 65.62 5.28 67.76 10.48 64.53 10.48"/><polygon class="cls-6" points="38.19 0 33.88 10.48 32.27 6.55 34.96 0 38.19 0"/><polygon class="cls-7" points="32.8 0 33.32 1.28 31.71 5.2 29.57 0 32.8 0"/><polygon class="cls-8" points="97.33 0 93.02 10.48 91.41 6.55 94.1 0 97.33 0"/><polygon class="cls-9" points="91.94 0 92.46 1.28 90.85 5.2 88.71 0 91.94 0"/><polygon class="cls-10" points="118.28 10.48 122.59 0 124.2 3.92 121.5 10.48 118.28 10.48"/><polygon class="cls-11" points="123.67 10.48 123.14 9.2 124.76 5.28 126.9 10.48 123.67 10.48"/><polygon class="cls-12" points="177.41 10.48 181.72 0 183.34 3.92 180.64 10.48 177.41 10.48"/><polygon class="cls-13" points="182.81 10.48 182.28 9.2 183.9 5.28 186.04 10.48 182.81 10.48"/><polygon class="cls-14" points="156.47 0 152.16 10.48 150.54 6.55 153.24 0 156.47 0"/><polygon class="cls-15" points="151.07 0 151.6 1.28 149.99 5.2 147.84 0 151.07 0"/><polygon class="cls-16" points="215.61 0 211.29 10.48 209.68 6.55 212.38 0 215.61 0"/><polygon class="cls-17" points="210.21 0 210.74 1.28 209.12 5.2 206.98 0 210.21 0"/><polygon class="cls-18" points="236.55 10.48 240.86 0 242.48 3.92 239.78 10.48 236.55 10.48"/><polygon class="cls-19" points="241.95 10.48 241.42 9.2 243.03 5.28 245.18 10.48 241.95 10.48"/><polygon class="cls-20" points="274.74 0 270.43 10.48 268.82 6.55 271.52 0 274.74 0"/><polygon class="cls-21" points="269.35 0 269.88 1.28 268.26 5.2 266.12 0 269.35 0"/><polygon class="cls-22" points="0 38.61 4.31 28.13 5.92 32.05 3.23 38.61 0 38.61"/><polygon class="cls-23" points="5.39 38.61 4.87 37.33 6.48 33.41 8.62 38.61 5.39 38.61"/><polygon class="cls-24" points="59.14 38.61 63.45 28.13 65.06 32.05 62.37 38.61 59.14 38.61"/><polygon class="cls-25" points="64.53 38.61 64.01 37.33 65.62 33.41 67.76 38.61 64.53 38.61"/><polygon class="cls-26" points="38.19 28.13 33.88 38.61 32.27 34.69 34.96 28.13 38.19 28.13"/><polygon class="cls-27" points="32.8 28.13 33.32 29.41 31.71 33.33 29.57 28.13 32.8 28.13"/><polygon class="cls-28" points="97.33 28.13 93.02 38.61 91.41 34.69 94.1 28.13 97.33 28.13"/><polygon class="cls-29" points="91.94 28.13 92.46 29.41 90.85 33.33 88.71 28.13 91.94 28.13"/><polygon class="cls-30" points="118.28 38.61 122.59 28.13 124.2 32.05 121.5 38.61 118.28 38.61"/><polygon class="cls-31" points="123.67 38.61 123.14 37.33 124.76 33.41 126.9 38.61 123.67 38.61"/><polygon class="cls-32" points="177.41 38.61 181.72 28.13 183.34 32.05 180.64 38.61 177.41 38.61"/><polygon class="cls-33" points="182.81 38.61 182.28 37.33 183.9 33.41 186.04 38.61 182.81 38.61"/><polygon class="cls-34" points="156.47 28.13 152.16 38.61 150.54 34.69 153.24 28.13 156.47 28.13"/><polygon class="cls-35" points="151.07 28.13 151.6 29.41 149.99 33.33 147.84 28.13 151.07 28.13"/><polygon class="cls-36" points="215.61 28.13 211.29 38.61 209.68 34.69 212.38 28.13 215.61 28.13"/><polygon class="cls-37" points="210.21 28.13 210.74 29.41 209.12 33.33 206.98 28.13 210.21 28.13"/><polygon class="cls-38" points="236.55 38.61 240.86 28.13 242.48 32.05 239.78 38.61 236.55 38.61"/><polygon class="cls-39" points="241.95 38.61 241.42 37.33 243.03 33.41 245.18 38.61 241.95 38.61"/><polygon class="cls-40" points="274.74 28.13 270.43 38.61 268.82 34.69 271.52 28.13 274.74 28.13"/><polygon class="cls-41" points="269.35 28.13 269.88 29.41 268.26 33.33 266.12 28.13 269.35 28.13"/><polygon class="cls-42" points="0 66.74 4.31 56.27 5.92 60.19 3.23 66.74 0 66.74"/><polygon class="cls-43" points="5.39 66.74 4.87 65.46 6.48 61.54 8.62 66.74 5.39 66.74"/><polygon class="cls-44" points="59.14 66.74 63.45 56.27 65.06 60.19 62.37 66.74 59.14 66.74"/><polygon class="cls-45" points="64.53 66.74 64.01 65.46 65.62 61.54 67.76 66.74 64.53 66.74"/><polygon class="cls-46" points="38.19 56.27 33.88 66.74 32.27 62.82 34.96 56.27 38.19 56.27"/><polygon class="cls-47" points="32.8 56.27 33.32 57.55 31.71 61.47 29.57 56.27 32.8 56.27"/><polygon class="cls-48" points="97.33 56.27 93.02 66.74 91.41 62.82 94.1 56.27 97.33 56.27"/><polygon class="cls-49" points="91.94 56.27 92.46 57.55 90.85 61.47 88.71 56.27 91.94 56.27"/><polygon class="cls-50" points="118.28 66.74 122.59 56.27 124.2 60.19 121.5 66.74 118.28 66.74"/><polygon class="cls-51" points="123.67 66.74 123.14 65.46 124.76 61.54 126.9 66.74 123.67 66.74"/><polygon class="cls-52" points="177.41 66.74 181.72 56.27 183.34 60.19 180.64 66.74 177.41 66.74"/><polygon class="cls-53" points="182.81 66.74 182.28 65.46 183.9 61.54 186.04 66.74 182.81 66.74"/><polygon class="cls-54" points="156.47 56.27 152.16 66.74 150.54 62.82 153.24 56.27 156.47 56.27"/><polygon class="cls-55" points="151.07 56.27 151.6 57.55 149.99 61.47 147.84 56.27 151.07 56.27"/><polygon class="cls-56" points="215.61 56.27 211.29 66.74 209.68 62.82 212.38 56.27 215.61 56.27"/><polygon class="cls-57" points="210.21 56.27 210.74 57.55 209.12 61.47 206.98 56.27 210.21 56.27"/><polygon class="cls-58" points="236.55 66.74 240.86 56.27 242.48 60.19 239.78 66.74 236.55 66.74"/><polygon class="cls-59" points="241.95 66.74 241.42 65.46 243.03 61.54 245.18 66.74 241.95 66.74"/><polygon class="cls-60" points="274.74 56.27 270.43 66.74 268.82 62.82 271.52 56.27 274.74 56.27"/><polygon class="cls-61" points="269.35 56.27 269.88 57.55 268.26 61.47 266.12 56.27 269.35 56.27"/><polygon class="cls-62" points="0 94.88 4.31 84.4 5.92 88.32 3.23 94.88 0 94.88"/><polygon class="cls-63" points="5.39 94.88 4.87 93.6 6.48 89.67 8.62 94.88 5.39 94.88"/><polygon class="cls-64" points="59.14 94.88 63.45 84.4 65.06 88.32 62.37 94.88 59.14 94.88"/><polygon class="cls-65" points="64.53 94.88 64.01 93.6 65.62 89.67 67.76 94.88 64.53 94.88"/><polygon class="cls-66" points="38.19 84.4 33.88 94.88 32.27 90.95 34.96 84.4 38.19 84.4"/><polygon class="cls-67" points="32.8 84.4 33.32 85.68 31.71 89.6 29.57 84.4 32.8 84.4"/><polygon class="cls-68" points="97.33 84.4 93.02 94.88 91.41 90.95 94.1 84.4 97.33 84.4"/><polygon class="cls-69" points="91.94 84.4 92.46 85.68 90.85 89.6 88.71 84.4 91.94 84.4"/><polygon class="cls-70" points="118.28 94.88 122.59 84.4 124.2 88.32 121.5 94.88 118.28 94.88"/><polygon class="cls-71" points="123.67 94.88 123.14 93.6 124.76 89.67 126.9 94.88 123.67 94.88"/><polygon class="cls-72" points="177.41 94.88 181.72 84.4 183.34 88.32 180.64 94.88 177.41 94.88"/><polygon class="cls-73" points="182.81 94.88 182.28 93.6 183.9 89.67 186.04 94.88 182.81 94.88"/><polygon class="cls-74" points="156.47 84.4 152.16 94.88 150.54 90.95 153.24 84.4 156.47 84.4"/><polygon class="cls-75" points="151.07 84.4 151.6 85.68 149.99 89.6 147.84 84.4 151.07 84.4"/><polygon class="cls-76" points="215.61 84.4 211.29 94.88 209.68 90.95 212.38 84.4 215.61 84.4"/><polygon class="cls-77" points="210.21 84.4 210.74 85.68 209.12 89.6 206.98 84.4 210.21 84.4"/><polygon class="cls-78" points="236.55 94.88 240.86 84.4 242.48 88.32 239.78 94.88 236.55 94.88"/><polygon class="cls-79" points="241.95 94.88 241.42 93.6 243.03 89.67 245.18 94.88 241.95 94.88"/><polygon class="cls-80" points="274.74 84.4 270.43 94.88 268.82 90.95 271.52 84.4 274.74 84.4"/><polygon class="cls-81" points="269.35 84.4 269.88 85.68 268.26 89.6 266.12 84.4 269.35 84.4"/></g></g></g></svg>