<svg xmlns="http://www.w3.org/2000/svg" xmlns:xlink="http://www.w3.org/1999/xlink" viewBox="0 0 512 532.45"><defs><style>.cls-1{fill:url(#未命名的渐变_10);}.cls-2{fill:#191743;}.cls-3{fill:#db76ff;}.cls-4{fill:#010035;}.cls-5{fill:#00f4b9;}.cls-6{fill:url(#未命名的渐变_10-3);}</style><linearGradient id="未命名的渐变_10" y1="256" x2="512" y2="256" gradientUnits="userSpaceOnUse"><stop offset="0" stop-color="#db76ff"/><stop offset="0.98" stop-color="#00f4b9"/></linearGradient><linearGradient id="未命名的渐变_10-3" x1="119.46" y1="467.12" x2="384.58" y2="467.12" xlink:href="#未命名的渐变_10"/></defs><g id="图层_2" data-name="图层 2"><g id="图层_1-2" data-name="图层 1"><circle class="cls-1" cx="256" cy="256" r="256"/><circle class="cls-1" cx="256" cy="256" r="256"/><circle class="cls-2" cx="256" cy="256" r="234.67"/><polygon class="cls-3" points="100 334.45 171.01 161.91 198.11 227.77 154.21 334.45 100 334.45"/><path class="cls-4" d="M171,169l24.2,58.82-29.16,70.86-13.64,33.14H104l42-102L171,169m0-14.08-30,72.9L96,337.13h60l15-36.46,30-72.9-30-72.9Z"/><polygon class="cls-3" points="187.81 334.45 178.91 312.82 206.01 246.97 242.01 334.45 187.81 334.45"/><path class="cls-4" d="M206,254l32,77.76H189.6l-7.79-18.94L186,302.71,206,254m0-14.09-25,60.75-5,12.16,10,24.3h60l-40-97.21Z"/><polygon class="cls-3" points="269.99 334.45 340.99 161.91 368.1 227.77 324.19 334.45 269.99 334.45"/><path class="cls-4" d="M341,169l24.21,58.82L336,298.63,322.4,331.77H274l42-102L341,169m0-14.08-30,72.9L266,337.13h60l15-36.46,30-72.9-30-72.9Z"/><polygon class="cls-3" points="357.79 334.45 348.89 312.82 375.99 246.97 412 334.45 357.79 334.45"/><path class="cls-4" d="M376,254l32,77.76H359.59l-7.8-18.94L356,302.71,376,254m0-14.09-25,60.75-5,12.16,10,24.3h60l-40-97.21Z"/><polygon class="cls-5" points="185.12 157.55 239.32 157.55 283.23 264.23 256.12 330.09 185.12 157.55"/><path class="cls-4" d="M237.53,160.23l13.64,33.13,29.16,70.87-24.21,58.82-25-60.86-42-102h48.41m3.59-5.36h-60l45,109.36,30,72.9,30-72.9-30-72.91-15-36.45Z"/><polygon class="cls-5" points="264.02 179.17 272.92 157.55 327.13 157.55 291.13 245.03 264.02 179.17"/><path class="cls-4" d="M323.13,160.23l-32,77.76-20.05-48.71-4.16-10.11,7.8-18.94h48.41m8-5.36h-60l-10,24.3,5,12.15,25,60.76,40-97.21Z"/><rect class="cls-6" x="119.46" y="401.8" width="265.12" height="130.65" rx="65.33"/><path class="cls-2" d="M208,444.25q4.77,0,7.12,1.27a6.54,6.54,0,0,1,3.12,3.08,6.88,6.88,0,0,1,.45,3.75,16.11,16.11,0,0,1-.78,3.2,11.64,11.64,0,0,1-2,3.43,17.05,17.05,0,0,1-2.81,2.7,18.59,18.59,0,0,1-3.21,2,16.37,16.37,0,0,1-3.19,1.17l-.05.13a8.94,8.94,0,0,1,3.46,1.37,7,7,0,0,1,2.24,2.44,7.18,7.18,0,0,1,.82,3.37,11.78,11.78,0,0,1-.83,4.19,19.47,19.47,0,0,1-2,3.84,17.5,17.5,0,0,1-3.78,4,21.58,21.58,0,0,1-5.79,3.21,22.66,22.66,0,0,1-8,1.3H166.49L183,444.25Zm-11.9,16.89a5.38,5.38,0,0,0,3.51-1,5.24,5.24,0,0,0,1.58-2.13,2.76,2.76,0,0,0,0-2.13c-.28-.65-1.21-1-2.78-1h-1.65l-2.3,6.22ZM190.38,478a11,11,0,0,0,1.43-.1,6.11,6.11,0,0,0,1.59-.41,4.93,4.93,0,0,0,1.51-1,4.76,4.76,0,0,0,1.16-1.85,2.76,2.76,0,0,0,.22-1.77,1.83,1.83,0,0,0-.75-1,3,3,0,0,0-1.3-.44,10.09,10.09,0,0,0-1.39-.1h-2.16L188.22,478Z"/><path class="cls-2" d="M230.07,444.25h31.11l-4.77,12.89H243.07l-1.39,3.75h12l-4,10.66h-12l-1.57,4.26h13.33l-4.77,12.89H213.61Z"/><path class="cls-2" d="M271.74,457.14H262.4l4.78-12.89h36.44l-4.77,12.89h-9.34L277.83,488.7H260.05Z"/><path class="cls-2" d="M318,444.25h19.55l-.65,44.45H318.67l.62-6.48H308.12l-4.18,6.48H285.72Zm-3.28,26.86h6.22l1.08-11.3Z"/></g></g></svg>