<svg  xmlns="http://www.w3.org/2000/svg" xmlns:xlink="http://www.w3.org/1999/xlink" width="18px" height="17px"><path fill-rule="evenodd"  fill="rgb(27, 211, 213)" d="M13.140,0.286 L7.105,0.221 C5.994,0.209 5.103,1.100 5.115,2.211 L5.115,2.211 C5.128,3.322 6.037,4.232 7.148,4.244 L10.339,4.278 L1.124,13.493 C0.347,14.270 0.361,15.544 1.155,16.338 L1.155,16.338 C1.949,17.132 3.222,17.146 3.999,16.369 L13.214,7.154 L13.249,10.344 C13.260,11.455 14.171,12.366 15.282,12.378 L15.282,12.378 C16.393,12.390 17.285,11.499 17.272,10.388 L17.207,4.353 L17.185,2.341 C17.173,1.230 16.263,0.319 15.151,0.307 L13.140,0.286 Z"/></svg>