<svg xmlns="http://www.w3.org/2000/svg" xmlns:xlink="http://www.w3.org/1999/xlink" viewBox="0 0 172.38 43.19"><defs><style>.cls-1{fill:url(#未命名的渐变_244);}.cls-2{fill:url(#未命名的渐变_244-2);}.cls-3{fill:url(#未命名的渐变_244-3);}.cls-4{fill:url(#未命名的渐变_244-4);}.cls-5{fill:url(#未命名的渐变_244-5);}.cls-6{fill:url(#未命名的渐变_244-6);}.cls-7{fill:url(#未命名的渐变_244-7);}</style><linearGradient id="未命名的渐变_244" x1="37.52" y1="41.17" x2="-1.83" y2="1.83" gradientUnits="userSpaceOnUse"><stop offset="0" stop-color="#7f24dd"/><stop offset="1" stop-color="#fbd317"/></linearGradient><linearGradient id="未命名的渐变_244-2" x1="64.38" y1="40.06" x2="38.38" y2="14.06" xlink:href="#未命名的渐变_244"/><linearGradient id="未命名的渐变_244-3" x1="83.05" y1="35.02" x2="60.58" y2="12.55" xlink:href="#未命名的渐变_244"/><linearGradient id="未命名的渐变_244-4" x1="109.3" y1="40.14" x2="76.48" y2="7.33" xlink:href="#未命名的渐变_244"/><linearGradient id="未命名的渐变_244-5" x1="130.98" y1="37" x2="107.81" y2="13.83" xlink:href="#未命名的渐变_244"/><linearGradient id="未命名的渐变_244-6" x1="155.1" y1="36.09" x2="128.75" y2="9.75" xlink:href="#未命名的渐变_244"/><linearGradient id="未命名的渐变_244-7" x1="173.57" y1="37.27" x2="149.76" y2="13.46" xlink:href="#未命名的渐变_244"/></defs><g id="图层_2" data-name="图层 2"><g id="图层_1-2" data-name="图层 1"><path class="cls-1" d="M35.69,43H25.94V13.94L21.38,43H14.44L9.75,14.56V43H0V0H15q.69,4.88,1.06,7.62Q17.25,16,17.88,20.06c.37-2.16.79-5,1.24-8.44q.45-3.24.94-8c.13-1.2.25-2.41.38-3.62H35.69Z"/><path class="cls-2" d="M61.44,43H52V39.88a5.8,5.8,0,0,1-2.16,2.5,7.41,7.41,0,0,1-3.53.68,10.09,10.09,0,0,1-3.47-.53,3.73,3.73,0,0,1-2.09-1.65,8,8,0,0,1-.87-2.6,18.46,18.46,0,0,1-.26-3.16V32.25c0-2.54.31-4.28.91-5.22s2.07-1.93,4.41-3l4.87-2.18a3.33,3.33,0,0,0,1.53-1.35,6.43,6.43,0,0,0,.41-2.72c0-3-.5-4.43-1.5-4.43a1.48,1.48,0,0,0-1.19.5,3.76,3.76,0,0,0-.44,2.24v4.07h-9V19.06a21.33,21.33,0,0,1,.54-5.37A8,8,0,0,1,42.5,9.94a6,6,0,0,1,3.16-1.63A29.18,29.18,0,0,1,50.5,8a22.86,22.86,0,0,1,5.91.62A5.77,5.77,0,0,1,59.78,11a10.26,10.26,0,0,1,1.41,4.81c.16,2,.25,5.21.25,9.5Zm-9.69-7.81V26.25a11.57,11.57,0,0,0-2.44,2.5A9.65,9.65,0,0,0,48.62,33v2.31c.13,1.38.69,2.07,1.69,2.07S51.75,36.65,51.75,35.19Z"/><path class="cls-3" d="M80.81,19.56h-.69q-3.62,0-4.5,2.32c-.37.95-.56,3.35-.56,7.18V43H65.38V7.75h9.68l-.44,4.63a11.77,11.77,0,0,1,2.32-3.63,6.57,6.57,0,0,1,3.87-1.63Z"/><path class="cls-4" d="M106.44,43H97.19L93.44,27.62V43H83.81V0h9.63V18.12L97.19,7.75h8.06l-4.5,14.06Z"/><path class="cls-5" d="M130.25,30.81v1.13a19.89,19.89,0,0,1-.31,4,10.1,10.1,0,0,1-1.56,3.34,7.5,7.5,0,0,1-3.29,3,13.39,13.39,0,0,1-5.09.78,14.4,14.4,0,0,1-6.94-1.47,7.91,7.91,0,0,1-3.75-4.71,12.15,12.15,0,0,1-.56-3.57c0-1.41-.06-2.46-.06-3.12V19.94q0-2.19.15-3.75a12.69,12.69,0,0,1,.72-3.07A7.39,7.39,0,0,1,113.09,9a13.5,13.5,0,0,1,6.22-1.28,14.15,14.15,0,0,1,5.44.91,7.75,7.75,0,0,1,3.56,3,10.46,10.46,0,0,1,1.53,4.13,34.67,34.67,0,0,1,.41,5.63v4.68H118.31v7.56a22.11,22.11,0,0,0,.13,2.69c.08.71.54,1.07,1.37,1.07a1.48,1.48,0,0,0,1.47-.94,7,7,0,0,0,.41-2.69V29.5h8.56Zm-9.13-10.56V16.69a9.11,9.11,0,0,0-.24-2.57,1,1,0,0,0-1.07-.68,1.23,1.23,0,0,0-1.22.56,5.09,5.09,0,0,0-.28,2v4.25Z"/><path class="cls-6" d="M148.19,43h-3.88a23.37,23.37,0,0,1-4.75-.31A5.13,5.13,0,0,1,136.12,40a8.57,8.57,0,0,1-.5-2.78q-.12-2-.12-5.16V14.19h-2.06V8.62h2.06V3h9.75V8.62h2.56v5.57h-2.56V33a12.21,12.21,0,0,0,.31,3.88c.21.33,1.09.5,2.63.5Z"/><path class="cls-7" d="M172.38,32.56q0,5.56-2.07,7.94c-1.54,1.79-4.19,2.69-7.93,2.69a20.66,20.66,0,0,1-5.26-.57,7.08,7.08,0,0,1-5.24-5.34,22.42,22.42,0,0,1-.44-5V31.12H160v3.26c0,2,.6,3,1.81,3s1.63-1,1.63-3a8.6,8.6,0,0,0-.5-3.32,4.83,4.83,0,0,0-2.1-2.06c-1.06-.62-2.13-1.28-3.22-2s-2-1.34-2.87-2a8.81,8.81,0,0,1-2.63-2.75,10.49,10.49,0,0,1-.93-4.87c0-.79,0-1.6,0-2.41a8.16,8.16,0,0,1,.47-2.47,6.07,6.07,0,0,1,3.22-3.75,15,15,0,0,1,6.4-1.12,17.47,17.47,0,0,1,5.78.81,6.47,6.47,0,0,1,3.47,2.75,5.45,5.45,0,0,1,1,2.44,28.54,28.54,0,0,1,.16,3.31v1.44H163V15.75c0-1.63-.44-2.44-1.32-2.44-1.12,0-1.68,1-1.68,3.13a4.84,4.84,0,0,0,2.72,4.37l5.76,3.69a8.34,8.34,0,0,1,3,3.25A11.21,11.21,0,0,1,172.38,32.56Z"/></g></g></svg>