<svg  xmlns="http://www.w3.org/2000/svg" xmlns:xlink="http://www.w3.org/1999/xlink" width="36px" height="36px"><path fill-rule="evenodd"  fill="rgb(27, 211, 213)" d="M18.000,-0.000 C27.941,-0.000 36.000,8.059 36.000,18.000 C36.000,27.941 27.941,36.000 18.000,36.000 C8.059,36.000 -0.000,27.941 -0.000,18.000 C-0.000,8.059 8.059,-0.000 18.000,-0.000 Z"/><path fill-rule="evenodd"  fill="rgb(255, 255, 255)" d="M25.148,19.935 C25.148,23.815 21.980,26.959 18.074,26.959 C14.167,26.959 11.000,23.815 11.000,19.935 C11.000,17.885 11.889,16.047 13.300,14.763 C13.187,14.352 13.122,13.921 13.122,13.475 C13.122,10.759 15.339,8.558 18.074,8.558 C20.809,8.558 23.026,10.759 23.026,13.475 C23.026,13.921 22.960,14.351 22.848,14.763 C24.258,16.047 25.148,17.885 25.148,19.935 ZM17.013,20.989 C17.013,21.571 17.488,22.042 18.074,22.042 C18.660,22.042 19.135,21.571 19.135,20.989 L19.135,18.881 C19.135,18.300 18.660,17.828 18.074,17.828 C17.488,17.828 17.013,18.300 17.013,18.881 L17.013,20.989 ZM20.903,13.475 C20.903,11.925 19.634,10.665 18.074,10.665 C16.514,10.665 15.244,11.925 15.244,13.475 C15.244,13.483 15.247,13.490 15.247,13.498 C15.247,13.498 15.246,13.498 15.246,13.498 C16.113,13.122 17.068,12.911 18.074,12.911 C19.080,12.911 20.035,13.122 20.901,13.498 C20.901,13.498 20.901,13.498 20.901,13.498 C20.901,13.490 20.903,13.483 20.903,13.475 Z"/></svg>