<svg  xmlns="http://www.w3.org/2000/svg" xmlns:xlink="http://www.w3.org/1999/xlink" width="340px" height="96px"><defs><linearGradient id="PSgrad_0" x1="0%" x2="70.711%" y1="70.711%" y2="0%">  <stop offset="0%" stop-color="rgb(129,193,217)" stop-opacity="1" />  <stop offset="25%" stop-color="rgb(174,162,219)" stop-opacity="1" />  <stop offset="50%" stop-color="rgb(101,192,224)" stop-opacity="1" />  <stop offset="75%" stop-color="rgb(184,193,192)" stop-opacity="1" />  <stop offset="100%" stop-color="rgb(233,165,165)" stop-opacity="0.99608" /></linearGradient></defs><path fill-rule="evenodd"  opacity="0.2" fill="rgb(39, 46, 50)" d="M12.000,-0.010 L328.000,-0.010 C334.627,-0.010 340.000,5.363 340.000,11.990 L340.000,83.990 C340.000,90.617 334.627,95.990 328.000,95.990 L12.000,95.990 C5.373,95.990 0.000,90.617 0.000,83.990 L0.000,11.990 C0.000,5.363 5.373,-0.010 12.000,-0.010 Z"/><path fill="url(#PSgrad_0)" d="M12.000,-0.010 L328.000,-0.010 C334.627,-0.010 340.000,5.363 340.000,11.990 L340.000,83.990 C340.000,90.617 334.627,95.990 328.000,95.990 L12.000,95.990 C5.373,95.990 0.000,90.617 0.000,83.990 L0.000,11.990 C0.000,5.363 5.373,-0.010 12.000,-0.010 Z"/></svg>