<svg 
 xmlns="http://www.w3.org/2000/svg"
 xmlns:xlink="http://www.w3.org/1999/xlink"
 width="40px" height="40px">
<path fill-rule="evenodd"  fill="rgb(31, 37, 42)"
 d="M20.000,-0.000 C31.045,-0.000 40.000,8.954 40.000,20.000 C40.000,31.046 31.045,40.000 20.000,40.000 C8.954,40.000 -0.000,31.046 -0.000,20.000 C-0.000,8.954 8.954,-0.000 20.000,-0.000 Z"/>
<path fill-rule="evenodd"  fill="rgb(241, 132, 44)"
 d="M24.716,23.673 L21.127,27.406 C20.560,28.180 19.465,28.180 18.897,27.406 L15.308,23.673 C14.577,22.676 15.240,21.215 16.423,21.215 L18.018,21.215 L18.018,14.131 C18.018,12.951 18.911,11.995 20.012,11.995 C21.113,11.995 22.005,12.951 22.005,14.131 L22.005,21.215 L23.601,21.215 C24.785,21.215 25.447,22.676 24.716,23.673 Z"/>
</svg>
