<svg  xmlns="http://www.w3.org/2000/svg" xmlns:xlink="http://www.w3.org/1999/xlink" width="40px" height="40px"><path fill-rule="evenodd"  fill="rgb(31, 37, 42)" d="M20.000,0.000 C31.046,0.000 40.000,8.954 40.000,20.000 C40.000,31.046 31.046,40.000 20.000,40.000 C8.954,40.000 0.000,31.046 0.000,20.000 C0.000,8.954 8.954,0.000 20.000,0.000 Z"/><path fill-rule="evenodd"  fill="rgb(241, 132, 44)" d="M25.634,23.197 L21.338,26.454 C20.659,27.130 19.350,27.130 18.671,26.454 L14.376,23.197 C13.501,22.327 14.294,21.052 15.710,21.052 L17.619,21.052 L17.619,14.869 C17.619,13.840 18.687,13.005 20.005,13.005 C21.322,13.005 22.390,13.840 22.390,14.869 L22.390,21.052 L24.300,21.052 C25.715,21.052 26.508,22.327 25.634,23.197 Z"/></svg>