<svg  xmlns="http://www.w3.org/2000/svg" xmlns:xlink="http://www.w3.org/1999/xlink" width="17px" height="18px"><path fill-rule="evenodd"  fill="rgb(157, 166, 166)" d="M9.255,17.935 L8.122,17.935 C7.681,17.934 7.257,17.754 6.944,17.435 C6.636,17.121 6.462,16.694 6.464,16.248 C6.454,15.307 5.701,14.552 4.782,14.560 C4.477,14.559 4.178,14.645 3.919,14.807 C3.527,15.026 3.068,15.087 2.634,14.977 C2.206,14.858 1.838,14.576 1.607,14.188 L1.078,13.229 C0.828,12.838 0.753,12.358 0.871,11.906 C0.991,11.454 1.287,11.071 1.690,10.846 C1.949,10.702 2.164,10.488 2.312,10.227 C2.745,9.425 2.468,8.416 1.690,7.963 C1.311,7.745 1.033,7.381 0.919,6.951 C0.805,6.529 0.863,6.078 1.078,5.699 L1.607,4.749 C1.831,4.350 2.204,4.060 2.640,3.943 C3.077,3.827 3.542,3.891 3.932,4.122 C4.193,4.265 4.483,4.341 4.779,4.343 C5.223,4.342 5.650,4.166 5.971,3.851 C6.283,3.538 6.459,3.111 6.460,2.664 C6.472,1.719 7.231,0.963 8.153,0.976 L9.313,0.976 C9.753,0.972 10.176,1.146 10.491,1.460 C10.813,1.773 10.993,2.209 10.988,2.664 C11.001,3.607 11.757,4.363 12.679,4.352 C12.973,4.348 13.260,4.269 13.516,4.122 C13.765,3.985 14.044,3.913 14.326,3.913 C14.920,3.912 15.471,4.229 15.778,4.750 L16.342,5.742 C16.486,5.998 16.562,6.287 16.565,6.582 C16.563,7.189 16.239,7.747 15.719,8.040 C15.462,8.187 15.248,8.401 15.098,8.660 C14.662,9.461 14.940,10.472 15.719,10.924 C16.506,11.383 16.785,12.405 16.342,13.214 L15.778,14.172 C15.475,14.698 14.924,15.021 14.328,15.020 C14.030,15.022 13.739,14.942 13.482,14.789 C13.222,14.644 12.932,14.566 12.636,14.560 C12.190,14.560 11.761,14.740 11.443,15.061 C11.123,15.372 10.943,15.805 10.946,16.257 C10.931,17.197 10.175,17.949 9.255,17.935 L9.255,17.935 ZM8.712,7.138 C8.099,7.135 7.508,7.378 7.068,7.816 C6.406,8.475 6.206,9.482 6.563,10.353 C6.927,11.233 7.775,11.802 8.709,11.794 L8.749,11.794 C9.352,11.795 9.930,11.551 10.358,11.116 C10.795,10.685 11.043,10.092 11.046,9.471 C11.044,8.521 10.476,7.668 9.613,7.318 C9.327,7.198 9.021,7.137 8.712,7.138 L8.712,7.138 Z"/></svg>