<svg  xmlns="http://www.w3.org/2000/svg" xmlns:xlink="http://www.w3.org/1999/xlink" width="20px" height="20px"><path fill-rule="evenodd"  fill="rgb(39, 46, 50)" d="M10.000,0.000 C15.523,0.000 20.000,4.477 20.000,10.000 C20.000,15.523 15.523,20.000 10.000,20.000 C4.477,20.000 0.000,15.523 0.000,10.000 C0.000,4.477 4.477,0.000 10.000,0.000 Z"/><path fill-rule="evenodd"  fill="rgb(157, 166, 166)" d="M14.807,12.651 C14.683,12.766 14.515,12.830 14.340,12.830 L8.806,12.830 L9.419,13.683 C9.516,13.818 9.551,13.984 9.517,14.142 C9.482,14.301 9.381,14.441 9.235,14.531 L8.641,14.899 C8.496,14.989 8.317,15.022 8.145,14.990 C7.973,14.958 7.822,14.865 7.725,14.730 L7.725,14.729 L5.686,11.897 C5.551,11.709 5.539,11.468 5.653,11.269 C5.768,11.070 5.992,10.946 6.235,10.946 L14.340,10.946 C14.705,10.946 15.000,11.220 15.000,11.557 L15.000,12.219 C15.000,12.381 14.931,12.536 14.807,12.651 ZM13.807,9.061 L5.660,9.061 C5.485,9.061 5.318,8.997 5.193,8.882 C5.069,8.767 5.000,8.612 5.000,8.450 L5.000,7.788 C5.000,7.625 5.069,7.470 5.193,7.355 C5.318,7.240 5.485,7.176 5.660,7.176 L11.239,7.176 L10.625,6.323 C10.528,6.188 10.493,6.023 10.526,5.864 C10.561,5.705 10.662,5.565 10.808,5.475 L10.808,5.475 L11.404,5.108 C11.706,4.921 12.116,4.996 12.319,5.277 L14.356,8.109 C14.492,8.297 14.505,8.539 14.390,8.738 C14.275,8.937 14.051,9.062 13.807,9.061 Z"/></svg>