<svg fill="#6A6991" id="图层_1" data-name="图层 1" xmlns="http://www.w3.org/2000/svg" xmlns:xlink="http://www.w3.org/1999/xlink" viewBox="0 0 294 121"><defs><style>.cls-1{clip-path:url(#clip-path);}.cls-2{clip-path:url(#clip-path-2);}.cls-3{clip-path:url(#clip-path-3);}.cls-4{clip-path:url(#clip-path-4);}.cls-5{clip-path:url(#clip-path-5);}.cls-6{clip-path:url(#clip-path-6);}.cls-7{clip-path:url(#clip-path-7);}.cls-8{clip-path:url(#clip-path-8);}.cls-9{clip-path:url(#clip-path-9);}.cls-10{clip-path:url(#clip-path-10);}.cls-11{clip-path:url(#clip-path-11);}</style><clipPath id="clip-path"><polygon points="135.26 62.75 135.27 62.75 138.14 54.81 138.13 54.78 135.26 62.75"/></clipPath><clipPath id="clip-path-2"><polygon points="138.84 56.77 140.99 62.75 136.68 62.75 135.6 65.76 142.09 65.76 143.92 70.87 148.03 70.87 140.54 52.06 138.84 56.77"/></clipPath><clipPath id="clip-path-3"><polygon points="136.18 51.46 128.47 70.87 132.35 70.87 135.27 62.75 135.26 62.75 138.13 54.78 138.14 54.81 139.34 51.46 136.18 51.46"/></clipPath><clipPath id="clip-path-4"><path d="M152.83,51.74a5.5,5.5,0,0,0-2.4,2,5.18,5.18,0,0,0-.86,3,5.47,5.47,0,0,0,.57,2.58A5.06,5.06,0,0,0,152,61.18a15.06,15.06,0,0,0,3.42,1.42,16.38,16.38,0,0,1,2.37.87,2.94,2.94,0,0,1,1.18.91,2.08,2.08,0,0,1,.33,1.19,2.19,2.19,0,0,1-1,1.88,4.78,4.78,0,0,1-2.72.67,11.19,11.19,0,0,1-3.15-.48,11.93,11.93,0,0,1-2.88-1.2l-.36,3.24a7.5,7.5,0,0,0,1.79.84,14.39,14.39,0,0,0,2.31.56,14.62,14.62,0,0,0,2.47.21,8.5,8.5,0,0,0,5.41-1.57,5.28,5.28,0,0,0,2-4.36,5,5,0,0,0-.64-2.56,5.63,5.63,0,0,0-2-1.93,17.88,17.88,0,0,0-3.73-1.54,15.44,15.44,0,0,1-2.08-.81,2.47,2.47,0,0,1-1.05-.84,2.07,2.07,0,0,1-.29-1.11,2,2,0,0,1,.86-1.74,4.16,4.16,0,0,1,2.43-.61,10.5,10.5,0,0,1,2.67.38,9.09,9.09,0,0,1,2.46,1l.54-3.14a9.49,9.49,0,0,0-2.67-1.06,12.67,12.67,0,0,0-3.13-.4,9.12,9.12,0,0,0-3.68.69"/></clipPath><clipPath id="clip-path-5"><rect x="164.45" y="51.46" width="16.42" height="3.17"/></clipPath><clipPath id="clip-path-6"><rect x="170.71" y="55.95" width="3.91" height="14.92"/></clipPath><clipPath id="clip-path-7"><polygon points="186.06 62.75 186.08 62.75 188.94 54.83 188.92 54.78 186.06 62.75"/></clipPath><clipPath id="clip-path-8"><polygon points="186.98 51.46 179.27 70.87 183.15 70.87 184.99 65.76 185 65.76 186.08 62.75 186.06 62.75 188.92 54.78 188.94 54.83 190.15 51.46 186.98 51.46"/></clipPath><clipPath id="clip-path-9"><polygon points="189.64 56.79 191.78 62.75 187.49 62.75 186.4 65.76 192.88 65.76 194.72 70.87 198.83 70.87 191.34 52.08 189.64 56.79"/></clipPath><clipPath id="clip-path-10"><path d="M206.13,51.46V54.4H207c2.59,0,3.89,1.11,3.88,3.32s-1.33,3.32-4,3.32h-.73V64h2l4.09,6.9h4.37L211.48,63a6.61,6.61,0,0,0,2.3-2.13,5.58,5.58,0,0,0,.89-3.12,6.24,6.24,0,0,0-.87-3.35,5.63,5.63,0,0,0-2.47-2.16,8.92,8.92,0,0,0-3.84-.77Z"/></clipPath><clipPath id="clip-path-11"><rect x="201.1" y="51.46" width="3.7" height="19.41"/></clipPath></defs><path d="M103.44,68a19.92,19.92,0,0,0,3.76-5.46,20.42,20.42,0,0,0,.88-2.11,12.15,12.15,0,0,1,4.38,5.7,7.6,7.6,0,0,1-1,6.92,6.72,6.72,0,0,1-1,1.11l0,0a17.35,17.35,0,0,1-22-.48,17.53,17.53,0,0,0,11-2.41c5.5,3.83,9.07,3.28,10.75,1.29.05,0,.09-.11.14-.17a3.72,3.72,0,0,0-5.83-4.61,1,1,0,0,1-.08.11,4.17,4.17,0,0,0-.29.44c-.2-.1-.41-.21-.63-.34m-6.52-6.79-.1-.21h0a15.28,15.28,0,0,1-1-2.77,16.63,16.63,0,0,1,4.61-.44h.24a16,16,0,0,1,2.89.53,17,17,0,0,1-1.93,4.2l-.13.2h0A15.71,15.71,0,0,1,99.6,65a16.66,16.66,0,0,1-2.68-3.77m-8.54,7.57a7.59,7.59,0,0,1-5.46-4.37A6.71,6.71,0,0,1,82.46,63c-.06-.43-.11-.85-.14-1.28A17.42,17.42,0,0,1,93.91,44.11v0a17.58,17.58,0,0,0-3.44,10.76C84.4,57.74,83.09,61.1,84,63.55a1.67,1.67,0,0,0,.08.2,3.71,3.71,0,0,0,6.85-2.87,4.16,4.16,0,0,0-.24-.47l.61-.37a20,20,0,0,0,2.85,6,18.4,18.4,0,0,0,1.38,1.81A13.46,13.46,0,0,1,90.32,69a10.54,10.54,0,0,1-1.94-.19m9.75-22.18a7.63,7.63,0,0,1,6.53-2.56,7.19,7.19,0,0,1,1.46.33l.07,0h0a17.38,17.38,0,0,1,10.55,19.33v0h0a17.64,17.64,0,0,0-7.6-8.36c.57-6.67-1.7-9.49-4.26-9.94l-.21,0a3.72,3.72,0,0,0-1,7.37,4.71,4.71,0,0,0,.53,0c0,.22,0,.46,0,.72A20.15,20.15,0,0,0,97.66,53a21.48,21.48,0,0,0-2.26.29,12.19,12.19,0,0,1,2.74-6.64m0-8.29A22.2,22.2,0,0,0,83,45.83h0l-.07.1A22.15,22.15,0,0,0,77.47,62c0,.58.11,1.16.19,1.72h0v.08c.06.37.13.74.2,1.11h0v0c.07.34.14.66.22,1h0A22.23,22.23,0,1,0,99.66,38.27c-.5,0-1,0-1.53,0"/><polygon points="135.26 62.75 135.27 62.75 138.14 54.81 138.13 54.78 135.26 62.75"/><g class="cls-1"><rect x="134.41" y="54.56" width="4.58" height="8.41" transform="translate(-9.66 31.98) rotate(-12.89)"/></g><polygon points="138.84 56.77 140.99 62.75 136.68 62.75 135.6 65.76 142.09 65.76 143.92 70.87 148.03 70.87 140.54 52.06 138.84 56.77"/><g class="cls-2"><rect x="133.66" y="50.92" width="16.32" height="21.1" transform="translate(-10.14 33.19) rotate(-12.89)"/></g><polygon points="136.18 51.46 128.47 70.87 132.35 70.87 135.27 62.75 135.26 62.75 138.13 54.78 138.14 54.81 139.34 51.46 136.18 51.46"/><g class="cls-3"><rect x="126.44" y="50.5" width="14.93" height="21.34" transform="translate(-10.27 31.41) rotate(-12.89)"/></g><path d="M152.83,51.74a5.5,5.5,0,0,0-2.4,2,5.18,5.18,0,0,0-.86,3,5.47,5.47,0,0,0,.57,2.58A5.06,5.06,0,0,0,152,61.18a15.06,15.06,0,0,0,3.42,1.42,16.38,16.38,0,0,1,2.37.87,2.94,2.94,0,0,1,1.18.91,2.08,2.08,0,0,1,.33,1.19,2.19,2.19,0,0,1-1,1.88,4.78,4.78,0,0,1-2.72.67,11.19,11.19,0,0,1-3.15-.48,11.93,11.93,0,0,1-2.88-1.2l-.36,3.24a7.5,7.5,0,0,0,1.79.84,14.39,14.39,0,0,0,2.31.56,14.62,14.62,0,0,0,2.47.21,8.5,8.5,0,0,0,5.41-1.57,5.28,5.28,0,0,0,2-4.36,5,5,0,0,0-.64-2.56,5.63,5.63,0,0,0-2-1.93,17.88,17.88,0,0,0-3.73-1.54,15.44,15.44,0,0,1-2.08-.81,2.47,2.47,0,0,1-1.05-.84,2.07,2.07,0,0,1-.29-1.11,2,2,0,0,1,.86-1.74,4.16,4.16,0,0,1,2.43-.61,10.5,10.5,0,0,1,2.67.38,9.09,9.09,0,0,1,2.46,1l.54-3.14a9.49,9.49,0,0,0-2.67-1.06,12.67,12.67,0,0,0-3.13-.4,9.12,9.12,0,0,0-3.68.69"/><g class="cls-4"><rect x="147.15" y="49.75" width="18.1" height="22.83" transform="translate(-9.71 36.39) rotate(-12.89)"/></g><rect x="164.45" y="51.46" width="16.42" height="3.17"/><g class="cls-5"><rect x="164.31" y="49.67" width="16.71" height="6.75" transform="translate(-7.48 39.85) rotate(-12.89)"/></g><rect x="170.71" y="55.95" width="3.91" height="14.92"/><g class="cls-6"><rect x="169.1" y="55.71" width="7.14" height="15.41" transform="translate(-9.79 40.12) rotate(-12.89)"/></g><polygon points="186.06 62.75 186.08 62.75 188.94 54.83 188.92 54.78 186.06 62.75"/><g class="cls-7"><rect x="185.21" y="54.56" width="4.58" height="8.41" transform="translate(-8.38 43.31) rotate(-12.89)"/></g><polygon points="186.98 51.46 179.27 70.87 183.15 70.87 184.99 65.76 185 65.76 186.08 62.75 186.06 62.75 188.92 54.78 188.94 54.83 190.15 51.46 186.98 51.46"/><g class="cls-8"><rect x="177.24" y="50.49" width="14.94" height="21.35" transform="translate(-8.99 42.75) rotate(-12.89)"/></g><polygon points="189.64 56.79 191.78 62.75 187.49 62.75 186.4 65.76 192.88 65.76 194.72 70.87 198.83 70.87 191.34 52.08 189.64 56.79"/><g class="cls-9"><rect x="184.46" y="50.93" width="16.3" height="21.09" transform="translate(-8.86 44.52) rotate(-12.89)"/></g><path d="M206.13,51.46V54.4H207c2.59,0,3.89,1.11,3.88,3.32s-1.33,3.32-4,3.32h-.73V64h2l4.09,6.9h4.37L211.48,63a6.61,6.61,0,0,0,2.3-2.13,5.58,5.58,0,0,0,.89-3.12,6.24,6.24,0,0,0-.87-3.35,5.63,5.63,0,0,0-2.47-2.16,8.92,8.92,0,0,0-3.84-.77Z"/><g class="cls-10"><rect x="204.09" y="50.54" width="14.51" height="21.25" transform="translate(-8.32 48.69) rotate(-12.89)"/></g><rect x="201.1" y="51.46" width="3.7" height="19.41"/><g class="cls-11"><rect x="198.98" y="51.29" width="7.94" height="19.74" transform="translate(-8.53 46.82) rotate(-12.89)"/></g></svg>