<svg  fill="#6A6991" id="图层_1" data-name="图层 1" xmlns="http://www.w3.org/2000/svg" viewBox="0 0 294 121"><path d="M90.46,74.29a15.42,15.42,0,0,1-17.61-2.53L69.6,73.42a18.94,18.94,0,0,0,32.46-16.6l-3.29,1.69a15.5,15.5,0,0,1-8.31,15.78Z"/><path d="M69,66a15.46,15.46,0,0,1,25.1-16.71A16.09,16.09,0,0,1,96.39,52l11.84-6,.59-4.21L97.4,47.58a18.94,18.94,0,0,0-32.46,16.6L53.57,70l3.7,2L69,66Z"/><path d="M107.29,52.21l.63-4.19L59.15,73l3.78,1.94Z"/><path d="M118.09,52.53h2.63V65H127v2.38h-8.94Zm10.25,4.77h2.51v10h-2.51ZM128,53.89a1.47,1.47,0,0,1,.44-1,1.69,1.69,0,0,1,2.3,0,1.37,1.37,0,0,1,.49,1.07,1.43,1.43,0,0,1-.49,1.09,1.75,1.75,0,0,1-2.3,0A1.51,1.51,0,0,1,128,53.89Zm5.34-2.37h2.51v7.06h.06a3.7,3.7,0,0,1,.48-.5,3.88,3.88,0,0,1,.71-.5,4.09,4.09,0,0,1,1-.38,4.71,4.71,0,0,1,1.25-.15,4.58,4.58,0,0,1,2,.42,4.5,4.5,0,0,1,1.53,1.11,5.16,5.16,0,0,1,1,1.68,6.08,6.08,0,0,1,.35,2.07,6.33,6.33,0,0,1-.33,2.07,4.88,4.88,0,0,1-1,1.68,4.75,4.75,0,0,1-1.57,1.13,5.23,5.23,0,0,1-2.07.4,4.73,4.73,0,0,1-2-.42,3.33,3.33,0,0,1-1.47-1.34h0v1.5h-2.38Zm8.33,10.81a3.1,3.1,0,0,0-.21-1.13,2.57,2.57,0,0,0-.59-1,2.7,2.7,0,0,0-.92-.67,2.85,2.85,0,0,0-1.23-.26,3,3,0,0,0-2.18.93,3,3,0,0,0-.59,1,3.46,3.46,0,0,0,0,2.26,3.15,3.15,0,0,0,.59,1,2.9,2.9,0,0,0,2.18.92,2.85,2.85,0,0,0,1.23-.25,2.7,2.7,0,0,0,.92-.67,2.66,2.66,0,0,0,.59-1A3.1,3.1,0,0,0,141.65,62.33Zm4.44-5h2.51v1.6h0a3.25,3.25,0,0,1,1.19-1.37,3.32,3.32,0,0,1,1.78-.48,3,3,0,0,1,.44,0l.46.11v2.43a4.56,4.56,0,0,0-.62-.13,3,3,0,0,0-.59-.06,2.69,2.69,0,0,0-1.42.33,2.58,2.58,0,0,0-.82.74,2.84,2.84,0,0,0-.38.84,3.86,3.86,0,0,0-.08.62v5.38h-2.51Zm14,8.67H160a3.27,3.27,0,0,1-1.38,1.26,4.45,4.45,0,0,1-1.84.38,5.25,5.25,0,0,1-1.36-.19,3.86,3.86,0,0,1-1.17-.57,2.86,2.86,0,0,1-.82-.94,2.68,2.68,0,0,1-.31-1.32,2.93,2.93,0,0,1,.29-1.38,2.71,2.71,0,0,1,.77-1,3.89,3.89,0,0,1,1.15-.63,6.93,6.93,0,0,1,1.34-.34,9.89,9.89,0,0,1,1.43-.14c.47,0,.92,0,1.34,0h.63v-.27a1.61,1.61,0,0,0-.65-1.4,2.72,2.72,0,0,0-1.66-.48,3.65,3.65,0,0,0-1.48.29,3.69,3.69,0,0,0-1.2.75l-1.32-1.31a4.82,4.82,0,0,1,1.95-1.24,7.39,7.39,0,0,1,2.33-.38,5.83,5.83,0,0,1,1.8.25,3.92,3.92,0,0,1,1.21.61,2.53,2.53,0,0,1,.73.88,3.21,3.21,0,0,1,.38,1,5.94,5.94,0,0,1,.15,1c0,.31,0,.58,0,.82v5.77h-2.26Zm-.15-3.12h-.52c-.35,0-.74,0-1.18,0a6.08,6.08,0,0,0-1.23.21,2.68,2.68,0,0,0-1,.46,1,1,0,0,0-.4.84,1.28,1.28,0,0,0,.14.61,2,2,0,0,0,.42.4,2.1,2.1,0,0,0,.57.25,3.36,3.36,0,0,0,.63.06,2.57,2.57,0,0,0,1.9-.61,2.26,2.26,0,0,0,.63-1.69Zm10.7-10.32h9.57v2.39h-6.93v3.89h6.53V61.2h-6.53v6.15h-2.64Zm11.42,4.77h2.51v10h-2.51Zm-.36-3.41a1.47,1.47,0,0,1,.44-1,1.69,1.69,0,0,1,2.3,0,1.37,1.37,0,0,1,.49,1.07,1.43,1.43,0,0,1-.49,1.09,1.75,1.75,0,0,1-2.3,0A1.51,1.51,0,0,1,181.7,53.89ZM187,57.3h2.38v1.62h0a3.38,3.38,0,0,1,1.09-1.3,3.16,3.16,0,0,1,2-.57,3.79,3.79,0,0,1,1.7.34,3.1,3.1,0,0,1,1.15.88,3.43,3.43,0,0,1,.63,1.25,6.08,6.08,0,0,1,.19,1.49v6.34h-2.52V62.27c0-.28,0-.59,0-.92a3.06,3.06,0,0,0-.23-1,1.58,1.58,0,0,0-.54-.75,1.57,1.57,0,0,0-1-.32,2.49,2.49,0,0,0-1.07.21,2.18,2.18,0,0,0-.71.57,2.51,2.51,0,0,0-.4.82,3.71,3.71,0,0,0-.12,1v5.48H187ZM204.92,66h-.06a3.27,3.27,0,0,1-1.38,1.26,4.5,4.5,0,0,1-1.85.38,5.25,5.25,0,0,1-1.36-.19,4,4,0,0,1-1.17-.57,3,3,0,0,1-.82-.94,2.68,2.68,0,0,1-.31-1.32,3.06,3.06,0,0,1,.29-1.38,2.84,2.84,0,0,1,.78-1,3.77,3.77,0,0,1,1.15-.63,6.75,6.75,0,0,1,1.34-.34,9.76,9.76,0,0,1,1.42-.14c.48,0,.92,0,1.34,0h.63v-.27a1.58,1.58,0,0,0-.65-1.4,2.69,2.69,0,0,0-1.65-.48,3.7,3.7,0,0,0-1.49.29,3.55,3.55,0,0,0-1.19.75l-1.32-1.31a4.82,4.82,0,0,1,1.95-1.24,7.32,7.32,0,0,1,2.32-.38,5.83,5.83,0,0,1,1.8.25,4.09,4.09,0,0,1,1.22.61,2.65,2.65,0,0,1,.73.88,3.49,3.49,0,0,1,.38,1,5,5,0,0,1,.14,1c0,.31,0,.58,0,.82v5.77h-2.26Zm-.14-3.12h-.53c-.35,0-.74,0-1.17,0a6.18,6.18,0,0,0-1.24.21,2.85,2.85,0,0,0-1,.46,1,1,0,0,0-.4.84,1.17,1.17,0,0,0,.15.61,1.61,1.61,0,0,0,.42.4,2,2,0,0,0,.56.25,3.36,3.36,0,0,0,.63.06,2.59,2.59,0,0,0,1.91-.61,2.26,2.26,0,0,0,.63-1.69Zm4.69-5.55h2.38v1.62h.05a3.3,3.3,0,0,1,1.09-1.3,3.13,3.13,0,0,1,2-.57,3.79,3.79,0,0,1,1.7.34,3,3,0,0,1,1.15.88,3.28,3.28,0,0,1,.63,1.25,5.64,5.64,0,0,1,.19,1.49v6.34h-2.51V62.27c0-.28,0-.59,0-.92a2.82,2.82,0,0,0-.23-1,1.58,1.58,0,0,0-.54-.75,1.55,1.55,0,0,0-1-.32,2.41,2.41,0,0,0-1.06.21,2.22,2.22,0,0,0-.72.57,2.31,2.31,0,0,0-.39.82,3.32,3.32,0,0,0-.13,1v5.48h-2.51Zm18.47,3a3.83,3.83,0,0,0-.92-.73,1.9,1.9,0,0,0-1-.28,3,3,0,0,0-2.18.93,3,3,0,0,0-.59,1,3.46,3.46,0,0,0,0,2.26,3.15,3.15,0,0,0,.59,1,2.9,2.9,0,0,0,2.18.92,2.44,2.44,0,0,0,1.08-.23,2.27,2.27,0,0,0,.86-.71l1.68,1.8a3.86,3.86,0,0,1-.88.65,5.44,5.44,0,0,1-1,.44,5.13,5.13,0,0,1-1,.23,4.24,4.24,0,0,1-.79.09,6.06,6.06,0,0,1-2.14-.38A5.08,5.08,0,0,1,221,64.51a5.5,5.5,0,0,1-.42-2.18,5.34,5.34,0,0,1,.42-2.16,5,5,0,0,1,2.91-2.74,6.06,6.06,0,0,1,2.14-.38,5.25,5.25,0,0,1,1.92.38,4.32,4.32,0,0,1,1.72,1.15Zm4.83,2.89a2.55,2.55,0,0,0,.87,1.76,2.77,2.77,0,0,0,1.83.63,3,3,0,0,0,1.57-.38,4.45,4.45,0,0,0,1.13-1L240,65.6a5.19,5.19,0,0,1-2,1.55,6,6,0,0,1-2.28.46,6.06,6.06,0,0,1-2.14-.38,5.14,5.14,0,0,1-1.74-1.07,5.31,5.31,0,0,1-1.17-1.65,5.5,5.5,0,0,1-.42-2.18,5.1,5.1,0,0,1,1.59-3.83,5.14,5.14,0,0,1,1.74-1.07,6.06,6.06,0,0,1,2.14-.38,4.67,4.67,0,0,1,1.9.38,3.88,3.88,0,0,1,1.49,1,4.59,4.59,0,0,1,1,1.71,6.91,6.91,0,0,1,.36,2.33v.69Zm5.15-1.89a2.36,2.36,0,0,0-.69-1.73,2.55,2.55,0,0,0-1.87-.65,2.46,2.46,0,0,0-1.8.65,2.88,2.88,0,0,0-.79,1.73Z"/></svg>