<svg id="图层_1"  fill="#6A6991" data-name="图层 1" xmlns="http://www.w3.org/2000/svg" viewBox="0 0 294 121"><defs><style>.cls-1{fill:#6A6991;}</style></defs><path class="cls-1" d="M67.11,76.47c-2.89,0-5.79,0-8.68,0a6.58,6.58,0,0,1-3.93-1c-1.48-1-3.12-2.34-2.65-4.17s2.58-.85,3.9-.88c5.24-.14,10.48,0,15.72-.07,5,0,7.57-1.84,7.62-5.36s-2.49-5.43-7.46-5.46c-2.61,0-5.23,0-7.85,0-3,0-3.57-1.84-3.57-4.29,0-2.84,2.15-1.83,3.53-1.86q6-.18,12,0c5.12.13,8.21,3.09,8.36,8,.08,2.53.11,5.06,0,7.57-.21,4.5-3.21,7.39-7.87,7.56C73.18,76.56,70.14,76.47,67.11,76.47Z"/><path class="cls-1" d="M68.82,44.53c2.89,0,5.79,0,8.68,0a6.58,6.58,0,0,1,3.93,1c1.48,1,3.12,2.34,2.65,4.17s-2.58.85-3.9.88c-5.24.14-10.48,0-15.72.07-5,0-7.57,1.84-7.62,5.36s2.49,5.43,7.45,5.46c2.62,0,5.24,0,7.86,0,2.95,0,3.57,1.84,3.57,4.29,0,2.84-2.15,1.83-3.53,1.86q-6,.18-12,0c-5.12-.13-8.21-3.09-8.36-8-.08-2.53-.11-5.06,0-7.57.21-4.5,3.21-7.39,7.87-7.56C62.75,44.44,65.79,44.53,68.82,44.53Z"/><path d="M110.13,57.2h-3.25a2.25,2.25,0,0,0-2.57-2.4c-1.66.12-2.52.8-2.57,2.06,0,1,.82,1.74,2.48,2.14a1.28,1.28,0,0,0,.43.08,2.64,2.64,0,0,1,.43.09q5.57,1.11,5.48,4.37c-.06,3.31-2.31,5-6.77,5.14q-6.17,0-6.08-5.23h3.43a2.57,2.57,0,0,0,2.65,2.92c2.06-.06,3.11-.75,3.17-2.06,0-1.08-1-1.83-3-2.23a2.37,2.37,0,0,1-.6-.17c-3.48-.8-5.22-2.25-5.22-4.37q.26-4.87,6.59-5.22Q109.88,52.58,110.13,57.2Z"/><path d="M112.87,57.46h3.34V68.51h-3.34Z"/><path d="M118.78,57.46h3v2h.09a3.42,3.42,0,0,1,3.77-2.14v2.91h-1.46a3,3,0,0,0-1.63.77,8,8,0,0,0-.43,1.63v5.83h-3.25v-9.6C118.81,58.29,118.78,57.8,118.78,57.46Z"/><path d="M127.44,57.46h3.34V68.51h-3.34Z"/><path d="M140.89,68.51l-.18-1.37a3.84,3.84,0,0,1-3.34,1.54c-2-.17-3.22-.94-3.68-2.31a7,7,0,0,1-.17-1.72V57.46h3.25v6.68c.06,1.66.72,2.48,2,2.48s1.92-.94,2-2.48V57.46h3.35v9.08a6.42,6.42,0,0,0,.08.94v1Z"/><path d="M155.45,60.46h-3c-.06-.69-.54-1.06-1.46-1.12s-1.28.34-1.28,1c0,.46.71.86,2.14,1.2Q156,62.68,156,65.25q-.26,3.09-5,3.43-4.71-.09-4.88-3.34h3.09c.11.8.71,1.23,1.79,1.28s1.55-.4,1.55-1.2c-.06-.62-.8-1.08-2.23-1.37q-4.2-.77-4-3.59c.12-2,1.69-3,4.71-3.26Q155.19,57.2,155.45,60.46Z"/><path d="M167.44,68.51H164.1V52.66h10.2v2.65h-6.86v3.77h6.43v2.66h-6.43Z"/><path d="M176.1,57.46h3.34V68.51H176.1Z"/><path d="M185.52,57.46v1.28l.08.09A3.54,3.54,0,0,1,189,57.2c2,.23,3.19,1,3.59,2.4a6.9,6.9,0,0,1,.26,1.71v7.2h-3.34v-6.6c0-1.71-.66-2.57-2-2.57-1.14.12-1.8,1-2,2.57v6.6h-3.26V57.46Z"/><path d="M198.71,60.63h-3.17a3.12,3.12,0,0,1,1.54-2.74,6.28,6.28,0,0,1,3.26-.69c3.08,0,4.63,1.37,4.63,4.11v6a.71.71,0,0,0,.08.34,3.49,3.49,0,0,1,.09.86h-2.92a7,7,0,0,1-.17-1.46,3.51,3.51,0,0,1-3.42,1.63c-2.35-.12-3.55-1.17-3.6-3.17a3.88,3.88,0,0,1,2.4-3.51,12.14,12.14,0,0,1,4.28-.6v-1A1.47,1.47,0,0,0,200.17,59C199.31,59.06,198.83,59.6,198.71,60.63Zm3,2.74q-3.51-.25-3.51,1.71a1.5,1.5,0,0,0,1.63,1.54C201.14,66.62,201.77,65.54,201.71,63.37Z"/><path d="M211.05,57.46v1.28l.08.09a3.52,3.52,0,0,1,3.34-1.63q3,.34,3.6,2.4a7.41,7.41,0,0,1,.26,1.71v7.2H215v-6.6c0-1.71-.66-2.57-2-2.57-1.14.12-1.8,1-2,2.57v6.6h-3.26V57.46Z"/><path d="M230.24,61.4H227c-.11-1.37-.68-2.06-1.71-2.06-.8,0-1.29,1.06-1.46,3.17v.69c.12,2.28.63,3.42,1.54,3.42s1.57-.71,1.63-2.14h3.26q-.26,4.2-4.89,4.2c-3.08-.12-4.74-2-5-5.65.28-3.66,1.94-5.6,5-5.83C228.5,57.31,230.12,58.71,230.24,61.4Z"/><path d="M242.23,63.88H235c-.06,1.89.57,2.8,1.88,2.74a1.81,1.81,0,0,0,2.06-1.37h3c-.29,2.29-2,3.43-5.06,3.43-3.54.06-5.28-1.83-5.22-5.65s1.91-5.66,5.22-5.83q3.43,0,4.72,2.57a5,5,0,0,1,.6,2C242.2,62.43,242.23,63.14,242.23,63.88ZM235,61.65h3.85c0-1.54-.65-2.31-2-2.31S235,60.11,235,61.65Z"/><circle cx="114.54" cy="54.16" r="1.84"/><circle cx="129.11" cy="54.16" r="1.84"/><circle cx="177.77" cy="54.16" r="1.84"/></svg>