<svg  xmlns="http://www.w3.org/2000/svg" xmlns:xlink="http://www.w3.org/1999/xlink" width="12px" height="12px"><path fill-rule="evenodd"  fill="rgb(157, 166, 166)" d="M10.243,11.657 L6.000,7.414 L1.757,11.657 C1.367,12.047 0.734,12.047 0.343,11.657 C-0.048,11.266 -0.048,10.633 0.343,10.243 L4.586,6.000 L0.343,1.757 C-0.048,1.367 -0.048,0.734 0.343,0.343 C0.734,-0.047 1.367,-0.047 1.757,0.343 L6.000,4.586 L10.243,0.343 C10.633,-0.047 11.266,-0.047 11.657,0.343 C12.047,0.734 12.047,1.367 11.657,1.757 L7.414,6.000 L11.657,10.243 C12.047,10.633 12.047,11.266 11.657,11.657 C11.266,12.047 10.633,12.047 10.243,11.657 Z"/></svg>