
<svg 
 xmlns="http://www.w3.org/2000/svg"
 xmlns:xlink="http://www.w3.org/1999/xlink"
 width="18px" height="24px">
<path fill-rule="evenodd"  fill="rgb(27, 211, 213)"
 d="M17.622,5.997 L0.378,5.997 C0.170,5.997 0.002,5.829 0.002,5.621 L0.002,3.369 C0.002,3.161 0.170,2.993 0.378,2.993 L4.502,2.993 L5.898,0.198 C5.961,0.070 6.091,-0.011 6.233,-0.011 L11.767,-0.011 C11.909,-0.011 12.038,0.070 12.102,0.198 L13.498,2.993 L17.622,2.993 C17.830,2.993 17.997,3.161 17.997,3.369 L17.997,5.621 C17.997,5.829 17.830,5.997 17.622,5.997 ZM1.878,7.496 L16.122,7.496 C16.330,7.496 16.497,7.664 16.497,7.872 L16.497,22.509 C16.497,23.339 15.827,24.011 14.998,24.011 L3.005,24.011 C2.176,24.011 1.505,23.339 1.505,22.509 L1.505,7.872 C1.502,7.664 1.670,7.496 1.878,7.496 ZM10.499,18.756 C10.499,19.169 10.833,19.505 11.247,19.505 C11.660,19.505 11.995,19.169 11.995,18.756 L11.995,12.751 C11.995,12.337 11.660,12.001 11.247,12.001 C10.833,12.001 10.499,12.337 10.499,12.751 L10.499,18.756 ZM5.999,18.756 C5.999,19.169 6.334,19.505 6.747,19.505 C7.160,19.505 7.496,19.169 7.496,18.756 L7.496,12.751 C7.496,12.337 7.160,12.001 6.747,12.001 C6.337,12.001 5.999,12.337 5.999,12.751 L5.999,18.756 Z"/>
</svg>
