<svg width="36" height="30" viewBox="0 0 36 30" fill="none" xmlns="http://www.w3.org/2000/svg">
<path d="M9.58511 21.6075C7.56995 23.1526 5.25698 24.2862 2.78384 24.9408C2.51143 25.0373 2.27608 25.2134 2.10975 25.445C1.94343 25.6767 1.8542 25.9527 1.8542 26.2356C1.8542 26.5184 1.94343 26.7945 2.10975 27.0261C2.27608 27.2578 2.51143 27.4338 2.78384 27.5303C22.3128 35.3539 34.7301 23.2604 32.8392 9.84458L36 3.45347H32.3313C27.7595 -2.02855 15.6244 -1.75308 17.6281 9.92722C17.6281 9.92722 11.1373 11.0567 2.84028 3.09535C2.64835 2.91039 2.40614 2.78299 2.14234 2.72824C1.87853 2.6735 1.60417 2.6937 1.35176 2.78646C1.09936 2.87922 0.879467 3.04064 0.71814 3.25162C0.556813 3.4626 0.460807 3.71429 0.441492 3.97688C-0.43581 7.49708 0.00322964 11.2074 1.67955 14.4397C3.35588 17.6719 6.15934 20.2138 9.58511 21.6075Z" fill="#08EF9C"/>
</svg>
