<svg width="39" height="35" viewBox="0 0 39 35" fill="none" xmlns="http://www.w3.org/2000/svg">
<path fill-rule="evenodd" clip-rule="evenodd" d="M18.3759 14.9485L18.3758 14.9486C14.7829 13.1471 13.468 10.7564 14.3368 7.82999C15.1022 5.25129 17.6816 3.56346 20.3088 3.96034C21.6193 4.15806 22.7718 4.69464 23.67 5.71839C25.0294 7.26898 25.3363 9.07893 24.9214 11.0946L26.1608 11.4309L26.162 11.4312C26.7996 11.6042 27.4132 11.7707 28.0242 11.9363C29.3456 8.31105 27.7953 4.07534 24.4104 1.90078C20.8859 -0.36303 16.3193 0.114534 13.3259 3.06395C11.7631 4.60407 10.908 6.48322 10.7092 8.65763C10.4278 11.7338 11.699 14.2161 13.8348 16.3398L10.439 22.0339C10.3282 22.0422 10.2326 22.048 10.1472 22.0531L10.1469 22.0532C9.99032 22.0626 9.86768 22.07 9.74676 22.0873C7.51434 22.4038 5.94311 24.3886 6.31876 26.4133C6.74268 28.7008 8.82434 30.105 10.9609 29.5451C13.2265 28.9517 14.432 26.7654 13.5774 24.5187C13.2679 23.7055 13.4597 23.1843 13.8471 22.5445C14.9387 20.7414 16.014 18.9284 17.1095 17.0815L17.1112 17.0786C17.5292 16.374 17.95 15.6644 18.3758 14.9486L18.3759 14.9487V14.9485ZM26.0643 17.673C24.9708 15.7449 23.8674 13.7989 22.7807 11.8818C22.835 11.7456 22.888 11.6175 22.9388 11.4944L22.939 11.4939L22.939 11.4939C23.0467 11.2332 23.1451 10.9951 23.227 10.7517C23.6611 9.46614 23.399 8.29295 22.5741 7.25059C21.5648 5.97476 19.8038 5.51144 18.3032 6.08554C16.7884 6.66487 15.8192 8.15193 15.885 9.79702C15.952 11.4604 17.0682 12.9452 18.7972 13.2449C19.8326 13.4242 20.3397 13.9158 20.7991 14.7631C21.7755 16.565 22.7874 18.3474 23.8004 20.1316L23.8006 20.1319C24.2007 20.8368 24.6011 21.542 24.9994 22.2487C28.3908 19.9884 31.1964 20.0602 33.291 22.4149C35.1061 24.4554 35.1443 27.5631 33.3804 29.6474C31.312 32.0906 28.5259 32.1877 25.3403 30.1245C24.4578 30.8629 23.6317 31.554 22.8098 32.2421C26.035 35.4613 30.6386 35.8895 34.2789 33.3835C37.8253 30.9421 39.0599 26.2555 37.254 22.2984C35.759 19.0227 31.5916 15.9629 26.0643 17.673ZM18.7245 27.5545H25.3784C25.4713 27.6781 25.558 27.8004 25.6427 27.9199C25.8193 28.169 25.9871 28.4055 26.1828 28.6154C27.5921 30.1224 29.9718 30.1971 31.478 28.7986C33.0392 27.3492 33.1099 24.9144 31.6346 23.4012C30.191 21.9205 27.7238 21.7791 26.3834 23.3468C25.5693 24.2996 24.735 24.4117 23.6543 24.3947C21.679 24.3642 19.7027 24.37 17.7269 24.3759C16.9343 24.3782 16.1418 24.3806 15.3494 24.3806C15.5291 28.2741 14.0573 30.7001 11.1382 31.2761C8.2796 31.8402 5.64696 30.3816 4.72018 27.7206C3.66736 24.6968 4.96936 22.2786 8.73114 20.3593C8.44809 19.3338 8.16199 18.296 7.87894 17.268C3.77886 18.1615 0.702827 22.1395 1.02033 26.6147C1.30091 30.5652 4.48758 34.0736 8.38485 34.7021C10.5015 35.0439 12.4903 34.689 14.3356 33.6423C16.7092 32.2955 18.0867 30.1777 18.7245 27.5545Z" fill="#3965FF"/>
</svg>
