<svg width="38" height="28" viewBox="0 0 38 28" fill="none" xmlns="http://www.w3.org/2000/svg">
<path d="M33.3111 3.49643C28.6547 -0.100054 24.1939 0.000696287 24.1939 0.000696287L23.7379 0.538311C29.2735 2.25273 31.8459 4.77357 31.8459 4.77357C23.9263 0.272394 13.8381 0.304601 5.60046 4.77357C5.60046 4.77357 8.27049 2.11812 14.1317 0.403701L13.8061 0.000283599C13.8061 0.000283599 9.3777 -0.100468 4.68885 3.49602C4.68885 3.49602 0 12.2019 0 22.9245C0 22.9245 2.73523 27.7646 9.9317 28C9.9317 28 11.1365 26.5209 12.1133 25.2438C7.97768 23.9667 6.41487 21.3112 6.41487 21.3112C9.01289 22.9893 11.6401 24.0397 14.9138 24.7062C20.2402 25.838 26.8655 24.6744 31.8135 21.3112C31.8135 21.3112 30.1855 24.034 25.9199 25.2777C26.8967 26.5214 28.0691 27.9666 28.0691 27.9666C35.2648 27.7316 38 22.8914 38 22.9249C38 12.2023 33.3111 3.49643 33.3111 3.49643ZM12.9269 19.7991C11.1033 19.7991 9.6057 18.152 9.6057 16.1015C9.7389 11.1911 16.1486 11.2064 16.2486 16.1015C16.2482 18.152 14.783 19.7991 12.9269 19.7991ZM24.8123 19.7991C22.9886 19.7991 21.491 18.152 21.491 16.1015C21.6374 11.2006 27.9671 11.1985 28.1339 16.1015C28.1335 18.152 26.6683 19.7991 24.8123 19.7991Z" fill="#08EF9C"/>
</svg>
