<svg width="34" height="34" viewBox="0 0 34 34" fill="none" xmlns="http://www.w3.org/2000/svg">
<path d="M0 21.539C0 22.4407 0.358213 23.3055 0.995837 23.9432C1.63346 24.5808 2.49826 24.939 3.4 24.939C4.30174 24.939 5.16654 24.5808 5.80416 23.9432C6.44179 23.3055 6.8 22.4407 6.8 21.539V18.139H3.4C2.49826 18.139 1.63346 18.4972 0.995837 19.1348C0.358213 19.7725 0 20.6373 0 21.539ZM21.488 15.861C22.3897 15.861 23.2545 15.5028 23.8922 14.8652C24.5298 14.2275 24.888 13.3627 24.888 12.461V3.4C24.888 2.49826 24.5298 1.63346 23.8922 0.995837C23.2545 0.358213 22.3897 0 21.488 0C20.5863 0 19.7215 0.358213 19.0838 0.995837C18.4462 1.63346 18.088 2.49826 18.088 3.4V12.461C18.088 12.9104 18.177 13.3553 18.35 13.77C18.523 14.1848 18.7765 14.5611 19.0958 14.8773C19.4152 15.1934 19.794 15.4432 20.2104 15.612C20.6269 15.7809 21.0727 15.8655 21.522 15.861H21.488ZM33.932 12.461C33.932 11.5593 33.5738 10.6945 32.9362 10.0568C32.2985 9.41921 31.4337 9.061 30.532 9.061C29.6303 9.061 28.7655 9.41921 28.1278 10.0568C27.4902 10.6945 27.132 11.5593 27.132 12.461V15.861H30.532C30.9842 15.87 31.4336 15.7888 31.854 15.622C32.2744 15.4552 32.6573 15.2062 32.9802 14.8895C33.3032 14.5729 33.5597 14.195 33.7348 13.778C33.9099 13.361 34.0001 12.9133 34 12.461H33.932ZM12.478 18.139C11.5763 18.139 10.7115 18.4972 10.0738 19.1348C9.43621 19.7725 9.078 20.6373 9.078 21.539V30.6C9.078 31.5017 9.43621 32.3665 10.0738 33.0042C10.7115 33.6418 11.5763 34 12.478 34C13.3797 34 14.2445 33.6418 14.8822 33.0042C15.5198 32.3665 15.878 31.5017 15.878 30.6V21.539C15.878 20.6373 15.5198 19.7725 14.8822 19.1348C14.2445 18.4972 13.3797 18.139 12.478 18.139ZM21.522 27.2H18.122V30.6C18.122 31.2725 18.3214 31.9298 18.695 32.4889C19.0686 33.0481 19.5996 33.4838 20.2209 33.7412C20.8421 33.9985 21.5258 34.0659 22.1853 33.9347C22.8448 33.8035 23.4507 33.4797 23.9262 33.0042C24.4017 32.5287 24.7255 31.9228 24.8567 31.2633C24.9879 30.6038 24.9205 29.9201 24.6632 29.2989C24.4059 28.6776 23.9701 28.1466 23.4109 27.773C22.8518 27.3994 22.1945 27.2 21.522 27.2ZM30.6 18.139H21.522C20.6203 18.139 19.7555 18.4972 19.1178 19.1348C18.4802 19.7725 18.122 20.6373 18.122 21.539C18.122 22.4407 18.4802 23.3055 19.1178 23.9432C19.7555 24.5808 20.6203 24.939 21.522 24.939H30.6C31.5017 24.939 32.3665 24.5808 33.0042 23.9432C33.6418 23.3055 34 22.4407 34 21.539C34 20.6373 33.6418 19.7725 33.0042 19.1348C32.3665 18.4972 31.5017 18.139 30.6 18.139ZM12.478 9.061H3.4C2.49826 9.061 1.63346 9.41921 0.995837 10.0568C0.358213 10.6945 0 11.5593 0 12.461C0 13.3627 0.358213 14.2275 0.995837 14.8652C1.63346 15.5028 2.49826 15.861 3.4 15.861H12.478C13.3797 15.861 14.2445 15.5028 14.8822 14.8652C15.5198 14.2275 15.878 13.3627 15.878 12.461C15.878 11.5593 15.5198 10.6945 14.8822 10.0568C14.2445 9.41921 13.3797 9.061 12.478 9.061ZM12.478 0C11.5763 0 10.7115 0.358213 10.0738 0.995837C9.43621 1.63346 9.078 2.49826 9.078 3.4C9.078 4.30174 9.43621 5.16654 10.0738 5.80416C10.7115 6.44179 11.5763 6.8 12.478 6.8H15.878V3.4C15.878 2.49826 15.5198 1.63346 14.8822 0.995837C14.2445 0.358213 13.3797 0 12.478 0Z" fill="#08EF9C"/>
</svg>
