<svg width="22" height="22" viewBox="0 0 22 22" fill="none" xmlns="http://www.w3.org/2000/svg">
<path d="M3.7599 9.58998C4.02511 9.62445 4.29316 9.55216 4.50508 9.38901C4.71699 9.22585 4.85542 8.98519 4.88989 8.71998C4.92437 8.45476 4.85208 8.18671 4.68893 7.97479C4.52577 7.76288 4.28511 7.62445 4.01989 7.58998L2.25989 7.14998C2.13158 7.11064 1.99666 7.09753 1.86318 7.11144C1.72969 7.12535 1.60037 7.16598 1.48292 7.23092C1.36547 7.29586 1.2623 7.38378 1.17954 7.48943C1.09679 7.59509 1.03614 7.71632 1.00123 7.8459C0.966315 7.97549 0.957842 8.11078 0.976316 8.24371C0.99479 8.37664 1.03983 8.50449 1.10876 8.61965C1.17769 8.7348 1.26909 8.8349 1.37752 8.91399C1.48595 8.99307 1.60919 9.04952 1.73989 9.07998L3.49989 9.54998C3.58367 9.57793 3.67159 9.59146 3.7599 9.58998ZM7.61989 3.99998C7.6785 4.21814 7.80923 4.41003 7.99082 4.5444C8.1724 4.67878 8.39413 4.74771 8.61989 4.73998C8.70601 4.7538 8.79378 4.7538 8.8799 4.73998C9.13371 4.66976 9.34958 4.50226 9.48064 4.27384C9.6117 4.04543 9.64736 3.77453 9.5799 3.51998L9.10989 1.75998C9.07944 1.62927 9.02299 1.50603 8.94391 1.3976C8.86482 1.28917 8.76472 1.19777 8.64956 1.12884C8.53441 1.05991 8.40656 1.01487 8.27363 0.996397C8.1407 0.977923 8.00541 0.986396 7.87582 1.02131C7.74624 1.05622 7.62501 1.11687 7.51935 1.19962C7.4137 1.28238 7.32578 1.38555 7.26084 1.503C7.1959 1.62045 7.15527 1.74977 7.14136 1.88326C7.12745 2.01674 7.14056 2.15166 7.1799 2.27998L7.61989 3.99998ZM12.4499 14C12.3565 13.9016 12.244 13.8233 12.1194 13.7698C11.9948 13.7163 11.8605 13.6887 11.7249 13.6887C11.5893 13.6887 11.455 13.7163 11.3304 13.7698C11.2058 13.8233 11.0933 13.9016 10.9999 14L7.4999 17.56C7.08838 17.9548 6.54017 18.1752 5.96989 18.1752C5.39961 18.1752 4.85141 17.9548 4.43989 17.56C4.23732 17.36 4.07648 17.1218 3.9667 16.8591C3.85692 16.5965 3.80039 16.3146 3.80039 16.03C3.80039 15.7453 3.85692 15.4635 3.9667 15.2008C4.07648 14.9382 4.23732 14.7 4.43989 14.5L7.9999 11C8.10458 10.9103 8.1896 10.8 8.24962 10.6759C8.30964 10.5519 8.34337 10.4167 8.34869 10.279C8.35401 10.1413 8.33081 10.004 8.28053 9.87565C8.23026 9.74733 8.154 9.63078 8.05655 9.53333C7.95909 9.43587 7.84254 9.35961 7.71422 9.30934C7.58589 9.25906 7.44856 9.23586 7.31084 9.24118C7.17312 9.2465 7.03799 9.28023 6.91393 9.34025C6.78986 9.40027 6.67954 9.48529 6.5899 9.58998L2.99989 13.08C2.61118 13.4687 2.30284 13.9302 2.09247 14.438C1.8821 14.9459 1.77382 15.4903 1.77382 16.04C1.77382 16.5897 1.8821 17.134 2.09247 17.6419C2.30284 18.1498 2.61118 18.6113 2.99989 19C3.38861 19.3887 3.85008 19.697 4.35795 19.9074C4.86583 20.1178 5.41017 20.226 5.9599 20.226C6.50962 20.226 7.05396 20.1178 7.56184 19.9074C8.06971 19.697 8.53118 19.3887 8.9199 19L12.4499 15.47C12.5514 15.3763 12.6324 15.2627 12.6878 15.1362C12.7432 15.0097 12.7718 14.8731 12.7718 14.735C12.7718 14.5969 12.7432 14.4603 12.6878 14.3338C12.6324 14.2073 12.5514 14.0936 12.4499 14ZM4.17989 5.58998C4.36616 5.77472 4.61756 5.87887 4.87989 5.87998C5.0115 5.88074 5.14196 5.85551 5.2638 5.80575C5.38564 5.75598 5.49646 5.68266 5.5899 5.58998C5.77615 5.40261 5.88069 5.14916 5.88069 4.88498C5.88069 4.62079 5.77615 4.36734 5.5899 4.17998L4.2999 2.88998C4.10859 2.72615 3.86252 2.64054 3.61084 2.65026C3.35917 2.65999 3.12043 2.76432 2.94233 2.94241C2.76424 3.12051 2.6599 3.35925 2.65018 3.61092C2.64046 3.8626 2.72607 4.10867 2.88989 4.29998L4.17989 5.58998ZM20.2599 12.92L18.4999 12.45C18.3695 12.4049 18.2311 12.3873 18.0936 12.3983C17.956 12.4093 17.8222 12.4486 17.7006 12.5138C17.579 12.5791 17.4722 12.6687 17.3869 12.7772C17.3017 12.8858 17.2398 13.0107 17.2052 13.1443C17.1706 13.2779 17.164 13.4172 17.1858 13.5535C17.2077 13.6897 17.2575 13.82 17.3321 13.936C17.4068 14.0521 17.5047 14.1515 17.6196 14.2279C17.7345 14.3043 17.864 14.3561 17.9999 14.38L19.7599 14.85H20.0199C20.2851 14.8845 20.5532 14.8122 20.7651 14.649C20.977 14.4858 21.1154 14.2452 21.1499 13.98C21.1844 13.7148 21.1121 13.4467 20.9489 13.2348C20.7858 13.0229 20.5451 12.8845 20.2799 12.85L20.2599 12.92ZM14.3799 18C14.3452 17.8732 14.2858 17.7545 14.2052 17.6507C14.1246 17.5469 14.0243 17.46 13.91 17.395C13.7958 17.33 13.6698 17.2881 13.5394 17.2718C13.409 17.2555 13.2766 17.2651 13.1499 17.3C12.8961 17.3702 12.6802 17.5377 12.5492 17.7661C12.4181 17.9945 12.3824 18.2654 12.4499 18.52L12.9199 20.28C12.9785 20.4981 13.1092 20.69 13.2908 20.8244C13.4724 20.9588 13.6941 21.0277 13.9199 21.02C14.0063 21.0298 14.0935 21.0298 14.1799 21.02C14.3076 20.9863 14.4273 20.9277 14.5322 20.8476C14.6372 20.7674 14.7252 20.6673 14.7912 20.5529C14.8572 20.4386 14.8999 20.3123 14.9168 20.1813C14.9338 20.0504 14.9246 19.9174 14.8899 19.79L14.3799 18ZM17.8199 16.43C17.6286 16.2661 17.3825 16.1805 17.1308 16.1903C16.8792 16.2 16.6404 16.3043 16.4623 16.4824C16.2842 16.6605 16.1799 16.8992 16.1702 17.1509C16.1605 17.4026 16.2461 17.6487 16.4099 17.84L17.6999 19.13C17.8873 19.3162 18.1407 19.4208 18.4049 19.4208C18.6691 19.4208 18.9225 19.3162 19.1099 19.13C19.2961 18.9426 19.4007 18.6892 19.4007 18.425C19.4007 18.1608 19.2961 17.9073 19.1099 17.72L17.8199 16.43ZM20.1999 5.99998C20.2154 5.16841 19.9814 4.35128 19.5279 3.65408C19.0744 2.95687 18.4224 2.4116 17.6559 2.08865C16.8895 1.76571 16.0438 1.67993 15.2281 1.84237C14.4124 2.00482 13.6641 2.40804 13.0799 2.99998L9.5499 6.55998C9.45534 6.65518 9.38047 6.76808 9.32955 6.89223C9.27863 7.01637 9.25266 7.14933 9.25313 7.28351C9.25359 7.41769 9.28048 7.55047 9.33226 7.67426C9.38403 7.79805 9.45969 7.91042 9.5549 8.00498C9.6501 8.09953 9.763 8.1744 9.88715 8.22532C10.0113 8.27624 10.1442 8.30221 10.2784 8.30174C10.4126 8.30128 10.5454 8.27439 10.6692 8.22261C10.793 8.17084 10.9053 8.09518 10.9999 7.99998L14.4999 4.43998C14.9114 4.04517 15.4596 3.82472 16.0299 3.82472C16.6002 3.82472 17.1484 4.04517 17.5599 4.43998C17.7625 4.63997 17.9233 4.8782 18.0331 5.14084C18.1429 5.40348 18.1994 5.68531 18.1994 5.96998C18.1994 6.25464 18.1429 6.53647 18.0331 6.79911C17.9233 7.06176 17.7625 7.29998 17.5599 7.49998L13.9999 11C13.8136 11.1873 13.7091 11.4408 13.7091 11.705C13.7091 11.9692 13.8136 12.2226 13.9999 12.41C14.1873 12.5962 14.4407 12.7008 14.7049 12.7008C14.9691 12.7008 15.2225 12.5962 15.4099 12.41L18.9999 8.91998C19.7653 8.14032 20.1959 7.09254 20.1999 5.99998Z" fill="#F2F4F8"/>
</svg>
