<svg width="17" height="21" viewBox="0 0 17 21" fill="none" xmlns="http://www.w3.org/2000/svg">
<path d="M13.7541 12.0002C14.9961 12.0002 16.0029 13.007 16.0029 14.2491V14.8245C16.0029 15.7188 15.6833 16.5836 15.1018 17.263C13.5324 19.0965 11.1453 20.0013 7.9999 20.0013C4.85401 20.0013 2.468 19.0962 0.901698 17.2619C0.321938 16.583 0.00341797 15.7195 0.00341797 14.8267V14.2491C0.00341797 13.007 1.01027 12.0002 2.25229 12.0002H13.7541ZM13.7541 13.5002H2.25229C1.8387 13.5002 1.50342 13.8355 1.50342 14.2491V14.8267C1.50342 15.3624 1.69453 15.8805 2.04239 16.2878C3.29569 17.7555 5.26157 18.5013 7.9999 18.5013C10.7382 18.5013 12.7058 17.7555 13.9623 16.2876C14.3112 15.8799 14.5029 15.361 14.5029 14.8245V14.2491C14.5029 13.8355 14.1676 13.5002 13.7541 13.5002ZM7.9999 0.00488281C10.7613 0.00488281 12.9999 2.24346 12.9999 5.00488C12.9999 7.76631 10.7613 10.0049 7.9999 10.0049C5.23845 10.0049 2.99988 7.76631 2.99988 5.00488C2.99988 2.24346 5.23845 0.00488281 7.9999 0.00488281ZM7.9999 1.50488C6.0669 1.50488 4.49988 3.07189 4.49988 5.00488C4.49988 6.93788 6.0669 8.5049 7.9999 8.5049C9.9329 8.5049 11.4999 6.93788 11.4999 5.00488C11.4999 3.07189 9.9329 1.50488 7.9999 1.50488Z" fill="#F2F4F8"/>
</svg>
