<svg width="19" height="20" viewBox="0 0 19 20" fill="none" xmlns="http://www.w3.org/2000/svg">
<path d="M11.3557 1.59534C11.4445 1.48261 11.6098 1.46762 11.7175 1.56254L12.6385 2.37473L9.7383 6H11.6592L13.7648 3.36797L15.417 4.82489C15.5186 4.9145 15.5304 5.06873 15.4435 5.1727L14.7523 6H16.6965C17.1905 5.27893 17.0778 4.28948 16.4091 3.69984L12.7096 0.43749C11.9561 -0.22695 10.7991 -0.122042 10.1775 0.66709L5.9762 6H7.8858L11.3557 1.59534ZM13.25 13C12.8358 13 12.5 13.3358 12.5 13.75C12.5 14.1642 12.8358 14.5 13.25 14.5H15.25C15.6642 14.5 16 14.1642 16 13.75C16 13.3358 15.6642 13 15.25 13H13.25ZM1.5 6.25C1.5 5.83579 1.83579 5.5 2.25 5.5H5.37844L6.57 4H2.25C1.00736 4 0 5.00736 0 6.25V16.75C0 18.5449 1.45507 20 3.25 20H15.25C17.0449 20 18.5 18.5449 18.5 16.75V10.25C18.5 8.45507 17.0449 7 15.25 7H2.25C1.83579 7 1.5 6.66421 1.5 6.25ZM1.5 16.75V8.37197C1.73458 8.45488 1.98702 8.5 2.25 8.5H15.25C16.2165 8.5 17 9.2835 17 10.25V16.75C17 17.7165 16.2165 18.5 15.25 18.5H3.25C2.2835 18.5 1.5 17.7165 1.5 16.75Z" fill="#F2F4F8"/>
</svg>
