<svg width="39" height="38" viewBox="0 0 39 38" fill="none" xmlns="http://www.w3.org/2000/svg">
<path d="M14.8577 35.8498L21.9827 32.8256C22.2493 34.586 21.3067 36.371 19.5921 37.0988C17.8775 37.8266 15.9389 37.2646 14.8577 35.8498ZM25.7231 0.188821C29.8945 2.46792 33.0261 5.39416 35.0865 8.963C37.1469 12.5318 38.1155 16.707 38.0035 21.4592C37.9839 22.2874 37.2967 22.9428 36.4685 22.9234C35.6403 22.9038 34.9847 22.2166 35.0043 21.3884C35.1037 17.1658 34.2613 13.5337 32.4885 10.463C30.7155 7.3923 27.9913 4.84668 24.2847 2.82152C23.5577 2.42432 23.2903 1.51298 23.6875 0.78598C24.0847 0.0589804 24.9961 -0.208379 25.7231 0.188821ZM7.42337 9.03192C13.1469 6.48366 19.8317 8.89318 22.6223 14.523L22.8189 14.9418L25.3937 20.7256L28.7903 23.665C28.9757 23.8256 29.1363 24.0124 29.3225 24.3146L29.4399 24.5432C29.9987 25.8058 29.4281 27.2824 28.1655 27.8412L7.51224 36.9814C7.19358 37.1224 6.84896 37.1954 6.50048 37.1954C5.11976 37.1954 4.00048 36.076 4.00048 34.696L3.99832 30.0102L1.51357 24.4274C-1.11343 18.5272 1.53193 11.655 7.42337 9.03192ZM25.2479 7.39012C27.1819 8.44466 28.7319 9.97938 29.8805 11.9687C31.0289 13.9581 31.5831 16.0678 31.5293 18.27C31.5091 19.0982 30.8215 19.7532 29.9933 19.733C29.1651 19.7128 28.5101 19.025 28.5303 18.1968C28.5703 16.5536 28.1589 14.9869 27.2823 13.4687C26.4059 11.9506 25.2549 10.8109 23.8117 10.024C23.0845 9.6274 22.8163 8.71628 23.2129 7.98896C23.6095 7.26162 24.5207 6.99352 25.2479 7.39012Z" fill="url(#paint0_linear_170_2841)"/>
<defs>
<linearGradient id="paint0_linear_170_2841" x1="33.4113" y1="30.9835" x2="5.16512" y2="6.36284" gradientUnits="userSpaceOnUse">
<stop stop-color="#FF6108"/>
<stop offset="1" stop-color="#FFC837"/>
<stop offset="1" stop-color="#FFC837"/>
</linearGradient>
</defs>
</svg>
