<svg width="12" height="11" viewBox="0 0 12 11" fill="none" xmlns="http://www.w3.org/2000/svg">
<path fill-rule="evenodd" clip-rule="evenodd" d="M6.01645 4.98112L6.01643 4.98115C4.93793 4.44039 4.54323 3.72277 4.80401 2.84434C5.03376 2.07029 5.80803 1.56365 6.59666 1.68278C6.99001 1.74213 7.33597 1.9032 7.60557 2.21049C8.01363 2.67594 8.10575 3.21923 7.98121 3.82427L8.91257 4.07694C9.30925 2.98874 8.84389 1.7173 7.82782 1.06456C6.76986 0.385026 5.3991 0.528377 4.50059 1.41371C4.03148 1.87601 3.7748 2.44007 3.7151 3.09277C3.63066 4.01615 4.01224 4.76127 4.65332 5.39874L3.63402 7.10795C3.60071 7.11045 3.572 7.11218 3.54634 7.11373C3.49933 7.11656 3.46252 7.11878 3.42622 7.12397C2.75611 7.21897 2.28447 7.81476 2.39723 8.42251C2.52448 9.10915 3.14934 9.53065 3.79069 9.3626C4.47074 9.18447 4.83259 8.5282 4.57608 7.85382C4.48318 7.6097 4.54074 7.45326 4.65703 7.26121C4.98468 6.71997 5.30748 6.17576 5.63629 5.6214L5.63645 5.62113C5.76203 5.40942 5.88849 5.19623 6.01643 4.98115L6.01645 4.98116V4.98112ZM8.32424 5.79892L7.3386 4.06057C7.3549 4.01968 7.3708 3.9812 7.38607 3.94423L7.3861 3.94415C7.41844 3.86588 7.44796 3.79442 7.47256 3.72135C7.60286 3.33546 7.52418 2.9833 7.27658 2.67042C6.9736 2.28745 6.44501 2.14837 5.99458 2.3207C5.53987 2.4946 5.24893 2.94097 5.2687 3.43478C5.28882 3.93409 5.62387 4.37976 6.14286 4.46974C6.45365 4.52355 6.60586 4.67113 6.74376 4.92546C7.03689 5.46636 7.34064 6.00141 7.64471 6.537L7.64472 6.53702C7.76484 6.74861 7.88501 6.96028 8.00459 7.17243C9.02258 6.49394 9.86475 6.5155 10.4935 7.2223C11.0383 7.83481 11.0498 8.76766 10.5203 9.3933C9.89945 10.1267 9.06312 10.1558 8.10692 9.53652L7.34731 10.1722C8.31543 11.1385 9.69731 11.267 10.79 10.5148C11.8546 9.78194 12.2251 8.37514 11.6831 7.18735C11.2343 6.20405 9.98336 5.2856 8.32424 5.79892ZM6.12104 8.76506H8.11836C8.14623 8.80218 8.17226 8.83889 8.19768 8.87474C8.2507 8.94952 8.30105 9.02052 8.35981 9.08353C8.78283 9.53588 9.49714 9.55831 9.94928 9.13851C10.4179 8.70344 10.4391 7.97259 9.99628 7.51836C9.56295 7.07391 8.82237 7.03145 8.42003 7.50204C8.17565 7.78805 7.92521 7.82169 7.60081 7.81659C7.00788 7.80743 6.41465 7.80919 5.82158 7.81094C5.58366 7.81165 5.34577 7.81235 5.10794 7.81235C5.16187 8.98107 4.72008 9.7093 3.84383 9.88219C2.98577 10.0515 2.19553 9.61369 1.91734 8.81494C1.60131 7.90727 1.99214 7.18139 3.12131 6.60528L2.86551 5.67736C1.63478 5.94556 0.711445 7.13963 0.80675 8.48298C0.890972 9.6688 1.84752 10.7219 3.01737 10.9106C3.65274 11.0132 4.24971 10.9066 4.80361 10.5924C5.51609 10.1882 5.9296 9.55247 6.12104 8.76506Z" fill="#F2F4F8"/>
</svg>
