<svg width="12" height="12" viewBox="0 0 12 12" fill="none" xmlns="http://www.w3.org/2000/svg">
<path d="M0 7.602C0 7.92026 0.126428 8.22548 0.351472 8.45053C0.576515 8.67557 0.88174 8.802 1.2 8.802C1.51826 8.802 1.82348 8.67557 2.04853 8.45053C2.27357 8.22548 2.4 7.92026 2.4 7.602V6.402H1.2C0.88174 6.402 0.576515 6.52843 0.351472 6.75347C0.126428 6.97852 0 7.28374 0 7.602ZM7.584 5.598C7.90226 5.598 8.20749 5.47157 8.43253 5.24653C8.65757 5.02148 8.784 4.71626 8.784 4.398V1.2C8.784 0.88174 8.65757 0.576515 8.43253 0.351472C8.20749 0.126428 7.90226 0 7.584 0C7.26574 0 6.96052 0.126428 6.73547 0.351472C6.51043 0.576515 6.384 0.88174 6.384 1.2V4.398C6.38399 4.5566 6.41542 4.71363 6.47648 4.86001C6.53753 5.00639 6.627 5.13921 6.7397 5.2508C6.85241 5.36239 6.98612 5.45053 7.13309 5.51012C7.28007 5.56972 7.43741 5.59959 7.596 5.598H7.584ZM11.976 4.398C11.976 4.07974 11.8496 3.77452 11.6245 3.54947C11.3995 3.32443 11.0943 3.198 10.776 3.198C10.4577 3.198 10.1525 3.32443 9.92747 3.54947C9.70243 3.77452 9.576 4.07974 9.576 4.398V5.598H10.776C10.9356 5.60119 11.0942 5.57251 11.2426 5.51364C11.391 5.45476 11.5261 5.36688 11.6401 5.25513C11.7541 5.14338 11.8446 5.01001 11.9064 4.86283C11.9682 4.71565 12 4.55763 12 4.398H11.976ZM4.404 6.402C4.08574 6.402 3.78052 6.52843 3.55547 6.75347C3.33043 6.97852 3.204 7.28374 3.204 7.602V10.8C3.204 11.1183 3.33043 11.4235 3.55547 11.6485C3.78052 11.8736 4.08574 12 4.404 12C4.72226 12 5.02748 11.8736 5.25253 11.6485C5.47757 11.4235 5.604 11.1183 5.604 10.8V7.602C5.604 7.28374 5.47757 6.97852 5.25253 6.75347C5.02748 6.52843 4.72226 6.402 4.404 6.402ZM7.596 9.6H6.396V10.8C6.396 11.0373 6.46638 11.2693 6.59824 11.4667C6.73009 11.664 6.91751 11.8178 7.13678 11.9087C7.35605 11.9995 7.59733 12.0232 7.83011 11.9769C8.06289 11.9306 8.2767 11.8163 8.44453 11.6485C8.61235 11.4807 8.72664 11.2669 8.77294 11.0341C8.81925 10.8013 8.79548 10.5601 8.70466 10.3408C8.61383 10.1215 8.46002 9.93409 8.26268 9.80224C8.06535 9.67038 7.83334 9.6 7.596 9.6ZM10.8 6.402H7.596C7.27774 6.402 6.97252 6.52843 6.74747 6.75347C6.52243 6.97852 6.396 7.28374 6.396 7.602C6.396 7.92026 6.52243 8.22548 6.74747 8.45053C6.97252 8.67557 7.27774 8.802 7.596 8.802H10.8C11.1183 8.802 11.4235 8.67557 11.6485 8.45053C11.8736 8.22548 12 7.92026 12 7.602C12 7.28374 11.8736 6.97852 11.6485 6.75347C11.4235 6.52843 11.1183 6.402 10.8 6.402ZM4.404 3.198H1.2C0.88174 3.198 0.576515 3.32443 0.351472 3.54947C0.126428 3.77452 0 4.07974 0 4.398C0 4.71626 0.126428 5.02148 0.351472 5.24653C0.576515 5.47157 0.88174 5.598 1.2 5.598H4.404C4.72226 5.598 5.02748 5.47157 5.25253 5.24653C5.47757 5.02148 5.604 4.71626 5.604 4.398C5.604 4.07974 5.47757 3.77452 5.25253 3.54947C5.02748 3.32443 4.72226 3.198 4.404 3.198ZM4.404 0C4.08574 0 3.78052 0.126428 3.55547 0.351472C3.33043 0.576515 3.204 0.88174 3.204 1.2C3.204 1.51826 3.33043 1.82348 3.55547 2.04853C3.78052 2.27357 4.08574 2.4 4.404 2.4H5.604V1.2C5.604 0.88174 5.47757 0.576515 5.25253 0.351472C5.02748 0.126428 4.72226 0 4.404 0Z" fill="#F2F4F8"/>
</svg>
