<svg width="12" height="10" viewBox="0 0 12 10" fill="none" xmlns="http://www.w3.org/2000/svg">
<path d="M3.19504 7.20251C2.52332 7.71753 1.75233 8.09539 0.927946 8.31361C0.837144 8.34578 0.758692 8.40446 0.70325 8.48167C0.647809 8.55889 0.618067 8.6509 0.618067 8.74519C0.618067 8.83948 0.647809 8.93149 0.70325 9.00871C0.758692 9.08592 0.837144 9.1446 0.927946 9.17677C7.4376 11.7846 11.5767 7.75347 10.9464 3.28153L12 1.15116H10.7771C9.25315 -0.676185 5.20814 -0.584358 5.87603 3.30907C5.87603 3.30907 3.71242 3.68556 0.94676 1.03178C0.882785 0.970129 0.802048 0.927662 0.714112 0.909414C0.626176 0.891166 0.534725 0.8979 0.450588 0.928819C0.366452 0.959738 0.293156 1.01355 0.23938 1.08387C0.185604 1.1542 0.153602 1.2381 0.147164 1.32563C-0.14527 2.49903 0.00107655 3.73579 0.559851 4.81322C1.11863 5.89064 2.05311 6.73793 3.19504 7.20251Z" fill="#F2F4F8"/>
</svg>
