<svg width="32" height="30" viewBox="0 0 32 30" fill="none" xmlns="http://www.w3.org/2000/svg">
<path d="M12.3814 28.2082L18.3189 25.688C18.5411 27.155 17.7556 28.6425 16.3267 29.249C14.8979 29.8555 13.2824 29.3871 12.3814 28.2082ZM21.4359 -1.50932C24.9121 0.389934 27.5217 2.82847 29.2387 5.8025C30.9557 8.77653 31.7629 12.2558 31.6696 16.216C31.6532 16.9062 31.0806 17.4523 30.3904 17.4361C29.7002 17.4198 29.1539 16.8471 29.1702 16.157C29.2531 12.6381 28.5511 9.6114 27.0737 7.0525C25.5962 4.49358 23.3261 2.37223 20.2372 0.6846C19.6314 0.353601 19.4086 -0.40585 19.7396 -1.01168C20.0706 -1.61752 20.8301 -1.84032 21.4359 -1.50932ZM6.18614 5.85993C10.9557 3.73638 16.5264 5.74432 18.8519 10.4358L19.0157 10.7848L21.1614 15.6047L23.9919 18.0541C24.1464 18.188 24.2802 18.3437 24.4354 18.5955L24.5332 18.786C24.9989 19.8382 24.5234 21.0686 23.4712 21.5343L6.2602 29.1511C5.99465 29.2687 5.70747 29.3295 5.41707 29.3295C4.26647 29.3295 3.33374 28.3966 3.33374 27.2466L3.33194 23.3418L1.2613 18.6895C-0.927863 13.7726 1.2766 8.0458 6.18614 5.85993ZM21.0399 4.49177C22.6516 5.37055 23.9432 6.64948 24.9004 8.30727C25.8574 9.96507 26.3192 11.7231 26.2744 13.5583C26.2576 14.2485 25.6846 14.7943 24.9944 14.7775C24.3042 14.7607 23.7584 14.1875 23.7752 13.4973C23.8086 12.128 23.4657 10.8224 22.7352 9.55727C22.0049 8.29217 21.0457 7.34238 19.8431 6.68667C19.2371 6.35617 19.0136 5.5969 19.3441 4.9908C19.6746 4.38468 20.4339 4.16127 21.0399 4.49177Z" fill="url(#paint0_linear_193_2382)"/>
<defs>
<linearGradient id="paint0_linear_193_2382" x1="0.415039" y1="13.9259" x2="31.6768" y2="13.9259" gradientUnits="userSpaceOnUse">
<stop stop-color="#B3FFAB"/>
<stop offset="1" stop-color="#12FFF7"/>
</linearGradient>
</defs>
</svg>
