<svg width="14" height="10" viewBox="0 0 14 10" fill="none" xmlns="http://www.w3.org/2000/svg">
<path d="M12.2725 1.24872C10.557 -0.0357337 8.91353 0.000248674 8.91353 0.000248674L8.74552 0.192254C10.785 0.804547 11.7327 1.70485 11.7327 1.70485C8.81493 0.0972835 5.09826 0.108786 2.06333 1.70485C2.06333 1.70485 3.04702 0.756472 5.20643 0.144179L5.08647 0.000101285C5.08647 0.000101285 3.45494 -0.0358813 1.72747 1.24858C1.72747 1.24858 0 4.35782 0 8.18731C0 8.18731 1.00772 9.91594 3.65905 10C3.65905 10 4.10293 9.47176 4.4628 9.01564C2.93915 8.55952 2.36337 7.61114 2.36337 7.61114C3.32054 8.21046 4.28847 8.58562 5.49454 8.82364C7.45692 9.22785 9.89781 8.81228 11.7208 7.61114C11.7208 7.61114 11.121 8.58356 9.54943 9.02773C9.9093 9.47191 10.3412 9.98806 10.3412 9.98806C12.9923 9.90414 14 8.17551 14 8.18745C14 4.35797 12.2725 1.24872 12.2725 1.24872ZM4.76256 7.07111C4.0907 7.07111 3.53894 6.48286 3.53894 5.75052C3.58802 3.99682 5.94947 4.00227 5.98632 5.75052C5.98617 6.48286 5.44635 7.07111 4.76256 7.07111ZM9.14136 7.07111C8.4695 7.07111 7.91775 6.48286 7.91775 5.75052C7.97168 4.00021 10.3037 3.99947 10.3651 5.75052C10.365 6.48286 9.82516 7.07111 9.14136 7.07111Z" fill="#F2F4F8"/>
</svg>
