<svg  fill="#fff" id="图层_1" data-name="图层 1" xmlns="http://www.w3.org/2000/svg" viewBox="0 0 294 121"><path d="M66,70.5a27.51,27.51,0,0,1-1.25-2.56,8.94,8.94,0,0,1-.51-2.4c-.12-1.55.15-1.78,1.61-2.08A44,44,0,0,0,71,62.11a7.72,7.72,0,0,0-5.1-.29A1.2,1.2,0,0,1,64.22,61a13.93,13.93,0,0,1-.81-6c.14-1.53,1.43-1.62,2.26-2,3-1.23,6-2.35,9.41-2.13,1.14.07,1.34.65,1.29,1.54s-.15,2-.19,3c-.05,1.48-.47,1.91-1.94,2a8.81,8.81,0,0,0-2.69.65,28.1,28.1,0,0,0,3.59,1.31,2.12,2.12,0,0,1,1.74,1.69,22.54,22.54,0,0,1,.74,2.73,1.93,1.93,0,0,1-.4,1.23A11.38,11.38,0,0,1,71.56,69c-1.66.57-3.36,1-5,1.51Z"/><path d="M138.81,63.73c-2.52,3.45-5.82,4.77-9.46,5.51-2.16.44-2.21.45-2.66-1.7-.3-1.41-.47-2.86-.67-4.29-.1-.78.2-1.16,1.08-1.35,1.85-.39,3.66-1,5.49-1.48l-.06-.58-3.42-.32c-.12,0-.24.08-.36.1-2.31.4-3.29-.47-3.52-2.82-.18-1.81.33-2.95,2.15-3.65a37.81,37.81,0,0,1,8.29-2.25c1.16-.17,1.71.38,1.73,1.41a6.82,6.82,0,0,1-.4,2.55c-.14.39-.86.63-1.36.78-.9.26-1.83.4-2.74.58v.37c1,.29,1.91.56,2.86.87,1.13.39,2.09.8,2,2.37a7.53,7.53,0,0,0,.88,3.21c0-.28.08-.56.08-.84,0-2.77,0-5.53,0-8.29a1.41,1.41,0,0,1,1.2-1.64,31.26,31.26,0,0,1,3.16-.57c.22,0,.68.55.7.87.14,2.38.14,4.76.31,7.13s.42,4.47.71,6.7c.11.88-.24,1.25-1.06,1.33-1.25.12-2.5.28-3.75.3-.24,0-.66-.51-.72-.84C139.06,66.15,139,65.09,138.81,63.73Z"/><path d="M190.06,59.63q-.18,3.36-.38,6.74a1.27,1.27,0,0,1-1.23,1.39,20.34,20.34,0,0,0-3.84,1c-.86.34-1.31.17-1.51-.63A59.57,59.57,0,0,1,181.75,62c-.33-2.47-.34-5-.57-7.47a1.83,1.83,0,0,1,1.79-2.3c1.15-.16,2.29-.44,3.44-.6.91-.13,1.3.13,1,1.21a27.33,27.33,0,0,0-.49,3.74l.33.06c.19-.69.42-1.37.57-2.07.4-1.93,1.59-2.62,4.15-2.36l.86,4.89h.37a29.71,29.71,0,0,0,.65-3.71c.06-1,.46-1.26,1.3-1.26,1.19,0,2.38.05,3.56,0s1.43.46,1.27,1.43c-.33,1.92-.61,3.84-1,5.74-.44,2.1-1,4.17-1.54,6.23a1.76,1.76,0,0,1-1,.92c-.86.38-1.83.55-2.67,1-1.14.56-1.56.45-1.84-.8-.48-2.09-.91-4.2-1.36-6.29a7,7,0,0,0-.27-.77Z"/><path d="M159.14,68c-.18-3.43-.38-6.88-.52-10.33a13.36,13.36,0,0,1,.24-2.74c.18-1,.43-2,1.74-2.28a24.77,24.77,0,0,0,2.85-1.17,1.07,1.07,0,0,1,1.59.68c.79,2.08,1.62,4.15,2.44,6.21a2.58,2.58,0,0,0,.32.49l.39,0a37.1,37.1,0,0,0,0-4.22c-.27-2.4,0-2.84,2.57-3,.89,0,1.77,0,2.84,0,0,.64,0,1.24,0,1.83-.16,4.09-.34,8.17-.5,12.25a1.16,1.16,0,0,1-1,1.3c-1.25.28-2.45.76-3.74,1.17-1.2-2.73-2.42-5.49-3.64-8.25l-.38.06c.07,1.13.12,2.27.23,3.4.09.87.29,1.72.36,2.59,0,.29-.11.81-.29.87-1.52.5-3.07.94-4.63,1.36C159.77,68.27,159.56,68.13,159.14,68Z"/><path d="M111.81,65.69c-.1.91.08,1.9-.34,2.4s-1.44.51-2.2.72a10,10,0,0,1-2.4.6,1.54,1.54,0,0,1-1.14-1c-.35-2.85-.58-5.71-.82-8.57a26.15,26.15,0,0,1-.17-3.74,2.91,2.91,0,0,1,.9-1.86c1.59-1.27,3.28-2.42,5-3.55a1.61,1.61,0,0,1,1.33-.13c1.89,1,3.77,1.95,5.55,3.08a3.63,3.63,0,0,1,1,1.82,2.93,2.93,0,0,1-1,3.73,34.36,34.36,0,0,0-2.61,2.35c1.33,1.14,2.46,2.18,3.67,3.11.82.64.81,1.21.08,1.84s-1.69,1.37-2.5,2.09c-.55.49-.94.32-1.39-.13C113.8,67.56,112.84,66.67,111.81,65.69ZM111,61.12l2-1.84-2-1.85Z"/><path d="M98.49,65.27c-2-.22-2.15.22-2,1.67.09.86-.37,1.23-1.28,1.33-1.07.1-2.12.46-3.19.66a11.5,11.5,0,0,1-1.61.09,29.55,29.55,0,0,1,0-4.11A33.15,33.15,0,0,1,92.67,56a6.44,6.44,0,0,1,4.88-3.89,16.58,16.58,0,0,0,3.06-1c1.08-.51,1.82-.36,2.12.79a55.05,55.05,0,0,1,1.38,6.15c.37,2.77.49,5.56.71,8.34.09,1.11-.13,1.79-1.53,1.86a18.05,18.05,0,0,0-3.62.89c-1.06.3-1.3,0-1.2-1.09C98.56,67.19,98.49,66.27,98.49,65.27Zm-.59-6.42h-.38L97,62.06l.39.27c.31-.28.9-.56.9-.84A17,17,0,0,0,97.9,58.85Z"/><path d="M57.09,65.27c-2-.22-2.15.22-2,1.67.09.86-.36,1.23-1.28,1.33s-2.12.46-3.18.66A11.75,11.75,0,0,1,49,69a31.18,31.18,0,0,1,0-4.11A33.15,33.15,0,0,1,51.27,56a6.44,6.44,0,0,1,4.89-3.89,16.72,16.72,0,0,0,3.05-1c1.08-.51,1.82-.36,2.12.79a55.05,55.05,0,0,1,1.38,6.15c.37,2.77.49,5.56.71,8.34.09,1.11-.13,1.79-1.53,1.86a18.05,18.05,0,0,0-3.62.89c-1.06.3-1.3,0-1.2-1.09C57.16,67.19,57.09,66.27,57.09,65.27Zm-.59-6.42h-.38l-.57,3.22.39.27c.32-.28.9-.56.9-.84A17,17,0,0,0,56.5,58.85Z"/><path d="M239.17,61.21c-1.25,0-1.89.39-1.78,1.6a27.18,27.18,0,0,1,.17,3.12,1.46,1.46,0,0,1-.66,1.12c-1.47.55-3,1-4.5,1.41-.7.19-1.15-.13-1.11-.92l.45-7.61a39.36,39.36,0,0,1,.27-4.49c.4-2.38,1.14-3,3.62-3.28s2.37-.31,2.05,2.13c-.08.62,0,1.26-.05,1.89s-.14,1.22-.22,1.83c1.64.33,2,.05,2-1.56A33.75,33.75,0,0,1,239.7,53c.2-1.29,1.52-.9,2.31-1.28a5.33,5.33,0,0,1,2.09-.27c1-.05.94.69.92,1.38-.09,3.43-.2,6.85-.24,10.28,0,1.16.15,2.33.25,3.49.06.76-.15,1.1-1,1.2a17.08,17.08,0,0,0-3.27.84c-.65.21-1,.08-1.06-.57-.17-1.06-.41-2.12-.49-3.18S239.17,62.52,239.17,61.21Z"/><path d="M153.3,63c-.17-.2-.29-.52-.5-.58A1.24,1.24,0,0,1,152,60.6a1.88,1.88,0,0,1,1.41-.83,19.22,19.22,0,0,1,3.39.18c.74.09,1,.57,1,1.34,0,1.5.16,3,.14,4.48a1.89,1.89,0,0,1-.71,1.21,14.73,14.73,0,0,1-2.38,1.59,2.11,2.11,0,0,1-1.55.28c-2.14-1-4.22-2.08-6.33-3.11a2.58,2.58,0,0,1-1.65-2.5,43.55,43.55,0,0,0-.59-4.81,3,3,0,0,1,1.37-3A32.5,32.5,0,0,1,156,51c1.48-.46,1.9,0,1.57,1.46a20.28,20.28,0,0,0-.71,3.65c0,1.07-.63,1.25-1.41,1.57-1.63.67-3.23,1.45-4.84,2.2-.78.37-.76.94-.19,1.45.81.73,1.69,1.39,2.53,2.08Z"/><path d="M80.23,59.75c-.57,0-.78-.07-1-.06-2.3.16-2.37.16-2.46-2.08a32.21,32.21,0,0,1,.2-4.5,1.23,1.23,0,0,1,.73-.89,30,30,0,0,1,3.56-.57c2.62-.28,5.26-.52,7.88-.76a6.59,6.59,0,0,1,.77,0c.94,0,1.1.4.89,1.28a50,50,0,0,0-1.12,5.55c-.11.82-.4,1.21-1.15,1.37a4.46,4.46,0,0,1-.63,0c-2.84.14-2.89.14-2.82,3,.06,1.94.3,3.89.47,5.83,0,.64,0,1.18-.82,1.25-1.09.08-2.18.22-3.26.33-.79.07-1.28-.14-1.27-1.08C80.25,65.59,80.23,62.67,80.23,59.75Z"/><path d="M209.17,59.1c-.6.19-1,.32-1.45.47-.82.3-1.28-.12-1.32-.84-.09-1.62,0-3.24-.08-4.86,0-1.28.79-1.6,1.85-1.73,3.2-.37,6.4-.73,9.6-1.13,1.67-.22,1.95.06,1.57,1.67s-.76,3.2-1,4.83c-.17,1.05-.75,1.33-1.71,1.39-2.6.16-2.67.18-2.58,2.8a49.6,49.6,0,0,0,.55,5.56c.12.81,0,1.16-.87,1.24a25.1,25.1,0,0,0-2.85.42c-.9.2-1.43-.1-1.55-1a22.76,22.76,0,0,1-.13-2.62C209.15,63.31,209.17,61.28,209.17,59.1Z"/><path d="M231.54,52.91c-.14.81-.33,2.12-.62,3.41s-1.69,1-2.53,1.55c-.48.3-1.13.3-1.62.58a19.58,19.58,0,0,0-1.83,1.35,11.63,11.63,0,0,0,1.73,1.5,25.76,25.76,0,0,0,3.06,1.42,1.19,1.19,0,0,1,.8,1.74,19.43,19.43,0,0,0-.75,3.12c-.17.92-.69,1.16-1.43.75-2.38-1.33-4.79-2.65-7.06-4.17-.62-.41-.82-1.51-1.09-2.34a35.73,35.73,0,0,1-1.14-4.17,1.87,1.87,0,0,1,.44-1.42,17.38,17.38,0,0,1,10.82-5.35C231.55,50.75,231.55,50.77,231.54,52.91Z"/><path d="M200.19,58.08c.09-1.09.28-2.67.31-4.24,0-1.2.61-1.58,1.69-1.69a18.12,18.12,0,0,0,2.31-.45c.87-.2,1,.32,1.05,1,.19,4.2.32,8.4.59,12.59.16,2.47.25,2.46-2.28,2.46a7.55,7.55,0,0,0-1.26,0c-1.77.3-1.93.23-2-1.55C200.41,63.67,200.33,61.12,200.19,58.08Z"/></svg>