<svg fill="#fff" id="图层_1" data-name="图层 1" xmlns="http://www.w3.org/2000/svg" viewBox="0 0 294 121"><path d="M138.72,75.5a21.39,21.39,0,0,1-3.44-5.82c-.3-.67,0-.84.56-1a25.42,25.42,0,0,0,3.38-1,3,3,0,0,0,1.43-4.76c-.87-1.29-2-2.42-2.93-3.64a7.61,7.61,0,0,1,1.2-10.68,16.72,16.72,0,0,1,7.2-3,.91.91,0,0,1,1.15.6c.72,1.67,1.5,3.32,2.22,5,.11.25.18.68,0,.83a1,1,0,0,1-.85.17,4.16,4.16,0,0,0-3.42.78,2,2,0,0,0-.54,2.67,41.64,41.64,0,0,0,2.63,3.72,10.66,10.66,0,0,1,2.31,4.07,8.13,8.13,0,0,1-1.51,7.07,13.35,13.35,0,0,1-8.41,4.91c-.07,0-.12.1-.17.15Z"/><path d="M93.56,69.2a5.53,5.53,0,0,1,2.22-3.32,4.56,4.56,0,0,1,4.88-.19,4.81,4.81,0,0,1,2.52,4.1,4.78,4.78,0,0,1-9.45,1.28,1.54,1.54,0,0,0-.17-.34Z"/><path d="M200.44,74.47a37.68,37.68,0,0,1-8.16,0c-.28,0-.6-.46-.73-.78-1-2.44-2.07-4.89-3-7.37a1.72,1.72,0,0,0-1.89-1.19c-.59,0-1.19,0-2,0,.16,3.11.31,6.17.48,9.34-.75.07-1.42.19-2.08.19-1.92,0-3.85-.1-5.78-.16-.64,0-.78-.41-.77-1q.1-4.2.18-8.41c.06-3.88.15-7.76.15-11.64,0-1.86-.24-3.72-.32-5.59,0-1.14.15-1.31,1.29-1.33,4.21-.06,8.42-.19,12.63-.15a10,10,0,0,1,7.38,3,6.54,6.54,0,0,1,1.94,4.27,30.59,30.59,0,0,1-.13,4.17c-.23,2.31-1.67,3.9-3.45,5.19-.59.42-.57.75-.3,1.31q2.13,4.4,4.2,8.82A7.91,7.91,0,0,1,200.44,74.47ZM184.57,56.25c0,.88,0,1.76,0,2.63,0,.21.25.57.4.58a27.11,27.11,0,0,0,4.13,0,2.57,2.57,0,0,0,2.61-2.68c.21-2-.65-3.53-2.3-3.89a20.6,20.6,0,0,0-3.78-.35,1,1,0,0,0-1.1,1.16C184.61,54.54,184.57,55.39,184.57,56.25Z"/><path d="M129.06,74.72l-3.62-.24a1.09,1.09,0,0,1-1.08-.88c-.23-.8-.48-1.6-.66-2.42a.94.94,0,0,0-1-.79H115.4a1.05,1.05,0,0,0-1.11.85c-.12.43-.26.85-.37,1.29-.46,1.87-.62,2.07-2.53,2.1s-3.52-.07-5.28-.16c-.88,0-1.08-.39-.78-1.23q2.06-5.89,4.16-11.77c1.75-4.87,3.54-9.72,5.31-14.57.39-1.07.94-1.22,2.45-1a17.79,17.79,0,0,0,3.72,0c1.19-.11,1.59,0,2,1.1q3.52,8.85,7,17.71c1.09,2.81,2.09,5.66,3.11,8.5.34,1,.17,1.19-.86,1.29Zm-9.8-18.42-.32.05c-.69,2.08-1.39,4.15-2.07,6.23-.18.55,0,.85.67.83,1,0,1.93,0,2.9,0,.63,0,.77-.32.64-.79C120.5,60.51,119.87,58.4,119.26,56.3Z"/><path d="M158.94,53.06l-5.64.29c-.2,0-.45.07-.59,0s-.44-.39-.42-.56c.24-1.86.52-3.71.81-5.56a1,1,0,0,1,1.29-1c2.89.17,5.79.33,8.68.33,2.66,0,5.33-.19,8-.32.51,0,1-.11,1.52-.16s.73.14.7.67q0,1.06,0,2.13c0,1.13.07,2.26.18,3.38.08.82-.26,1-1,1-1.43-.13-2.87-.23-4.31-.33-.31,0-.62,0-1,0v10c0,.12,0,.23,0,.34,0,3.46.1,6.92.18,10.37,0,.71-.25.94-.92.95-1.48,0-2.95.13-4.43.15a14.31,14.31,0,0,1-2.53-.2,1,1,0,0,1-.65-.77c.06-3.51.23-7,.28-10.53,0-2.57-.07-5.15-.11-7.73C158.93,54.65,158.94,53.88,158.94,53.06Z"/></svg>