<svg  fill="#fff" id="图层_1" data-name="图层 1" xmlns="http://www.w3.org/2000/svg" viewBox="0 0 294 121"><defs><style>.cls-1{fill-rule:evenodd;}</style></defs><path d="M112.35,75.22H104V71.58h8.35a.87.87,0,0,0,.64-.27.85.85,0,0,0,.27-.64.5.5,0,0,0-.27-.51,1.56,1.56,0,0,0-.64-.12h-3.8a4.39,4.39,0,0,1-1.78-.36,4.58,4.58,0,0,1-1.45-1,5,5,0,0,1-1-1.45,4.62,4.62,0,0,1-.34-1.78,4.55,4.55,0,0,1,.34-1.78,4.75,4.75,0,0,1,1-1.45,4.64,4.64,0,0,1,3.23-1.32H116v3.64h-7.4a.88.88,0,0,0-.65.26.92.92,0,0,0-.26.65,1,1,0,0,0,.26.66.89.89,0,0,0,.65.27h3.8a4.91,4.91,0,0,1,1.76.32,4.48,4.48,0,0,1,1.45.87,4.42,4.42,0,0,1,1,1.35,4.16,4.16,0,0,1,.36,1.73,4.42,4.42,0,0,1-.36,1.78,5,5,0,0,1-1,1.45,4.56,4.56,0,0,1-1.45,1A4.36,4.36,0,0,1,112.35,75.22Zm15.06,0a6.25,6.25,0,0,1-2.49-.49,6.45,6.45,0,0,1-3.43-3.43,6.32,6.32,0,0,1-.49-2.49V64.56h-1.78V60.92H121V55.19h3.64v5.73h5.54v3.64h-5.54v4.25a2.77,2.77,0,0,0,.21,1.08,2.53,2.53,0,0,0,.59.87,2.89,2.89,0,0,0,.88.61,2.82,2.82,0,0,0,1.09.21h2.77v3.64Zm9.85,0h-3.65V60.89h.88l1.21,1.7a6.08,6.08,0,0,1,2-1.23,6.22,6.22,0,0,1,2.33-.44h3.23v3.64H140a2.81,2.81,0,0,0-1.08.21,2.57,2.57,0,0,0-.88.59,2.79,2.79,0,0,0-.81,2ZM150.64,57a2.31,2.31,0,0,1-.2.95,2.35,2.35,0,0,1-.53.78,2.58,2.58,0,0,1-.79.52,2.3,2.3,0,0,1-1,.19,2.42,2.42,0,0,1-1-.19,3,3,0,0,1-.78-.52,2.87,2.87,0,0,1-.52-.78,2.47,2.47,0,0,1-.18-.95,2.41,2.41,0,0,1,.18-.93,2.73,2.73,0,0,1,.52-.78,2.54,2.54,0,0,1,.78-.52,2.43,2.43,0,0,1,1-.2,2.31,2.31,0,0,1,1,.2A2.46,2.46,0,0,1,150.64,57ZM150,75.22h-3.68V60.89H150Zm18,0h-.89l-1.42-2a9.83,9.83,0,0,1-1.11.89,10.36,10.36,0,0,1-1.21.71,7.75,7.75,0,0,1-1.33.46,5.24,5.24,0,0,1-1.36.18,7.35,7.35,0,0,1-2.85-.56,7.23,7.23,0,0,1-3.9-4,8.26,8.26,0,0,1,0-6,7.5,7.5,0,0,1,1.57-2.41,7.2,7.2,0,0,1,2.33-1.59,7,7,0,0,1,2.85-.58,6.83,6.83,0,0,1,1,.08,4.35,4.35,0,0,1,1,.27,3.48,3.48,0,0,1,.92.47,2.63,2.63,0,0,1,.73.72V55.19H168Zm-3.68-7.29a3.66,3.66,0,0,0-.3-1.45,4,4,0,0,0-.78-1.24,3.54,3.54,0,0,0-1.16-.87,3.08,3.08,0,0,0-1.4-.34,3.74,3.74,0,0,0-1.42.27,3.35,3.35,0,0,0-1.15.78,3.44,3.44,0,0,0-.77,1.22,4.6,4.6,0,0,0-.28,1.63,4.25,4.25,0,0,0,.28,1.5,4,4,0,0,0,.77,1.24,3.52,3.52,0,0,0,1.15.84,3.27,3.27,0,0,0,1.42.31,3.19,3.19,0,0,0,1.4-.32,3.84,3.84,0,0,0,1.16-.87,4.2,4.2,0,0,0,.78-1.24A3.74,3.74,0,0,0,164.35,67.93ZM188,65.63a9.4,9.4,0,0,1-.35,2.55,9.65,9.65,0,0,1-1,2.29,10.06,10.06,0,0,1-1.5,1.94,9.76,9.76,0,0,1-1.94,1.5,10.1,10.1,0,0,1-2.31,1,9.61,9.61,0,0,1-2.54.33h-5.78V56h5.78a9.88,9.88,0,0,1,4.85,1.31,9.81,9.81,0,0,1,1.94,1.51,9.55,9.55,0,0,1,1.5,1.95,9.24,9.24,0,0,1,1,2.28A9.35,9.35,0,0,1,188,65.63Zm-3.84,0a5.61,5.61,0,0,0-.46-2.24,5.53,5.53,0,0,0-1.23-1.82,5.64,5.64,0,0,0-1.83-1.24,5.44,5.44,0,0,0-2.24-.46h-1.91V71.38h1.91a5.68,5.68,0,0,0,4.07-1.67,5.85,5.85,0,0,0,1.69-4.08Zm19.06,1.92V63.71a3.54,3.54,0,0,0-.31-1.48,3.77,3.77,0,0,0-2.05-2,3.54,3.54,0,0,0-1.48-.31,3.63,3.63,0,0,0-1.5.31,3.86,3.86,0,0,0-2.05,2,3.69,3.69,0,0,0-.29,1.48v3.84ZM207,75.22h-3.84V71.38H195.5v3.84h-3.83V63.71a7.45,7.45,0,0,1,.6-3,8,8,0,0,1,1.63-2.45,7.73,7.73,0,0,1,2.44-1.65,7.58,7.58,0,0,1,3-.6,7.45,7.45,0,0,1,3,.6,7.71,7.71,0,0,1,4.1,4.1,7.45,7.45,0,0,1,.6,3Zm23.5-9.51a9.54,9.54,0,0,1-.36,2.63,9.8,9.8,0,0,1-2.54,4.38,10,10,0,0,1-2,1.56,9.57,9.57,0,0,1-2.37,1,9.19,9.19,0,0,1-2.63.37,9.3,9.3,0,0,1-2.64-.37,9.9,9.9,0,0,1-2.37-1,9.71,9.71,0,0,1-2-1.56,10.47,10.47,0,0,1-1.57-2,10.35,10.35,0,0,1-1-2.37,9.54,9.54,0,0,1-.35-2.63,9.66,9.66,0,0,1,.35-2.64,10,10,0,0,1,1-2.37,10.47,10.47,0,0,1,1.57-2,10,10,0,0,1,2-1.55,9.9,9.9,0,0,1,2.37-1,9.67,9.67,0,0,1,2.64-.36,10.09,10.09,0,0,1,5,1.35,10.37,10.37,0,0,1,2,1.55,10,10,0,0,1,1.55,2,9.57,9.57,0,0,1,1,2.37A9.67,9.67,0,0,1,230.52,65.71Zm-3.81,0a5.91,5.91,0,0,0-.48-2.37A6.15,6.15,0,0,0,223,60.09a6,6,0,0,0-4.75,0,6.08,6.08,0,0,0-1.95,1.31A6,6,0,0,0,215,63.34a6.07,6.07,0,0,0,0,4.73A6.16,6.16,0,0,0,216.28,70a6.08,6.08,0,0,0,1.95,1.31,6,6,0,0,0,4.75,0A6,6,0,0,0,224.92,70a6.16,6.16,0,0,0,1.31-1.93A5.89,5.89,0,0,0,226.71,65.71Z"/><path d="M74.35,57.06A42.74,42.74,0,0,1,83.62,42.5c3.45,2.81,7.11,9.7,8.51,12.79-1.39,2.12-4.46,6.73-5.66,8.2-1.5,1.83-3.31,5.1-8.29,10.43-4,4.26-6.62,4.77-7.44,4.49C70.41,71.78,71.51,65.29,74.35,57.06Z"/><path d="M93.9,60.27c2.08,6.32,2.19,14.77,2,18.21-2.26.09-5.23,0-6.79-1.6s-1.41-5.2-.55-8.71C89.23,65.35,92.4,61.73,93.9,60.27Z"/><path d="M96.14,52.2c1.87,1.06,5.4-1.19,7.23-2.7-2.84,2.68-4.72,4.57-4.06,6.5.07.18.12.29.12.29a1.48,1.48,0,0,1-.12-.29,10.4,10.4,0,0,0-1.2-2.16,10.12,10.12,0,0,0-2-1.64,1,1,0,0,1-.19-.12Z"/><path class="cls-1" d="M103.32,49.44l.11.12a27.12,27.12,0,0,0-3.34,3.52A3.11,3.11,0,0,0,99.38,56c0,.09.07.16.09.22l0,.05v0h0l-.14.07c0-.1-.09-.2-.13-.3a9.67,9.67,0,0,0-1.18-2.14,10.32,10.32,0,0,0-2-1.62l-.19-.12L96,52h0l0,0,.13.09a2.52,2.52,0,0,0,1.61.22,7.27,7.27,0,0,0,1.95-.61A17.69,17.69,0,0,0,103.32,49.44ZM96.7,52.5a8.55,8.55,0,0,1,1.47,1.29,8.14,8.14,0,0,1,.93,1.56A3.8,3.8,0,0,1,100,53a19.89,19.89,0,0,1,2.34-2.57,17.1,17.1,0,0,1-2.5,1.47,7.37,7.37,0,0,1-2,.63A3.42,3.42,0,0,1,96.7,52.5Z"/><path d="M71.57,59.07,76,57c-1.25.07-9.68,3-11.7,6.58-2.52,4.51,1.54,4.65,6.15,4.5S85.66,62.61,88.31,61c2.12-1.33,7.25-5.62,8.84-6.83-.94.55-3.61,2.18-6.79,4.32-4,2.67-17.77,7.9-22.31,7C64.42,64.64,69.82,60.42,71.57,59.07Z"/></svg>