<svg  fill="#fff" id="图层_1" data-name="图层 1" xmlns="http://www.w3.org/2000/svg" viewBox="0 0 294 121"><path d="M143.92,55h-8.73l-1.53,3.55a5.67,5.67,0,0,0-.57,2,1.15,1.15,0,0,0,.49.9,4.34,4.34,0,0,0,2.12.51v.62h-7.1V62a3.85,3.85,0,0,0,1.83-.65,10.1,10.1,0,0,0,1.88-3.24l7.93-18.56h.59l7.84,18.76a8.44,8.44,0,0,0,1.73,2.93,3.45,3.45,0,0,0,2.15.76v.62h-8.9V62a3.23,3.23,0,0,0,1.82-.45,1.14,1.14,0,0,0,.48-.93,6.74,6.74,0,0,0-.67-2.31Zm-.47-1.23-3.82-9.12-3.93,9.12Z"/><path d="M169.18,40.63V40h8v.61h-.85a2.3,2.3,0,0,0-2,1.11,5.18,5.18,0,0,0-.35,2.4v9.15a16.43,16.43,0,0,1-.67,5.26,6.57,6.57,0,0,1-2.65,3.21,9.43,9.43,0,0,1-5.36,1.34,10.17,10.17,0,0,1-5.61-1.28,7,7,0,0,1-2.71-3.44,19.35,19.35,0,0,1-.53-5.56V44a4.44,4.44,0,0,0-.57-2.73,2.37,2.37,0,0,0-1.86-.65h-.84V40h9.74v.61H162a2.23,2.23,0,0,0-2,.88,4.89,4.89,0,0,0-.42,2.5v9.83a21.94,21.94,0,0,0,.24,3,6.53,6.53,0,0,0,.88,2.64,4.76,4.76,0,0,0,1.82,1.56,6.28,6.28,0,0,0,2.92.62,8,8,0,0,0,4-1,5.1,5.1,0,0,0,2.38-2.47,14.19,14.19,0,0,0,.64-5.09V44a4.7,4.7,0,0,0-.46-2.65,2.49,2.49,0,0,0-1.93-.73Z"/><path d="M193.15,58.23l-1.59,4.34h-13.3V62a60.63,60.63,0,0,0,8.27-8.75,11.09,11.09,0,0,0,2.39-6.2,5,5,0,0,0-1.31-3.53,4.21,4.21,0,0,0-3.15-1.38,4.89,4.89,0,0,0-3,1,5.73,5.73,0,0,0-2,2.85h-.61a7.71,7.71,0,0,1,2.14-4.72,6,6,0,0,1,4.3-1.65,6.38,6.38,0,0,1,4.58,1.76,5.59,5.59,0,0,1,1.83,4.16A8.12,8.12,0,0,1,191,48.9a22.53,22.53,0,0,1-4,5.7c-2.76,3-4.48,4.83-5.17,5.46h5.89a15.65,15.65,0,0,0,2.52-.14,3.37,3.37,0,0,0,1.31-.54,3.7,3.7,0,0,0,1-1.15Z"/><path d="M198.55,42.23,204,39.55h.55v19a10.58,10.58,0,0,0,.15,2.36,1.29,1.29,0,0,0,.66.72,5.7,5.7,0,0,0,2,.28v.62H199V62a5.72,5.72,0,0,0,2.06-.27,1.36,1.36,0,0,0,.65-.65,9,9,0,0,0,.18-2.44V46.42a18.2,18.2,0,0,0-.16-3.16,1.29,1.29,0,0,0-.43-.78,1.11,1.11,0,0,0-.74-.25,4.44,4.44,0,0,0-1.71.51Z"/><path d="M139.83,67.85l.3,4.44h-.3a5.57,5.57,0,0,0-1.71-2.87,4.12,4.12,0,0,0-2.66-.88,4.31,4.31,0,0,0-2.34.66,4.43,4.43,0,0,0-1.66,2.1,9.44,9.44,0,0,0-.6,3.6,7.61,7.61,0,0,0,.57,3.07,4.28,4.28,0,0,0,1.71,2,4.93,4.93,0,0,0,2.6.69,4.57,4.57,0,0,0,2.25-.54A7.35,7.35,0,0,0,140.13,78l.29.19a6.77,6.77,0,0,1-2.29,2.55,5.79,5.79,0,0,1-3.11.81,5.86,5.86,0,0,1-5-2.41,6.84,6.84,0,0,1-1.33-4.21,7.57,7.57,0,0,1,.87-3.6A6.34,6.34,0,0,1,132,68.75a6.5,6.5,0,0,1,3.35-.9,6.12,6.12,0,0,1,2.79.69,1.56,1.56,0,0,0,.58.21.63.63,0,0,0,.45-.18,1.44,1.44,0,0,0,.36-.72Z"/><path d="M150.13,76.83h-5.06l-.88,2.06a3.27,3.27,0,0,0-.33,1.14.65.65,0,0,0,.29.52,2.46,2.46,0,0,0,1.22.3v.35h-4.11v-.35a2.27,2.27,0,0,0,1.06-.38,5.85,5.85,0,0,0,1.09-1.88L148,67.85h.34l4.54,10.86a5,5,0,0,0,1,1.7,2.08,2.08,0,0,0,1.25.44v.35H150v-.35a2.06,2.06,0,0,0,1.06-.26.68.68,0,0,0,.27-.54,4.08,4.08,0,0,0-.38-1.34Zm-.27-.71-2.22-5.28-2.27,5.28Z"/><path d="M159.39,75.09v3.8a2.66,2.66,0,0,0,.27,1.53,1.39,1.39,0,0,0,1.11.43h.5v.35h-5.59v-.35h.49a1.31,1.31,0,0,0,1.18-.54,3.18,3.18,0,0,0,.19-1.42V70.46a2.65,2.65,0,0,0-.26-1.53,1.38,1.38,0,0,0-1.11-.43h-.49v-.35h4.78a8.46,8.46,0,0,1,2.76.36,3.76,3.76,0,0,1,1.71,1.21,3.17,3.17,0,0,1,.69,2,3.44,3.44,0,0,1-1.05,2.6,4.21,4.21,0,0,1-3,1,9.37,9.37,0,0,1-1-.07C160.2,75.24,159.81,75.18,159.39,75.09Zm0-.55c.34.06.64.11.91.14a4.32,4.32,0,0,0,.67,0A2.32,2.32,0,0,0,162.7,74a2.85,2.85,0,0,0,.73-2,3.65,3.65,0,0,0-.35-1.58,2.4,2.4,0,0,0-1-1.08,2.91,2.91,0,0,0-1.45-.36,5.73,5.73,0,0,0-1.26.18Z"/><path d="M172.4,80.85v.35h-5.6v-.35h.47a1.37,1.37,0,0,0,1.17-.48,2.85,2.85,0,0,0,.23-1.48V70.46a4.5,4.5,0,0,0-.12-1.31.94.94,0,0,0-.4-.42,1.86,1.86,0,0,0-.88-.23h-.47v-.35h5.6v.35h-.47a1.39,1.39,0,0,0-1.17.47,2.86,2.86,0,0,0-.24,1.49v8.43a4.07,4.07,0,0,0,.13,1.31.83.83,0,0,0,.4.41,1.74,1.74,0,0,0,.88.24Z"/><path d="M184.29,68.15l.14,3.06h-.36a3.75,3.75,0,0,0-.29-1.16,1.92,1.92,0,0,0-.8-.82,2.7,2.7,0,0,0-1.3-.27h-1.84v10a2.7,2.7,0,0,0,.26,1.5,1.46,1.46,0,0,0,1.13.41h.45v.35h-5.54v-.35h.47a1.31,1.31,0,0,0,1.17-.51,2.91,2.91,0,0,0,.21-1.4V69h-1.57a4.35,4.35,0,0,0-1.3.14,1.77,1.77,0,0,0-.85.7,2.9,2.9,0,0,0-.43,1.41h-.36l.15-3.06Z"/><path d="M192.37,76.83h-5.06l-.88,2.06A3.27,3.27,0,0,0,186.1,80a.64.64,0,0,0,.28.52,2.54,2.54,0,0,0,1.23.3v.35H183.5v-.35a2.27,2.27,0,0,0,1.06-.38,5.85,5.85,0,0,0,1.09-1.88l4.59-10.74h.34l4.54,10.86a5,5,0,0,0,1,1.7,2.07,2.07,0,0,0,1.24.44v.35h-5.15v-.35a2.09,2.09,0,0,0,1.06-.26.68.68,0,0,0,.27-.54,4.08,4.08,0,0,0-.38-1.34Zm-.27-.71-2.22-5.28-2.27,5.28Z"/><path d="M208.89,77.59l.32.07-1.12,3.54H198v-.35h.49a1.33,1.33,0,0,0,1.19-.54,3.21,3.21,0,0,0,.2-1.43V70.46a2.66,2.66,0,0,0-.27-1.53,1.39,1.39,0,0,0-1.12-.43H198v-.35h5.91v.35a3.85,3.85,0,0,0-1.46.19,1.21,1.21,0,0,0-.57.51,4.36,4.36,0,0,0-.15,1.48v8.2a2.76,2.76,0,0,0,.15,1.1.77.77,0,0,0,.36.3,6.65,6.65,0,0,0,1.5.09h.95a6.84,6.84,0,0,0,2.11-.22,2.82,2.82,0,0,0,1.11-.78A6.51,6.51,0,0,0,208.89,77.59Z"/><path d="M86.07,80.47,101.5,65a1.35,1.35,0,0,1,1.9,0l15.43,15.44"/><path d="M86.07,74.25a1.28,1.28,0,0,1-.9-2.18l16.38-16.38a1.27,1.27,0,0,1,.9-.38h0a1.27,1.27,0,0,1,.9.38l16.38,16.38a1.27,1.27,0,1,1-1.8,1.8L102.45,58.4,87,73.87A1.27,1.27,0,0,1,86.07,74.25Z"/><path d="M86.07,66.47a1.26,1.26,0,0,1-.9-.37,1.28,1.28,0,0,1,0-1.81l16.38-16.38a1.26,1.26,0,0,1,.9-.37h0a1.26,1.26,0,0,1,.9.37l16.38,16.38a1.28,1.28,0,0,1-1.8,1.81L102.45,50.62,87,66.1A1.26,1.26,0,0,1,86.07,66.47Z"/><path d="M118.83,58.7a1.25,1.25,0,0,1-.9-.38L102.45,42.85,87,58.32a1.27,1.27,0,1,1-1.8-1.8l16.38-16.38a1.26,1.26,0,0,1,.9-.37h0a1.26,1.26,0,0,1,.9.37l16.38,16.38a1.27,1.27,0,0,1,0,1.8A1.28,1.28,0,0,1,118.83,58.7Z"/></svg>