<svg fill="#fff" id="图层_1" data-name="图层 1" xmlns="http://www.w3.org/2000/svg" viewBox="0 0 294 121"><path d="M77,43A10,10,0,0,1,78.6,44.6C81.34,49.28,84,54,86.73,58.7q5.43,9.43,10.88,18.87c.66,1.15.52,2.17-.41,2.7s-1.82.15-2.47-1q-9.57-16.5-19.16-33c-.41-.7-.7-1.43-.19-2.12A7.75,7.75,0,0,1,77,43Z"/><path d="M202.78,54c0-1.86,0-3.73,0-5.59,0-1.08.35-1.4,1.45-1.42s1.53.32,1.53,1.43c0,3.63,0,7.26,0,10.89,0,.71.06,1.4-.86,1.66a2,2,0,0,1-2.35-.84c-1-1.74-1.94-3.5-2.9-5.26a2.22,2.22,0,0,0-.8-.9v3.78c0,.62,0,1.25,0,1.87,0,1.06-.39,1.42-1.44,1.44s-1.5-.4-1.5-1.48c0-3.6,0-7.19,0-10.79,0-.73-.1-1.49.86-1.75a2.07,2.07,0,0,1,2.46.84c.59,1,1.1,2,1.63,3S202,53,202.53,54.07Z"/><path d="M147.89,54.11c0,1.13.05,2.28,0,3.41a4.15,4.15,0,0,1-.44,1.58c-.83,1.66-3.12,2.43-5.58,1.95a3.78,3.78,0,0,1-3.27-3.73c-.08-2.14-.07-4.29,0-6.43a3.54,3.54,0,0,1,3.05-3.66,9.58,9.58,0,0,1,3.46,0,3.4,3.4,0,0,1,2.79,3.32c.09,1.16,0,2.34,0,3.52Zm-2.89,0h0V51.24a1.6,1.6,0,0,0-1.6-1.69A1.53,1.53,0,0,0,141.54,51c-.1,2-.1,4.07,0,6.1a1.54,1.54,0,0,0,1.86,1.49,1.6,1.6,0,0,0,1.59-1.7C145,56,145,55.06,145,54.13Z"/><path d="M158,56c-.37,0-.67-.06-1-.06a.85.85,0,0,1-.94-1.07c.09-.43.55-1.05.92-1.11a11.1,11.1,0,0,1,3.1,0,1.36,1.36,0,0,1,.88,1,19,19,0,0,1-.08,3.2,3.3,3.3,0,0,1-.39,1.17c-.85,1.65-3.12,2.43-5.59,1.95a3.8,3.8,0,0,1-3.28-3.73c-.07-2.17-.07-4.35,0-6.52a3.63,3.63,0,0,1,3-3.61,5.9,5.9,0,0,1,4.87.72A3.23,3.23,0,0,1,161,51.12c-.07.87-.65,1.06-1.38,1.05s-1.4,0-1.54-1c-.19-1.24-.69-1.68-1.79-1.65s-1.7.64-1.74,1.9c-.05,1.62,0,3.24,0,4.86s.66,2.41,2,2.32S158.19,57.74,158,56Z"/><path d="M186.74,49.51v3.36c.83,0,1.64,0,2.46,0s1.25.33,1.25,1.16-.48,1.13-1.27,1.1-1.57,0-2.43,0v3.38c1.52,0,3,0,4.47,0,1.17,0,1.53.32,1.52,1.32s-.33,1.26-1.56,1.26c-2,0-3.94,0-5.91,0-1.31,0-1.57-.27-1.57-1.59q0-5.49,0-11c0-1.2.27-1.48,1.46-1.49,2.1,0,4.21,0,6.32,0,.91,0,1.25.4,1.26,1.23s-.36,1.33-1.31,1.31C189.89,49.49,188.34,49.51,186.74,49.51Z"/><path d="M125.9,54.06c0-.83,0-1.66,0-2.49a10.07,10.07,0,0,1,.2-1.64c.47-2,2.16-3,4.77-2.93,2.37.06,4.06,1.26,4.42,3.15.22,1.15-.09,1.83-.9,2-1.24.25-1.77-.08-2.06-1.33a1.55,1.55,0,0,0-1.76-1.26c-.83,0-1.58.38-1.61,1.29-.07,2.14-.08,4.28,0,6.42,0,.94.76,1.33,1.66,1.36a1.5,1.5,0,0,0,1.69-1.45c.09-.72.31-1.24,1.12-1.38,1.36-.23,2.07.42,1.91,1.79a3.5,3.5,0,0,1-1.93,2.89,6,6,0,0,1-5.21.23C126.55,60,126,58.62,125.91,57c0-1,0-1.93,0-2.9Z"/><path d="M83,41.6c.94,0,1.39.62,1.8,1.34q3.69,6.44,7.39,12.86c.58,1,1.19,2,1.74,3.06A1.7,1.7,0,1,1,91,60.52q-4.68-8-9.33-16C80.8,43.06,81.51,41.6,83,41.6Z"/><path d="M174.13,49.63h-2.42c-.94,0-1.16-.65-1.14-1.4s.27-1.25,1.17-1.24q3.88,0,7.77,0c.9,0,1.15.52,1.16,1.25s-.21,1.38-1.14,1.39h-2.41v1.18c0,2.94,0,5.87,0,8.81,0,1-.4,1.42-1.44,1.44s-1.53-.38-1.53-1.45q0-4.35,0-8.7Z"/><path d="M215.34,49.63v9.89c0,1.15-.44,1.57-1.55,1.54s-1.43-.4-1.43-1.46c0-2.9,0-5.8,0-8.7V49.63c-.84,0-1.58,0-2.33,0-1,0-1.25-.61-1.24-1.42A1.11,1.11,0,0,1,210.07,47q3.8.06,7.57,0c.93,0,1.25.45,1.26,1.26s-.28,1.41-1.26,1.39C216.92,49.62,216.2,49.63,215.34,49.63Z"/><path d="M158.12,72.26c0,1.12,0,2.24,0,3.36,0,.73-.16,1.23-1,1.21s-.94-.48-.93-1.18c0-2.31,0-4.63,0-6.94a1.43,1.43,0,0,1,.57-1.11,1.2,1.2,0,0,1,1.61.52c.64,1.18,1.26,2.38,1.9,3.56a.78.78,0,0,0,.47.4c0-1.15,0-2.29,0-3.43,0-.7.14-1.13.95-1.14s1,.39,1,1.11c0,2.31,0,4.62,0,6.94,0,.51.08,1.09-.63,1.23a1.32,1.32,0,0,1-1.56-.73c-.6-1.12-1.22-2.24-1.84-3.36-.1-.16-.22-.31-.34-.47Z"/><path d="M184.42,73.24c0,.87,0,1.73,0,2.59s-.36,1-1,1a.83.83,0,0,1-.95-.95q0-3.74,0-7.47c0-.66.31-.92,1-.9s1.59,0,2.39,0c1.67,0,2.57.57,2.9,1.68a3.13,3.13,0,0,1-1.37,3.68c.43.79.84,1.62,1.32,2.4a.9.9,0,0,1-.38,1.45.88.88,0,0,1-1.35-.48,27.23,27.23,0,0,0-1.34-2.57c-.19-.3-.6-.47-.91-.7Zm.06-1.3a10,10,0,0,0,2.26-.92,1.43,1.43,0,0,0-.07-1.36,9.25,9.25,0,0,0-2.19-.66Z"/><path d="M164.58,53.94c0-1.83,0-3.66,0-5.49,0-1.13.36-1.46,1.51-1.45s1.46.34,1.46,1.4q0,5.6,0,11.19c0,1.08-.44,1.49-1.52,1.47s-1.45-.39-1.45-1.42C164.58,57.74,164.58,55.84,164.58,53.94Z"/><path d="M101.77,72.9c-.35.44-.64,1.13-1.1,1.28a3.1,3.1,0,0,1-1.81-.28c-.26-.09-.42-.52-.6-.81q-2.2-3.81-4.4-7.62c-.65-1.12-.49-2.12.38-2.64s1.81-.2,2.47,1q2.24,3.84,4.45,7.71C101.37,71.87,101.51,72.3,101.77,72.9Z"/><path d="M179.87,71.37c0,1,.06,2.07,0,3.1a2.52,2.52,0,0,1-2.54,2.38c-1.94.18-3.47-.44-3.61-1.81a61.26,61.26,0,0,1-.15-6.91c0-.2.69-.52,1.09-.57.61-.09.82.34.81.92,0,1.8,0,3.59,0,5.39,0,1.06.84,1.71,1.69,1.25a1.9,1.9,0,0,0,.81-1.36c.1-1.72.07-3.45,0-5.18,0-.74.23-1.08,1-1.07s.94.4.92,1.06c0,.93,0,1.86,0,2.8Z"/><path d="M193.18,69.16v2.29a9.3,9.3,0,0,1,1.76,0c.27,0,.66.44.65.68a1,1,0,0,1-.63.7,8.94,8.94,0,0,1-1.73,0v2.29c1,0,2,0,3,0,.58,0,.93.19.92.82s-.28.87-.9.85c-1.35,0-2.7,0-4,0-.76,0-1-.36-1-1.09q0-3.59,0-7.15c0-.81.33-1.12,1.12-1.1,1.31,0,2.63,0,3.94,0,.59,0,.93.19.92.82s-.28.87-.9.85C195.26,69.14,194.27,69.16,193.18,69.16Z"/><path d="M201.81,77.14a23.47,23.47,0,0,1-2.52-1.06.83.83,0,0,1-.13-1.41c.24-.21.83-.1,1.23,0a16.19,16.19,0,0,0,1.83.51,1.19,1.19,0,0,0,.87-.7c.09-.23-.19-.73-.45-.92-.59-.41-1.31-.64-1.89-1.06a4.54,4.54,0,0,1-1.43-1.43,2.24,2.24,0,0,1,1.36-3.26,10.36,10.36,0,0,1,3.34-.11c.67,0,1,.6.73,1.31s-.76.45-1.29.31a4.94,4.94,0,0,0-1.71-.14,1,1,0,0,0-.66.65c-.05.19.23.57.45.71.56.34,1.18.58,1.75.89A3,3,0,0,1,205,75C204.66,76.22,203.51,76.93,201.81,77.14Z"/><path d="M150.09,69.16c0,.39-.06.62-.07.86,0,1.39,0,1.4,1.39,1.42.52,0,1.12-.08,1.13.68s-.58.8-1.16.78c-.41,0-.82,0-1.2,0a2.42,2.42,0,0,0-.14.39c-.19,1.89-.19,1.89,1.72,1.89a6.56,6.56,0,0,1,1.54,0c.31.08.76.51.73.72s-.44.85-.71.86c-1.45.09-2.9,0-4.35,0a.78.78,0,0,1-.87-.9q0-3.78,0-7.56c0-.64.32-.85.89-.85h4.25c.56,0,.84.24.84.79s-.27.88-.89.87C152.19,69.15,151.19,69.16,150.09,69.16Z"/><path d="M112.34,54.8a6.37,6.37,0,0,1-1.22,1.35,1.33,1.33,0,0,1-1.85-.42c-1.42-2.32-2.8-4.66-4.11-7a1.46,1.46,0,0,1,.62-2,1.4,1.4,0,0,1,2,.21c1.5,2.39,2.86,4.87,4.26,7.32a1,1,0,0,1,.06.4Z"/><path d="M142.5,74.17c.51-1.89,1-3.78,1.52-5.67.18-.7.44-1.16,1.27-.93s.81.77.59,1.45c-.7,2.24-1.39,4.48-2,6.73a1.36,1.36,0,0,1-1.49,1.13,1.3,1.3,0,0,1-1.39-1.1c-.67-2.29-1.38-4.56-2.1-6.83-.21-.66-.17-1.15.58-1.38s1.11.17,1.3.89c.48,1.9,1,3.79,1.53,5.69Z"/><path d="M116.5,49a6.57,6.57,0,0,1-1.31,1.41,1.41,1.41,0,0,1-1.94-.47c-1.13-1.82-2.21-3.67-3.22-5.55a1.48,1.48,0,0,1,.65-2,1.45,1.45,0,0,1,2.07.13c1.27,1.93,2.35,4,3.5,6a.8.8,0,0,1,0,.31Z"/><path d="M104.42,54.32a3.76,3.76,0,0,1,1.16.9c.93,1.45,1.77,3,2.6,4.46a1.7,1.7,0,1,1-2.94,1.71c-.92-1.49-1.81-3-2.64-4.56C102,55.65,102.77,54.34,104.42,54.32Z"/><path d="M105.29,66.88c-.4.45-.72,1.06-1.22,1.33a1.34,1.34,0,0,1-1.84-.46c-1-1.68-2-3.37-2.94-5.11a1.48,1.48,0,0,1,.68-2,1.35,1.35,0,0,1,1.94.34c1.1,1.72,2.08,3.5,3.09,5.26a1.4,1.4,0,0,1,.09.51Z"/><path d="M169.06,69.19c0,2.25,0,4.31,0,6.38,0,.71-.1,1.25-.95,1.26s-1-.52-1-1.23c0-1.83,0-3.66,0-5.49,0-.73-.24-1-1-.92-.2,0-.47.08-.61,0-.31-.22-.77-.52-.78-.8a1.09,1.09,0,0,1,.72-.82c1.69-.08,3.39-.08,5.08,0a1.09,1.09,0,0,1,.75.79c0,.28-.42.71-.73.81A5.3,5.3,0,0,1,169.06,69.19Z"/><path d="M93.82,46.78c-.41.44-.76,1.11-1.26,1.27a1.79,1.79,0,0,1-1.63-.42,51.76,51.76,0,0,1-3-5.09,1.34,1.34,0,0,1,.7-1.76,1.32,1.32,0,0,1,1.88.23c1.09,1.67,2,3.44,3,5.17a1.3,1.3,0,0,1,.07.41Z"/><path d="M99.92,46.86c-.29.32-.63,1-1.1,1.1a2,2,0,0,1-1.69-.49,44.86,44.86,0,0,1-2.68-4.55,1.39,1.39,0,0,1,.61-2,1.3,1.3,0,0,1,1.86.31c1,1.6,1.91,3.27,2.85,4.92A4.47,4.47,0,0,1,99.92,46.86Z"/></svg>