<svg  fill="#fff" id="图层_1" data-name="图层 1" xmlns="http://www.w3.org/2000/svg" viewBox="0 0 294 121"><defs><style>.cls-1{fill:#fff;}</style></defs><path class="cls-1" d="M156.77,47.81h9.38V44.46h-9.38a9.38,9.38,0,1,0,0,18.75h9.38V52.93h-9.38v3.34h6v3.6h-6a6,6,0,0,1,0-12.06ZM115.65,83.88,125,65.15,110,89.51,92.58,69.8,89,74.12,105.1,86.34,86,73.89l5.82-9.44L86,43.64l2.88,21-2.19,6.27L86,48.51V73.89l6.09-8.83L110,89.51l26.89-14.69-21.2,9.06ZM92.71,59.62,86,43.64l6.1,20.24,16.64-27.63L88.91,42.63l17.36-4.76L92.71,59.62Zm42.74-12.88L125.08,65l11.78,9.79V44.06l-11.72,15.8L110.37,37.37l22.18,5.52-23.38-6.5,15.75,28.05,11.94-20.38L135,69.5l-7.43-4.76,7.85-18ZM92.63,63.81,109,36.57l15.49,28.14-31.58.14,26.82-2.37-11-23.76L92.63,63.81Zm13.5,19.56L92.64,65.06h31.84L110.1,88.62l10.76-21.55L94.36,66l11.77,17.39ZM134,43.24l-25-7.12,4-4.63-4.3,4.33L86,43.61,109.51,33l-11,5.59,9.55-3.82,4.86-3.31,22.53,11.85L113.18,32.15l-1.79,3.17L134,43.24Zm18.92,24.5L152.26,69l-1.51,3-1.51-3-.63-1.24h-1.39l.63,1.24,2.9,5.67L153.64,69l.63-1.24ZM156.31,69h5V67.74h-5a1.87,1.87,0,0,0-1.86,1.87v3.18a1.86,1.86,0,0,0,1.86,1.86h5V73.42h-5a.64.64,0,0,1-.64-.63V71.48h4.45V70.25h-4.45v-.64a.64.64,0,0,1,.64-.63ZM168,67.74v4.4l-4.44-3.42-1.23-1v6.88h1.23V70.29L168,73.71l1.24.94v-6.9Zm2.22,0V69h2.84v5.67h1.23V69h2.84V67.74Zm13.58,0V71.2a2.22,2.22,0,1,1-4.44,0V67.74h-1.24V71.2a3.46,3.46,0,0,0,6.91,0V67.74Zm6.81,3.72h0a1.34,1.34,0,0,0,.53-.14,1.87,1.87,0,0,0,1.09-1.71,1.9,1.9,0,0,0-.54-1.32,1.85,1.85,0,0,0-1.32-.55H186v6.91h1.23V71.48h1.24a1.21,1.21,0,0,1,1,.6l0,0,.67,1.29.63,1.23h1.38l-.63-1.23-1-2Zm-3.37-1.2V69h3.13a.63.63,0,0,1,.45.18.65.65,0,0,1,.19.45.64.64,0,0,1-.38.58.58.58,0,0,1-.26.06ZM195.1,69h5.05V67.74H195.1a1.86,1.86,0,0,0-1.85,1.87v3.18a1.86,1.86,0,0,0,1.85,1.86h5.05V73.42H195.1a.64.64,0,0,1-.63-.63V71.48h4.44V70.25h-4.44v-.64a.63.63,0,0,1,.63-.63Zm12.57.67v0a1.87,1.87,0,0,0-1.87-1.87H203a1.87,1.87,0,0,0-1.86,1.87v0a1.8,1.8,0,0,0,.33,1,1.76,1.76,0,0,0,.24.3,1.81,1.81,0,0,0,1.29.52h2.49a1,1,0,1,1,0,1.9h-2.16a.94.94,0,0,1-1-1h-1.24a2.18,2.18,0,0,0,2.19,2.18h2.16a2.18,2.18,0,0,0,2.18-2.18,2.21,2.21,0,0,0-.49-1.38L207.1,71a2.2,2.2,0,0,0-1.61-.71H203a.63.63,0,0,1-.63-.63v0A.63.63,0,0,1,203,69h2.8a.64.64,0,0,1,.64.63v0ZM168.83,44.46v3.35h7.69v15.4h3.35V47.81h7.69V44.46ZM208,49.63v-.11a5.08,5.08,0,0,0-5.07-5.06h-7.6a5.06,5.06,0,0,0-5,5.06v.11a5,5,0,0,0,.88,2.87,4.55,4.55,0,0,0,.65.8,5,5,0,0,0,3.51,1.42h6.75a2.58,2.58,0,1,1,0,5.15h-5.87a2.58,2.58,0,0,1-2.57-2.58h-3.35a5.92,5.92,0,0,0,5.92,5.92h5.87a5.92,5.92,0,0,0,4.58-9.67c-.08-.08-.13-.16-.22-.24a5.86,5.86,0,0,0-4.36-1.93h-6.75a1.73,1.73,0,0,1-1.72-1.71v-.11a1.73,1.73,0,0,1,1.72-1.72h7.6a1.73,1.73,0,0,1,1.72,1.72v.11l3.35,0Z"/></svg>