<svg  fill="#fff" id="图层_1" data-name="图层 1" xmlns="http://www.w3.org/2000/svg" viewBox="0 0 294 121"><path d="M61.11,48.36a5,5,0,0,1,2.69-1.87c3-1,6-2.09,9-3.11a12.62,12.62,0,0,1,3.61-.88,9.86,9.86,0,0,1,3.18.86c2.6.9,5.18,1.85,7.77,2.78a20.3,20.3,0,0,1,2.93,1c1.14.61,1.14,1.53.1,2.27-.73.51-1.5,1-2.39,1.54l-.94-2a21.07,21.07,0,0,0-2.54,1.91,48.61,48.61,0,0,0-3.39,3.78c-.94,1.15-1.15,1.24-2.53.58-1-.48-2-1-3.07-1.39a3,3,0,0,0-3.75,1.25,24.85,24.85,0,0,1-2.29,2.3,7.89,7.89,0,0,0,1-.15c1.89-.57,2.93.11,3.53,2a10.16,10.16,0,0,0,1.66,3.4,8.62,8.62,0,0,0,2.6,1.62,7.84,7.84,0,0,0,1.08.43c1.89.78,2.5.44,2,3.26l4.47-2.71L84,61.58l7-3a1.15,1.15,0,0,1,.09.48c-.24,2.34,0,4.86-1.5,6.84a55.86,55.86,0,0,1-5.19,5.79c-1.72,1.71-3.66,3.2-5.49,4.81-.73.64-1.42,1.32-2.13,2H75.9c-1.61-1.41-3.26-2.77-4.83-4.23-2.35-2.18-4.73-4.35-6.91-6.7a7.88,7.88,0,0,1-2-3.7c-.5-2.7-.55-5.49-.81-8.24a8.61,8.61,0,0,0-.23-1.1Zm4.79,10.5-.07-.44a5.16,5.16,0,0,0-1.43.11,2.21,2.21,0,0,0-.8.88c-.05.09.21.52.32.52a2.79,2.79,0,0,0,1.18-.26A3.62,3.62,0,0,0,65.9,58.86Z"/><path d="M169.59,61.68h-6.34c-1.07,0-2.14,0-3.22,0-.93,0-1.25-.35-1.23-1.28.08-2.56.12-5.13.1-7.7,0-1.12.4-1.52,1.55-1.51,4.65.06,9.29,0,13.94,0,1.31,0,1.41.37,1,1.61-.45,1.44-1.32,1.67-2.68,1.61-2.72-.1-5.46,0-8.26,0v4.2c3.05,0,6.06,0,9.07,0,1.59,0,1.6,0,1.6,1.58,0,2.49,0,5,0,7.47,0,1.45-.19,1.63-1.66,1.63-4.49,0-9-.06-13.46,0-1.3,0-1.4-.67-1.37-1.66s-.11-1.83,1.34-1.8c2.86.07,5.72,0,8.58.05.75,0,1.09-.18,1-1C169.55,63.9,169.59,62.88,169.59,61.68Z"/><path d="M102.14,62.41c0,1.83,0,3.56,0,5.29,0,.9-.32,1.32-1.25,1.29s-2.07,0-3.1,0c-.81,0-1.15-.38-1.14-1.16q.07-7.89.13-15.78c0-.9.4-1.28,1.3-1.27q6.38.07,12.76.09c1,0,1.27.58,1.25,1.45-.07,3-.14,6-.17,9,0,.88-.42,1.14-1.26,1.12C107.89,62.39,105.11,62.41,102.14,62.41ZM102.2,59h4.13V54.18H102.2Z"/><path d="M227.86,56.59c0-1.31,0-2.49,0-3.67,0-.9.29-1.31,1.24-1.27,1.22.05,2.44,0,3.78,0v3.53c0,4.35,0,8.7,0,13,0,1.12-.42,1.45-1.46,1.43-3.69-.06-7.39-.11-11.09-.12-.86,0-1.28-.34-1.27-1.16.06-3.67.13-7.35.2-11,0-.84.63-.78,1.19-.78Zm-3.44,3.21v6.56c.9,0,1.84,0,2.78,0,.22,0,.59-.33.59-.52,0-2,0-4,0-6Z"/><path d="M152.84,61.8c1.39,1.91,2.69,3.69,4,5.48a3.27,3.27,0,0,1,.54.91c.19.65,0,1.1-.78,1.09-1.2,0-2.4.07-3.58-.06a2.38,2.38,0,0,1-1.42-.84c-1.17-1.49-2.24-3-3.61-4.54,0,1.27,0,2.54,0,3.81s-.23,1.57-1.6,1.56h-1.91c-1.45,0-1.74-.29-1.71-1.76,0-1.7.11-3.4.13-5.09,0-3.25.09-6.49,0-9.73,0-1.15.36-1.56,1.51-1.45a17.63,17.63,0,0,0,2.62,0c.87,0,1.21.3,1.2,1.18,0,2.32,0,4.65,0,7.27.94-.88,1.78-1.57,2.5-2.36a3.22,3.22,0,0,1,2.84-1.17c1,.1,2,0,3,.06.34,0,.93.25.95.43a1.51,1.51,0,0,1-.42,1.08C155.7,59.06,154.3,60.39,152.84,61.8Z"/><path d="M185.14,59.58c-3.26-.25-3.26-.25-3.29,2.7,0,1.78,0,3.55,0,5.33,0,1.56-.19,1.71-1.7,1.72-.71,0-1.43,0-2.14,0-1.1.07-1.49-.41-1.46-1.47.12-3.87.19-7.74.27-11.61,0-1.3,0-2.61,0-3.91,0-.76.31-1.09,1-1.09h2.86c.93,0,1.39.38,1.37,1.35,0,1.22,0,2.44,0,3.86h6.64c1.69,0,1.75,0,1.72,1.74-.05,3.31-.15,6.63-.18,10,0,.94-.37,1.27-1.28,1.2a17.52,17.52,0,0,0-2.51,0c-1.19.09-1.53-.49-1.5-1.56.08-2.41.12-4.81.18-7.22Z"/><path d="M118.14,64.53l.06,1.24h7.31c1.37,0,1.61.45,1.12,1.75a2.14,2.14,0,0,1-2.43,1.53c-3.29-.09-6.59-.08-9.89,0-1,0-1.48-.27-1.46-1.41.07-3.4.06-6.8,0-10.2,0-1.09.36-1.46,1.45-1.45,3.61.05,7.23,0,10.85,0,1.39,0,1.59.22,1.57,1.59,0,1.82-.07,3.64-.09,5.46,0,1-.37,1.57-1.57,1.53C122.82,64.47,120.56,64.53,118.14,64.53Zm0-5.19.14,1.76h3.11V59.34Z"/><path d="M202.93,66.3h7.4c1.36,0,1.47.32,1.06,1.56s-1.31,1.72-2.69,1.67c-3.22-.12-6.44-.11-9.65-.08-1.13,0-1.59-.38-1.55-1.51.09-3.32.16-6.64.18-10,0-1.09.36-1.52,1.53-1.49,3.61.07,7.23.06,10.84,0,.93,0,1.33.35,1.3,1.25-.06,2-.14,4.11-.16,6.16,0,.84-.37,1.1-1.16,1.09-2.1,0-4.21,0-6.31,0C202.82,65,202.56,65.28,202.93,66.3Zm3-4.67.08-1.84h-3.13v1.84Z"/><path d="M133.24,59.28c0,2,0,3.85,0,5.66,0,.71.17.87.86.86,2.11,0,4.21,0,6.32,0,1.19,0,1.39.32,1,1.45-.58,1.73-.77,1.88-2.65,1.86-3.13,0-6.27-.09-9.41-.07-1.06,0-1.44-.46-1.42-1.42l.15-10.43c0-.85.46-1.2,1.28-1.19,3.81,0,7.63,0,11.44,0,.89,0,1.12.46.93,1.22-.48,1.85-.66,2-2.61,2Z"/><path d="M212.83,60.46c0-2.49,0-5,0-7.46,0-1.33.27-1.58,1.62-1.57.87,0,1.74.07,2.62.06s1.24.33,1.23,1.2q-.12,7.88-.2,15.75c0,.84-.41,1.12-1.18,1.1s-1.83-.08-2.74,0-1.41-.31-1.39-1.36c.06-2.57,0-5.13,0-7.7Z"/><path d="M191.36,62.83c0-1.69,0-3.39,0-5.08,0-.87.33-1.25,1.17-1.24,1.11,0,2.22,0,3.32.13a1.16,1.16,0,0,1,.75.85c0,3.59,0,7.18,0,10.77,0,.79-.36,1.16-1.16,1.15-1,0-2,0-3,0s-1.16-.37-1.14-1.23C191.39,66.39,191.36,64.61,191.36,62.83Z"/><path d="M194,56c-2.42-.06-2.72.61-2.59-2.64.08-2,.06-2,2.33-2,3.57,0,2.87-.11,2.9,2.65,0,2.16.33,2-2.05,2Z"/></svg>