<svg  fill="#fff" id="图层_1" data-name="图层 1" xmlns="http://www.w3.org/2000/svg" viewBox="0 0 294 121"><path d="M96.42,36.5a24,24,0,1,0,24,24A24,24,0,0,0,96.42,36.5Zm0,44.28A20.28,20.28,0,1,1,116.7,60.5,20.28,20.28,0,0,1,96.42,80.78Z"/><path d="M108.82,78.06,96.38,69,84.2,78.08,89,63.68l-12.41-9H91.8l4.58-14.58,4.74,14.58h15L104,63.51Z"/><path d="M141.48,51.78v5.91H141A7.24,7.24,0,0,0,140.2,55a4.22,4.22,0,0,0-1.67-1.6,4.66,4.66,0,0,0-2.24-.59,3.08,3.08,0,0,0-2.17.8,2.44,2.44,0,0,0-.86,1.82,2.14,2.14,0,0,0,.55,1.43,14,14,0,0,0,3.71,2.52,26.37,26.37,0,0,1,3.28,2A5,5,0,0,1,142.15,63a4.4,4.4,0,0,1-1,5.3,5.45,5.45,0,0,1-3.88,1.41,8.7,8.7,0,0,1-1.39-.11,16.21,16.21,0,0,1-1.62-.46,7,7,0,0,0-1.56-.4.65.65,0,0,0-.5.19,1.49,1.49,0,0,0-.27.78h-.47V63.8h.47a8.35,8.35,0,0,0,.88,2.75,4.23,4.23,0,0,0,1.7,1.52,5.28,5.28,0,0,0,2.5.61,3.54,3.54,0,0,0,2.49-.84,2.56,2.56,0,0,0,.91-2A2.7,2.7,0,0,0,140,64.6,3.83,3.83,0,0,0,139,63.41a28.38,28.38,0,0,0-2.69-1.61,26.19,26.19,0,0,1-3.12-2,5.41,5.41,0,0,1-1.4-1.62,4,4,0,0,1-.48-1.94,4.23,4.23,0,0,1,1.41-3.17,5,5,0,0,1,3.59-1.33,7.15,7.15,0,0,1,2.89.67,2.89,2.89,0,0,0,1,.31.73.73,0,0,0,.53-.19,1.58,1.58,0,0,0,.34-.79Z"/><path d="M148.17,53.93v3.79h2.69v.88h-2.69v7.49a2.46,2.46,0,0,0,.32,1.51,1,1,0,0,0,.82.4,1.47,1.47,0,0,0,.81-.26,1.76,1.76,0,0,0,.61-.77h.49A3.92,3.92,0,0,1,150,68.83a2.68,2.68,0,0,1-1.67.63,2.28,2.28,0,0,1-1.13-.32,2,2,0,0,1-.82-.92,4.81,4.81,0,0,1-.26-1.85V58.6h-1.83v-.41a5,5,0,0,0,1.42-.94A7.73,7.73,0,0,0,147,55.68a14.81,14.81,0,0,0,.8-1.75Z"/><path d="M158.53,67.6a19,19,0,0,1-2.23,1.59,3.45,3.45,0,0,1-1.45.32,2.6,2.6,0,0,1-2-.82,3.05,3.05,0,0,1-.77-2.16,2.76,2.76,0,0,1,.38-1.46,4.94,4.94,0,0,1,1.79-1.61,27.69,27.69,0,0,1,4.26-1.84v-.46a3.74,3.74,0,0,0-.55-2.37,2,2,0,0,0-1.59-.64,1.77,1.77,0,0,0-1.26.43,1.27,1.27,0,0,0-.48,1l0,.73a1.3,1.3,0,0,1-.29.9,1,1,0,0,1-.78.31,1,1,0,0,1-.76-.33,1.24,1.24,0,0,1-.3-.89,2.57,2.57,0,0,1,1.11-2,4.76,4.76,0,0,1,3.11-.91,5.37,5.37,0,0,1,2.53.52,2.34,2.34,0,0,1,1.09,1.22,6.89,6.89,0,0,1,.23,2.22v3.92a18.68,18.68,0,0,0,.06,2,.87.87,0,0,0,.21.5.53.53,0,0,0,.34.13.68.68,0,0,0,.35-.09,8.49,8.49,0,0,0,1-.92v.7c-.94,1.27-1.84,1.9-2.7,1.9a1.24,1.24,0,0,1-1-.43A2.32,2.32,0,0,1,158.53,67.6Zm0-.82V62.39a24,24,0,0,0-2.46,1.07,4.13,4.13,0,0,0-1.42,1.16,2.19,2.19,0,0,0-.43,1.32,2.17,2.17,0,0,0,.54,1.51,1.64,1.64,0,0,0,1.25.6A4.52,4.52,0,0,0,158.53,66.78Z"/><path d="M166.83,57.38V60c1-1.73,1.95-2.6,3-2.6a1.63,1.63,0,0,1,1.15.42,1.31,1.31,0,0,1,.45,1,1.15,1.15,0,0,1-.33.83,1,1,0,0,1-.78.34,1.68,1.68,0,0,1-1-.43,1.61,1.61,0,0,0-.81-.44.79.79,0,0,0-.49.25A6.1,6.1,0,0,0,166.83,61v5.53a3.42,3.42,0,0,0,.24,1.45,1.23,1.23,0,0,0,.58.57,2.52,2.52,0,0,0,1.19.22v.46h-5.91v-.46a2.49,2.49,0,0,0,1.31-.27,1.07,1.07,0,0,0,.44-.65,6.36,6.36,0,0,0,.07-1.22V62.2a17.09,17.09,0,0,0-.09-2.41.92.92,0,0,0-.3-.56.9.9,0,0,0-.55-.17,2.41,2.41,0,0,0-.88.19l-.13-.46,3.5-1.41Z"/><path d="M175.21,59.71c1.12-1.55,2.32-2.33,3.62-2.33a4,4,0,0,1,3.1,1.52,6.12,6.12,0,0,1,1.32,4.15,6.43,6.43,0,0,1-2,5,5.66,5.66,0,0,1-3.91,1.61,6.29,6.29,0,0,1-2.05-.36,9.56,9.56,0,0,1-2.12-1.1v-12a18.23,18.23,0,0,0-.09-2.42,1.12,1.12,0,0,0-.3-.61.78.78,0,0,0-.51-.17,2.74,2.74,0,0,0-.88.2l-.17-.44,3.46-1.41h.57Zm0,.81v6.91a4.75,4.75,0,0,0,1.33.95,3.37,3.37,0,0,0,1.41.32,2.76,2.76,0,0,0,2.13-1.26,5.84,5.84,0,0,0,1-3.67,5.21,5.21,0,0,0-1-3.41,2.9,2.9,0,0,0-2.25-1.19,2.86,2.86,0,0,0-1.33.34A5.59,5.59,0,0,0,175.21,60.52Z"/><path d="M191.5,67.6a19,19,0,0,1-2.23,1.59,3.45,3.45,0,0,1-1.45.32,2.6,2.6,0,0,1-2-.82,3.05,3.05,0,0,1-.77-2.16,2.76,2.76,0,0,1,.38-1.46,4.94,4.94,0,0,1,1.79-1.61,27.69,27.69,0,0,1,4.26-1.84v-.46a3.74,3.74,0,0,0-.55-2.37,2,2,0,0,0-1.59-.64,1.77,1.77,0,0,0-1.26.43,1.27,1.27,0,0,0-.48,1l0,.73a1.3,1.3,0,0,1-.29.9,1,1,0,0,1-.78.31,1,1,0,0,1-.76-.33,1.24,1.24,0,0,1-.3-.89,2.57,2.57,0,0,1,1.11-2,4.76,4.76,0,0,1,3.11-.91,5.37,5.37,0,0,1,2.53.52,2.34,2.34,0,0,1,1.09,1.22,6.89,6.89,0,0,1,.23,2.22v3.92a18.68,18.68,0,0,0,.06,2,.87.87,0,0,0,.21.5.53.53,0,0,0,.34.13.68.68,0,0,0,.35-.09,8.49,8.49,0,0,0,1-.92v.7c-.94,1.27-1.84,1.9-2.7,1.9a1.24,1.24,0,0,1-1-.43A2.32,2.32,0,0,1,191.5,67.6Zm0-.82V62.39A24,24,0,0,0,189,63.46a4.13,4.13,0,0,0-1.42,1.16,2.19,2.19,0,0,0-.43,1.32,2.17,2.17,0,0,0,.54,1.51,1.64,1.64,0,0,0,1.25.6A4.52,4.52,0,0,0,191.5,66.78Z"/><path d="M199.78,59.83q2-2.44,3.87-2.45a2.82,2.82,0,0,1,1.63.47,3.18,3.18,0,0,1,1.08,1.56,7,7,0,0,1,.28,2.32v4.93a4.1,4.1,0,0,0,.18,1.49,1,1,0,0,0,.45.49,2.49,2.49,0,0,0,1.14.17v.46H202.7v-.46h.24a1.94,1.94,0,0,0,1.12-.24,1.24,1.24,0,0,0,.45-.73,7.78,7.78,0,0,0,.05-1.18V61.93a4.86,4.86,0,0,0-.41-2.29,1.46,1.46,0,0,0-1.38-.71,4.17,4.17,0,0,0-3,1.64v6.09a4.44,4.44,0,0,0,.14,1.45,1.15,1.15,0,0,0,.49.53,2.86,2.86,0,0,0,1.25.17v.46H196v-.46h.25a1.34,1.34,0,0,0,1.19-.44,3.23,3.23,0,0,0,.31-1.71V62.37a19.53,19.53,0,0,0-.09-2.53,1.09,1.09,0,0,0-.29-.62.79.79,0,0,0-.52-.16,2.35,2.35,0,0,0-.85.19l-.19-.46,3.48-1.41h.54Z"/><path d="M212.74,51.34v11.5l2.94-2.69a11.62,11.62,0,0,0,1.09-1.08.6.6,0,0,0,.1-.3.56.56,0,0,0-.21-.44,1.17,1.17,0,0,0-.69-.21v-.4h5v.4a4.88,4.88,0,0,0-1.72.32,5.63,5.63,0,0,0-1.51,1l-3,2.74,3,3.74c.83,1,1.38,1.69,1.67,2a3.53,3.53,0,0,0,1,.77,3.48,3.48,0,0,0,1.1.12v.46H216v-.46a1.09,1.09,0,0,0,.65-.14.45.45,0,0,0,.17-.37,2,2,0,0,0-.5-.94l-3.55-4.52v3.83a4.52,4.52,0,0,0,.16,1.48,1.06,1.06,0,0,0,.45.5,3.22,3.22,0,0,0,1.26.16v.46h-5.88v-.46a3.26,3.26,0,0,0,1.33-.21.89.89,0,0,0,.4-.43,3.73,3.73,0,0,0,.19-1.44V56.22a18.38,18.38,0,0,0-.09-2.45,1,1,0,0,0-.29-.62.8.8,0,0,0-.53-.17,2.43,2.43,0,0,0-.79.21l-.22-.44,3.43-1.41Z"/></svg>