<svg xmlns="http://www.w3.org/2000/svg" viewBox="0 0 34.93 29.67"><defs><style>.cls-1{fill:#fc00ff;}.cls-2{fill:#1476FF;}</style></defs><g id="图层_2" data-name="图层 2"><g id="图层_1-2" data-name="图层 1"><path class="cls-1" d="M13.2,27.88,26,9.39a2.51,2.51,0,0,1-1-1.61,2.43,2.43,0,0,1,.4-1.87L18.55,1.16a2.49,2.49,0,0,1-3.48.63L2.25,20.28a2.52,2.52,0,0,1,.63,3.49l6.84,4.74a2.52,2.52,0,0,1,1.61-1,2.48,2.48,0,0,1,1.87.41Z"/><path class="cls-2" d="M9.93,29.67,1.72,24l.48-.68A1.68,1.68,0,0,0,2.47,22,1.66,1.66,0,0,0,1.78,21l-.7-.48L14.86.63l.68.47A1.67,1.67,0,0,0,17.87.68L18.34,0l8.21,5.69-.47.69a1.63,1.63,0,0,0-.28,1.25,1.66,1.66,0,0,0,.7,1.07l.68.47L13.41,29l-.68-.47a1.67,1.67,0,0,0-2.32.42Zm-6-6.19L9.59,27.4a3.34,3.34,0,0,1,3.33-.6l12-17.3a3.36,3.36,0,0,1-.6-3.33L18.67,2.26a3.33,3.33,0,0,1-3.33.6l-12,17.29A3.36,3.36,0,0,1,4,23.48Z"/><path class="cls-2" d="M12.73,16.86a3.83,3.83,0,0,1-1.52-2,2.65,2.65,0,0,1,.32-2.32,3.2,3.2,0,0,1,4.48-.4,3.92,3.92,0,0,1,1.52,2,2.59,2.59,0,0,1-2.38,3.43,3.87,3.87,0,0,1-2.42-.71Zm2.63-3.79a2.09,2.09,0,0,0-2.89.1,1.52,1.52,0,0,0-.15,1.33,2.64,2.64,0,0,0,1.07,1.41,2.74,2.74,0,0,0,1.69.51,1.45,1.45,0,0,0,1.19-.62,1.4,1.4,0,0,0,.15-1.33,2.64,2.64,0,0,0-1.06-1.4Z"/><polygon class="cls-2" points="20.66 7.5 19.88 8.5 21.14 8.63 19.97 9.1 20.98 9.85 19.73 9.67 20.24 10.82 19.25 10.04 19.11 11.3 18.64 10.13 17.9 11.14 18.08 9.9 16.92 10.4 17.7 9.41 16.45 9.27 17.62 8.8 16.6 8.06 17.85 8.24 17.34 7.08 18.34 7.86 18.47 6.61 18.94 7.78 19.69 6.76 19.51 8.01 20.66 7.5"/><polygon class="cls-2" points="13.04 21.92 12.73 21.05 11.81 21.08 12.41 20.38 11.92 19.59 12.83 19.76 13.26 18.95 13.57 19.82 14.49 19.79 13.89 20.49 14.38 21.27 13.47 21.1 13.04 21.92"/><polygon class="cls-2" points="9.07 20.53 8.46 20.13 8.01 20.71 7.94 19.98 7.21 19.99 7.74 19.48 7.27 18.91 8 19.01 8.15 18.29 8.53 18.92 9.18 18.59 8.93 19.28 9.59 19.59 8.9 19.82 9.07 20.53"/><circle class="cls-2" cx="8.32" cy="23.62" r="0.62"/><circle class="cls-2" cx="11.25" cy="23.02" r="0.49"/><circle class="cls-2" cx="2.25" cy="8.66" r="2.25"/><circle class="cls-2" cx="27.18" cy="19.5" r="1.46"/><polygon class="cls-2" points="33.64 6.96 32.27 5.86 30.52 5.67 31.62 4.3 31.81 2.55 33.18 3.65 34.93 3.83 33.83 5.21 33.64 6.96"/></g></g></svg>