<svg  xmlns="http://www.w3.org/2000/svg" xmlns:xlink="http://www.w3.org/1999/xlink" width="80px" height="40px"><path fill-rule="evenodd"  fill="rgb(27, 211, 213)" d="M12.000,0.000 L68.000,0.000 C74.628,0.000 80.000,5.373 80.000,12.000 L80.000,28.000 C80.000,34.627 74.628,40.000 68.000,40.000 L12.000,40.000 C5.372,40.000 -0.000,34.627 -0.000,28.000 L-0.000,12.000 C-0.000,5.373 5.372,0.000 12.000,0.000 Z"/><path fill-rule="evenodd"  fill="rgb(31, 37, 42)" d="M54.000,6.000 L62.000,6.000 C68.628,6.000 74.000,11.373 74.000,18.000 L74.000,22.000 C74.000,28.627 68.628,34.000 62.000,34.000 L54.000,34.000 C47.372,34.000 42.000,28.627 42.000,22.000 L42.000,18.000 C42.000,11.373 47.372,6.000 54.000,6.000 Z"/></svg>