<svg  xmlns="http://www.w3.org/2000/svg" xmlns:xlink="http://www.w3.org/1999/xlink" width="80px" height="40px"><path fill-rule="evenodd"  fill="rgb(39, 46, 50)" d="M12.000,0.000 L68.000,0.000 C74.628,0.000 80.000,5.373 80.000,12.000 L80.000,28.000 C80.000,34.627 74.628,40.000 68.000,40.000 L12.000,40.000 C5.372,40.000 -0.000,34.627 -0.000,28.000 L-0.000,12.000 C-0.000,5.373 5.372,0.000 12.000,0.000 Z"/><path fill-rule="evenodd"  fill="rgb(31, 37, 42)" d="M18.000,6.000 L26.000,6.000 C32.628,6.000 38.000,11.373 38.000,18.000 L38.000,22.000 C38.000,28.627 32.628,34.000 26.000,34.000 L18.000,34.000 C11.372,34.000 6.000,28.627 6.000,22.000 L6.000,18.000 C6.000,11.373 11.372,6.000 18.000,6.000 Z"/></svg>